<svg width="19" height="15" viewBox="0 0 19 15" fill="none" xmlns="http://www.w3.org/2000/svg">
<path d="M0.950013 8.20466C0.762542 8.01713 0.657227 7.76282 0.657227 7.49766C0.657227 7.23249 0.762542 6.97818 0.950013 6.79066L6.60701 1.13366C6.69926 1.03815 6.8096 0.961965 6.93161 0.909556C7.05361 0.857147 7.18483 0.829561 7.31761 0.828407C7.45039 0.827253 7.58207 0.852555 7.70497 0.902836C7.82786 0.953117 7.93951 1.02737 8.03341 1.12126C8.1273 1.21516 8.20155 1.32681 8.25183 1.4497C8.30211 1.5726 8.32742 1.70428 8.32626 1.83706C8.32511 1.96984 8.29752 2.10106 8.24511 2.22306C8.19271 2.34507 8.11652 2.45541 8.02101 2.54766L4.07101 6.49766H17.314C17.5792 6.49766 17.8336 6.60301 18.0211 6.79055C18.2087 6.97809 18.314 7.23244 18.314 7.49766C18.314 7.76287 18.2087 8.01723 18.0211 8.20476C17.8336 8.3923 17.5792 8.49766 17.314 8.49766H4.07101L8.02101 12.4477C8.20317 12.6363 8.30396 12.8889 8.30169 13.1511C8.29941 13.4133 8.19424 13.6641 8.00883 13.8495C7.82342 14.0349 7.57261 14.1401 7.31041 14.1423C7.04822 14.1446 6.79561 14.0438 6.60701 13.8617L0.950013 8.20466Z" fill="#FFF4E6"/>
</svg>
