<svg width="14" height="14" viewBox="0 0 14 14" fill="none" xmlns="http://www.w3.org/2000/svg">
<path d="M13.5322 1.64478C13.5322 1.37961 13.4268 1.12532 13.2393 0.937823C13.0518 0.750323 12.7975 0.64497 12.5324 0.64493L4.53217 0.64493C4.39941 0.642622 4.26752 0.666779 4.14419 0.71599C4.02086 0.765201 3.90857 0.838481 3.81386 0.931554C3.71916 1.02463 3.64394 1.13563 3.59259 1.25808C3.54124 1.38054 3.5148 1.51199 3.5148 1.64478C3.5148 1.77756 3.54124 1.90902 3.59259 2.03147C3.64394 2.15393 3.71916 2.26493 3.81386 2.358C3.90857 2.45108 4.02086 2.52436 4.14419 2.57357C4.26752 2.62278 4.39941 2.64693 4.53217 2.64463L10.1183 2.64463L0.754103 12.0088C0.566567 12.1964 0.46121 12.4507 0.46121 12.7159C0.46121 12.9812 0.566567 13.2355 0.754103 13.4231C0.94164 13.6106 1.19599 13.7159 1.46121 13.7159C1.72643 13.7159 1.98078 13.6106 2.16832 13.4231L11.5325 4.05884L11.5325 9.64499C11.5371 9.90715 11.6444 10.157 11.8314 10.3408C12.0185 10.5246 12.2702 10.6276 12.5324 10.6276C12.7946 10.6276 13.0463 10.5246 13.2333 10.3408C13.4203 10.157 13.5277 9.90715 13.5322 9.64499L13.5322 1.64478Z" fill="#FFF4E6"/>
</svg>
