<svg width="178" height="99" viewBox="0 0 178 99" fill="none" xmlns="http://www.w3.org/2000/svg">
<path d="M169.056 56.1341C160.565 66.7451 141.955 80.8092 93.9965 83.4832C45.7609 86.2027 27.7575 76.2067 17.0474 68.8851C7.15432 62.1771 4.69666 50.5608 4.89331 43.2362C14.6679 36.3941 62.0302 33.471 89.467 31.8996C113.264 30.5792 160.276 30.1977 175.222 33.5909C175.446 41.1404 176.137 47.2505 169.056 56.1341Z" fill="url(#paint0_radial_337_2544)"/>
<path opacity="0.5" d="M89.4557 31.9815C62.0189 33.5529 14.6567 36.4761 4.88204 43.3182C4.76974 48.0646 5.74742 54.7154 9.26017 60.6289C10.1448 60.7507 11.0068 61.0364 11.7465 61.5559C11.8237 61.65 11.9009 61.7442 12.0778 61.7685C12.7873 61.1978 14.0049 60.8641 15.0759 61.5963C16.2354 62.3406 16.9959 63.3642 17.6566 64.4576C18.5318 63.9933 19.7927 63.9997 20.5645 64.9413C20.6417 65.0354 20.6417 65.0354 20.7189 65.1296C20.8073 65.1418 20.8958 65.1539 20.9955 65.0841C21.1178 64.8503 21.2289 64.6985 21.3512 64.4647C22.1735 63.0741 24.6842 63.169 25.3995 64.5205C25.488 64.5327 25.4993 64.4507 25.5877 64.4629L25.6762 64.4751C25.6762 64.4751 25.7647 64.4872 25.7759 64.4052C26.1636 64.208 26.6398 64.0229 27.0821 64.0837C29.5382 63.9204 30.2084 65.6 31.4884 66.7786C32.1414 66.6178 32.8491 66.7152 33.4232 67.1283C33.7563 66.6729 34.3434 66.336 35.0737 66.2694C36.2575 66.1817 37.4057 67.008 37.4585 67.9342C37.4472 68.0162 37.4359 68.0982 37.5018 68.2743C38.1211 68.3595 38.7403 68.4448 39.3482 68.6119C39.3482 68.6119 39.4367 68.6241 39.5251 68.6363C39.8036 67.9227 40.5789 67.5282 41.3976 67.4737C42.5399 66.3778 44.8286 66.7763 45.2786 68.0913C45.8865 68.2585 46.5603 68.6018 46.8352 69.2244C46.9783 69.4948 47.2324 69.6133 47.4978 69.6498C47.4544 69.3096 47.4996 68.9817 47.5447 68.6537C48.0488 66.3004 52.4492 67.073 51.8566 69.4141C51.8454 69.4961 51.8341 69.5781 51.8341 69.5781L51.8228 69.6601C51.8115 69.7421 51.8115 69.7421 51.8002 69.8241C51.8002 69.8241 51.7889 69.9061 51.8774 69.9182C51.8661 70.0002 51.9546 70.0124 51.9433 70.0944L52.0205 70.1886L52.0977 70.2827C52.1861 70.2949 52.5174 70.5076 52.4289 70.4954L52.5174 70.5076C52.6059 70.5197 52.6943 70.5319 52.7828 70.5441C53.1515 69.1746 55.9294 68.6379 56.976 70.2021C59.9195 69.7717 62.8161 70.3374 65.7673 71.1611C66.4976 71.0945 67.3709 71.2983 67.8452 71.7813C67.9337 71.7934 68.1106 71.8177 68.1878 71.9119C68.2763 71.9241 68.3647 71.9363 68.4645 71.8665C69.3188 70.898 71.1765 71.1536 71.9595 72.0132C72.0254 72.1893 72.2023 72.2137 72.368 72.32C72.59 72.0164 72.989 71.7371 73.4538 71.634C77.583 70.4478 84.1136 68.8402 88.1679 70.8183C89.8581 71.6356 91.1173 72.3101 92.9785 71.2296C93.6654 70.8228 94.4634 70.2643 95.2162 70.0337C97.3748 69.4118 98.9558 69.7129 101.022 70.415C104.647 71.5821 110.246 66.9223 114.274 66.4739C117.195 66.2075 119.161 66.9794 120.274 68.7198C122.798 68.0646 125.026 66.2826 127.668 66.7298C128.376 66.8271 131.034 65.8561 131.523 64.9209C132.001 64.0678 133.429 63.5124 134.523 64.0806C136.29 64.9921 138.757 64.7468 140.839 64.0308C140.643 62.8342 141.631 61.55 143.389 61.8754C145.589 62.2617 148.056 62.0164 149.459 62.9612C149.683 61.9895 149.001 60.392 149.345 59.8546C149.923 58.9316 151.086 58.3397 152.204 58.0759C154.805 57.5148 158.789 56.7264 161.342 57.8294C161.773 57.9723 162.258 58.3733 162.567 58.7499C162.644 58.8441 162.644 58.8441 162.644 58.8441C162.689 58.5161 162.845 58.0363 163.201 57.4169C164.035 55.9443 164.955 55.152 166.682 54.3873C168.886 53.4374 168.304 51.77 169.757 50.3826C170.489 49.6479 172.072 49.2809 173.555 48.9838C175.926 43.5456 175.485 38.8901 175.311 33.6031C160.276 30.1977 113.264 30.5792 89.4557 31.9815Z" fill="#C66F27"/>
<path d="M175.067 34.0707C176.096 46.2423 138.842 58.2422 91.7901 60.874C44.7384 63.5057 5.77828 55.8056 4.73777 43.716C3.70855 31.5444 40.9628 19.5446 88.0145 16.9128C135.078 14.1991 174.038 21.8991 175.067 34.0707Z" fill="#FACE76"/>
<path d="M91.7808 60.288C89.8781 60.3603 87.6927 58.5559 86.2079 59.5211C83.5374 61.2422 77.0348 60.6816 74.9907 59.8156C72.1731 58.676 69.3578 60.7949 66.3822 60.8031C63.7717 60.7781 62.1154 59.7148 59.5275 59.5258C57.8242 59.4585 55.0896 60.3353 53.4861 60.1982C51.3405 60.0701 48.7449 58.6269 46.6106 58.4168C45.0955 58.2918 43.9532 59.3877 42.5379 59.193C40.9456 58.9739 39.662 59.1315 38.2467 58.9367C36.7429 58.7298 35.1185 58.0886 33.7145 57.8118C32.045 57.4986 29.1841 56.0189 27.6144 55.6358C23.6016 54.6659 21.2453 54.7594 18.1736 53.5013C16.4608 52.8479 15.3857 49.5254 13.6788 50.7943C11.4845 52.3303 9.11631 48.5792 7.53891 46.942C6.35868 45.6935 5.36665 44.3875 4.73974 43.0481C4.53846 43.8558 5.10538 46.9413 5.18076 47.7035C5.33153 49.228 6.03562 50.6616 7.29303 52.0042C7.84455 52.5813 8.69889 51.6128 8.9512 52.3994C9.33529 53.5383 12.6291 54.4928 13.2108 56.1601C13.6175 57.135 16.0208 56.0455 16.691 57.725C17.2954 59.2284 20.2466 60.0522 22.3245 60.6723C24.2255 61.268 25.3488 58.9999 27.5377 59.4682C29.5497 59.9121 33.1748 61.0792 34.6091 62.4462C36.5326 62.8779 40.7051 62.0319 42.8245 63.6602C45.2129 63.9888 46.5773 62.5892 48.1808 62.7263C50.1382 62.9121 52.8769 64.6256 54.9227 64.8236C57.776 65.0491 58.9355 65.7935 61.8 65.937C63.6802 66.0286 67.3842 66.6218 67.3801 64.0315C69.4485 64.0655 70.4257 66.7897 75.6615 65.4216C77.344 64.9848 80.4585 62.6565 81.1626 64.09C82.2075 66.3223 87.2384 67.0981 89.8655 65.0369C90.4752 64.536 93.2306 64.1633 94.0493 64.1089C95.7751 64.0122 95.8618 64.6924 97.5876 64.5957C99.1366 64.4747 98.6207 62.9835 100.17 62.8625C102.172 62.7203 106.162 63.8541 108.176 63.63C110.002 63.4635 112.153 61.5874 113.89 61.4087C116.368 61.0814 116.075 63.2131 123.325 61.6209C124.808 61.3237 125.001 59.2618 126.473 59.0466C129.516 58.5464 136.134 61.5455 136.55 59.18C136.841 57.7164 142.687 59.774 141.387 58.0912C139.943 56.1382 149.074 53.9695 148.969 56.0435C148.911 57.1216 152.876 51.2344 152.268 54.9938C152.009 56.8795 157.079 51.4786 158.236 52.891C159.857 54.8684 161.104 51.6983 162.356 51.1187C164.383 50.1444 166.343 45.0675 167.894 48.2049C168.664 49.8146 170.57 44.4796 172.106 45.1086C176.206 46.7588 173.77 43.4996 174.336 42.6586C175.358 41.1284 175.849 39.5251 175.787 38.0128C175.711 37.2505 175.775 34.1682 175.346 33.3573C175.088 34.575 174.465 35.8259 173.677 36.9706C172.655 38.5008 170.221 38.5001 169.154 40.3583C167.165 43.6769 164.893 41.1922 163.913 43.7307C163.368 45.0758 161.772 46.1929 160.044 46.9576C158.217 47.7922 154.434 47.773 152.352 48.489C150.071 49.3448 149.834 51.0666 147.299 51.8038C144.864 52.4712 141.954 52.6556 139.254 53.2865C137.759 53.6656 133.165 54.955 131.671 55.3341C129.811 55.7466 127.491 54.926 125.554 55.2443C122.311 55.8842 122.519 56.9987 119.033 57.4381C116.278 57.8108 113.15 56.9627 110.59 58.532C108.031 60.1012 103.608 59.4927 100.879 58.3652C97.9386 57.4595 94.779 60.1157 91.7808 60.288Z" fill="#F3BA60"/>
<defs>
<radialGradient id="paint0_radial_337_2544" cx="0" cy="0" r="1" gradientUnits="userSpaceOnUse" gradientTransform="translate(85.1435 -9.24708) rotate(-3.23383) scale(132.778 109.903)">
<stop stop-color="#EF9F51"/>
<stop offset="0.4967" stop-color="#EF9D4F"/>
<stop offset="0.6756" stop-color="#ED9649"/>
<stop offset="0.8031" stop-color="#EA8B3F"/>
<stop offset="0.9055" stop-color="#E67A31"/>
<stop offset="0.9928" stop-color="#E1641E"/>
<stop offset="1" stop-color="#E0621C"/>
</radialGradient>
</defs>
</svg>
