<svg width="186" height="159" viewBox="0 0 186 159" fill="none" xmlns="http://www.w3.org/2000/svg">
<path d="M179.743 81.1789C179.287 53.1226 141.235 33.1337 94.7011 36.6276C48.1667 40.1216 10.8132 65.6181 11.3074 93.7477C11.4988 106.067 49.4045 113.246 95.8597 109.793C142.394 106.299 179.934 93.4985 179.743 81.1789Z" fill="url(#paint0_linear_1141_12691)"/>
<path d="M179.331 76.7249C179.132 76.9223 178.894 77.0464 178.657 77.1705C177.853 78.5243 176.661 79.5208 174.808 80.0225C172.875 80.5656 170.758 80.1778 169.336 80.7341C165.9 82.063 162.932 80.6256 159.986 83.4722C158.435 84.9368 156.674 87.3511 154.695 88.385C154.22 88.6331 153.786 88.7666 153.431 88.8586C152.561 89.3136 151.501 89.2137 150.84 88.7189C150.487 88.623 150.135 88.527 149.744 88.3576C149.001 88.0923 147.836 87.0202 146.843 87.8192C146.167 88.4528 145.771 88.6596 144.901 89.1145C143.042 89.9924 141.76 88.8882 140.187 88.9631C140.029 89.0458 139.753 89.0965 139.518 89.0325C139.163 89.1246 138.729 89.2581 138.254 89.5062C135.918 90.8202 133.925 92.9825 131.395 94.1178C130.012 94.7475 128.434 95.1985 126.899 95.3468C126.386 95.5216 125.796 95.5497 125.405 95.3803C124.895 95.3671 124.267 95.3218 123.758 95.1205C121.212 94.4899 118.837 92.8364 116.154 93.6784C114.576 94.1294 112.919 94.6217 111.389 94.3939C110.511 95.413 108.859 95.5292 107.925 94.8972C107.294 95.04 106.625 95.1094 105.956 95.1788L105.877 95.2202C105.239 95.9272 104.177 96.0153 103.316 95.718C102.959 95.9982 102.525 96.1316 102.131 96.1503C99.8031 96.9002 96.8515 97.2287 94.7444 96.0886C92.2467 94.7792 92.5051 96.0449 90.3683 97.1615C88.469 98.1541 86.5462 97.9449 84.5801 98.0385C82.4051 99.0818 80.0334 100.134 77.7916 100.279C77.2809 100.266 76.7702 100.252 76.2595 100.239C75.4323 100.391 74.4925 100.135 74.0276 99.6311C73.0903 99.1871 72.3929 98.431 72.4078 97.3026C72.4152 96.7384 72.3818 96.289 72.545 95.8302C71.5929 96.5145 70.569 96.676 69.3894 96.7322C66.3611 96.914 62.7987 95.8808 60.8191 94.0205C60.6633 93.9152 60.5458 93.8832 60.3108 93.8192C59.3204 94.4302 58.6106 94.6143 57.5484 94.7025C55.8482 95.4976 53.9872 96.5635 52.925 96.6517C51.7837 96.7812 50.6548 95.9705 50.7079 94.9155C50.7079 94.9155 50.7079 94.9155 50.6696 94.8421C50.478 94.4754 50.3271 93.9939 50.1763 93.5125C49.584 93.7286 49.0708 93.9034 48.5168 94.1929C48.2003 94.3583 47.9245 94.409 47.608 94.5744C43.9169 97.3438 40.1702 95.3797 37.8073 92.7859C37.0283 92.2592 36.2876 91.8058 35.4678 91.3938C34.6863 91.0551 33.9815 90.8632 33.1975 90.7125C33.0392 90.7953 32.881 90.878 32.7227 90.9607C31.5739 91.6544 30.0852 91.3118 29.0712 90.7211C27.2226 90.8467 25.4123 91.0457 23.607 90.8685C22.0774 90.6407 21.0993 90.3114 20.3995 89.7433C19.8455 90.0328 19.0974 90.1436 18.1935 90.149C16.6614 90.1092 15.8082 89.2478 16.0605 87.9954C16.4018 85.9494 15.8219 85.2252 13.9857 84.4106C13.5949 84.2412 13.1275 83.9252 12.7776 83.6412C11.8316 86.8436 11.2763 90.2153 11.39 93.5176C11.5815 105.837 49.4872 113.016 95.9424 109.563C142.477 106.069 180.017 93.2684 179.825 80.9488C179.764 79.6737 179.587 78.1787 179.331 76.7249Z" fill="url(#paint1_linear_1141_12691)"/>
<path d="M92.7141 103.966C92.0897 100.65 88.2798 106.47 82.3619 102.279C80.1423 100.731 79.4968 107.978 70.3032 104.845C69.6022 101.383 65.2891 106.625 61.3706 102.79C58.5822 102.659 56.0831 104.432 53.4914 104.293C51.4894 104.125 51.8122 100.501 49.8795 101.044C38.9115 104.348 48.5057 100.922 41.7976 100.038C39.1204 103.398 35.9414 97.1221 35.0956 101.673C30.0802 100.559 33.2705 97.0238 28.3046 98.1248C24.2994 100.871 24.2662 94.4456 23.2881 94.1163C21.3319 93.4577 24.2117 98.5828 18.0699 96.4697C16.7011 95.971 17.4752 90.8974 15.4868 92.6835C13.7384 94.1575 12.5749 90.0031 12.0048 88.5268C11.7068 90.27 11.6437 92.0772 11.6598 93.8431C11.8512 106.163 49.7569 113.341 96.2121 109.889C142.746 106.395 180.286 93.5939 180.095 81.2742C180.079 79.5084 179.866 77.7519 179.575 76.0367C177.828 83.2991 173.522 79.1064 173.889 84.0505C174.161 87.2701 168.37 88.3352 165.417 85.7695C162.964 87.0515 165.072 91.0858 162.067 92.4693C156.849 94.8227 157.345 89.9878 152.495 94.2031C150.826 95.6357 144.03 92.4637 143.775 93.9041C146.329 99.9469 137.198 95.0067 134.897 99.6644C134.211 101.05 131.026 98.2325 129.203 99.3717C121.956 103.626 128.308 95.7307 122.113 100.649C120.961 101.531 113.781 100.707 113.838 102.359C113.918 105.211 111.356 102.815 106.501 101.43C98.8102 100.593 108.969 104.996 92.7141 103.966Z" fill="#F3BA60"/>
<path opacity="0.5" d="M96.4722 108.072C93.0309 109.777 88.1145 107.116 85.0306 108.541C83.4095 109.295 81.305 107.967 79.4972 107.978C77.2961 108.008 75.9483 108.899 73.7089 108.855C71.5079 108.885 68.6169 107.594 66.7584 108.472C64.7416 109.432 60.5869 108.615 58.3884 108.457C56.1898 108.298 55.4158 107.396 53.2964 107.196C51.1769 106.996 49.0427 107.925 47.0024 107.683C45.1587 107.433 43.7516 106.861 41.9871 106.569C40.575 106.373 39.3112 106.847 37.9782 106.61C36.2929 106.276 33.2386 105.445 31.7499 105.102C30.496 104.823 30.3118 103.893 26.7902 102.745C25.1073 102.223 22.2632 103.336 20.0078 101.527C19.0347 100.821 18.6205 99.4501 17.6065 98.8594C16.3193 98.1314 14.8207 98.541 13.9675 97.6796C12.0645 95.966 11.5143 92.9852 11.4624 90.9579C11.3956 90.059 11.4463 89.192 11.497 88.3251C11.199 90.0683 11.1359 91.8755 11.152 93.6414C11.3434 105.961 49.2491 113.139 95.7043 109.687C142.239 106.193 179.779 93.3922 179.587 81.0726C179.59 80.8845 179.592 80.6965 179.595 80.5084C178.98 82.417 178.404 84.399 176.14 86.2359C175.147 87.0349 173.132 87.8074 171.864 88.6572C170.873 89.2682 169.873 90.6314 168.765 91.2104C167.499 91.872 165.967 91.8322 164.425 92.5447C161.736 93.7627 159.041 95.5449 155.804 96.6764C154.027 97.3248 151.866 97.2397 150.051 97.8148C148.828 98.1737 145.843 98.0528 146.186 98.901C146.914 100.295 142.471 100.469 140.697 100.929C138.726 101.399 135.679 100.003 134.753 101.701C133.827 103.399 131.355 103.103 129.345 103.499C127.967 103.753 126.243 103.346 124.864 103.6C121.359 104.218 118.433 105.56 114.693 106.114C113.275 106.294 111.307 106.576 109.89 106.756C107.528 107.057 104.412 104.95 102.985 105.882C101.397 107.085 98.4507 107.038 96.4722 108.072Z" fill="#CA5C1D"/>
<path d="M110.959 49.4215C110.014 49.5416 109.266 49.6524 109.285 51.2302C109.265 52.7347 110.89 54.687 110.966 54.8337L111.043 54.9804L111.163 54.8244C111.204 54.7097 112.766 52.4928 112.706 51.0297C112.688 49.4519 111.863 49.416 110.959 49.4215Z" fill="#CF6538"/>
<path d="M98.2789 54.2723C97.8881 54.1029 97.4182 53.975 97.025 53.9937C96.5527 54.0538 96.0778 54.3019 95.7155 54.9582C94.9525 56.1973 95.3544 58.5086 95.3519 58.6967L95.3902 58.77L95.4694 58.7287C95.5485 58.6873 98.2343 57.6573 99.0764 56.3768C99.9185 55.0963 99.2161 54.7163 98.2789 54.2723Z" fill="#CF6538"/>
<path d="M150.564 67.7571C150.173 67.5878 149.703 67.4598 149.31 67.4786C148.838 67.5386 148.363 67.7868 148.001 68.443C147.238 69.6822 147.64 71.9935 147.637 72.1815L147.675 72.2549L147.834 72.1722C147.913 72.1308 150.599 71.1008 151.362 69.8617C152.204 68.5812 151.501 68.2011 150.564 67.7571Z" fill="#CF6538"/>
<path d="M71.7093 69.5584C71.4335 69.6091 71.0786 69.7012 70.8029 69.7519C70.2106 69.968 69.6974 70.1428 69.4959 70.5283C69.256 70.8404 69.251 71.2165 69.4402 71.7713C69.8952 73.0276 72.1964 74.3464 72.3139 74.3784L72.4313 74.4104L72.4721 74.2957C72.513 74.181 73.6432 71.9095 73.1881 70.6532C72.8456 69.805 72.4574 69.4476 71.7093 69.5584Z" fill="#CF6538"/>
<path d="M115.358 67.4791L115.399 67.3644C115.439 67.2497 116.57 64.9782 116.115 63.7219C115.81 62.9471 115.422 62.5897 114.753 62.6591C114.477 62.7098 114.123 62.8019 113.847 62.8526C113.255 63.0688 112.741 63.2435 112.461 63.6704C112.221 63.9825 112.216 64.3586 112.405 64.9134C112.86 66.1697 115.161 67.4885 115.279 67.5205L115.358 67.4791Z" fill="#CF6538"/>
<path d="M86.1976 73.5667C86.001 73.576 85.8427 73.6588 85.7252 73.6268C84.898 73.7789 84.2265 74.0364 84.5233 75.3754C84.82 76.7145 86.4906 78.176 86.5289 78.2494L86.6847 78.3547L86.7255 78.24C86.7663 78.1253 87.7358 76.1246 87.5182 74.7442C87.3723 73.8866 86.984 73.5292 86.1976 73.5667Z" fill="#CF6538"/>
<path d="M38.4688 66.2921L38.5096 66.1774C38.5504 66.0626 39.5199 64.0619 39.3023 62.6816C39.1181 61.7506 38.7298 61.3932 38.0608 61.4627C37.8642 61.472 37.706 61.5548 37.5885 61.5228C36.7613 61.6749 36.0898 61.9324 36.3866 63.2714C36.6833 64.6105 38.3538 66.072 38.3922 66.1454L38.4688 66.2921Z" fill="#CF6538"/>
<path d="M101.186 45.3765L101.341 45.4819L101.382 45.3672C101.423 45.2524 102.472 43.2104 102.175 41.8714C101.991 40.9404 101.602 40.583 100.933 40.6525C100.737 40.6618 100.579 40.7446 100.461 40.7126C99.6338 40.8647 98.9624 41.1222 99.2591 42.4612C99.4384 43.7683 101.147 45.3032 101.186 45.3765Z" fill="#CF6538"/>
<path d="M141.828 53.7395C141.632 53.7489 141.474 53.8316 141.356 53.7996C140.529 53.9518 139.857 54.2093 140.154 55.5483C140.413 56.814 142.121 58.3489 142.16 58.4222L142.316 58.5276L142.356 58.4129C142.397 58.2982 143.367 56.2974 143.149 54.917C142.965 53.9861 142.577 53.6287 141.828 53.7395Z" fill="#CF6538"/>
<path d="M84.482 51.5839C84.2978 50.653 83.9095 50.2956 83.2405 50.365C83.0439 50.3744 82.8857 50.4571 82.7682 50.4251C81.9409 50.5773 81.2695 50.8348 81.5663 52.1738C81.863 53.5128 83.5335 54.9744 83.5719 55.0477L83.5694 55.2358L83.6102 55.1211C83.7685 55.0383 84.6996 52.9643 84.482 51.5839Z" fill="#CF6538"/>
<path d="M63.2649 81.1617C62.9125 81.0658 62.5984 81.0431 62.3226 81.0938C61.5362 81.1313 61.2938 81.6315 61.1306 82.0903C60.8858 82.7785 60.7992 83.3841 62.3671 83.6853C62.7195 83.7813 63.1919 83.7212 63.7026 83.7345C65.0405 83.5956 66.46 83.2273 66.46 83.2273L66.6183 83.1446L66.4625 83.0392C66.4625 83.0392 64.7536 81.5043 63.2649 81.1617Z" fill="#CF6538"/>
<path d="M135.864 44.0631C135.512 43.9671 135.198 43.9445 134.922 43.9952C134.136 44.0327 133.893 44.5328 133.73 44.9917C133.485 45.6799 133.399 46.2854 134.967 46.5866C135.319 46.6826 135.791 46.6225 136.302 46.6358C137.64 46.4969 139.06 46.1286 139.06 46.1286L139.218 46.0459L139.062 45.9406C139.103 45.8259 137.432 44.3643 135.864 44.0631Z" fill="#CF6538"/>
<path d="M71.6772 60.0501L71.5214 59.9447C71.4831 59.8714 69.7742 58.3365 68.2063 58.0353C67.8539 57.9393 67.5398 57.9167 67.264 57.9674C66.4776 58.0048 66.2352 58.505 66.072 58.9638C65.8272 59.6521 65.7406 60.2576 67.3085 60.5588C67.6609 60.6548 68.1333 60.5947 68.644 60.608C69.9819 60.4691 71.4014 60.1008 71.4014 60.1008L71.6772 60.0501Z" fill="#CF6538"/>
<path d="M102.055 69.0146C101.703 68.9187 101.389 68.896 101.113 68.9467C100.327 68.9842 100.084 69.4844 99.921 69.9432C99.7986 70.2873 99.6762 70.6314 99.9086 70.8835C100.062 71.1769 100.453 71.3462 101.237 71.4968C101.589 71.5928 102.061 71.5327 102.572 71.546C103.91 71.4071 105.33 71.0388 105.33 71.0388L105.488 70.9561L105.332 70.8508C105.253 70.8921 103.544 69.3572 102.055 69.0146Z" fill="#CF6538"/>
<path d="M40.1627 74.9316C39.8103 74.8357 39.4962 74.813 39.2205 74.8637C38.434 74.9012 38.1917 75.4014 38.0284 75.8602C37.906 76.2043 37.7836 76.5484 38.0161 76.8005C38.1694 77.0939 38.5601 77.2632 39.3441 77.4138C39.6965 77.5098 40.1688 77.4497 40.6795 77.463C42.0174 77.3241 43.437 76.9558 43.437 76.9558L43.5953 76.8731L43.4395 76.7678C43.322 76.7358 41.6923 75.1595 40.1627 74.9316Z" fill="#CF6538"/>
<path d="M53.5944 66.5115C53.242 66.4155 52.928 66.3929 52.6522 66.4436C51.8658 66.4811 51.6234 66.9813 51.4602 67.4401C51.3378 67.7842 51.2945 68.087 51.4478 68.3804C51.6011 68.6738 52.0302 68.9164 52.7758 68.9937C53.1282 69.0897 53.6006 69.0296 54.1113 69.0429C55.4492 68.904 56.8688 68.5357 56.8688 68.5357L57.027 68.453L56.8712 68.3476C56.7921 68.389 55.0832 66.8541 53.5944 66.5115Z" fill="#CF6538"/>
<path d="M86.7936 64.104C86.4412 64.008 86.1271 63.9854 85.8513 64.0361C85.0649 64.0736 84.8225 64.5737 84.6593 65.0326C84.5369 65.3767 84.4145 65.7208 84.6469 65.9728C84.8002 66.2662 85.191 66.4356 85.9749 66.5862C86.3274 66.6822 86.7997 66.6221 87.3104 66.6353C88.6483 66.4965 90.0679 66.1282 90.0679 66.1282L90.2262 66.0454L90.0703 65.9401C89.9529 65.9081 88.244 64.3732 86.7936 64.104Z" fill="#CF6538"/>
<path d="M26.1217 69.8496C25.7693 69.7536 25.4552 69.731 25.1795 69.7817C24.393 69.8192 24.1507 70.3193 23.9874 70.7782C23.865 71.1223 23.7426 71.4664 23.975 71.7184C24.1284 72.0118 24.5191 72.1812 25.3031 72.3318C25.6555 72.4278 26.1278 72.3677 26.6385 72.381C27.9764 72.2421 29.396 71.8738 29.396 71.8738L29.5543 71.7911L29.3985 71.6857C29.3193 71.7271 27.6105 70.1922 26.1217 69.8496Z" fill="#CF6538"/>
<path d="M153.573 54.0459C153.22 53.9499 152.906 53.9273 152.631 53.978C151.844 54.0154 151.602 54.5156 151.439 54.9744C151.316 55.3186 151.194 55.6627 151.426 55.9147C151.58 56.2081 151.97 56.3775 152.754 56.5281C153.107 56.624 153.579 56.564 154.09 56.5772C155.428 56.4384 156.847 56.0701 156.847 56.0701L157.005 55.9873L156.85 55.882C156.811 55.8086 155.102 54.2737 153.573 54.0459Z" fill="#CF6538"/>
<path d="M67.1773 46.8075C67.5298 46.9035 68.0021 46.8434 68.5128 46.8566C69.8507 46.7178 71.2703 46.3494 71.2703 46.3494L71.4286 46.2667L71.2728 46.1614C71.2344 46.088 69.5256 44.5531 67.9576 44.2519C67.6052 44.156 67.2912 44.1333 67.0154 44.184C66.229 44.2215 65.9866 44.7217 65.8234 45.1805C65.7009 45.5246 65.5785 45.8687 65.811 46.1208C66.0818 46.4462 66.4725 46.6155 67.1773 46.8075Z" fill="#CF6538"/>
<path d="M116.605 77.193C116.252 77.097 115.938 77.0744 115.662 77.1251C114.876 77.1625 114.634 77.6627 114.47 78.1216C114.226 78.8098 114.139 79.4153 115.707 79.7165C116.059 79.8125 116.532 79.7524 117.042 79.7657C118.38 79.6268 119.8 79.2585 119.8 79.2585L119.958 79.1758L119.802 79.0705C119.882 79.0291 118.173 77.4942 116.605 77.193Z" fill="#CF6538"/>
<path d="M173.223 68.8964C173.184 68.823 171.475 67.2881 169.907 66.9869C169.555 66.8909 169.241 66.8683 168.965 66.919C168.179 66.9565 167.936 67.4567 167.773 67.9155C167.528 68.6037 167.442 69.2093 169.01 69.5105C169.362 69.6064 169.834 69.5464 170.345 69.5596C171.683 69.4207 173.103 69.0524 173.103 69.0524L173.261 68.9697L173.223 68.8964Z" fill="#CF6538"/>
<path d="M84.1306 45.512C84.483 45.608 84.9553 45.5479 85.466 45.5612C86.8039 45.4223 88.2235 45.054 88.2235 45.054L88.3818 44.9713L88.226 44.866C88.1876 44.7926 86.4788 43.2577 84.9109 42.9565C84.5585 42.8605 84.2444 42.8379 83.9686 42.8886C83.1822 42.9261 82.9398 43.4262 82.7766 43.8851C82.6492 44.6053 82.5627 45.2108 84.1306 45.512Z" fill="#CF6538"/>
<path d="M52.2244 57.142L52.3827 57.0592C52.4618 57.0179 54.5194 55.9426 55.2799 54.8915C55.6014 54.35 55.7238 54.0059 55.6088 53.7858C55.5347 53.4511 55.1823 53.3551 54.909 53.2178C54.6357 53.0804 54.4008 53.0164 54.0867 52.9938C53.6935 53.0125 53.3361 53.2927 52.9355 53.8756C52.2133 55 52.306 56.9125 52.2652 57.0272L52.2244 57.142Z" fill="#CF6538"/>
<path d="M136.031 64.2396C135.758 64.1023 135.523 64.0383 135.209 64.0156C134.815 64.0344 134.458 64.3145 134.057 64.8974C133.335 66.0218 133.428 67.9344 133.466 68.0077L133.464 68.1958L133.622 68.1131C133.701 68.0717 135.759 66.9964 136.519 65.9454C136.841 65.4038 136.963 65.0597 136.848 64.8397C136.695 64.5463 136.383 64.3356 136.031 64.2396Z" fill="#CF6538"/>
<path d="M120.176 41.8031C119.902 41.6657 119.667 41.6017 119.353 41.5791C118.96 41.5978 118.524 41.9193 118.202 42.4609C117.48 43.5853 117.573 45.4978 117.611 45.5712L117.608 45.7593L117.767 45.6765C117.846 45.6352 119.903 44.5599 120.664 43.5088C120.985 42.9673 121.108 42.6232 120.993 42.4031C120.801 42.0364 120.528 41.8991 120.176 41.8031Z" fill="#CF6538"/>
<path d="M127.51 54.8729C127.236 54.7356 127.001 54.6716 126.687 54.6489C126.294 54.6677 125.937 54.9478 125.536 55.5307C124.814 56.6551 124.907 58.5677 124.945 58.641L124.942 58.8291L125.101 58.7464C125.18 58.705 127.237 57.6298 127.998 56.5787C128.319 56.0371 128.442 55.693 128.327 55.473C128.135 55.1062 127.862 54.9689 127.51 54.8729Z" fill="#CF6538"/>
<path d="M110.965 49.0455C110.02 49.1657 109.272 49.2764 109.291 50.8542C109.271 52.3587 110.896 54.3111 110.972 54.4578L111.049 54.6045L111.169 54.4484C111.21 54.3337 112.771 52.1168 112.712 50.6537C112.655 49.0026 111.91 48.9253 110.965 49.0455Z" fill="#FFCD8B"/>
<path d="M98.3648 53.8558C97.974 53.6864 97.5042 53.5585 97.1109 53.5772C96.6386 53.6373 96.1638 53.8854 95.8014 54.5417C95.0385 55.7808 95.4403 58.0921 95.4378 58.2802L95.4762 58.3535L95.5553 58.3121C95.6344 58.2708 98.3202 57.2408 99.0832 56.0017C99.9253 54.7212 99.2637 54.2264 98.3648 53.8558Z" fill="#FFCD8B"/>
<path d="M150.648 67.3406C150.257 67.1713 149.787 67.0433 149.394 67.0621C148.922 67.1221 148.447 67.3703 148.085 68.0265C147.322 69.2657 147.724 71.577 147.721 71.765L147.759 71.8384L147.838 71.797C147.918 71.7557 150.603 70.7257 151.366 69.4865C152.208 68.206 151.547 67.7113 150.648 67.3406Z" fill="#FFCD8B"/>
<path d="M71.7562 69.0671C71.4804 69.1179 71.1255 69.2099 70.8498 69.2607C70.2575 69.4768 69.7443 69.6516 69.5427 70.0371C69.3029 70.3492 69.2979 70.7253 69.4871 71.2801C69.9421 72.5364 72.2433 73.8552 72.3607 73.8872L72.4782 73.9192L72.519 73.8045C72.5598 73.6898 73.6901 71.4183 73.235 70.1619C72.8925 69.3137 72.4251 68.9977 71.7562 69.0671Z" fill="#FFCD8B"/>
<path d="M115.325 67.0299L115.365 66.9152C115.406 66.8005 116.536 64.529 116.081 63.2727C115.777 62.4978 115.389 62.1404 114.641 62.2512C114.327 62.2286 114.01 62.394 113.735 62.4448C113.142 62.6609 112.629 62.8357 112.428 63.2212C112.188 63.5333 112.183 63.9094 112.372 64.4642C112.827 65.7205 115.128 67.0393 115.245 67.0713L115.325 67.0299Z" fill="#FFCD8B"/>
<path d="M86.2815 73.1497C86.0849 73.1591 85.9267 73.2418 85.8092 73.2098C84.982 73.3619 84.3105 73.6194 84.6073 74.9585C84.8657 76.2241 86.5745 77.759 86.6129 77.8324L86.7687 77.9377L86.8095 77.823C86.8503 77.7083 87.8989 75.6662 87.6021 74.3272C87.3388 73.4376 86.9505 73.0803 86.2815 73.1497Z" fill="#FFCD8B"/>
<path d="M38.4356 65.8428L38.4764 65.7281C38.5172 65.6134 39.4867 63.6127 39.2691 62.2323C39.0849 61.3014 38.6966 60.944 38.0276 61.0135C37.831 61.0228 37.6728 61.1055 37.5553 61.0735C36.7281 61.2257 36.0566 61.4832 36.3534 62.8222C36.6118 64.0879 38.3206 65.6228 38.359 65.6961L38.4356 65.8428Z" fill="#FFCD8B"/>
<path d="M101.193 45.0005L101.349 45.1059L101.39 44.9912C101.431 44.8765 102.4 42.8758 102.183 41.4954C101.998 40.5645 101.61 40.2071 100.941 40.2765C100.745 40.2859 100.586 40.3686 100.469 40.3366C99.6416 40.4887 98.9702 40.7462 99.2669 42.0853C99.4462 43.3923 101.117 44.8538 101.193 45.0005Z" fill="#FFCD8B"/>
<path d="M141.875 53.2498C141.679 53.2592 141.52 53.3419 141.403 53.3099C140.576 53.462 139.904 53.7195 140.201 55.0586C140.498 56.3976 142.168 57.8591 142.207 57.9325L142.362 58.0378L142.403 57.9231C142.444 57.8084 143.414 55.8077 143.196 54.4273C142.971 53.6111 142.544 53.1803 141.875 53.2498Z" fill="#FFCD8B"/>
<path d="M84.4879 51.2084C84.3036 50.2775 83.9154 49.9201 83.2464 49.9895C83.0498 49.9989 82.8915 50.0816 82.774 50.0496C81.9468 50.2018 81.2754 50.4593 81.5721 51.7983C81.8689 53.1373 83.5394 54.5989 83.5777 54.6722L83.7335 54.7776L83.7743 54.6629C83.736 54.5895 84.7463 52.4741 84.4879 51.2084Z" fill="#FFCD8B"/>
<path d="M63.2317 80.7125C62.8793 80.6165 62.5652 80.5939 62.2894 80.6446C61.503 80.6821 61.2606 81.1823 61.0974 81.6411C60.8526 82.3293 60.766 82.9348 62.3339 83.2361C62.6863 83.332 63.1587 83.272 63.6694 83.2852C65.0073 83.1463 66.4268 82.778 66.4268 82.778L66.5851 82.6953L66.4293 82.59C66.5085 82.5486 64.7996 81.0137 63.2317 80.7125Z" fill="#FFCD8B"/>
<path d="M135.831 43.6139C135.479 43.5179 135.165 43.4953 134.889 43.546C134.103 43.5834 133.86 44.0836 133.697 44.5424C133.452 45.2307 133.366 45.8362 134.934 46.1374C135.286 46.2334 135.758 46.1733 136.269 46.1866C137.607 46.0477 139.026 45.6794 139.026 45.6794L139.185 45.5967L139.029 45.4914C139.108 45.45 137.399 43.9151 135.831 43.6139Z" fill="#FFCD8B"/>
<path d="M71.644 59.6009L71.4882 59.4955C71.4499 59.4222 69.741 57.8873 68.1731 57.5861C67.8207 57.4901 67.5066 57.4674 67.2309 57.5182C66.4444 57.5556 66.202 58.0558 66.0388 58.5146C65.794 59.2029 65.7074 59.8084 67.2753 60.1096C67.6277 60.2056 68.1001 60.1455 68.6108 60.1588C69.9487 60.0199 71.3683 59.6516 71.3683 59.6516L71.644 59.6009Z" fill="#FFCD8B"/>
<path d="M102.022 68.5659C101.67 68.4699 101.356 68.4473 101.08 68.498C100.293 68.5355 100.051 69.0356 99.8878 69.4945C99.7654 69.8386 99.643 70.1827 99.8754 70.4348C100.029 70.7282 100.419 70.8975 101.203 71.0481C101.556 71.1441 102.028 71.084 102.539 71.0973C103.877 70.9584 105.296 70.5901 105.296 70.5901L105.455 70.5074L105.299 70.402C105.22 70.4434 103.59 68.8671 102.022 68.5659Z" fill="#FFCD8B"/>
<path d="M40.1295 74.4824C39.7771 74.3864 39.463 74.3638 39.1873 74.4145C38.4008 74.452 38.1585 74.9522 37.9952 75.411C37.8728 75.7551 37.7504 76.0992 37.9829 76.3513C38.1362 76.6447 38.5269 76.814 39.3109 76.9646C39.6633 77.0606 40.1356 77.0005 40.6463 77.0138C41.9842 76.8749 43.4038 76.5066 43.4038 76.5066L43.5621 76.4239L43.4063 76.3185C43.4063 76.3185 41.6974 74.7836 40.1295 74.4824Z" fill="#FFCD8B"/>
<path d="M53.6003 66.1355C53.2479 66.0396 52.9338 66.0169 52.6581 66.0676C51.8716 66.1051 51.6293 66.6053 51.466 67.0641C51.3436 67.4082 51.3003 67.711 51.4537 68.0044C51.607 68.2978 52.0361 68.5405 52.7817 68.6177C53.1341 68.7137 53.6065 68.6536 54.1171 68.6669C55.4551 68.528 56.8746 68.1597 56.8746 68.1597L57.0329 68.077L56.8771 67.9717C56.8388 67.8983 55.1299 66.3634 53.6003 66.1355Z" fill="#FFCD8B"/>
<path d="M86.7604 63.6548C86.4079 63.5588 86.0939 63.5362 85.8181 63.5869C85.0317 63.6243 84.7893 64.1245 84.6261 64.5833C84.5037 64.9275 84.3813 65.2716 84.6137 65.5236C84.767 65.817 85.1578 65.9864 85.9417 66.137C86.2941 66.2329 86.7665 66.1729 87.2772 66.1861C88.6151 66.0472 90.0346 65.6789 90.0346 65.6789L90.1929 65.5962L90.0371 65.4909C89.9988 65.4175 88.2899 63.8826 86.7604 63.6548Z" fill="#FFCD8B"/>
<path d="M26.0885 69.4004C25.7361 69.3044 25.422 69.2818 25.1462 69.3325C24.3598 69.3699 24.1175 69.8701 23.9542 70.3289C23.8318 70.6731 23.7094 71.0172 23.9418 71.2692C24.0952 71.5626 24.4859 71.732 25.2699 71.8826C25.6223 71.9785 26.0946 71.9185 26.6053 71.9317C27.9432 71.7929 29.3628 71.4246 29.3628 71.4246L29.5211 71.3418L29.3653 71.2365C29.3653 71.2365 27.6564 69.7016 26.0885 69.4004Z" fill="#FFCD8B"/>
<path d="M153.622 53.5547C153.269 53.4587 152.955 53.4361 152.679 53.4868C151.893 53.5242 151.651 54.0244 151.487 54.4832C151.365 54.8274 151.243 55.1715 151.475 55.4235C151.628 55.7169 152.019 55.8863 152.803 56.0369C153.155 56.1328 153.628 56.0728 154.139 56.086C155.476 55.9471 156.896 55.5788 156.896 55.5788L157.054 55.4961L156.898 55.3908C156.781 55.3588 155.11 53.8973 153.622 53.5547Z" fill="#FFCD8B"/>
<path d="M67.1441 46.3587C67.4965 46.4547 67.9689 46.3946 68.4796 46.4079C69.8175 46.269 71.2371 45.9007 71.2371 45.9007L71.3953 45.818L71.2395 45.7127C71.2012 45.6393 69.4923 44.1044 67.9244 43.8032C67.572 43.7072 67.2579 43.6846 66.9822 43.7353C66.1958 43.7728 65.9534 44.273 65.7902 44.7318C65.6677 45.0759 65.5453 45.42 65.7778 45.6721C66.0486 45.9975 66.4776 46.2401 67.1441 46.3587Z" fill="#FFCD8B"/>
<path d="M116.609 76.8175C116.256 76.7215 115.942 76.6989 115.666 76.7496C114.88 76.7871 114.638 77.2872 114.474 77.7461C114.23 78.4343 114.143 79.0398 115.711 79.341C116.063 79.437 116.536 79.3769 117.046 79.3902C118.384 79.2513 119.804 78.883 119.804 78.883L119.962 78.8003L119.806 78.695C119.847 78.5803 118.138 77.0454 116.609 76.8175Z" fill="#FFCD8B"/>
<path d="M173.191 68.4477C173.153 68.3743 171.444 66.8394 169.876 66.5382C169.524 66.4422 169.21 66.4196 168.934 66.4703C168.148 66.5078 167.905 67.0079 167.742 67.4668C167.497 68.155 167.411 68.7605 168.978 69.0617C169.331 69.1577 169.803 69.0976 170.314 69.1109C171.652 68.972 173.071 68.6037 173.071 68.6037L173.23 68.521L173.191 68.4477Z" fill="#FFCD8B"/>
<path d="M84.0974 45.0628C84.4498 45.1588 84.9221 45.0987 85.4328 45.112C86.7707 44.9731 88.1903 44.6048 88.1903 44.6048L88.3486 44.5221L88.1928 44.4168C88.1544 44.3434 86.4456 42.8085 84.8777 42.5073C84.5252 42.4113 84.2112 42.3887 83.9354 42.4394C83.149 42.4769 82.9066 42.977 82.7434 43.4359C82.616 44.1561 82.5295 44.7616 84.0974 45.0628Z" fill="#FFCD8B"/>
<path d="M52.1912 56.6927L52.3495 56.61C52.4286 56.5687 54.4862 55.4934 55.2467 54.4423C55.5682 53.9008 55.6906 53.5567 55.5756 53.3366C55.5015 53.0019 55.1491 52.9059 54.8758 52.7685C54.6025 52.6312 54.3676 52.5672 54.0535 52.5446C53.6603 52.5633 53.3029 52.8434 52.9023 53.4263C52.1801 54.5508 52.2728 56.4633 52.232 56.578L52.1912 56.6927Z" fill="#FFCD8B"/>
<path d="M136.076 63.7498C135.803 63.6125 135.568 63.5485 135.254 63.5259C134.86 63.5446 134.424 63.8661 134.102 64.4076C133.38 65.5321 133.473 67.4446 133.511 67.518L133.509 67.706L133.667 67.6233C133.746 67.582 135.804 66.5067 136.564 65.4556C136.886 64.9141 137.008 64.57 136.893 64.3499C136.661 64.0979 136.388 63.9605 136.076 63.7498Z" fill="#FFCD8B"/>
<path d="M120.222 41.3133C119.949 41.176 119.714 41.112 119.4 41.0894C119.007 41.1081 118.65 41.3882 118.249 41.9711C117.527 43.0955 117.619 45.0081 117.658 45.0814L117.655 45.2695L117.814 45.1868C117.893 45.1454 119.95 44.0702 120.711 43.0191C121.032 42.4776 121.155 42.1334 121.04 41.9134C120.886 41.62 120.496 41.4506 120.222 41.3133Z" fill="#FFCD8B"/>
<path d="M127.555 54.3828C127.282 54.2455 127.047 54.1815 126.733 54.1588C126.34 54.1776 125.983 54.4577 125.582 55.0406C124.86 56.165 124.953 58.0776 124.912 58.1923L124.909 58.3803L125.068 58.2976C125.147 58.2563 127.204 57.181 127.965 56.1299C128.286 55.5884 128.409 55.2443 128.294 55.0242C128.14 54.7308 127.829 54.5201 127.555 54.3828Z" fill="#FFCD8B"/>
<defs>
<linearGradient id="paint0_linear_1141_12691" x1="94.6934" y1="36.7391" x2="100.063" y2="108.849" gradientUnits="userSpaceOnUse">
<stop stop-color="#EF9F51"/>
<stop offset="1" stop-color="#E0621C"/>
</linearGradient>
<linearGradient id="paint1_linear_1141_12691" x1="96.034" y1="119.271" x2="90.9539" y2="51.0519" gradientUnits="userSpaceOnUse">
<stop offset="0.2057" stop-color="#E78427"/>
<stop offset="0.4359" stop-color="#E7862A"/>
<stop offset="0.6209" stop-color="#E88D34"/>
<stop offset="0.7903" stop-color="#EA9945"/>
<stop offset="0.9493" stop-color="#EDA95D"/>
<stop offset="1" stop-color="#EEAF66"/>
</linearGradient>
</defs>
</svg>
