<svg width="173" height="61" viewBox="0 0 173 61" fill="none" xmlns="http://www.w3.org/2000/svg">
<path d="M156.591 16.8689C156.056 17.4482 153.377 15.6274 152.395 15.8757C151.055 15.6274 149.627 15.2964 148.198 15.0481C132.125 12.317 109.623 11.8204 84.8891 14.3032C55.5117 17.2827 30.0632 23.7381 15.5084 31.1039L1.04297 32.5936C1.04297 32.5936 1.04297 33.2557 1.13226 34.2488C1.22155 35.242 2.29307 37.6421 1.66802 38.1386C0.417915 37.8904 2.73954 41.6974 2.82883 42.6078C1.9359 42.3595 5.23974 46.5803 5.32904 46.3321C7.91853 48.8977 8.90075 49.3115 10.3294 49.8081C10.9545 49.9736 10.7759 49.146 13.2761 51.3805C15.5084 53.2013 14.7048 51.4633 16.7585 52.953C18.2765 53.7806 19.348 54.0289 20.5981 54.36C21.4911 54.4427 23.1876 55.1876 24.3484 55.3531C24.7056 54.6082 28.0987 57.1738 28.6345 56.5117C29.9739 56.6773 31.1347 56.5945 33.1884 57.4221C33.4563 56.3462 37.0281 58.9946 37.4745 58.0015C39.3497 58.5808 38.546 56.1807 42.207 58.6636C44.2608 59.3257 45.8681 59.4912 47.1182 59.0774C50.1541 60.7326 50.6006 59.4084 52.3864 59.4084C54.4402 59.7395 56.0475 59.5739 57.9226 59.5739C57.4761 57.2566 62.8337 61.5602 62.6551 59.4912C63.7267 58.8291 65.8697 59.3257 67.8341 59.4912C70.1558 60.1533 71.9416 60.1533 73.1024 59.2429C75.2455 59.5739 75.3347 57.5049 78.6386 58.9946C80.5137 58.9118 84.0855 60.6498 84.3533 58.5808C85.8713 57.9187 89.0859 59.1601 90.336 58.0015C91.6754 57.7532 93.1933 57.7532 94.5327 57.5877C96.6758 58.3325 97.1222 57.0911 98.5509 57.0911C98.8188 55.6841 101.765 57.3394 102.48 56.5945C103.819 56.429 104.534 55.6841 106.319 56.0152C107.302 55.5186 108.82 55.6014 110.07 55.4359C110.605 54.5255 112.659 55.1876 113.641 54.7738C116.588 54.7738 119.088 54.2772 121.142 53.284C122.392 53.1185 123.642 52.8702 124.714 52.5392C125.875 52.2081 127.482 52.4564 128.018 51.6288C130.339 52.7047 131.589 52.5392 131.321 50.7184C132.839 50.9667 132.839 49.477 134.447 49.8081C135.429 49.2287 136.411 48.7322 137.572 48.4011C138.733 48.0701 139.894 47.8218 141.054 47.5735C143.733 47.4907 144.626 45.3389 147.126 45.3389C149.894 45.5044 149.805 42.525 152.662 43.0216C153.288 40.9525 156.681 42.1112 157.395 40.456C159.002 39.7111 159.895 38.3042 161.592 37.8076C162.217 36.1524 164.271 36.2351 165.253 35.242C166.771 34.9109 167.574 33.6695 168.289 32.5936C167.396 29.6142 170.61 31.5177 170.7 29.9452C171.771 28.7866 172.396 27.3796 172.307 25.4761C172.843 24.2347 171.593 21.2552 172.486 20.9242C172.039 19.1862 172.753 18.9379 171.771 17.1172C171.414 16.0412 171.235 15.4619 171.325 15.5447C170.61 14.7171 170.789 16.0412 169.092 15.793C169.003 17.3654 165.789 15.8757 164.092 16.2895C162.395 16.5378 161.592 17.9448 159.181 16.9516C158.377 17.6965 156.681 16.8689 156.591 16.8689Z" fill="url(#paint0_radial_337_2660)"/>
<path d="M171.056 15.3789C171.771 21.6688 163.109 26.7173 157.573 29.6139C150.787 33.2554 143.108 35.5728 135.518 37.6418C120.159 41.6144 104.444 44.2628 88.5496 45.8352C41.5815 50.5527 2.38183 44.5938 0.953141 32.5106C-0.475547 20.4274 36.4918 6.77167 83.4599 2.05424C130.428 -2.66318 169.717 3.29566 171.056 15.3789Z" fill="#993923"/>
<path d="M149.894 14.4686C149.537 14.7169 149.18 14.8824 148.733 15.1307C148.823 15.1307 148.823 15.1307 148.912 15.1307C149.894 15.0479 150.876 14.8824 151.769 14.4686C151.769 13.3099 151.144 13.3099 149.894 14.4686Z" fill="#AB5130"/>
<path d="M82.7464 37.4766C82.6571 37.4766 82.5678 37.3938 82.4785 37.3938C82.6571 37.5593 82.925 37.6421 83.1036 37.8076C83.1929 37.8904 83.1929 37.8904 83.2822 37.8904C83.3715 37.8076 83.55 37.8076 83.8179 37.7248C84.3537 37.6421 84.8001 37.4766 85.2466 37.3938C84.443 37.5593 83.3715 37.6421 82.7464 37.4766Z" fill="#AB5130"/>
<path d="M33.0098 16.7035C33.1884 16.7035 33.2776 16.7035 33.4562 16.7035C34.7956 16.8691 36.2243 16.7863 37.5637 16.4553C36.9387 15.7932 34.9742 16.1242 33.0098 16.7035Z" fill="#AB5130"/>
<path d="M38.277 29.0352C38.0091 29.3663 37.8306 29.7801 37.5627 30.1111C37.3841 30.3594 37.5627 30.1939 37.1162 30.0284C35.6875 29.6146 34.5267 29.6146 33.0087 29.9456C29.9728 30.7732 29.6156 33.5044 30.955 35.4079C32.2944 37.3942 35.6875 35.3251 34.616 33.3388C34.8839 33.2561 34.9732 33.3389 35.2411 33.4216C36.2233 33.7527 37.2948 34.0009 38.3663 33.7527C40.5093 33.3388 41.313 31.9319 42.2952 30.4422C43.7239 28.3731 39.7057 26.8834 38.277 29.0352Z" fill="#993923"/>
<path d="M123.554 0.564697C123.643 1.6406 123.643 2.63374 123.376 3.7924C123.286 4.28897 123.018 4.70278 122.661 4.86831C124.536 4.86831 126.322 5.11659 127.84 5.94421C129.715 5.44764 131.858 5.28212 134.001 5.28212C134.359 5.11659 134.626 4.86831 134.984 4.70279C135.787 4.28898 136.769 4.28897 137.484 4.62002C137.662 4.62002 137.841 4.62002 138.109 4.62002H138.198C139.18 4.62002 139.895 5.36488 139.984 6.1925C140.877 6.44078 141.77 6.85458 142.484 7.26839C143.556 7.84772 143.556 9.58572 142.395 10.1651C141.859 10.4133 141.502 10.7444 141.323 11.0754C141.145 11.0754 141.056 10.9927 140.877 10.9927C140.788 11.3237 140.698 11.572 140.609 11.9031C142.127 10.8272 143.556 9.50296 145.163 8.75811C147.395 7.6822 149.985 7.18564 152.574 7.18564C156.235 7.18564 161.504 9.25468 161.95 12.5652C162.039 13.3928 161.682 14.2204 160.968 14.7997C161.504 15.6273 162.307 16.455 163.022 16.8688C163.111 16.9515 166.861 14.5514 167.397 14.3859C170.076 13.3928 171.594 16.786 169.004 17.7791C166.058 18.855 164.272 21.9172 160.611 20.0137C159.361 19.3516 158.111 18.193 157.218 16.9515C155.7 17.5309 154.182 17.9447 153.199 18.2757C150.163 19.2689 147.485 19.2689 144.895 18.6895C145.074 19.1033 145.252 20.0137 146.056 19.9309H146.145C146.235 19.9309 146.235 19.931 146.324 19.8482C146.324 20.0137 146.324 20.1792 146.324 20.3448C147.663 20.3448 148.735 20.9241 149.896 21.3379C150.699 21.5862 153.914 19.8482 154.985 19.5171C155.075 19.5171 155.075 19.5171 155.164 19.4344C155.61 19.8482 156.146 20.0965 156.682 20.262C158.646 20.9241 157.485 21.4207 156.057 22.331C154.092 23.4897 151.771 23.6552 149.449 23.9035C147.217 24.069 145.699 23.5725 143.913 23.0759C143.913 23.1587 143.913 23.2414 143.824 23.2414C143.377 23.738 143.288 24.2346 143.377 24.6484C144.27 24.8966 144.984 25.5587 144.895 26.5519C144.806 27.2967 146.324 27.8761 146.235 28.7037C146.235 29.4486 146.145 30.0279 145.431 30.6072C143.734 32.0969 141.056 30.69 141.502 29.2003C141.502 29.1175 141.413 29.1175 141.323 29.0347C141.145 28.7865 140.966 28.4554 140.788 28.2071C140.698 28.2071 140.609 28.2071 140.52 28.2071C139.716 28.0416 139.002 27.8761 138.198 27.7106C137.216 27.545 136.591 26.9657 136.412 26.3036C134.894 25.7243 133.376 25.1449 131.948 24.4001C130.965 24.069 130.162 23.6552 129.537 22.9931C129.537 23.738 129.001 24.5656 128.108 24.8967C127.126 25.3105 126.322 25.5588 125.697 25.807C125.786 25.9726 125.876 26.0553 125.965 26.2208C126.411 27.1312 126.233 28.1244 125.965 29.1175C128.108 29.6141 129.983 30.4417 131.59 31.9314C132.751 33.0901 131.68 34.4143 130.251 34.7453C130.251 34.8281 130.34 34.9936 130.43 35.0764C130.251 34.9936 129.983 34.9108 129.805 34.8281C129.18 34.8281 128.555 34.6625 128.019 34.166C126.679 32.8418 124.626 32.5935 122.661 32.2625C122.661 33.0073 122.304 33.9177 121.233 34.166C117.929 34.9936 112.928 35.904 110.16 33.5866C108.999 32.5935 108.017 31.6831 107.571 30.3589C106.678 30.69 105.785 31.021 104.803 31.4348C103.731 31.8486 102.66 31.3521 102.124 30.69C101.767 31.021 101.409 31.5176 101.142 32.0142C100.606 33.0073 100.963 34.166 101.767 34.9108C101.588 34.9108 101.499 34.9936 101.32 34.9936C101.32 35.1591 101.409 35.3246 101.409 35.5729C101.499 35.6557 101.588 35.6557 101.767 35.7384C102.66 36.1523 103.82 35.9867 104.624 36.5661C105.338 37.1454 105.696 37.7247 105.696 38.5523C105.785 40.6214 102.302 41.2007 101.409 39.6282C101.231 39.6282 101.052 39.5455 100.874 39.5455C100.159 39.2972 99.5343 38.9662 98.8199 38.6351C97.927 38.2213 97.0341 37.642 97.0341 36.7316C97.0341 36.1523 96.9448 35.5729 96.7662 34.9108C96.5876 34.7453 96.4983 34.7453 96.0519 35.3246C95.9626 35.4902 95.784 35.6557 95.6947 35.8212C94.8911 35.904 94.0874 35.9867 93.1945 35.9867C92.123 36.0695 87.9262 35.9867 87.8369 35.904C87.1226 34.497 84.4438 34.3315 83.7294 35.904C83.1044 37.2282 82.7472 38.6351 80.5149 38.5523C79.2648 38.5523 77.9254 38.3041 76.8539 37.8075C74.5322 36.6488 74.3537 36.3178 74.5322 34.2487C74.8001 30.8555 72.032 29.4485 68.2817 30.4417C67.746 30.6072 67.2995 30.8555 67.1209 31.1866C68.0139 31.6831 69.0854 32.0142 69.9783 32.5935C71.407 33.5866 71.7642 35.0763 70.2462 36.235C69.3533 36.9799 67.6567 37.0626 66.4959 37.1454C65.7815 37.2282 64.9779 37.3109 64.2636 37.3937C63.9957 37.4764 63.8171 37.4764 63.6385 37.4764C63.3706 37.8075 63.1027 38.0558 62.6563 38.2213C62.567 38.1385 62.4777 38.0558 62.3884 38.0558C62.2991 38.1385 62.1205 38.1385 62.0312 38.2213C62.1205 38.3041 62.1205 38.3868 62.2098 38.4696C62.0312 38.4696 61.7633 38.5523 61.5848 38.5523C61.2276 38.8006 60.7811 39.1317 60.424 39.38C60.3347 39.38 60.2454 39.2972 60.0668 39.2972C59.8882 38.8834 59.7096 38.6351 59.3524 38.2213C58.9953 37.8075 58.3702 37.7247 57.8345 37.5592C57.6559 37.4764 57.4773 37.4764 57.2987 37.3937C57.0308 36.7316 56.4951 36.235 55.7807 35.904C55.6914 35.5729 55.6021 35.2419 55.5128 34.8281C55.245 33.9177 54.1734 33.5039 53.1912 34.0004C53.0126 34.0832 52.4769 34.497 51.8518 35.0764C51.7625 35.0764 51.5839 35.0763 51.4946 34.9936C51.4946 34.497 51.4054 34.0832 51.4054 33.5866C51.2268 32.2624 49.173 31.7659 48.0122 32.8418C47.2086 33.6694 46.4049 34.497 45.6013 35.3246C45.512 35.4074 45.512 35.4074 45.4227 35.4902C46.7621 35.4902 47.8336 36.4833 47.655 37.5592C47.4765 38.3868 47.03 39.2144 47.1193 40.0421C47.4765 42.3594 43.0118 42.856 42.7439 40.4559C42.6546 40.0421 42.7439 39.711 42.7439 39.38C41.1367 39.1317 39.9758 38.3041 40.4223 36.4005C40.5116 35.9867 40.6902 35.5729 40.7795 35.1591H40.6902C40.6009 34.8281 40.5116 34.6625 40.2437 34.8281C40.1544 34.9108 40.1544 34.9108 40.0651 34.9936C39.7973 34.9108 39.4401 34.7453 39.1722 34.6625C39.0829 33.8349 38.1007 33.2556 37.1185 33.3383C37.0292 33.3383 36.9399 33.3383 36.8506 33.3383C36.672 32.0142 36.4934 30.7727 36.047 29.5313C35.7791 28.7037 34.529 28.6209 33.8146 29.0347C33.3682 29.283 32.8324 29.5313 32.3859 29.7796C32.0288 29.6968 31.5823 29.7796 31.2251 30.1106C30.6001 30.69 30.1536 31.2693 29.7964 31.9314C29.4393 31.9314 29.0821 32.0142 28.5463 32.0142C28.4571 32.0142 28.457 32.0969 28.3678 32.0969C26.6712 32.759 25.0639 33.5866 23.3673 34.0832C23.4566 33.3384 22.9209 32.6763 22.2065 32.428V32.3452C20.5993 31.5176 17.6526 32.0142 15.7774 31.8486C15.4203 31.8486 15.0631 31.7659 14.7059 31.6831C13.5451 31.6831 13.0986 31.8486 13.1879 33.3383C13.2772 34.5798 11.5807 35.904 10.0627 35.2419C9.8841 35.1591 9.70551 35.0763 9.52693 34.9936C8.81258 35.0763 8.09824 34.9108 7.56248 34.2487L7.02672 33.5866C5.86591 32.0969 7.47319 30.5245 9.16975 30.69C9.43763 30.1106 9.79481 29.6141 10.3306 29.2003C10.777 28.5382 11.4914 28.1244 12.3843 28.2071C12.7415 28.1244 13.1879 28.0416 13.6344 28.0416C15.6881 27.9588 19.2599 28.4554 22.3851 28.2899C23.2781 26.9657 25.2425 25.9726 26.8498 25.807C27.0284 25.807 27.1177 25.807 27.2962 25.807C27.3855 25.5588 27.4748 25.3932 27.6534 25.1449C27.832 24.9794 28.0106 24.7311 28.0999 24.5656C27.832 24.7311 27.4748 24.8139 27.2069 24.8967C26.0461 25.1449 25.1532 25.1449 24.2603 24.8139C23.1888 25.5588 22.0279 26.2208 20.8671 26.3864C20.51 27.545 18.8134 28.5382 17.2061 27.7106C14.8845 26.4691 15.7774 24.5656 17.1168 22.9104C17.2954 22.6621 17.6526 22.4966 18.0098 22.331C18.2776 23.0759 19.3492 23.738 20.3314 23.3242C21.6708 22.7449 22.653 22.0828 23.8138 21.5034C24.2603 21.6689 24.796 21.6689 25.3318 21.4207H25.4211C25.5104 21.5034 25.5997 21.5862 25.7783 21.5862C26.4926 21.3379 27.2069 21.0896 27.832 20.8413C27.9213 20.7586 28.0999 20.7586 28.1892 20.6758C28.5463 20.593 28.8142 20.4275 29.0821 20.262C29.1714 20.1792 29.2607 20.0965 29.35 20.0137C29.35 20.0137 29.4393 20.0137 29.4393 19.9309C31.8502 19.1033 35.154 19.0206 37.6542 19.5999C38.815 19.8482 39.9758 20.1792 41.2259 20.262C40.4223 19.1861 40.333 17.6136 41.3152 16.5377C40.4223 16.1239 39.2615 15.9584 38.19 15.8756C37.2971 16.5377 35.7791 16.786 34.7969 15.7929C34.529 15.5446 34.2611 15.2135 33.9932 14.9652C32.7431 13.7238 34.3504 11.8203 36.1362 12.0686C38.9043 12.3996 42.2975 12.2341 44.4405 13.8893C44.7084 14.1376 44.9763 14.3031 45.2441 14.5514C47.03 14.1376 48.9944 14.0549 50.8696 14.4687C51.5839 14.3032 52.2983 14.3032 52.5662 14.4687C53.4591 15.048 54.5306 15.2135 55.6021 15.2963C55.7807 15.7101 56.0486 16.0412 56.5843 16.1239C57.388 16.9515 58.7274 17.4481 60.0668 17.8619C60.9597 17.6136 61.9419 17.5309 63.0134 17.7791C63.0134 17.6136 62.9242 17.5309 62.8349 17.3653C61.2276 16.2067 56.9415 13.8893 60.5132 12.3169C60.6918 12.2341 60.8704 12.1513 61.049 12.1513C62.3884 12.0686 63.6385 11.8203 64.9779 11.572C67.2995 11.1582 68.9068 12.4824 71.0498 12.8134C72.925 13.0617 74.9787 12.0686 76.4967 11.3237C77.1217 11.0754 77.7468 10.7444 78.3719 10.4133C78.2826 9.91677 78.1933 9.50296 78.3719 9.00639C77.9254 8.84087 77.5682 8.59259 77.1217 8.42706C75.6038 8.3443 74.2644 6.77182 75.5145 5.44764C75.9609 4.95107 76.8539 4.62002 77.5682 4.78554C79.8898 5.19935 84.7116 7.02012 83.1044 9.50297C83.908 9.58573 84.6224 9.75125 85.5153 9.75125C87.4797 9.75125 88.9977 9.17192 90.6943 8.42706C92.748 7.51669 95.2482 7.93049 97.302 6.85458C99.5343 5.69592 102.034 5.69593 104.535 5.5304C105.249 4.70279 105.696 3.87517 105.606 3.04755C107.749 3.3786 108.91 4.4545 111.053 2.46822C111.767 1.80613 112.482 1.22679 113.285 0.730218C103.999 0.81298 94.0874 1.30955 83.7294 2.38545C36.7613 7.10287 -0.206016 20.7586 1.22267 32.8418C2.65136 44.925 41.851 50.8838 88.8191 46.1664C104.713 44.5939 120.429 41.9456 135.787 37.973C136.948 37.642 138.109 37.3109 139.27 36.9799C137.841 36.6488 136.323 36.4833 134.894 36.3178C135.519 35.9867 136.144 35.5729 136.769 35.2419C137.127 35.2419 137.484 35.2419 137.841 35.1591C139.18 34.8281 140.341 34.3315 141.502 33.8349C142.931 34.2487 143.02 35.3246 142.395 36.235C147.753 34.5798 153.021 32.6763 157.843 30.1106C163.379 27.1312 172.04 22.1655 171.326 15.8756C170.076 7.02011 150.878 1.55784 123.554 0.564697ZM58.013 46.0837C56.8522 46.0009 55.9593 44.925 56.2272 44.0146C56.2272 43.9319 56.2272 43.9319 56.3165 43.8491C58.3702 44.7595 60.6918 45.5043 63.1027 45.5871C61.4955 46.0009 59.7989 46.1664 58.013 46.0837ZM111.41 40.7042C109.357 41.449 107.481 41.2007 106.142 40.3731C108.106 40.1248 110.071 39.9593 112.035 39.6282C112.303 39.6282 112.482 39.5455 112.75 39.5455C112.482 39.9593 112.125 40.4559 111.41 40.7042Z" fill="#AB5130"/>
<path d="M171.056 15.2969C171.146 17.0349 169.985 17.697 168.646 18.4418C167.842 19.766 165.788 19.8488 164.985 21.4212C163.913 22.6627 161.681 22.5799 160.966 24.0696C162.127 27.7111 159.716 27.1318 157.216 26.0559C157.037 27.7111 155.073 27.2973 153.734 27.6284C154.448 30.194 150.34 27.4628 150.162 29.0353C149.894 28.8698 149.715 28.7043 149.537 28.5388C149.448 28.6215 149.358 28.7043 149.269 28.7043C148.644 29.0353 147.93 29.2836 147.215 29.2008C147.305 29.8629 147.215 30.4423 146.501 30.2767C144.804 30.194 146.322 33.7527 142.751 31.4354C139.268 29.2836 143.197 35.5735 138.911 32.5113C139.804 35.3252 134 30.4423 135.071 33.5045C132.125 32.263 130.607 32.6768 130.428 34.5803C128.642 34.5803 126.767 34.5804 125.785 35.5735C121.856 33.2562 121.945 35.408 121.142 36.4839C119.624 36.8149 119.624 38.884 116.498 37.3943C114.088 36.7322 115.07 39.8771 111.677 38.0564C109.98 38.1391 110.069 40.2909 107.033 38.884C105.337 38.9667 103.194 38.5529 102.301 39.5461C99.3542 38.2219 101.765 42.9393 97.5683 40.2081C97.3005 41.8634 95.2467 41.6151 92.7465 40.7047C90.9606 40.7047 89.6212 41.0358 88.014 41.2841C86.0495 40.622 86.8532 43.2703 84.8887 42.6082C84.353 43.6014 81.7635 42.2772 80.3348 42.1944C77.1202 40.2082 77.8346 42.4427 76.3166 42.36C76.4059 43.9324 72.6556 41.3668 72.3877 42.5255C71.1376 42.691 69.8875 42.691 68.6374 42.691C68.5481 42.6082 68.3695 42.6082 68.2802 42.5255C67.8338 42.6082 67.3873 42.6082 66.9408 42.6082C66.673 42.691 66.4944 42.691 66.2265 42.691C65.8693 42.8565 65.4228 42.9393 65.0657 43.0221C65.78 45.1739 64.6192 45.3394 61.2261 42.8565C60.0653 42.9393 59.5295 43.7669 57.5651 42.8565C57.3865 42.691 57.2079 42.6082 57.1186 42.5255C57.0293 42.5255 56.94 42.6082 56.8507 42.6082C55.9578 42.9393 55.0649 43.022 54.2612 42.8565C54.3505 43.022 54.4398 43.1876 54.5291 43.3531C53.8147 43.9324 53.9933 45.4221 50.6895 42.8565C52.2075 45.8359 46.582 40.7875 47.2071 42.691C48.8143 45.7532 48.1 46.0842 43.8139 42.5255C42.3853 42.36 40.5994 41.8634 39.9743 42.5255C38.8135 42.6082 37.8313 42.9393 36.0454 42.2772C35.8669 43.4359 30.3307 38.4702 32.2058 41.7806C33.4559 44.429 27.7412 39.1322 28.5448 41.2841C23.5444 36.8149 28.3662 43.4359 25.1517 40.7875C26.3125 43.1876 21.8479 39.215 21.9371 40.2909C22.7408 42.0289 20.062 39.7943 18.4547 38.8012C17.6511 38.6357 15.7759 37.3115 17.026 39.3805C14.9723 38.4702 15.8652 40.7875 12.4721 38.1391C8.09673 34.3321 9.61471 37.146 8.5432 36.8149C4.52501 32.7596 4.88218 33.5045 4.88218 33.9183C3.54279 32.8424 3.63208 33.1734 5.41794 35.4907C4.7036 35.2424 2.38198 33.0906 1.48905 32.4286L1.39975 32.3458C1.48905 32.4285 1.39975 32.5113 0.95329 32.263C0.238946 32.5113 3.54278 36.7322 2.91773 35.9873C4.6143 37.8908 6.31087 39.5461 5.59652 38.3874C6.22157 38.7184 4.34642 36.1528 7.73956 39.4633C9.52542 40.622 7.82885 37.6425 12.3828 41.5323C10.8648 39.1323 12.6507 40.4564 15.508 42.9393C17.8297 44.8428 16.401 42.36 18.0975 43.4359C15.2402 39.3805 19.8834 43.6841 21.4907 44.429C22.2943 44.3462 25.0624 46.4153 24.8838 45.0911C27.4733 46.9946 27.1161 45.3394 28.5448 45.836C29.5271 46.3325 30.9557 47.4084 31.938 47.905C32.9202 48.4016 33.4559 48.3188 32.3844 46.498C34.4382 47.4912 33.0988 44.6773 36.224 46.7463C38.8135 48.3188 38.8135 46.8291 40.778 47.574C42.5638 48.4016 43.0996 47.7395 44.2604 47.8222C45.3319 47.8222 46.0463 47.3257 47.8321 47.9878C48.5465 48.6499 49.0822 49.1464 49.618 49.5602C50.243 49.3119 51.0467 49.3119 51.6717 49.7257C51.5824 49.1464 51.4038 48.4843 52.0289 48.7326C52.6539 48.0705 52.9218 46.9946 55.6006 48.5671C57.5651 49.3119 57.2972 47.5739 59.1723 48.3188C61.494 49.4775 60.5117 46.9119 63.3691 48.5671C63.8156 48.8981 64.1727 49.2292 64.4406 49.4775C65.155 49.3119 65.8693 49.3947 66.4944 49.643C66.5837 49.643 66.673 49.7257 66.7622 49.7257C66.7622 49.0637 66.5837 48.236 67.2087 48.3188C68.6374 48.3188 70.2447 48.5671 71.6734 48.6498C71.0483 46.3325 73.7271 47.6567 75.8701 48.4016C75.7808 46.5808 78.1024 47.5739 80.0669 48.0705C80.6027 48.4843 81.1384 48.8154 81.5849 49.0637C82.1206 49.0637 82.5671 48.8154 82.9243 48.4843C83.46 48.0705 84.0851 47.9878 84.7101 48.1533C84.7101 48.0705 84.7101 48.0705 84.7101 47.9878C84.8887 46.4153 85.5138 45.3394 88.9069 47.4084C88.9069 46.6636 90.0677 47.2429 91.3178 47.905C91.5857 47.6567 91.9429 47.4084 92.3893 47.2429C92.7465 46.9946 93.193 46.9118 93.6394 46.8291C93.6394 46.7463 93.5501 46.7463 93.5501 46.6636C92.2108 43.1876 96.4968 46.0842 98.4613 46.2498C98.8184 44.5945 102.926 47.3257 103.015 45.3394C103.908 44.3462 107.837 46.6636 107.926 44.6773C108.283 43.0221 111.766 44.9256 112.659 43.7669C114.445 44.0152 115.07 43.022 116.498 42.8565C118.552 43.4359 117.749 40.7875 120.517 42.1117C122.124 42.1944 123.731 42.2772 124.535 41.4496C128.196 43.7669 126.499 40.2081 128.285 40.3737C129.535 40.0426 132.393 41.4496 132.125 39.4633C133.464 39.215 134.357 38.3874 135.964 38.5529C139.536 40.7875 138.822 38.2219 139.804 37.5598C143.286 39.7116 140.34 34.5804 143.554 36.3183C143.911 36.4839 144.179 36.6494 144.536 36.8149C144.715 36.7322 144.983 36.6494 145.161 36.6494C145.519 36.5666 145.965 36.5666 146.322 36.5666C146.769 36.4011 147.305 36.3183 147.84 36.2356C147.662 35.8218 147.483 35.408 147.126 34.8286C148.019 34.001 150.251 34.6631 150.698 33.3389C150.43 31.1871 155.609 35.2424 154.269 31.7665C154.894 30.6906 159.716 34.1665 157.752 30.1112C158.555 29.4491 160.073 29.5319 160.788 28.5388C160.431 26.3042 162.216 26.3869 163.824 26.2214C164.717 25.2283 164.806 23.3248 166.681 23.573C170.164 25.6421 167.753 21.0074 169.181 20.7591C170.253 20.1798 170.431 18.8556 170.789 17.7797C171.592 17.8625 171.592 16.7038 171.056 15.2969Z" fill="#C17528"/>
<path d="M14.705 30.4416C15.1514 28.7864 16.9373 27.2139 19.0803 27.545C19.6161 26.8001 19.884 26.0553 19.7947 25.2277C19.7054 23.9035 17.9195 23.0758 16.4908 23.5724C16.0444 23.7379 15.6872 23.9862 15.33 24.2345C14.2585 23.7379 12.8298 23.7379 11.8476 24.6483C10.5082 25.807 9.43668 27.2967 8.27587 28.6209C6.31142 30.9382 9.97244 33.5866 12.2048 31.8486C12.6512 31.8486 13.0084 31.7658 13.5442 31.6003C13.812 31.5175 14.0799 31.352 14.3478 31.1865C14.4371 31.1865 14.5264 31.2692 14.6157 31.2692C14.6157 31.021 14.6157 30.7727 14.705 30.4416Z" fill="#8B3223"/>
<path d="M152.751 10.1651C152.037 10.3306 148.376 11.1582 145.965 11.3238C146.055 11.241 146.055 11.0755 146.144 10.9927C146.233 10.7444 146.412 10.4134 146.501 10.1651C147.662 9.91682 148.823 9.50301 149.716 8.75815C150.073 8.50987 150.162 8.17883 150.251 7.84778C150.43 7.84778 150.608 7.76501 150.787 7.76501C151.234 7.59949 151.591 7.43396 151.948 7.26844C152.751 6.85463 153.019 5.86149 152.662 5.19939C152.216 4.28901 150.966 3.87521 149.894 4.20626C149.09 4.45454 148.465 4.86835 147.93 5.44768C147.751 5.69597 147.662 5.86149 147.573 6.10978C146.68 6.19254 145.876 6.44083 144.983 6.35807C143.554 6.2753 142.572 6.93739 142.126 8.09606C142.126 8.17882 142.036 8.26158 142.036 8.34434C141.501 7.76501 140.429 7.43397 139.536 7.43397C138.733 7.43397 137.929 7.59949 137.215 7.68225C137.125 7.51672 137.125 7.3512 137.036 7.10292C136.768 6.19254 135.339 5.61321 134.268 5.77874C132.303 6.10978 130.785 6.52359 129.178 7.51673C128.017 8.26158 128.464 9.83406 129.892 9.99958C130.518 10.0823 131.053 10.0823 131.678 10.1651C131.41 10.7444 131.5 11.3238 131.678 11.8203C134.536 10.5789 137.661 9.42025 140.786 9.99958C142.751 10.4134 144.804 11.5721 144.447 13.3101C147.305 13.2273 147.751 16.8688 144.894 16.9516C144.537 16.9516 144.179 16.9516 143.822 16.9516H143.733C142.661 17.7792 140.608 17.862 140.072 16.5378C138.465 16.8688 136.679 16.8688 135.161 16.3722C133.911 16.8688 132.839 16.2895 132.482 15.5446H132.393C132.125 15.6274 131.946 15.7102 131.768 15.7102C130.964 16.0412 130.16 16.455 129.267 16.9516C126.589 18.5241 128.375 21.8345 131.41 21.5862C133.554 21.4207 135.697 21.0897 137.75 20.5931C138.018 20.6759 138.375 20.6759 138.732 20.5931C145.519 19.5999 154.359 18.6068 155.43 11.9031C155.52 10.5789 154.18 9.83405 152.751 10.1651Z" fill="#8B3223"/>
<path d="M126.856 5.69625C126.053 4.20654 124.535 3.70998 122.838 3.70998C122.213 3.21341 121.409 2.96512 120.516 3.04788C120.07 3.13064 119.623 3.13064 119.177 3.13064C119.088 1.64092 116.587 0.730547 115.159 1.72369C114.534 2.1375 113.909 2.46855 113.194 2.88236C112.837 3.04788 112.48 3.29616 112.123 3.54444C111.051 4.20654 110.873 5.11692 111.23 5.86177C109.533 6.19282 107.747 6.35835 106.051 6.68939C105.247 5.19968 103.372 4.20654 101.05 4.37206C98.3717 4.53758 95.9608 5.69625 93.3713 6.4411C93.9071 5.3652 93.8178 4.12378 92.657 3.37892C91.6747 2.71683 90.3353 2.96512 89.5317 3.70998C89.2638 3.95826 88.9959 4.2893 88.9066 4.62035C87.2994 4.86863 86.3172 6.19283 86.8529 7.43426C87.0315 7.7653 87.2101 8.01358 87.3887 8.34463C86.9422 8.34463 86.4957 8.51015 86.1386 8.92396C85.1563 9.83434 83.9955 10.5792 82.7454 11.2413C82.924 10.3309 82.3883 9.33777 80.9596 9.17224C78.9951 9.00672 77.3879 9.50329 75.6913 10.1654C73.9947 9.42053 72.0303 9.75158 69.9765 10.2481C68.3692 9.08949 65.244 9.33777 62.8331 10.4964C62.7438 10.4137 62.6545 10.3309 62.5652 10.2481L62.6545 10.1654C62.7438 9.99986 62.9224 9.9171 63.0117 9.83434C63.3688 9.58606 63.9046 9.42053 64.3511 9.17224C65.4226 8.59291 64.7082 7.1032 63.4581 7.26872C62.5652 7.43425 61.8509 7.84806 61.2258 8.34463C60.9579 8.59291 60.7794 8.84121 60.5115 9.08949V9.17224C59.7971 9.17224 58.9935 9.58605 58.6363 10.1654C58.1006 10.9102 58.4577 11.6551 58.8149 12.4C58.9042 12.5655 58.9935 12.731 59.0828 12.8965C58.9935 12.9793 58.9935 12.9793 58.9042 13.062C58.7256 13.2276 58.547 13.3103 58.3684 13.4759C58.2791 13.5586 58.1898 13.6414 58.1005 13.7241C58.1005 13.8069 58.0113 13.8069 58.0113 13.8897C57.2076 13.2276 56.3147 12.6482 55.1539 12.4C53.1894 11.9034 51.1357 12.731 49.3498 13.3103C48.0104 13.7241 46.7603 14.3035 45.5995 14.8828C45.1531 15.1311 44.7066 15.2966 44.2601 15.5449C43.5458 16.0415 43.3672 16.0415 43.903 15.6277C42.0278 15.2139 40.242 16.538 38.8133 17.6967C36.9381 16.7863 34.2593 17.6967 32.7413 19.4347C32.7413 19.1037 32.652 18.6898 32.3842 18.3588C32.2949 18.1933 32.1163 18.1105 31.9377 18.0277C31.8484 17.6139 31.5805 17.2829 31.1341 17.0346C30.3304 16.538 29.0803 16.4553 28.2767 17.0346C27.2052 17.7795 26.4015 18.6071 25.6872 19.6002C25.2407 19.7658 24.8836 19.9313 24.4371 20.0968C23.5442 19.7657 22.4726 19.6002 21.4904 19.5175C20.6868 18.9381 19.6153 18.6898 18.4545 18.9381C17.7401 19.1037 17.2044 19.4347 16.7579 19.9313C16.4007 20.014 16.0435 20.014 15.6864 20.014C13.2755 19.7658 12.2039 22.5796 14.4363 23.4073C15.865 23.9038 18.0973 23.7383 19.4367 22.9107C19.6153 22.9935 19.7939 23.0762 20.0617 23.0762C20.151 23.0762 20.2403 23.0762 20.3296 23.0762C19.7939 24.0694 20.7761 25.0625 22.0262 25.0625C23.0977 25.0625 23.9906 24.7315 24.7943 24.3176C24.6157 25.228 25.2407 26.0556 26.3122 26.4695C27.8302 25.8074 29.6161 25.5591 31.2234 25.7246C31.4019 25.7246 31.5805 25.7246 31.6698 25.8074H31.7591C31.7591 25.8074 31.7591 25.8074 31.7591 25.8901C33.1878 26.1384 34.4379 26.8833 34.8844 27.9592C35.1523 27.8764 35.4201 27.7936 35.688 27.6281C36.1345 27.2971 36.5809 27.0488 36.9381 26.7177C37.5632 26.3867 38.0096 25.9729 38.0989 25.3936C37.2953 25.228 35.7773 24.8142 35.8666 24.8142C35.2415 25.1453 34.3486 25.3935 33.6343 25.0625C32.7413 24.6487 31.5805 24.8142 30.5983 24.8142C27.7409 24.8142 28.5446 21.1727 31.4019 21.1727C32.5628 21.1727 33.6343 21.0899 34.6165 21.3382C36.0452 20.8416 37.4739 21.0072 38.6347 21.8348C39.1704 21.8348 39.7955 21.8348 40.3312 21.752C40.9563 21.3382 41.5813 20.9244 42.2064 20.5106C43.4565 19.6002 43.903 20.4278 45.2424 19.9313C45.5102 19.8485 45.7781 19.683 46.046 19.6002C47.2068 17.1174 51.0464 16.1242 53.8145 17.1174C54.0824 17.2001 54.2609 17.2829 54.5288 17.4484C54.7967 17.6139 55.0646 17.7795 55.2432 17.945C55.7789 18.3588 56.1361 18.8554 56.404 19.3519C57.2969 20.2623 58.2791 20.5106 59.3507 20.5106C60.4222 21.9176 63.6367 22.1658 64.3511 20.2623C64.4404 20.014 64.5296 19.683 64.6189 19.4347C63.9939 19.1037 63.4581 18.6898 62.8331 18.276C62.2973 17.945 61.9402 17.2829 62.0294 16.7036C62.0294 16.538 62.0294 16.3725 62.0294 16.207C62.6545 13.2276 67.7442 12.5655 70.6909 13.1448C72.3874 13.4759 74.084 14.469 74.3519 15.9587C74.9769 16.1242 75.602 16.0415 76.1378 15.876C77.8343 15.1311 79.6202 14.5518 81.1382 13.5586C81.1382 14.469 81.9418 15.4621 82.924 15.7932C82.7454 15.8759 82.5668 16.0415 82.3883 16.1242C82.299 16.207 82.2097 16.207 82.0311 16.2898C81.8525 16.3725 81.6739 16.538 81.4953 16.7036C79.0844 18.6071 82.7454 21.2555 85.2456 19.9313C85.7814 19.683 86.2279 19.3519 86.7636 19.0209C87.2994 19.1037 87.9244 19.0209 88.3709 18.8554C88.4602 18.1105 88.7281 17.3657 89.0852 16.6208C89.0852 16.538 89.1745 16.538 89.1745 16.4553C89.3531 15.6277 89.621 14.8 89.8889 13.9724C90.0675 13.4759 90.4246 13.2276 90.8711 13.062C90.9604 12.8965 90.9604 12.731 91.0497 12.5655C91.3176 11.9861 92.1212 11.5723 92.8355 11.4896C93.0141 11.4896 93.1927 11.4896 93.3713 11.4896C93.6392 11.1585 93.9071 10.8275 94.0856 10.4137C94.7107 9.58605 95.7822 9.25501 96.7644 9.42053C97.4788 8.75844 98.7289 8.59291 99.6218 8.92396C99.8897 8.8412 100.068 8.8412 100.336 8.8412C102.033 8.67568 104.265 8.75844 105.604 9.83434L105.694 9.91711C106.408 10.1654 106.944 10.662 107.033 11.4068C107.212 12.1517 107.212 12.8965 107.212 13.6414L107.301 13.7241C107.301 13.9724 107.39 14.3035 107.569 14.469L107.658 14.5518C108.015 14.8828 108.64 15.1311 109.265 14.8828C109.533 14.8001 109.801 14.6345 109.98 14.469C110.158 14.3035 110.248 14.138 110.248 13.9724C110.694 13.5586 110.783 13.062 110.516 12.6482C110.516 12.5655 110.516 12.5655 110.516 12.6482C110.783 12.3172 110.962 11.9861 110.962 11.6551C111.141 11.6551 111.408 11.5723 111.587 11.4068C111.676 11.4068 111.676 11.324 111.676 11.2413C111.766 11.2413 111.855 11.2413 111.944 11.2413C112.034 11.1585 112.034 11.0758 112.123 11.0758C113.73 9.75158 115.873 9.25501 117.927 10.0826C118.82 10.4964 119.623 11.0758 120.248 11.8206C120.874 12.2344 121.32 12.8138 121.141 13.4759C121.231 13.8069 121.32 14.138 121.32 14.469C122.034 14.8001 122.927 14.8828 123.999 14.7173C125.606 14.469 126.499 12.9793 125.517 11.8206C124.892 10.993 124.713 11.4896 125.249 10.4137C125.517 9.83434 125.517 9.25501 125.338 8.8412H125.427C126.678 7.59978 127.392 6.68939 126.856 5.69625Z" fill="#8B3223"/>
<path d="M24.8839 25.7246C25.0625 25.5591 24.7947 25.3108 24.6161 25.3936C24.4375 25.5591 24.3482 25.5591 24.2589 25.4763C23.4553 24.9798 22.1159 25.1453 21.7587 25.9729C21.6694 26.304 21.5801 26.4695 21.5801 26.8005C21.4908 26.8833 21.4908 26.9661 21.4015 27.0488C21.223 27.3799 21.0444 27.7937 20.9551 28.1247C21.7587 28.6213 22.2945 29.3662 22.5623 30.1938C22.8302 30.2765 23.0981 30.1938 23.2767 30.0282C22.9195 28.8696 23.4553 27.5454 24.7947 26.7178C24.8839 26.4695 24.884 26.1384 24.7054 25.9729C24.6161 25.8902 24.7054 25.8074 24.8839 25.7246Z" fill="#8B3223"/>
<path d="M13.0074 43.1871C12.7395 43.1871 12.5609 43.1044 12.3824 43.0216C12.3824 43.0216 12.2931 42.9389 12.2038 42.9389C12.2038 42.3595 11.1323 42.525 11.1323 43.1044C11.1323 42.9389 11.1323 43.1871 11.043 43.1871C11.043 43.2699 11.043 43.4354 11.043 43.5182C11.1323 43.7665 11.3109 43.8492 11.5787 43.932C11.668 44.0148 11.8466 44.0148 12.0252 43.932C12.2931 44.0148 12.4717 44.0975 12.8288 44.0975C13.5432 44.1803 13.7218 43.3527 13.0074 43.1871Z" fill="#C17528"/>
<path d="M20.5978 44.842C20.5978 44.7593 20.5085 44.5938 20.3299 44.5938C20.1513 44.511 20.062 44.511 19.8834 44.511C19.6155 44.511 19.3477 44.7593 19.3477 45.0076C19.3477 45.2558 19.7048 45.4214 19.8834 45.5869C20.4192 46.0007 21.1335 45.2558 20.5978 44.842Z" fill="#C17528"/>
<path d="M24.0811 47.8214C24.1704 47.2421 23.0989 47.0766 22.9203 47.6559C22.7417 48.4007 23.3668 48.8146 24.1704 48.7318C24.9741 48.649 24.7955 47.7387 24.0811 47.8214Z" fill="#C17528"/>
<path d="M28.6342 47.4079C28.6342 47.5734 28.6342 47.5734 28.6342 47.4079C28.5449 46.9941 27.8306 46.9113 27.5627 47.2424C27.5627 47.2424 27.5627 47.2424 27.4734 47.2424C26.9377 46.8285 26.2233 47.5734 26.7591 47.9872C27.027 48.1528 27.2055 48.3183 27.5627 48.4838C27.8306 48.5666 28.0985 48.4838 28.2771 48.3183C28.9021 48.401 29.2593 47.6562 28.6342 47.4079Z" fill="#C17528"/>
<path d="M35.8673 47.4905C35.778 47.4905 35.778 47.4078 35.778 47.325C35.6887 46.7457 34.6172 46.8284 34.7065 47.4078C34.7065 47.6561 34.7957 47.8216 34.9743 47.9871C35.1529 48.1526 35.5101 48.2354 35.778 48.0699C35.9566 47.9871 36.1351 47.6561 35.8673 47.4905Z" fill="#C17528"/>
<path d="M41.3143 47.9874C41.0464 47.6564 40.2428 47.8219 40.3321 48.3185L40.4214 48.815C40.4214 49.0633 40.6893 49.2289 41.0464 49.2289H41.3143C41.5822 49.2289 41.8501 48.9806 41.8501 48.7323C41.7608 48.484 41.5822 48.1529 41.3143 47.9874Z" fill="#C17528"/>
<path d="M46.4028 49.146C46.0456 48.7322 45.4205 48.7322 45.0634 49.146C44.9741 49.2288 44.8848 49.3116 44.8848 49.4771C44.8848 49.5599 44.8848 49.6426 44.8848 49.6426C45.0634 50.1392 45.5991 50.2219 46.2242 49.9737C46.3135 49.8909 46.4028 49.8081 46.492 49.7254C46.492 49.4771 46.492 49.3116 46.4028 49.146Z" fill="#C17528"/>
<path d="M61.583 48.5667C61.4938 48.5667 61.4045 48.5666 61.4045 48.6494C61.4045 48.4839 61.4045 48.2356 61.4937 48.0701C61.583 47.8218 61.2259 47.4907 60.8687 47.5735C60.7794 47.5735 60.6008 47.5735 60.5115 47.6563H60.4222C60.3329 47.6563 60.1544 47.5735 59.9758 47.6563C59.8865 47.739 59.7079 47.739 59.6186 47.8218C59.44 47.9873 59.44 48.3184 59.7079 48.4839C59.8865 48.5667 60.0651 48.5667 60.2437 48.5667C60.2437 48.7322 60.2436 48.9805 60.1544 49.146C60.0651 49.477 60.4222 49.7253 60.7794 49.6426C61.2259 49.6426 61.583 49.5598 61.9402 49.3943C62.6546 49.2288 62.2974 48.3184 61.583 48.5667Z" fill="#C17528"/>
<path d="M69.7093 49.6426C69.5307 49.5598 69.3521 49.5598 69.3521 49.3943C69.4414 48.8977 68.8163 48.7322 68.3699 49.0632C68.2806 49.146 68.1913 49.146 68.0127 49.2288C68.0127 49.146 67.9234 49.0633 67.8341 48.9805C67.7448 48.8977 67.6555 48.815 67.5662 48.7322C67.4769 48.7322 67.2984 48.5667 67.3877 48.6494C66.9412 48.1529 66.0483 48.7322 66.4947 49.2288C66.584 49.3943 66.7626 49.3943 66.9412 49.477C67.1198 49.5598 67.0305 49.7253 67.0305 49.8909C66.9412 50.3874 67.6555 50.5529 68.0127 50.2219C68.102 50.1391 68.3699 50.0564 68.4592 50.0564C68.5485 50.2219 68.9056 50.3874 68.9949 50.3874C69.62 50.6357 70.3343 49.9736 69.7093 49.6426Z" fill="#C17528"/>
<path d="M80.4246 47.6564C80.3353 47.5736 80.3353 47.5736 80.3353 47.4908C80.3353 47.2426 79.8888 46.9943 79.6209 47.1598C79.4423 47.2426 79.353 47.2426 79.1745 47.2426C79.0852 46.6632 78.0136 46.8288 78.1029 47.4081C78.1029 47.6564 78.1922 47.9874 78.4601 48.1529C78.6387 48.3185 78.9959 48.2357 79.1745 48.1529H79.2638V48.2357C79.2638 48.484 79.6209 48.6495 79.8888 48.6495L80.6031 48.5667C81.2282 48.484 81.1389 47.5736 80.4246 47.6564Z" fill="#C17528"/>
<path d="M86.4958 48.5664C86.1387 48.4008 85.7815 48.3181 85.7815 47.9043C85.7815 47.656 85.6029 47.3249 85.1564 47.4077C84.8886 47.4905 84.7993 47.4905 84.6207 47.325C84.4421 47.1594 84.2635 47.0767 83.9956 46.9939C83.2813 46.8284 83.1027 47.7388 83.8171 47.9043C83.9063 47.9043 84.1742 48.1526 84.2635 48.2353C84.4421 48.3181 84.6207 48.3181 84.71 48.3181C84.7993 48.4836 84.7993 48.6491 84.9779 48.8147C85.2457 49.0629 85.6029 49.2285 85.9601 49.394C86.6744 49.725 87.1209 48.8974 86.4958 48.5664Z" fill="#C17528"/>
<path d="M90.693 48.4836C90.6037 48.4836 90.4252 48.4836 90.5145 48.4836C89.8894 48.1525 89.1751 48.8974 89.8001 49.2284C90.1573 49.394 90.4252 49.394 90.7823 49.394C91.4967 49.3112 91.4074 48.4008 90.693 48.4836Z" fill="#C17528"/>
<path d="M94.7994 48.649H94.8887C94.1744 48.7317 94.2637 49.6421 94.978 49.5594C95.2459 49.5594 95.4244 49.3938 95.603 49.2283C96.0495 48.8145 95.2459 48.2351 94.7994 48.649Z" fill="#C17528"/>
<path d="M100.336 48.1529V48.4012C100.425 48.9805 101.497 48.8977 101.407 48.3184V48.0701C101.407 47.4908 100.336 47.5736 100.336 48.1529Z" fill="#C17528"/>
<path d="M59.4399 50.8015C59.4399 50.5532 59.2613 50.2222 58.9042 50.305C58.1005 50.4705 58.0112 51.1326 58.7256 51.3808C59.172 51.6291 59.6185 51.1326 59.4399 50.8015Z" fill="#C17528"/>
<path d="M54.5294 50.3873C54.4401 50.3045 54.4401 50.139 54.4401 50.0562C54.3508 49.4769 53.2793 49.5596 53.3686 50.139C53.3686 50.47 53.4578 50.7183 53.7257 50.9666C53.9936 51.4632 54.8865 50.8838 54.5294 50.3873Z" fill="#C17528"/>
<path d="M49.7975 51.0494C49.7082 50.3873 48.6367 50.5528 48.726 51.1321L48.8153 51.7115C48.8153 51.9597 49.0832 52.1253 49.4403 52.1253C49.7975 52.1253 50.1547 52.0425 50.4226 51.7942C50.6904 51.3804 50.244 50.9666 49.7975 51.0494Z" fill="#C17528"/>
<path d="M75.6035 50.3875C75.5142 50.0564 74.9785 49.8909 74.7106 50.222C74.2641 50.7185 74.6213 51.2151 75.3356 51.2151C75.8714 51.1323 75.9607 50.6358 75.6035 50.3875Z" fill="#C17528"/>
<path d="M82.2985 50.139C82.2985 50.2218 82.2985 50.2218 82.2985 50.139C82.2092 49.6425 81.1377 49.7252 81.227 50.3046C81.227 50.5529 81.4055 50.7184 81.5841 50.8012C82.1199 51.2977 82.8342 50.5529 82.2985 50.139Z" fill="#C17528"/>
<path d="M83.4613 51.3809V51.4637C83.5506 52.043 84.6221 51.9602 84.5328 51.3809V51.2981C84.4436 50.6361 83.372 50.8016 83.4613 51.3809Z" fill="#C17528"/>
<path d="M84.977 50.2217V50.3045C85.0663 50.8838 86.1378 50.8011 86.0485 50.2217V50.139C85.9592 49.5596 84.8877 49.6424 84.977 50.2217Z" fill="#C17528"/>
<path d="M77.0316 49.8907V50.139C77.1209 50.7183 78.1924 50.6356 78.1031 50.0562V49.8079C78.0139 49.2286 76.9424 49.3113 77.0316 49.8907Z" fill="#C17528"/>
<path d="M105.248 47.2426C105.07 47.6564 104.98 48.0702 105.159 48.484C105.427 48.9806 106.498 48.6496 106.23 48.153C106.141 47.9875 106.23 47.8219 106.23 47.6564C106.498 46.9943 105.516 46.6633 105.248 47.2426Z" fill="#C17528"/>
<path d="M108.463 47.4082C108.374 47.491 108.195 47.5737 108.106 47.6565C107.927 47.822 107.927 48.1531 108.195 48.3186C108.374 48.4014 108.463 48.4014 108.731 48.4014C108.999 48.4014 109.177 48.2358 109.177 48.0703C109.267 47.9876 109.267 47.9876 109.356 47.9048C109.802 47.5737 108.999 46.9944 108.463 47.4082Z" fill="#C17528"/>
<path d="M111.944 47.5735C111.854 47.739 111.676 47.8218 111.587 47.9873C111.14 48.4839 112.033 48.9804 112.479 48.5666C112.569 48.4011 112.747 48.3184 112.837 48.1528C113.283 47.6563 112.39 47.077 111.944 47.5735Z" fill="#C17528"/>
<path d="M113.82 46.0012C113.642 46.1667 113.553 46.2495 113.553 46.415C113.463 46.5805 113.642 46.8288 113.91 46.9116H113.999C114.267 46.9944 114.624 46.9116 114.713 46.6633C114.713 46.5805 114.713 46.5805 114.713 46.4978C115.16 46.084 114.267 45.5046 113.82 46.0012Z" fill="#C17528"/>
<path d="M116.767 45.9182C116.588 46.0838 116.41 46.2493 116.41 46.4976C116.32 47.0769 117.392 47.2424 117.481 46.6631C117.481 46.5803 117.57 46.4976 117.57 46.4976C118.106 46.0838 117.213 45.5044 116.767 45.9182Z" fill="#C17528"/>
<path d="M118.463 45.9179C118.284 46.1662 118.284 46.4145 118.284 46.6628C118.373 47.2421 119.445 47.1593 119.356 46.58C119.356 46.4973 119.356 46.4145 119.356 46.3317C119.891 45.7524 118.82 45.3386 118.463 45.9179Z" fill="#C17528"/>
<path d="M120.161 44.3458L120.25 44.8423C120.34 45.4217 121.411 45.3389 121.322 44.7596L121.233 44.263C121.233 43.6837 120.072 43.7664 120.161 44.3458Z" fill="#C17528"/>
<path d="M122.839 44.7593C123.018 44.18 121.946 44.0973 121.768 44.6766C121.589 45.2559 122.036 45.6697 122.75 45.6697C123.018 45.6697 123.286 45.4214 123.286 45.1731C123.197 44.9249 123.018 44.8421 122.839 44.7593Z" fill="#C17528"/>
<path d="M123.821 45.0081V45.1737C123.911 45.753 124.982 45.6702 124.893 45.0909V44.9254C124.893 44.346 123.732 44.4288 123.821 45.0081Z" fill="#C17528"/>
<path d="M127.75 42.856C127.392 42.6077 126.678 42.6905 126.767 43.1871C126.857 43.5181 127.125 43.7664 127.571 43.6837C128.107 43.6837 128.107 43.0216 127.75 42.856Z" fill="#C17528"/>
<path d="M131.054 44.4285L130.876 44.594C130.429 45.0906 131.322 45.5872 131.769 45.1734L131.858 45.0078C132.394 44.5113 131.501 43.9319 131.054 44.4285Z" fill="#C17528"/>
<path d="M128.552 45.8354C128.374 45.8354 128.374 45.8354 128.195 45.7527C128.017 45.6699 127.927 45.6699 127.749 45.6699C127.57 45.6699 127.481 45.6699 127.392 45.7527C127.392 45.8354 127.302 45.8354 127.213 45.8354C126.499 45.9182 126.588 46.8286 127.302 46.7458C127.481 46.7458 127.659 46.6631 127.749 46.5803C128.017 46.6631 128.284 46.7458 128.642 46.6631C129.356 46.6631 129.267 45.8354 128.552 45.8354Z" fill="#C17528"/>
<path d="M132.392 42.7735V42.8562C132.481 43.4356 133.553 43.3528 133.463 42.7735V42.6907C133.374 42.0286 132.303 42.1942 132.392 42.7735Z" fill="#C17528"/>
<path d="M133.822 40.87C133.733 41.2838 133.733 41.6976 133.822 42.1115C133.911 42.6908 134.983 42.608 134.893 42.0287C134.893 41.6976 134.804 41.3666 134.893 41.0355C135.072 40.4562 133.911 40.2907 133.822 40.87Z" fill="#C17528"/>
<path d="M137.305 43.0217C137.216 43.0217 137.216 43.0217 137.305 43.0217C136.948 42.7734 136.233 43.1044 136.412 43.601C136.591 44.0148 137.037 44.0148 137.394 43.9321C138.109 43.8493 138.019 42.9389 137.305 43.0217Z" fill="#C17528"/>
<path d="M140.162 41.6146C140.073 41.6146 140.073 41.5318 140.073 41.4491C139.984 40.8697 138.912 40.9525 139.001 41.5318C139.001 41.7801 139.091 41.9456 139.269 42.1112C139.448 42.2767 139.805 42.3595 140.073 42.1939C140.251 42.1112 140.341 41.7801 140.162 41.6146Z" fill="#C17528"/>
<path d="M140.607 39.5455V39.7938C140.697 40.3731 141.768 40.2903 141.679 39.711V39.4627C141.679 38.8834 140.607 38.9661 140.607 39.5455Z" fill="#C17528"/>
<path d="M143.287 38.3868C143.019 38.304 142.929 38.0557 142.929 37.8074C142.84 37.2281 141.769 37.3109 141.858 37.8902C141.947 38.4695 142.304 38.8833 142.84 39.1316C143.465 39.5454 143.912 38.7178 143.287 38.3868Z" fill="#C17528"/>
<path d="M146.948 38.3867C146.859 38.2212 146.502 38.1384 146.323 38.2212C146.502 38.1384 146.591 38.0557 146.68 37.8901C146.769 37.5591 146.769 37.1453 146.591 36.8142C146.412 36.5659 146.144 36.4832 145.876 36.5659C145.609 36.6487 145.43 36.9798 145.519 37.1453C145.609 37.3936 145.698 37.5591 145.609 37.7246C145.519 37.9729 145.787 38.2212 146.055 38.2212C146.144 38.2212 146.234 38.2212 146.234 38.2212C146.055 38.304 145.966 38.4695 145.966 38.635C146.055 39.4626 146.859 39.6281 147.573 39.1316C148.109 38.8005 147.484 38.1384 146.948 38.3867Z" fill="#C17528"/>
<path d="M149.714 37.1452C149.357 37.0624 149.179 36.8969 149.446 36.5658C149.804 36.0692 148.732 35.6554 148.464 36.2348C148.018 36.9796 148.464 37.7245 149.357 37.9728C149.893 38.2211 150.339 37.3934 149.714 37.1452Z" fill="#C17528"/>
<path d="M150.518 35.7386V36.0696C150.607 36.649 151.679 36.5662 151.59 35.9869V35.6558C151.5 35.0765 150.429 35.1593 150.518 35.7386Z" fill="#C17528"/>
<path d="M152.394 34.1659C152.215 34.0004 151.947 34.0004 151.679 34.1659C151.501 34.2487 151.412 34.3314 151.322 34.497C151.233 34.6625 151.233 34.828 151.412 34.9935C151.679 35.2418 152.037 35.1591 152.215 35.1591C152.93 34.9935 152.93 34.2487 152.394 34.1659Z" fill="#C17528"/>
<path d="M154.449 34.5802C154.092 34.8285 153.824 35.0768 153.645 35.4078C153.378 35.9872 154.36 36.3182 154.628 35.7389C154.717 35.4906 154.896 35.4078 155.074 35.2423C155.699 34.994 155.074 34.2492 154.449 34.5802Z" fill="#C17528"/>
<path d="M157.395 33.9175C157.395 34.0003 157.305 34.0003 157.305 34.083C156.859 34.5796 157.752 35.0762 158.198 34.6624C158.198 34.5796 158.288 34.5796 158.377 34.4968C158.734 34.0003 157.841 33.4209 157.395 33.9175Z" fill="#C17528"/>
<path d="M160.072 32.0969C159.894 31.9314 159.626 31.8486 159.358 31.9314C159.001 31.9314 158.554 32.1797 158.733 32.5107C158.912 32.9245 159.447 33.0073 159.894 32.6762C160.162 32.5935 160.251 32.3452 160.072 32.0969Z" fill="#C17528"/>
<path d="M161.68 30.2763C161.591 30.2763 161.501 30.1935 161.501 30.1107C161.233 29.5314 160.251 29.9452 160.43 30.4418C160.519 30.6901 160.698 30.8556 160.966 30.9383C161.501 31.3521 162.216 30.6073 161.68 30.2763Z" fill="#C17528"/>
<path d="M161.235 28.3726C160.789 28.7864 160.699 29.2002 161.324 29.4485C161.771 29.614 162.128 29.283 162.039 28.9519C162.575 28.4554 161.771 27.876 161.235 28.3726Z" fill="#C17528"/>
<path d="M162.751 27.6274C162.662 27.7101 162.662 27.7101 162.662 27.7101C162.215 27.8756 162.126 28.5377 162.751 28.6205C162.84 28.6205 162.93 28.6205 163.019 28.6205C163.198 28.6205 163.376 28.5377 163.465 28.3722C163.912 27.9584 163.287 27.2135 162.751 27.6274Z" fill="#C17528"/>
<path d="M164.717 28.042C164.449 27.9593 164.181 28.042 164.003 28.2903C163.824 28.4558 163.824 28.7041 163.824 28.8696C163.914 29.449 164.985 29.3662 164.896 28.7869C164.896 28.7041 164.896 28.7041 164.985 28.6213C165.164 28.4558 164.985 28.1248 164.717 28.042Z" fill="#C17528"/>
<path d="M166.682 24.8969C166.682 24.8141 166.682 24.6486 166.593 24.5659C166.861 24.0693 166.146 23.6555 165.7 24.0693C165.521 24.3176 165.343 24.5659 165.343 24.8141C165.432 25.228 165.879 25.3107 166.236 25.3107C166.325 25.3107 166.325 25.3107 166.414 25.3107C166.325 25.559 166.146 25.8073 165.968 26.0556C165.789 25.8073 165.343 25.6418 165.075 25.89C164.807 26.1383 164.718 26.3866 164.718 26.7177C164.718 27.297 165.789 27.2142 165.789 26.6349C165.968 26.8832 166.414 26.9659 166.682 26.7177C167.129 26.3038 167.397 25.89 167.575 25.3107C167.575 24.8969 167.039 24.7314 166.682 24.8969Z" fill="#C17528"/>
<path d="M65.7806 49.9734C65.3342 49.7251 64.7091 50.0561 64.8877 50.5527C65.0663 50.9665 65.5128 50.9665 65.9592 50.8837C66.5843 50.801 66.495 49.8906 65.7806 49.9734Z" fill="#C17528"/>
<path d="M71.2278 51.0493C71.0492 51.2976 70.7813 51.4632 70.6027 51.7115C70.1562 52.208 70.9599 52.7046 71.4956 52.2908C71.7635 52.0425 71.9421 51.7942 72.21 51.6287C72.4778 51.1321 71.6742 50.5528 71.2278 51.0493Z" fill="#C17528"/>
<path d="M15.1508 45.4218L14.2578 45.5046C13.5435 45.5873 13.6328 46.4977 14.3471 46.4149L15.2401 46.3322C16.0437 46.2494 15.8651 45.3391 15.1508 45.4218Z" fill="#C17528"/>
<path d="M17.294 47.1599C16.8475 47.2426 16.6689 47.4081 16.6689 47.8219C16.6689 48.3185 17.4726 48.3185 17.7405 47.9875C18.0976 47.6564 17.919 47.0771 17.294 47.1599Z" fill="#C17528"/>
<path d="M21.0447 46.8283H20.8661C20.4197 46.9111 20.3304 47.2421 20.4197 47.4904C20.2411 47.4076 19.9732 47.4076 19.7053 47.5732C19.5268 47.7387 19.3482 47.8215 19.0803 47.9042C18.4552 48.2353 19.1696 48.9801 19.7053 48.6491C19.9732 48.4835 20.2411 48.318 20.509 48.1525C20.6876 47.987 20.6876 47.8215 20.5983 47.7387C20.6876 47.7387 20.7768 47.8215 20.8661 47.7387H21.0447C21.8484 47.6559 21.7591 46.7455 21.0447 46.8283Z" fill="#C17528"/>
<path d="M35.4206 49.8911L34.8848 49.9738C34.1705 50.0566 34.2597 50.967 34.9741 50.8842L35.5098 50.8015C36.2242 50.7187 36.1349 49.8083 35.4206 49.8911Z" fill="#C17528"/>
<path d="M38.9919 51.2151C39.0812 51.2151 39.0812 51.2151 38.9919 51.2151C38.1882 51.2979 38.3668 52.2083 39.0812 52.1255C39.4383 52.1255 39.6169 51.96 39.8848 51.7944C40.4206 51.3806 39.5276 50.8013 38.9919 51.2151Z" fill="#C17528"/>
<path d="M42.2064 51.2152C42.2957 50.6358 41.2242 50.5531 41.1349 51.1324C40.9563 51.7117 41.3135 52.2083 42.1171 52.1256C42.6529 52.0428 42.6529 51.3807 42.2064 51.2152Z" fill="#C17528"/>
<path d="M46.2255 50.8839C45.6897 51.0495 45.154 51.1322 44.6182 51.1322C43.9039 51.215 43.9931 52.1253 44.7075 52.0426C45.3325 51.9598 45.9576 51.8771 46.5826 51.7115C47.297 51.546 46.9398 50.6356 46.2255 50.8839Z" fill="#C17528"/>
<path d="M5.77602 41.4492C5.77602 41.3665 5.68672 41.2837 5.68672 41.2837C6.13319 40.7871 5.24025 40.2078 4.79378 40.7044C4.43661 41.1182 4.52591 41.532 4.88308 42.0286C5.24026 42.5251 6.13319 41.9458 5.77602 41.4492Z" fill="#C17528"/>
<path d="M8.45444 42.1938C8.18656 42.0283 7.82938 41.78 7.47221 41.78C6.75786 41.78 6.57927 42.6904 7.29362 42.6904C7.47221 42.6904 7.5615 42.7732 7.74009 42.8559C8.36514 43.2698 9.07949 42.5249 8.45444 42.1938Z" fill="#C17528"/>
<path d="M62.4752 51.9602C62.2073 52.2085 62.118 52.374 62.2073 52.7051C62.2966 53.2844 63.3681 53.2017 63.2788 52.6223C63.2788 52.6223 63.2788 52.6223 63.3681 52.5396C63.8146 52.1258 63.011 51.5464 62.4752 51.9602Z" fill="#C17528"/>
<path d="M61.0479 50.4703L61.1372 51.2151C61.2265 51.7944 62.298 51.7117 62.2087 51.1323L62.1194 50.3875C62.1194 49.7254 60.9586 49.8909 61.0479 50.4703Z" fill="#C17528"/>
<path d="M102.925 45.256C102.836 45.256 102.746 45.3387 102.657 45.3387L102.478 45.4215C101.764 45.587 102.21 46.4146 102.835 46.2491C102.925 46.2491 103.014 46.1663 103.103 46.0836L103.282 46.0008C103.996 45.918 103.55 45.0904 102.925 45.256Z" fill="#C17528"/>
<path d="M95.6041 46.8283L94.2647 46.9938C93.5503 47.0766 93.6396 47.987 94.354 47.9042L95.6934 47.7387C96.4077 47.6559 96.3184 46.7455 95.6041 46.8283Z" fill="#C17528"/>
<path d="M111.765 44.5942C111.675 44.6769 111.586 44.7597 111.497 44.8424C111.407 45.008 111.407 45.2563 111.675 45.4218C111.854 45.5045 112.033 45.5045 112.211 45.5045C112.568 45.5045 112.747 45.1735 112.658 44.9252C112.836 44.5942 112.122 44.2631 111.765 44.5942Z" fill="#C17528"/>
<path d="M92.4791 51.298C92.3898 50.7187 91.3183 50.8842 91.4076 51.4635C91.4969 51.7946 91.6755 52.2084 92.122 52.2084C92.747 52.2084 92.9256 51.4635 92.4791 51.298Z" fill="#C17528"/>
<path d="M98.2822 49.8079V50.139C98.3715 50.7183 99.443 50.6355 99.3537 50.0562V49.7252C99.3537 49.1458 98.2822 49.2286 98.2822 49.8079Z" fill="#C17528"/>
<path d="M103.551 49.8911C102.836 49.9738 102.926 50.8842 103.64 50.8014C104.444 50.7187 104.265 49.8083 103.551 49.8911Z" fill="#C17528"/>
<path d="M169.806 21.6689C169.091 21.7517 169.181 22.6621 169.895 22.5793C170.609 22.5793 170.52 21.6689 169.806 21.6689Z" fill="#C17528"/>
<path d="M11.9374 38.966H11.7588C11.0445 39.0488 11.1338 39.9592 11.8481 39.8764H12.0267C12.8304 39.7936 12.6518 38.8832 11.9374 38.966Z" fill="#DC9656"/>
<path d="M19.8842 42.4424V42.608C19.9735 43.1873 21.045 43.1045 20.9557 42.5252V42.3597C20.8664 41.7804 19.7949 41.8631 19.8842 42.4424Z" fill="#DC9656"/>
<path d="M25.6884 43.1044C25.3313 42.7734 24.5276 43.1045 24.7062 43.601C24.8848 44.0149 25.3313 44.0976 25.7777 44.0149C26.4921 43.9321 26.4028 43.0217 25.6884 43.1044Z" fill="#DC9656"/>
<path d="M30.4197 45.256C30.4197 45.0077 30.2412 44.7594 29.7947 44.8422C29.6161 44.8422 29.4375 44.9249 29.2589 45.0905C29.0804 45.256 29.0804 45.5043 29.2589 45.6698C29.3482 45.7525 29.4375 45.8353 29.5268 45.9181C30.0626 46.1664 30.6876 45.6698 30.4197 45.256Z" fill="#DC9656"/>
<path d="M31.8496 45.67V46.001C31.9389 46.5803 33.0104 46.4976 32.9211 45.9183V45.5872C32.9211 44.9251 31.8496 45.0906 31.8496 45.67Z" fill="#DC9656"/>
<path d="M35.2428 44.263C34.9749 44.594 34.8856 44.8423 34.9749 45.1733C35.0642 45.7526 36.1357 45.6699 36.0464 45.0906C36.0464 45.0078 36.0464 44.925 36.0464 44.8423C36.4929 44.3457 35.5999 43.7664 35.2428 44.263Z" fill="#DC9656"/>
<path d="M38.188 46.4981C38.188 46.5808 38.188 46.5808 38.188 46.4981C38.0094 46.4153 37.9201 46.4153 37.7415 46.4153H37.4737C36.7593 46.4981 36.8486 47.4084 37.563 47.3257H37.6523C38.0987 47.4912 38.6345 47.4084 38.9917 47.0774C39.5274 46.6636 38.7238 46.0843 38.188 46.4981Z" fill="#DC9656"/>
<path d="M40.4219 44.4285L40.5112 45.3389C40.6005 45.9182 41.672 45.8355 41.5827 45.2561L41.4934 44.3458C41.4934 43.7664 40.4219 43.8492 40.4219 44.4285Z" fill="#DC9656"/>
<path d="M44.7967 47.9871C44.6181 47.9871 44.7074 47.9871 44.7074 47.9044C44.6181 47.325 43.4572 47.4078 43.6358 47.9871C43.7251 48.5665 44.2609 48.8975 44.9752 48.8975C45.6003 48.8147 45.511 47.9044 44.7967 47.9871Z" fill="#DC9656"/>
<path d="M47.3868 47.3256C46.6724 47.4084 46.7617 48.3187 47.476 48.236C48.1904 48.1532 48.1011 47.2429 47.3868 47.3256Z" fill="#DC9656"/>
<path d="M51.1373 45.4214C50.7801 45.5042 50.6909 45.918 50.6016 46.1663C50.6016 46.1663 50.6016 46.1663 50.6016 46.2491C50.6016 46.3318 50.6016 46.3318 50.6016 46.4146C50.6016 46.6629 50.7801 46.8284 51.1373 46.8284H51.2266C51.4052 46.8284 51.4945 46.7456 51.5838 46.6629C51.5838 46.6629 51.5838 46.5801 51.6731 46.5801C51.7624 46.4973 51.8517 46.4146 51.941 46.3318C51.941 46.1663 52.0302 46.0835 52.0302 45.918C51.8517 45.4215 51.4945 45.2559 51.1373 45.4214Z" fill="#DC9656"/>
<path d="M55.1541 46.7459C54.9755 46.7459 55.0648 46.7459 55.0648 46.6631C54.9755 46.0838 53.8147 46.1666 53.9933 46.7459C54.0825 47.3253 54.6183 47.6563 55.3327 47.6563C55.9577 47.5735 55.8684 46.6632 55.1541 46.7459Z" fill="#DC9656"/>
<path d="M58.2788 47.2424C58.1002 47.1596 58.0109 47.0769 57.9216 46.9114C57.743 46.332 56.6715 46.6631 56.8501 47.2424C56.9394 47.5735 57.2072 47.739 57.5644 47.9045C58.1002 48.3183 58.8145 47.6562 58.2788 47.2424Z" fill="#DC9656"/>
<path d="M63.2797 47.1594L62.3867 47.2421C61.6724 47.3249 61.7617 48.2353 62.476 48.1525L63.369 48.0697C64.0833 47.987 63.994 47.0766 63.2797 47.1594Z" fill="#DC9656"/>
<path d="M67.0307 45.5044C66.7628 45.5044 66.4056 45.4216 66.1377 45.4216C65.4234 45.4216 65.5127 46.332 66.227 46.332C66.3163 46.332 66.4056 46.4148 66.4949 46.4148C66.6735 46.4975 66.9414 46.4975 67.12 46.4148C67.9236 46.4148 67.745 45.5044 67.0307 45.5044Z" fill="#DC9656"/>
<path d="M72.0323 46.4146C71.8537 46.3318 71.7644 46.2491 71.6751 46.0008C71.5858 45.4215 70.425 45.5042 70.6036 46.0836C70.6929 46.4974 70.9608 46.8284 71.318 47.0767C71.8537 47.4905 72.5681 46.8284 72.0323 46.4146Z" fill="#DC9656"/>
<path d="M75.2451 46.3326C74.8879 46.3326 74.5307 46.4153 74.1736 46.3326C73.4592 46.167 73.0127 46.9947 73.7271 47.1602C74.2628 47.3257 74.7986 47.3257 75.3344 47.2429C76.0487 47.1602 75.9594 46.2498 75.2451 46.3326Z" fill="#DC9656"/>
<path d="M83.4594 44.5111C83.2808 44.3456 83.1915 44.1801 82.9236 44.0146C82.3879 43.6007 81.6735 44.3456 82.2093 44.7594C82.3879 44.925 82.4772 45.0905 82.745 45.256C83.2808 45.6698 83.9951 44.925 83.4594 44.5111Z" fill="#DC9656"/>
<path d="M87.1228 46.2495C86.9442 46.0012 86.7656 45.6702 86.587 45.4219C86.2298 44.9253 85.3369 45.5047 85.6941 46.0012C85.8727 46.2495 86.0512 46.5806 86.2298 46.8289C86.587 47.3254 87.4799 46.7461 87.1228 46.2495Z" fill="#DC9656"/>
<path d="M89.1757 45.7529C88.7293 46.0011 88.9079 46.6632 89.5329 46.5805C90.0687 46.4977 90.2472 46.2494 90.2472 45.8356C90.1579 45.3391 89.3543 45.3391 89.1757 45.7529Z" fill="#DC9656"/>
<path d="M95.5157 42.1939C95.4264 42.1939 95.4264 42.1939 95.5157 42.1939C95.3371 41.6146 94.2656 41.6973 94.3549 42.2767C94.3549 42.6077 94.5335 42.7732 94.8013 42.9388C95.3371 43.2698 96.0515 42.6077 95.5157 42.1939Z" fill="#DC9656"/>
<path d="M97.9257 43.5183H97.7471C97.0328 43.601 97.122 44.5114 97.8364 44.4286H98.015C98.7293 44.3459 98.64 43.4355 97.9257 43.5183Z" fill="#DC9656"/>
<path d="M100.693 42.6901L100.246 42.7729C99.5318 42.8557 99.6211 43.7661 100.335 43.6833H100.782C101.496 43.5178 101.407 42.6074 100.693 42.6901Z" fill="#DC9656"/>
<path d="M105.247 39.4628C104.8 39.5456 104.354 39.6284 104.354 40.0422C104.265 40.5387 105.158 40.7043 105.425 40.3732C106.05 40.2904 105.961 39.3801 105.247 39.4628Z" fill="#DC9656"/>
<path d="M108.195 42.1938C107.927 42.0282 107.748 41.6972 107.48 41.5317C106.945 41.1178 106.23 41.8627 106.766 42.2765C107.034 42.442 107.212 42.7731 107.48 42.9386C108.016 43.3524 108.73 42.6076 108.195 42.1938Z" fill="#DC9656"/>
<path d="M109.087 43.8488C108.373 43.9316 108.462 44.842 109.176 44.7592C109.98 44.6764 109.801 43.7661 109.087 43.8488Z" fill="#DC9656"/>
<path d="M115.07 40.9525C114.713 41.2836 114.356 41.6974 113.82 41.8629C113.195 42.1112 113.552 42.9388 114.177 42.6905C114.891 42.3595 115.338 41.9457 115.874 41.4491C116.409 41.0353 115.606 40.5387 115.07 40.9525Z" fill="#DC9656"/>
<path d="M119.178 37.3934C118.91 37.0624 118.106 37.2279 118.195 37.7245C118.285 38.1383 118.553 38.3038 118.999 38.3038C119.624 38.221 119.624 37.5589 119.178 37.3934Z" fill="#DC9656"/>
<path d="M121.41 38.6353C121.32 38.056 120.159 38.1387 120.338 38.7181C120.427 39.0491 120.606 39.2974 120.695 39.6285C120.784 40.2078 121.945 40.125 121.767 39.5457C121.677 39.2146 121.41 38.9664 121.41 38.6353Z" fill="#DC9656"/>
<path d="M122.66 40.4556V40.3729C122.571 39.7935 121.499 39.8763 121.588 40.4556C121.678 41.035 121.945 41.366 122.66 41.366C123.374 41.2833 123.285 40.5384 122.66 40.4556Z" fill="#DC9656"/>
<path d="M126.232 38.9659C126.143 39.1314 125.964 39.2141 125.875 39.3797C125.429 39.8762 126.232 40.3728 126.768 39.959C126.857 39.7935 127.036 39.7107 127.125 39.5452C127.572 39.0486 126.768 38.4693 126.232 38.9659Z" fill="#DC9656"/>
<path d="M131.232 36.3181C130.964 36.3181 130.785 36.2354 130.518 36.2354C130.25 36.2354 129.893 36.3181 129.893 36.6492C129.893 36.8975 130.071 37.1457 130.339 37.1457C130.607 37.1457 130.786 37.2285 131.053 37.2285C131.321 37.2285 131.678 37.1457 131.678 36.8147C131.678 36.5664 131.5 36.3181 131.232 36.3181Z" fill="#DC9656"/>
<path d="M134.089 37.9729C134 37.8902 133.821 37.7247 133.732 37.5591C133.554 36.9798 132.482 37.0626 132.661 37.6419C132.75 38.0557 133.018 38.3867 133.375 38.635C133.911 39.0488 134.625 38.304 134.089 37.9729Z" fill="#DC9656"/>
<path d="M136.323 36.8145C136.233 36.8972 136.144 36.8972 136.055 36.8972C135.34 36.98 135.43 37.8904 136.144 37.8076C136.59 37.7249 136.858 37.6421 137.126 37.3938C137.662 36.98 136.769 36.4007 136.323 36.8145Z" fill="#DC9656"/>
<path d="M143.465 31.8486C143.197 31.6831 142.929 31.6003 142.572 31.6003C141.858 31.6831 141.947 32.5935 142.662 32.5107C142.662 32.5107 142.662 32.5107 142.751 32.5935C143.287 32.9245 144.001 32.2624 143.465 31.8486Z" fill="#DC9656"/>
<path d="M144.001 34.4972C143.465 34.3317 142.929 34.9938 143.465 35.3248C143.912 35.6559 144.358 35.5731 144.715 35.242C145.162 34.7455 144.537 34.2489 144.001 34.4972Z" fill="#DC9656"/>
<path d="M146.947 32.9245C146.769 33.0072 146.59 33.09 146.322 33.09C145.608 33.1728 145.697 34.0832 146.412 34.0004C146.858 33.9176 147.215 33.8349 147.572 33.6693C148.197 33.3383 147.483 32.5934 146.947 32.9245Z" fill="#DC9656"/>
<path d="M151.769 30.3586C151.501 30.3586 151.144 30.2759 150.876 30.2759C150.162 30.2759 150.251 31.1863 150.965 31.1863C151.055 31.1863 151.144 31.269 151.233 31.269C151.412 31.3518 151.68 31.269 151.858 31.269C152.662 31.1863 152.483 30.2759 151.769 30.3586Z" fill="#DC9656"/>
<path d="M154.715 30.193C154.537 30.193 154.269 29.9447 154.179 29.862C153.644 29.4482 152.929 30.193 153.465 30.6068C153.912 30.9379 154.179 31.1862 154.805 31.1862C155.519 31.1034 155.43 30.193 154.715 30.193Z" fill="#DC9656"/>
<path d="M158.288 28.2075L157.663 28.2902C156.949 28.373 157.038 29.2834 157.752 29.2006L158.377 29.1179C159.092 29.0351 159.003 28.1247 158.288 28.2075Z" fill="#DC9656"/>
<path d="M160.341 26.7178C159.716 26.8005 159.716 27.4626 160.162 27.6281C160.43 27.9592 161.234 27.7937 161.144 27.2971C161.144 26.8833 160.787 26.635 160.341 26.7178Z" fill="#DC9656"/>
<path d="M162.574 24.6479L162.128 24.7307C161.414 24.8134 161.503 25.7238 162.217 25.641L162.664 25.5583C163.378 25.4755 163.289 24.5651 162.574 24.6479Z" fill="#DC9656"/>
<path d="M163.913 22.6621C163.199 22.7448 163.288 23.6552 164.002 23.5724C164.717 23.4897 164.627 22.5793 163.913 22.6621Z" fill="#DC9656"/>
<path d="M165.878 21.007L165.253 21.0898C164.539 21.1726 164.628 22.0829 165.342 22.0002L165.967 21.9174C166.771 21.8347 166.592 20.9243 165.878 21.007Z" fill="#DC9656"/>
<defs>
<radialGradient id="paint0_radial_337_2660" cx="0" cy="0" r="1" gradientUnits="userSpaceOnUse" gradientTransform="translate(69.472 -83.2295) rotate(-5.76586) scale(174.719 143.981)">
<stop offset="0.9147" stop-color="#9B2B3E"/>
<stop offset="0.9249" stop-color="#982C3B"/>
<stop offset="1" stop-color="#813229"/>
</radialGradient>
</defs>
</svg>
