<svg width="206" height="66" viewBox="0 0 206 66" fill="none" xmlns="http://www.w3.org/2000/svg">
<path d="M141.296 15.8484C141.832 17.5036 139.51 19.2416 137.992 20.2347C136.117 21.5589 133.974 22.5521 131.742 23.3797C127.277 25.2004 122.634 26.6074 117.901 27.7661C103.882 31.242 91.5598 31.4903 90.3097 28.3454L84.9521 29.6696L85.8451 32.1524C87.2738 35.9595 102.186 35.6284 119.241 31.4903C125.045 30.0834 130.67 28.3454 136.028 26.1936C138.707 25.1177 141.385 23.959 143.618 22.3865C145.404 21.1451 148.35 18.9933 147.547 17.007L146.654 14.5242L141.296 15.8484Z" fill="#B26EB2"/>
<path d="M113.258 15.1867C96.2035 19.4075 83.5239 25.8629 84.9526 29.67C86.3813 33.477 101.293 33.146 118.348 29.0079C124.152 27.6009 129.778 25.8629 135.135 23.7111C137.814 22.6352 140.493 21.4766 142.725 19.9041C144.511 18.6627 147.458 16.5109 146.654 14.5246C145.225 10.6348 130.313 10.9658 113.258 15.1867ZM137.993 20.2351C136.117 21.5593 133.974 22.5525 131.742 23.3801C127.277 25.2008 122.634 26.6078 117.902 27.7665C103.793 31.2424 91.471 31.4907 90.3102 28.3458C89.1494 25.2008 99.6859 19.8213 113.705 16.3453C127.813 12.8693 140.136 12.6211 141.296 15.766C141.922 17.4212 139.511 19.1592 137.993 20.2351Z" fill="#F1B4B8"/>
<path d="M142.726 19.8215C140.494 21.394 137.815 22.5527 135.136 23.6286C129.779 25.7804 124.153 27.5184 118.349 28.9253C108.616 31.3254 99.5083 32.4841 93.2578 32.2358L94.1507 34.8014C100.401 34.9669 109.42 33.891 119.242 31.4909C125.046 30.084 130.672 28.346 136.029 26.1942C138.708 25.1183 141.387 23.9596 143.619 22.3871C143.887 22.2216 144.155 21.9733 144.512 21.725L143.619 19.1594C143.262 19.4905 142.994 19.656 142.726 19.8215Z" fill="#D27CD0"/>
<path d="M114.419 18.3312C127.009 15.1863 138.26 14.6897 141.296 16.9243C141.385 16.5933 141.475 16.1794 141.296 15.8484C140.135 12.7034 127.813 12.9517 113.705 16.4277C99.5962 19.9037 89.149 25.2832 90.3098 28.4282C90.3991 28.7592 90.6669 29.0903 91.0241 29.3386C92.1849 26.0281 101.829 21.4762 114.419 18.3312Z" fill="#9D639F"/>
<path d="M118.171 28.5941C102.366 32.4839 88.9721 32.6494 87.6327 29.0906C86.2934 25.4491 97.6336 19.573 113.438 15.6832C129.243 11.7934 142.637 11.6279 143.977 15.1867C144.691 17.173 141.744 19.242 140.316 20.3179C138.173 21.8076 135.583 22.8835 133.351 23.7939C128.708 25.6147 123.707 27.1871 118.171 28.5941ZM113.617 16.0971C98.7051 19.7386 87.097 25.6146 88.2578 28.8424C89.4186 32.0701 103.08 31.739 117.992 28.0975C123.529 26.6906 128.44 25.2008 133.083 23.2973C135.226 22.3869 137.726 21.311 139.869 19.9041C141.923 18.4971 143.887 16.8419 143.352 15.3522C142.101 12.0417 128.529 12.3728 113.617 16.0971Z" fill="white"/>
<path d="M140.136 21.3936C138.529 22.2212 136.833 22.966 135.136 23.6281C129.778 25.7799 124.153 27.5179 118.349 28.9249C113.795 30.0835 109.42 30.9111 105.401 31.4077L106.294 33.9733C110.312 33.394 114.688 32.5664 119.242 31.4905C125.046 30.0835 130.671 28.3455 136.029 26.1937C137.725 25.5316 139.422 24.7868 141.029 23.9592L140.136 21.3936Z" fill="#E990E9"/>
<path d="M126.474 29.5871C127.546 29.256 128.617 28.925 129.689 28.594L128.796 26.0283C127.724 26.3594 126.653 26.6904 125.581 27.0215L126.474 29.5871Z" fill="#F5B1F8"/>
<path d="M131.742 27.849C133.171 27.3525 134.599 26.7731 136.028 26.2766C136.207 26.1938 136.385 26.111 136.475 26.111L135.582 23.5454C135.403 23.6282 135.224 23.7109 135.046 23.7109C133.617 24.2903 132.188 24.7868 130.76 25.2834L131.742 27.849Z" fill="#F5B1F8"/>
<path d="M97.4546 24.2903C101.651 22.2212 107.634 20.0694 114.42 18.4142C121.653 16.5934 128.439 15.6831 133.529 15.6831L132.815 13.6968C127.814 13.7795 121.028 14.6899 113.706 16.5107C106.92 18.1659 100.937 20.3177 96.7402 22.3868L97.4546 24.2903Z" fill="#B76EB7"/>
<path d="M118.17 28.7593C102.008 32.7318 87.7213 32.9801 86.3819 29.3386C85.0425 25.6971 97.0971 19.4072 113.348 15.4346C129.51 11.4621 143.797 11.2138 145.137 14.8553C145.851 16.9243 142.815 18.9934 141.297 20.0693C139.065 21.6418 136.386 22.8004 134.064 23.7108C129.243 25.6143 124.064 27.2696 118.17 28.7593ZM113.438 15.6829C97.4542 19.6555 85.489 25.6971 86.7391 29.2558C87.9892 32.8146 102.097 32.4835 118.081 28.511C123.885 27.104 129.064 25.4488 133.975 23.4625C136.297 22.5521 138.886 21.3935 141.119 19.821C143.262 18.3313 145.405 16.5105 144.78 14.8553C143.529 11.3793 129.421 11.7103 113.438 15.6829Z" fill="#F79AFC"/>
<path d="M100.668 22.8006C104.508 21.2282 109.241 19.6557 114.42 18.3315C115.759 18.0004 117.098 17.6694 118.438 17.4211L117.723 15.4348C116.384 15.6831 115.045 16.0142 113.705 16.3452C108.437 17.6694 103.794 19.1591 99.9541 20.8143L100.668 22.8006Z" fill="#D27CD0"/>
<path d="M73.6839 4.58032C73.6839 5.57347 71.9873 6.23557 70.9158 6.56662C69.5764 7.06319 68.1477 7.31147 66.719 7.47699C63.8617 7.8908 60.915 8.05634 58.0576 8.05634C49.4855 8.05634 42.5206 6.48385 42.5206 4.58032H39.2168V6.07004C39.2168 8.38738 47.6996 10.2909 58.0576 10.2909C61.5401 10.2909 65.1118 10.1254 68.5942 9.62881C70.2908 9.38052 72.0766 9.13223 73.5946 8.5529C74.8447 8.05633 76.8984 7.31147 76.8984 6.07004V4.58032H73.6839Z" fill="#B26EB2"/>
<path d="M58.0576 0.359619C47.6103 0.359619 39.2168 2.26313 39.2168 4.58047C39.2168 6.8978 47.6996 8.80132 58.0576 8.80132C61.5401 8.80132 65.1118 8.6358 68.5942 8.13923C70.2908 7.89094 72.0766 7.64265 73.5946 7.06332C74.8447 6.56675 76.8984 5.82189 76.8984 4.58047C76.8984 2.26313 68.5049 0.359619 58.0576 0.359619ZM70.9158 6.56676C69.5764 7.06333 68.1477 7.31161 66.719 7.47713C63.8617 7.89094 60.915 8.05647 58.0576 8.05647C49.4855 8.05647 42.5206 6.48399 42.5206 4.58047C42.5206 2.67694 49.4855 1.10447 58.0576 1.10447C66.6298 1.10447 73.5946 2.67694 73.5946 4.58047C73.6839 5.57361 71.9873 6.23571 70.9158 6.56676Z" fill="#F1B4B8"/>
<path d="M73.5945 7.06322C71.9873 7.64255 70.2907 7.89084 68.5941 8.13913C65.1117 8.6357 61.6293 8.80122 58.0576 8.80122C52.0749 8.80122 46.8066 8.13913 43.3242 7.22875V8.80122C46.8066 9.79437 52.0749 10.3737 58.0576 10.3737C61.54 10.3737 65.1117 10.2082 68.5941 9.71161C70.2907 9.46333 72.0766 9.21504 73.5945 8.6357C73.7731 8.55294 73.9517 8.47018 74.2196 8.38741V6.81494C74.041 6.8977 73.7731 6.98046 73.5945 7.06322Z" fill="#D27CD0"/>
<path d="M58.058 2.26316C65.7372 2.26316 72.1663 3.50459 73.4164 5.15984C73.595 4.99431 73.6843 4.74602 73.6843 4.49774C73.6843 2.59421 66.7195 1.02173 58.1473 1.02173C49.5752 1.02173 42.6104 2.59421 42.6104 4.49774C42.6104 4.74602 42.6996 4.91155 42.8782 5.07707C44.039 3.50459 50.3788 2.26316 58.058 2.26316Z" fill="#9D639F"/>
<path d="M58.0568 8.55304C48.4131 8.55304 40.8232 6.81504 40.8232 4.58047C40.8232 2.3459 48.4131 0.60791 58.0568 0.60791C67.7004 0.60791 75.2903 2.3459 75.2903 4.58047C75.2903 5.82189 73.2366 6.56675 72.1651 6.8978C70.6471 7.47713 68.9505 7.72542 67.6111 7.89094C64.5752 8.30475 61.4499 8.55304 58.0568 8.55304ZM58.0568 0.938952C48.9489 0.938952 41.2697 2.59418 41.2697 4.58047C41.2697 6.56675 48.9489 8.22199 58.0568 8.22199C61.4499 8.22199 64.5752 8.05647 67.5218 7.64266C68.9505 7.47714 70.5578 7.22884 71.9865 6.64951C73.4152 6.15294 74.8439 5.49085 74.8439 4.58047C74.8439 2.59418 67.1647 0.938952 58.0568 0.938952Z" fill="white"/>
<path d="M71.8091 7.56006C70.7376 7.80834 69.6661 7.97386 68.5053 8.13939C65.0228 8.63596 61.5404 8.80149 57.9687 8.80149C55.2006 8.80149 52.5218 8.63596 50.2002 8.38768V9.96015C52.6111 10.2084 55.2006 10.374 57.9687 10.374C61.4511 10.374 65.0228 10.2084 68.5053 9.71187C69.5768 9.54635 70.7376 9.38081 71.8091 9.13253V7.56006Z" fill="#E990E9"/>
<path d="M62.5225 10.2084C63.2368 10.2084 63.8619 10.1257 64.4869 10.0429V8.47046C63.8619 8.55322 63.1475 8.55322 62.5225 8.63598V10.2084Z" fill="#F5B1F8"/>
<path d="M65.8262 9.96067C66.7191 9.8779 67.612 9.79515 68.505 9.62962C68.5942 9.62962 68.6835 9.62962 68.8621 9.54685V7.97437C68.7728 7.97437 68.6835 7.97437 68.505 8.05713C67.612 8.1399 66.7191 8.30542 65.8262 8.38818V9.96067Z" fill="#F5B1F8"/>
<path d="M47.3408 3.25631C50.1089 2.67697 53.9485 2.26316 58.056 2.26316C62.5206 2.26316 66.4495 2.67696 69.3069 3.33906V2.09763C66.4495 1.43553 62.5206 1.02173 58.056 1.02173C53.8592 1.02173 50.1089 1.35278 47.3408 2.01487V3.25631Z" fill="#B76EB7"/>
<path d="M58.0583 8.63629C48.1467 8.63629 40.1104 6.81552 40.1104 4.58096C40.1104 2.34639 48.1467 0.525635 58.0583 0.525635C67.9698 0.525635 76.0061 2.34639 76.0061 4.58096C76.0061 5.82238 73.8631 6.56724 72.7916 6.98105C71.1843 7.56039 69.4878 7.80867 67.9698 8.05696C64.9338 8.47077 61.63 8.63629 58.0583 8.63629ZM58.0583 0.608402C48.236 0.608402 40.2889 2.3464 40.2889 4.4982C40.2889 6.65001 48.236 8.388 58.0583 8.388C61.63 8.388 64.8445 8.22247 67.9698 7.7259C69.4878 7.56038 71.1843 7.22933 72.7023 6.65C74.2203 6.07067 75.8276 5.40858 75.8276 4.41543C75.8276 2.42915 67.8805 0.608402 58.0583 0.608402Z" fill="#F79AFC"/>
<path d="M49.4854 2.8425C51.9856 2.51145 54.9322 2.26317 58.1468 2.26317C58.9504 2.26317 59.754 2.26316 60.5577 2.34592V1.10448C59.754 1.10448 58.9504 1.02173 58.1468 1.02173C54.9322 1.02173 51.9856 1.27001 49.4854 1.60106V2.8425Z" fill="#D27CD0"/>
<path d="M78.2216 45.2396C77.5966 47.8052 73.3998 48.6328 70.8996 49.0466C67.685 49.626 64.2919 49.5432 60.9881 49.2949C54.3804 48.8811 47.6834 47.8052 41.165 46.3155C21.967 42.0119 7.32295 34.4806 8.30518 29.4321L0.98315 27.7769L0.0902198 31.7494C-1.33847 37.791 16.4308 46.9776 39.8256 52.1916C47.6834 53.9296 55.7198 55.2538 63.7561 55.7503C67.7743 55.9986 71.8818 56.0814 75.7214 55.4193C78.8467 54.8399 83.9364 53.8468 84.6507 50.7019L85.5436 46.7293L78.2216 45.2396Z" fill="#B26EB2"/>
<path d="M45.8977 26.3697C22.5923 21.1557 2.50133 21.8178 1.07264 27.8594C-0.356047 33.9011 17.4133 43.0876 40.808 48.3016C48.6658 50.0396 56.7022 51.3638 64.7386 51.8604C68.7568 52.1087 72.8642 52.1914 76.7038 51.5293C79.8291 50.95 84.9188 49.9569 85.6331 46.8119C86.9725 40.7703 69.2032 31.5837 45.8977 26.3697ZM70.8998 49.0465C67.6852 49.6258 64.2921 49.543 60.9883 49.2948C54.3806 48.8809 47.6836 47.805 41.1652 46.3153C21.8779 42.0117 7.14457 34.3976 8.30538 29.4319C9.46619 24.3834 26.0747 23.8869 45.362 28.1905C64.6493 32.4941 79.3826 40.1082 78.2218 45.0739C77.6861 47.805 73.4893 48.6327 70.8998 49.0465Z" fill="#F1B4B8"/>
<path d="M76.7043 51.5292C72.8647 52.1913 68.7572 52.1085 64.739 51.8602C56.7027 51.3637 48.6663 50.0395 40.8085 48.3015C27.4145 45.3221 15.8957 41.0185 8.75231 36.7148L7.85938 40.6874C15.0028 44.9083 26.5216 49.2119 39.9156 52.2741C47.7734 54.0121 55.8097 55.3362 63.8461 55.8328C67.8643 56.0811 71.9718 56.1639 75.8114 55.5018C76.2578 55.419 76.7936 55.3362 77.3294 55.2535L78.2223 51.2809C77.6865 51.3637 77.1508 51.4464 76.7043 51.5292Z" fill="#D27CD0"/>
<path d="M44.7375 31.4182C61.971 35.308 75.5435 41.7634 77.4187 46.6463C77.8652 46.2325 78.133 45.736 78.3116 45.1566C79.4724 40.1909 64.8284 32.5769 45.4518 28.2733C26.1645 23.9697 9.55601 24.4662 8.3952 29.5147C8.30591 30.0113 8.30591 30.5906 8.57379 31.2527C12.4134 27.6112 27.5039 27.5284 44.7375 31.4182Z" fill="#9D639F"/>
<path d="M40.9866 47.5566C19.3777 42.6736 3.48351 34.3975 4.8229 28.6041C6.1623 22.8108 24.1102 22.1487 45.8084 27.0317C67.4173 31.9146 83.3115 40.1908 81.9721 45.9841C81.2577 49.2118 76.0787 50.1222 73.5785 50.536C69.8282 51.1981 65.9886 51.0326 62.6848 50.8671C55.7199 50.3705 48.5765 49.2946 40.9866 47.5566ZM45.5405 27.7765C25.0924 23.2246 6.87664 23.6384 5.62654 28.8524C4.46573 33.9837 20.6278 42.2598 41.0759 46.8117C48.6658 48.5497 55.7199 49.5429 62.5955 50.0395C65.81 50.2877 69.6496 50.3705 73.2214 49.7912C76.7038 49.2118 80.3648 48.2187 80.9898 45.8186C82.2399 40.6046 65.9886 32.4112 45.5405 27.7765Z" fill="white"/>
<path d="M72.4178 52.0259C69.8284 52.1915 67.3281 52.0259 64.7387 51.8604C56.7023 51.3638 48.6659 50.0396 40.8081 48.3016C34.5576 46.8947 28.7536 45.2395 23.5746 43.4187L22.6816 47.3913C27.8606 49.212 33.6647 50.8673 39.9152 52.2742C47.773 54.0122 55.8093 55.3364 63.8457 55.833C66.4352 55.9985 69.0247 56.0813 71.5249 55.9985L72.4178 52.0259Z" fill="#E990E9"/>
<path d="M49.916 54.2601C51.434 54.5084 52.952 54.7567 54.47 54.9222L55.3629 50.9497C53.8449 50.7842 52.3269 50.5359 50.8089 50.2876L49.916 54.2601Z" fill="#F5B1F8"/>
<path d="M57.5049 55.3363C59.5586 55.5846 61.7017 55.7501 63.7554 55.9157C64.0233 55.9157 64.2912 55.9157 64.4697 55.9984L65.3627 52.0259C65.0948 52.0259 64.8269 52.0259 64.6483 52.0259C62.5946 51.8603 60.4516 51.6948 58.3978 51.4465L57.5049 55.3363Z" fill="#F5B1F8"/>
<path d="M20.0928 28.5213C26.7005 28.3558 35.4512 29.349 44.7376 31.418C54.6492 33.6526 63.3999 36.7148 69.2932 39.8597L70.0076 36.7148C64.0249 33.5698 55.3635 30.5076 45.452 28.2731C36.0762 26.204 27.4148 25.2109 20.8071 25.3764L20.0928 28.5213Z" fill="#B76EB7"/>
<path d="M40.8959 47.8881C18.7512 42.9223 1.78555 34.1496 3.12494 28.2735C4.46434 22.4802 23.6623 21.7353 45.807 26.7838C67.9517 31.7495 84.9173 40.5223 83.5779 46.3984C82.8636 49.6261 77.506 50.5365 75.0058 51.033C71.1662 51.6951 67.0587 51.5296 63.6656 51.3641C56.3436 50.7847 48.9323 49.7088 40.8959 47.8881ZM45.7177 27.1149C23.7516 22.1491 4.9108 22.7285 3.57141 28.3563C2.23201 33.9841 19.0191 42.5913 40.9852 47.4742C48.9323 49.295 56.3436 50.3709 63.5763 50.8675C66.9694 51.1158 70.9876 51.1985 74.8272 50.5364C78.5775 49.8744 82.5064 48.8812 83.1315 46.2328C84.3816 40.605 67.5945 32.0806 45.7177 27.1149Z" fill="#F79AFC"/>
<path d="M25.002 28.6044C30.806 28.8527 37.5923 29.8459 44.7357 31.4183C46.6109 31.8322 48.3967 32.246 50.1826 32.7425L50.8969 29.5976C49.1111 29.101 47.3252 28.6872 45.4501 28.2734C38.3066 26.7009 31.5203 25.7078 25.7163 25.4595L25.002 28.6044Z" fill="#D27CD0"/>
<path d="M199.093 59.6688C198.467 61.1585 195.521 61.4896 193.735 61.6551C191.413 61.8207 189.092 61.6551 186.77 61.3241C182.127 60.7447 177.484 59.7516 172.93 58.5102C159.536 54.8687 149.624 49.5719 150.606 46.5925L145.517 45.1855L144.713 47.5029C143.463 51.1444 155.518 57.5998 171.769 61.9862C177.216 63.4759 182.841 64.6345 188.467 65.3794C191.324 65.7104 194.181 66.0415 196.949 65.7932C199.182 65.6277 202.843 65.2966 203.468 63.3931L204.272 61.0758L199.093 59.6688Z" fill="#B26EB2"/>
<path d="M177.215 46.5092C160.964 42.1228 146.766 41.5435 145.516 45.1022C144.266 48.7437 156.32 55.1991 172.572 59.5855C178.018 61.0752 183.644 62.2339 189.269 62.9787C192.127 63.3098 194.984 63.6408 197.752 63.3925C199.985 63.227 203.646 62.896 204.271 60.9924C205.521 57.3509 193.377 50.8955 177.215 46.5092ZM193.734 61.5718C191.412 61.7373 189.091 61.5718 186.769 61.2407C182.126 60.6614 177.483 59.6683 172.929 58.4268C159.535 54.7853 149.534 49.4886 150.606 46.4264C151.677 43.447 163.374 43.9435 176.858 47.5851C190.252 51.2266 200.252 56.5233 199.181 59.5855C198.556 61.158 195.609 61.489 193.734 61.5718Z" fill="#F1B4B8"/>
<path d="M197.663 63.393C194.895 63.6413 192.038 63.3102 189.18 62.9792C183.555 62.2343 177.929 61.0757 172.483 59.586C163.196 57.1031 155.249 53.8754 150.427 50.896L149.534 53.2961C154.356 56.2755 162.303 59.4205 171.59 61.9861C177.036 63.4758 182.662 64.6345 188.287 65.3793C191.145 65.7104 194.002 66.0414 196.77 65.7931C197.127 65.7931 197.485 65.7103 197.842 65.7103L198.735 63.3103C198.377 63.3103 198.02 63.393 197.663 63.393Z" fill="#D27CD0"/>
<path d="M176.144 49.489C188.109 52.7167 197.396 57.3514 198.467 60.4136C198.824 60.1653 199.003 59.917 199.181 59.586C200.253 56.6066 190.252 51.227 176.858 47.5855C163.464 43.944 151.678 43.4474 150.606 46.4269C150.517 46.7579 150.517 47.089 150.606 47.5028C153.553 45.5165 164.179 46.2613 176.144 49.489Z" fill="#9D639F"/>
<path d="M172.661 59.1715C157.66 55.1162 146.855 49.2401 148.016 45.8469C149.266 42.4537 161.946 42.8675 176.947 46.9228C191.948 50.9781 202.753 56.8542 201.592 60.2474C200.877 62.151 197.216 62.482 195.431 62.5648C192.752 62.7303 190.073 62.482 187.751 62.2337C182.93 61.5716 178.018 60.5785 172.661 59.1715ZM176.858 47.3366C162.66 43.5296 149.713 42.8675 148.641 45.9296C147.57 48.9918 158.642 54.8679 172.839 58.675C178.108 60.0819 183.019 61.0751 187.841 61.7371C190.162 62.0682 192.841 62.3165 195.431 62.0682C197.931 61.9027 200.52 61.4889 201.056 59.9992C202.128 57.0197 191.055 51.2264 176.858 47.3366Z" fill="white"/>
<path d="M194.626 63.4754C192.841 63.3926 190.965 63.2271 189.18 62.9788C183.554 62.234 177.929 61.0753 172.482 59.5856C168.196 58.4269 164.088 57.1028 160.606 55.6958L159.713 58.0959C163.285 59.5028 167.303 60.7443 171.589 61.9857C177.036 63.4754 182.661 64.6341 188.287 65.3789C190.073 65.6272 191.858 65.7927 193.734 65.8755L194.626 63.4754Z" fill="#E990E9"/>
<path d="M178.644 63.6408C179.715 63.8891 180.787 64.0546 181.858 64.3029L182.751 61.9028C181.68 61.7373 180.608 61.489 179.536 61.2407L178.644 63.6408Z" fill="#F5B1F8"/>
<path d="M184.001 64.717C185.43 64.9653 186.948 65.2136 188.376 65.3791C188.555 65.3791 188.734 65.3791 188.912 65.4618L189.805 63.0617C189.626 63.0617 189.448 63.0617 189.269 62.979C187.751 62.8135 186.323 62.5652 184.894 62.3169L184.001 64.717Z" fill="#F5B1F8"/>
<path d="M158.822 46.5095C163.466 46.7578 169.627 47.7509 176.056 49.4889C182.931 51.3097 188.914 53.7098 193.021 55.8616L193.736 53.958C189.718 51.7235 183.646 49.4061 176.77 47.5854C170.252 45.8474 164.18 44.8542 159.537 44.606L158.822 46.5095Z" fill="#B76EB7"/>
<path d="M172.573 59.3377C157.125 55.1996 145.606 48.9925 146.857 45.5165C148.107 42.0405 161.59 42.6198 177.038 46.7579C192.485 50.896 204.004 57.1031 202.754 60.5791C202.04 62.4827 198.289 62.8137 196.503 62.9792C193.735 63.2275 190.878 62.8965 188.467 62.5654C183.377 61.9033 178.198 60.8274 172.573 59.3377ZM177.038 46.9234C161.768 42.7854 148.464 42.206 147.214 45.5165C146.053 48.9097 157.482 54.9513 172.662 59.0894C178.198 60.5792 183.377 61.655 188.467 62.3171C190.878 62.6482 193.735 62.8965 196.414 62.731C199.093 62.5654 201.861 62.0688 202.486 60.4964C203.647 57.1859 192.217 51.0615 177.038 46.9234Z" fill="#F79AFC"/>
<path d="M162.303 46.8403C166.321 47.3369 171.143 48.2472 176.054 49.5714C177.304 49.9025 178.643 50.3163 179.804 50.6473L180.518 48.7438C179.268 48.33 178.018 47.999 176.768 47.6679C171.768 46.3437 167.035 45.4333 163.017 44.9368L162.303 46.8403Z" fill="#D27CD0"/>
<path d="M196.563 18.0928C197.099 20.6584 193.706 22.9757 191.563 24.2999C188.884 25.9551 185.759 27.1138 182.633 28.1069C176.383 30.0932 169.864 31.5002 163.257 32.5761C143.791 35.5555 127.093 33.9003 125.843 28.9345L118.432 30.0932L119.325 34.0658C120.664 40.1074 140.933 42.1764 164.596 38.5349C172.543 37.2935 180.49 35.6383 188.08 33.1554C191.83 31.914 195.67 30.5898 198.885 28.5207C201.474 26.8655 205.671 24.1344 204.957 20.9894L204.064 17.0168L196.563 18.0928Z" fill="#7A2B2B"/>
<path d="M158.703 12.4648C135.04 16.1063 117.003 23.8859 118.342 30.0102C119.682 36.1346 139.951 38.1209 163.614 34.4794C171.561 33.2379 179.508 31.5827 187.098 29.0998C190.848 27.8584 194.688 26.5342 197.903 24.4652C200.581 22.81 204.689 20.0788 203.974 16.9339C202.635 10.8095 182.366 8.82325 158.703 12.4648ZM191.473 24.2997C188.795 25.9549 185.669 27.1136 182.544 28.1067C176.294 30.093 169.775 31.4999 163.168 32.5758C143.612 35.5553 126.825 33.9 125.754 28.8516C124.593 23.8031 139.505 17.3477 159.06 14.3683C178.615 11.3889 195.402 13.0441 196.474 18.0925C197.099 20.6582 193.706 22.9755 191.473 24.2997Z" fill="#ED797D"/>
<path d="M197.904 24.4656C194.689 26.4518 190.849 27.8588 187.099 29.1002C179.509 31.5003 171.651 33.2383 163.615 34.4797C150.043 36.5488 137.631 36.797 129.237 35.3901L130.13 39.4454C138.524 40.7696 151.025 40.5213 164.508 38.535C172.455 37.2936 180.402 35.6384 187.992 33.1555C191.742 31.9141 195.582 30.5899 198.797 28.5209C199.154 28.2726 199.6 28.0243 200.047 27.6933L199.154 23.6379C198.707 23.969 198.261 24.2173 197.904 24.4656Z" fill="#993444"/>
<path d="M159.864 17.5133C177.365 14.8649 192.634 15.9408 196.474 19.7479C196.653 19.1685 196.742 18.672 196.653 18.0099C195.492 12.9614 178.794 11.3062 159.239 14.2856C139.684 17.265 124.772 23.7204 125.933 28.7689C126.022 29.3482 126.379 29.8448 126.825 30.2586C128.611 25.6239 142.362 20.1617 159.864 17.5133Z" fill="#7A2B2B"/>
<path d="M163.436 33.7346C141.559 37.0451 123.343 35.1416 122.093 29.3483C120.754 23.5549 136.916 16.4374 158.793 13.1269C180.669 9.81647 198.885 11.72 200.135 17.5133C200.85 20.741 196.564 23.3894 194.51 24.7136C191.385 26.6171 187.813 27.9413 184.688 28.9344C178.169 31.0035 171.204 32.576 163.436 33.7346ZM158.971 13.8718C138.255 17.0167 121.825 24.0515 122.986 29.2655C124.147 34.4795 142.631 36.2175 163.347 32.9898C171.026 31.8311 177.901 30.2586 184.42 28.1896C187.456 27.1965 191.027 25.955 194.063 24.0515C197.01 22.2307 199.957 19.9962 199.421 17.5961C198.171 12.4648 179.687 10.7268 158.971 13.8718Z" fill="#EDADD4"/>
<path d="M194.152 26.4517C191.919 27.4448 189.508 28.3552 187.098 29.1C179.508 31.5001 171.65 33.2381 163.613 34.4795C157.274 35.4727 151.291 35.9692 145.755 36.2175L146.648 40.2729C152.184 40.1073 158.256 39.528 164.506 38.5349C172.454 37.2934 180.401 35.6382 187.991 33.1554C190.401 32.4105 192.812 31.5001 195.045 30.507L194.152 26.4517Z" fill="#B9345E"/>
<path d="M174.597 36.6315C176.115 36.3004 177.633 35.9694 179.062 35.6383L178.169 31.583C176.651 31.9141 175.222 32.2451 173.704 32.5761L174.597 36.6315Z" fill="#D882BA"/>
<path d="M182.008 34.8927C184.062 34.3133 186.026 33.734 187.991 33.1547C188.259 33.0719 188.437 32.9891 188.705 32.9064L187.812 28.8511C187.544 28.9338 187.366 29.0166 187.098 29.0994C185.133 29.7615 183.08 30.3408 181.115 30.8373L182.008 34.8927Z" fill="#D882BA"/>
<path d="M136.022 23.7206C142.005 21.2377 150.398 18.9204 159.863 17.5134C169.953 15.941 179.24 15.6927 186.026 16.4375L185.312 13.2926C178.436 12.5477 169.15 12.8788 159.149 14.3685C149.684 15.7754 141.29 18.0928 135.308 20.5756L136.022 23.7206Z" fill="#993444"/>
<path d="M163.525 34.0658C141.023 37.459 121.736 35.4727 120.396 29.6794C119.057 23.8033 136.29 16.272 158.703 12.8788C181.116 9.48558 200.492 11.4719 201.832 17.2652C202.546 20.4929 198.081 23.3068 196.028 24.631C192.813 26.6172 189.063 27.9414 185.759 29.0173C178.973 31.1691 171.651 32.8244 163.525 34.0658ZM158.882 13.2098C136.648 16.6031 119.593 23.9689 120.932 29.5967C122.182 35.2244 141.291 37.128 163.525 33.7347C171.651 32.4933 178.883 30.8381 185.67 28.6863C188.884 27.6931 192.634 26.3689 195.849 24.3827C198.974 22.3964 202.099 20.0791 201.564 17.4307C200.135 11.6374 181.026 9.81662 158.882 13.2098Z" fill="#A23546"/>
<path d="M140.577 22.065C145.934 20.2443 152.542 18.6718 159.864 17.5131C161.739 17.2648 163.614 17.0165 165.4 16.7682L164.686 13.6233C162.9 13.7888 161.025 14.0371 159.15 14.3682C151.917 15.4441 145.309 17.0993 139.862 18.9201L140.577 22.065Z" fill="#D45382"/>
</svg>
