<svg width="187" height="169" viewBox="0 0 187 169" fill="none" xmlns="http://www.w3.org/2000/svg">
<path d="M180.182 76.4155C176.608 48.5842 136.569 32.9529 90.7121 41.6024C44.8554 50.2519 10.5705 79.746 14.1912 107.646C15.7521 119.868 54.2211 122.784 100.004 114.185C145.861 105.535 181.743 88.6374 180.182 76.4155Z" fill="url(#paint0_linear_337_3056)"/>
<path d="M179.277 72.0358C179.101 72.2541 178.879 72.4038 178.657 72.5535C178.009 73.9884 176.935 75.1113 175.149 75.8161C173.289 76.5708 171.142 76.421 169.79 77.1321C166.523 78.835 163.414 77.7367 160.804 80.8933C159.424 82.5215 157.943 85.1167 156.092 86.3643C155.648 86.6638 155.231 86.8446 154.889 86.9756C154.074 87.5246 153.01 87.5432 152.297 87.1251C151.937 87.069 151.576 87.0128 151.168 86.888C150.4 86.707 149.124 85.7711 148.226 86.6756C147.624 87.3806 147.254 87.6301 146.439 88.179C144.69 89.2582 143.293 88.3036 141.738 88.553C141.59 88.6528 141.322 88.7339 141.081 88.6964C140.738 88.8274 140.322 89.0083 139.878 89.3077C137.703 90.8735 135.962 93.2441 133.574 94.6538C132.269 95.4336 130.751 96.0573 129.243 96.3754C128.752 96.6062 128.169 96.6997 127.762 96.5749C127.253 96.6185 126.624 96.6434 126.096 96.4999C123.496 96.1566 120.952 94.7776 118.379 95.9129C116.861 96.5366 115.269 97.2103 113.723 97.154C112.964 98.2644 111.335 98.5638 110.336 98.0396C109.725 98.2517 109.068 98.3951 108.411 98.5386L108.337 98.5885C107.782 99.362 106.736 99.5678 105.848 99.3681C105.524 99.6863 105.107 99.8672 104.718 99.9295C102.488 100.934 99.5911 101.589 97.3703 100.69C94.7424 99.6667 95.14 100.896 93.1408 102.243C91.3637 103.441 89.4295 103.447 87.4861 103.759C85.4406 105.038 83.2007 106.347 80.9889 106.74C80.4799 106.784 79.9709 106.828 79.4619 106.871C78.6567 107.114 77.6943 106.965 77.1762 106.515C76.1953 106.178 75.4182 105.505 75.3074 104.382C75.252 103.82 75.1688 103.377 75.28 102.903C74.4099 103.689 73.4104 103.963 72.2443 104.151C69.2551 104.668 65.5998 104.038 63.4255 102.409C63.2589 102.322 63.1386 102.303 62.898 102.266C61.9817 102.983 61.2968 103.245 60.251 103.451C58.6498 104.43 56.919 105.697 55.8732 105.902C54.7534 106.158 53.5412 105.478 53.4767 104.424C53.4767 104.424 53.4767 104.424 53.4305 104.355C53.1992 104.012 52.9957 103.55 52.7922 103.088C52.2276 103.369 51.7371 103.6 51.2188 103.949C50.9226 104.149 50.6542 104.23 50.358 104.43C46.998 107.592 43.0561 106.057 40.4192 103.742C39.5864 103.306 38.7999 102.938 37.9393 102.619C37.125 102.37 36.4032 102.257 35.6074 102.195C35.4593 102.295 35.3112 102.395 35.1631 102.494C34.0987 103.312 32.581 103.137 31.5077 102.662C29.6845 102.993 27.9076 103.392 26.0938 103.417C24.5483 103.361 23.5397 103.142 22.7809 102.656C22.2626 103.005 21.5315 103.198 20.6338 103.304C19.1068 103.435 18.1631 102.674 18.2745 101.401C18.386 99.3299 17.7291 98.6748 15.8137 98.0695C15.4065 97.9447 14.9068 97.6826 14.5275 97.4393C13.9437 100.727 13.767 104.14 14.2474 107.409C15.8083 119.631 54.2773 122.547 100.06 113.948C145.917 105.298 181.8 88.4002 180.239 76.1784C180.035 74.9181 179.693 73.452 179.277 72.0358Z" fill="url(#paint1_linear_337_3056)"/>
<path d="M96.2298 108.744C95.2404 105.518 92.1016 111.726 85.7541 108.219C83.3761 106.927 83.5409 114.202 74.0558 112.111C72.9739 108.748 69.2708 114.438 64.95 111.062C62.1644 111.243 59.8781 113.283 57.2869 113.432C55.2787 113.488 55.1963 109.851 53.3361 110.606C42.8036 115.11 51.9572 110.637 45.1924 110.505C42.9057 114.143 39.0481 108.259 38.7138 112.876C33.6057 112.326 36.3829 108.458 31.5703 110.105C27.8956 113.28 27.1476 106.898 26.1389 106.68C24.1216 106.243 27.5537 111.016 21.215 109.599C19.7991 109.256 20.004 104.127 18.2267 106.124C16.6531 107.783 15.0346 103.784 14.3039 102.38C14.2016 104.146 14.34 105.949 14.5524 107.702C16.1133 119.924 54.5823 122.84 100.365 114.241C146.222 105.591 182.104 88.6933 180.544 76.4714C180.331 74.7183 179.924 72.9964 179.444 71.3244C178.516 78.7359 173.77 75.0484 174.685 79.921C175.313 83.0903 169.677 84.7931 166.457 82.5718C164.162 84.1188 166.706 87.8935 163.874 89.6027C158.95 92.522 158.904 87.662 154.554 92.3906C153.054 94.0001 145.948 91.6039 145.855 93.0637C149.064 98.7849 139.441 94.8912 137.672 99.776C137.144 101.23 133.665 98.7837 131.981 100.119C125.252 105.153 130.686 96.5999 125.077 102.177C124.031 103.181 116.803 103.162 117.043 104.797C117.441 107.623 114.628 105.526 109.649 104.69C101.913 104.714 112.499 107.959 96.2298 108.744Z" fill="#F3BA60"/>
<path opacity="0.5" d="M100.421 112.406C97.1909 114.483 92.009 112.387 89.1028 114.146C87.5756 115.075 85.3364 113.989 83.541 114.201C81.3569 114.476 80.1166 115.511 77.8863 115.717C75.7022 115.991 72.6856 115.03 70.9363 116.109C69.0389 117.288 64.819 116.939 62.6165 117.026C60.414 117.113 59.5443 116.302 57.4158 116.339C55.2874 116.376 53.2697 117.537 51.2152 117.524C49.3551 117.48 47.8931 117.068 46.107 116.975C44.6819 116.937 43.4787 117.548 42.1276 117.461C40.4156 117.317 37.2878 116.83 35.7702 116.656C34.4931 116.518 34.2065 115.614 30.579 114.865C28.8486 114.534 26.146 115.956 23.7033 114.409C22.6577 113.816 22.0935 112.5 21.0201 112.025C19.6599 111.445 18.2161 112.019 17.2724 111.258C15.1905 109.766 14.3121 106.865 14.035 104.856C13.8686 103.971 13.8226 103.103 13.7765 102.236C13.6743 104.002 13.8126 105.805 14.0251 107.558C15.586 119.78 54.055 122.696 99.8377 114.097C145.694 105.447 181.577 88.5492 180.016 76.3274C179.998 76.1402 179.979 75.9531 179.961 75.7659C179.562 77.7311 179.21 79.7649 177.165 81.8422C176.267 82.7468 174.351 83.7386 173.185 84.7242C172.268 85.4416 171.426 86.9076 170.389 87.6063C169.204 88.4048 167.677 88.5356 166.224 89.4152C163.688 90.9248 161.208 92.9958 158.116 94.4804C156.423 95.3225 154.266 95.4783 152.526 96.2518C151.351 96.7445 148.371 96.9564 148.806 97.7613C149.685 99.0652 145.289 99.7324 143.576 100.387C141.67 101.073 138.487 100.025 137.755 101.816C137.024 103.606 134.534 103.587 132.582 104.205C131.24 104.61 129.481 104.398 128.139 104.803C124.724 105.807 121.966 107.467 118.31 108.433C116.922 108.77 114.997 109.269 113.609 109.606C111.295 110.167 107.964 108.42 106.65 109.505C105.206 110.878 102.272 111.158 100.421 112.406Z" fill="#CA5C1D"/>
<path d="M108.292 52.5081C107.366 52.7326 106.635 52.926 106.829 54.4919C106.977 55.9892 108.809 57.7487 108.901 57.886L108.994 58.0232L109.096 57.8548C109.124 57.7363 110.429 55.3594 110.207 53.912C110.013 52.346 109.19 52.4021 108.292 52.5081Z" fill="#CF6538"/>
<path d="M96.2311 58.7395C95.8239 58.6147 95.3427 58.5398 94.954 58.6022C94.4913 58.7144 94.047 59.0139 93.76 59.7063C93.1396 61.0227 93.7961 63.2749 93.8146 63.4621L93.8608 63.5307L93.9349 63.4808C94.0089 63.4309 96.5634 62.1085 97.2578 60.7423C97.9522 59.376 97.212 59.0765 96.2311 58.7395Z" fill="#CF6538"/>
<path d="M149.691 66.3238C149.284 66.199 148.803 66.1241 148.414 66.1864C147.951 66.2987 147.507 66.5981 147.22 67.2906C146.6 68.6069 147.256 70.8592 147.275 71.0463L147.321 71.1149L147.469 71.0151C147.543 70.9652 150.097 69.6428 150.718 68.3265C151.412 66.9602 150.672 66.6607 149.691 66.3238Z" fill="#CF6538"/>
<path d="M71.5269 76.8865C71.2585 76.9676 70.9161 77.0986 70.6477 77.1797C70.0831 77.4604 69.5926 77.6912 69.4352 78.0967C69.2315 78.4336 69.2684 78.8079 69.5181 79.3382C70.1101 80.5361 72.5437 81.5906 72.664 81.6094L72.7843 81.6281L72.8121 81.5096C72.8399 81.391 73.7104 79.0079 73.1184 77.81C72.6836 77.0052 72.258 76.6932 71.5269 76.8865Z" fill="#CF6538"/>
<path d="M114.673 69.9643L114.7 69.8457C114.728 69.7272 115.599 67.3441 115.007 66.1462C114.618 65.41 114.193 65.098 113.535 65.2414C113.267 65.3225 112.925 65.4535 112.656 65.5346C112.092 65.8153 111.601 66.0461 111.37 66.5015C111.166 66.8384 111.203 67.2127 111.453 67.743C112.045 68.9409 114.478 69.9954 114.599 70.0142L114.673 69.9643Z" fill="#CF6538"/>
<path d="M86.3711 79.2585C86.1768 79.2897 86.0287 79.3895 85.9084 79.3708C85.1032 79.614 84.4646 79.9446 84.9085 81.2423C85.3523 82.54 87.1751 83.8066 87.2214 83.8753L87.3879 83.9626L87.4157 83.8441C87.4435 83.7256 88.1844 81.6294 87.8145 80.2818C87.5741 79.4458 87.1485 79.1338 86.3711 79.2585Z" fill="#CF6538"/>
<path d="M38.1293 77.3389L38.1571 77.2204C38.1849 77.1019 38.9257 75.0057 38.5559 73.6581C38.2692 72.7535 37.8436 72.4415 37.1866 72.5849C36.9922 72.6161 36.8441 72.7159 36.7238 72.6972C35.9186 72.9404 35.28 73.271 35.7239 74.5687C36.1678 75.8664 37.9905 77.1331 38.0368 77.2017L38.1293 77.3389Z" fill="#CF6538"/>
<path d="M98.1307 49.5754L98.2972 49.6628L98.325 49.5442C98.3528 49.4257 99.1677 47.2796 98.7238 45.9819C98.4372 45.0773 98.0116 44.7653 97.3545 44.9088C97.1601 44.9399 97.012 45.0397 96.8917 45.021C96.0866 45.2643 95.448 45.5949 95.8918 46.8926C96.2154 48.1715 98.0844 49.5068 98.1307 49.5754Z" fill="#CF6538"/>
<path d="M139.45 53.3652C139.256 53.3964 139.108 53.4962 138.987 53.4775C138.182 53.7207 137.544 54.0513 137.988 55.349C138.385 56.5781 140.254 57.9133 140.3 57.982L140.467 58.0693L140.495 57.9508C140.523 57.8322 141.263 55.7361 140.894 54.3885C140.607 53.4838 140.181 53.1719 139.45 53.3652Z" fill="#CF6538"/>
<path d="M82.22 57.6029C81.9333 56.6983 81.5077 56.3863 80.8506 56.5298C80.6563 56.5609 80.5082 56.6607 80.3879 56.642C79.5827 56.8853 78.9441 57.2159 79.388 58.5136C79.8318 59.8113 81.6546 61.0779 81.7009 61.1465L81.7193 61.3337L81.7471 61.2151C81.8952 61.1153 82.5898 58.9505 82.22 57.6029Z" fill="#CF6538"/>
<path d="M64.4259 89.3573C64.065 89.3011 63.7503 89.3136 63.4819 89.3947C62.7045 89.5194 62.5193 90.0434 62.4082 90.5176C62.2414 91.2288 62.2227 91.8402 63.8144 91.9651C64.1753 92.0213 64.6381 91.909 65.1471 91.8654C66.4612 91.5785 67.831 91.0545 67.831 91.0545L67.9791 90.9547L67.8125 90.8674C67.8125 90.8674 65.9435 89.5321 64.4259 89.3573Z" fill="#CF6538"/>
<path d="M132.447 44.412C132.086 44.3558 131.772 44.3683 131.503 44.4494C130.726 44.5741 130.541 45.0981 130.43 45.5723C130.263 46.2835 130.244 46.8949 131.836 47.0198C132.197 47.0759 132.66 46.9637 133.169 46.92C134.483 46.6332 135.852 46.1092 135.852 46.1092L136.001 46.0094L135.834 45.9221C135.862 45.8035 134.039 44.5369 132.447 44.412Z" fill="#CF6538"/>
<path d="M70.4373 67.4407L70.2707 67.3534C70.2245 67.2848 68.3554 65.9495 66.7638 65.8246C66.4029 65.7684 66.0882 65.7809 65.8198 65.862C65.0424 65.9867 64.8572 66.5107 64.7461 66.9849C64.5793 67.6961 64.5606 68.3075 66.1523 68.4324C66.5132 68.4885 66.976 68.3763 67.485 68.3326C68.7991 68.0458 70.1689 67.5218 70.1689 67.5218L70.4373 67.4407Z" fill="#CF6538"/>
<path d="M101.623 72.9704C101.262 72.9142 100.948 72.9267 100.679 73.0077C99.9018 73.1325 99.7166 73.6565 99.6054 74.1306C99.522 74.4862 99.4386 74.8418 99.6977 75.0665C99.8827 75.341 100.29 75.4658 101.086 75.5282C101.447 75.5844 101.909 75.4722 102.418 75.4285C103.733 75.1416 105.102 74.6177 105.102 74.6177L105.25 74.5179L105.084 74.4305C105.01 74.4804 103.141 73.1452 101.623 72.9704Z" fill="#CF6538"/>
<path d="M40.7745 85.7363C40.4136 85.6801 40.0989 85.6925 39.8305 85.7736C39.0531 85.8983 38.8679 86.4224 38.7568 86.8965C38.6734 87.2521 38.59 87.6077 38.8491 87.8323C39.0341 88.1068 39.4412 88.2316 40.2371 88.2941C40.598 88.3503 41.0607 88.238 41.5697 88.1944C42.8839 87.9075 44.2536 87.3836 44.2536 87.3836L44.4017 87.2838L44.2352 87.1964C44.1149 87.1777 42.3199 85.7925 40.7745 85.7363Z" fill="#CF6538"/>
<path d="M53.1857 75.8742C52.8248 75.818 52.5102 75.8305 52.2418 75.9116C51.4644 76.0363 51.2792 76.5603 51.168 77.0345C51.0846 77.3901 51.0753 77.6958 51.2603 77.9703C51.4453 78.2448 51.8987 78.4382 52.6483 78.4321C53.0092 78.4882 53.472 78.376 53.981 78.3323C55.2951 78.0455 56.6649 77.5215 56.6649 77.5215L56.813 77.4217L56.6464 77.3344C56.5724 77.3843 54.7034 76.049 53.1857 75.8742Z" fill="#CF6538"/>
<path d="M85.9102 69.7882C85.5493 69.7321 85.2347 69.7445 84.9663 69.8256C84.1889 69.9503 84.0037 70.4744 83.8925 70.9485C83.8091 71.3041 83.7257 71.6597 83.9848 71.8843C84.1698 72.1588 84.577 72.2836 85.3728 72.3461C85.7337 72.4023 86.1965 72.29 86.7055 72.2464C88.0196 71.9595 89.3894 71.4355 89.3894 71.4355L89.5375 71.3357L89.3709 71.2484C89.2506 71.2297 87.3816 69.8944 85.9102 69.7882Z" fill="#CF6538"/>
<path d="M26.2549 82.2482C25.894 82.192 25.5794 82.2045 25.311 82.2856C24.5336 82.4103 24.3484 82.9343 24.2372 83.4085C24.1539 83.7641 24.0705 84.1197 24.3295 84.3443C24.5146 84.6188 24.9217 84.7436 25.7176 84.8061C26.0785 84.8622 26.5412 84.75 27.0502 84.7063C28.3643 84.4195 29.7341 83.8955 29.7341 83.8955L29.8822 83.7957L29.7156 83.7084C29.6416 83.7583 27.7726 82.423 26.2549 82.2482Z" fill="#CF6538"/>
<path d="M151.156 52.3625C150.795 52.3063 150.481 52.3187 150.212 52.3998C149.435 52.5245 149.25 53.0486 149.139 53.5227C149.055 53.8783 148.972 54.2339 149.231 54.4585C149.416 54.7331 149.823 54.8579 150.619 54.9203C150.98 54.9765 151.443 54.8642 151.952 54.8206C153.266 54.5337 154.635 54.0098 154.635 54.0098L154.784 53.91L154.617 53.8226C154.571 53.754 152.702 52.4187 151.156 52.3625Z" fill="#CF6538"/>
<path d="M64.4904 54.7817C64.8513 54.8378 65.314 54.7256 65.823 54.682C67.1372 54.3951 68.5069 53.8711 68.5069 53.8711L68.655 53.7713L68.4885 53.684C68.4422 53.6153 66.5732 52.2801 64.9815 52.1552C64.6206 52.099 64.306 52.1115 64.0376 52.1925C63.2602 52.3173 63.075 52.8413 62.9638 53.3154C62.8804 53.671 62.797 54.0266 63.0561 54.2513C63.3614 54.5445 63.7686 54.6693 64.4904 54.7817Z" fill="#CF6538"/>
<path d="M116.993 79.4791C116.632 79.423 116.318 79.4354 116.049 79.5165C115.272 79.6412 115.087 80.1653 114.976 80.6394C114.809 81.3506 114.79 81.962 116.382 82.0869C116.743 82.1431 117.205 82.0308 117.714 81.9872C119.029 81.7003 120.398 81.1764 120.398 81.1764L120.546 81.0765L120.38 80.9892C120.454 80.9393 118.585 79.604 116.993 79.4791Z" fill="#CF6538"/>
<path d="M172.337 64.9349C172.291 64.8663 170.422 63.531 168.83 63.4061C168.469 63.35 168.155 63.3624 167.886 63.4435C167.109 63.5682 166.924 64.0922 166.812 64.5664C166.646 65.2776 166.627 65.889 168.219 66.0139C168.58 66.0701 169.042 65.9578 169.551 65.9142C170.866 65.6273 172.235 65.1033 172.235 65.1033L172.383 65.0035L172.337 64.9349Z" fill="#CF6538"/>
<path d="M81.1955 51.6075C81.5564 51.6637 82.0191 51.5515 82.5281 51.5078C83.8423 51.2209 85.2121 50.697 85.2121 50.697L85.3602 50.5972L85.1936 50.5098C85.1474 50.4412 83.2783 49.106 81.6866 48.9811C81.3257 48.9249 81.0111 48.9373 80.7427 49.0184C79.9653 49.1431 79.7801 49.6672 79.6689 50.1413C79.6225 50.8712 79.6038 51.4826 81.1955 51.6075Z" fill="#CF6538"/>
<path d="M50.781 66.715L50.9291 66.6152C51.0031 66.5653 52.9283 65.2678 53.5672 64.1386C53.8264 63.5647 53.9098 63.2091 53.771 63.0032C53.6601 62.6788 53.2992 62.6226 53.0123 62.5165C52.7255 62.4104 52.4849 62.373 52.1702 62.3855C51.7815 62.4478 51.4575 62.766 51.1242 63.3898C50.5317 64.5876 50.8366 66.478 50.8088 66.5965L50.781 66.715Z" fill="#CF6538"/>
<path d="M134.857 64.4449C134.57 64.3388 134.33 64.3013 134.015 64.3138C133.626 64.3761 133.302 64.6943 132.969 65.3181C132.377 66.5159 132.681 68.4063 132.728 68.4749L132.746 68.6621L132.894 68.5623C132.968 68.5124 134.894 67.2149 135.532 66.0857C135.792 65.5118 135.875 65.1562 135.736 64.9503C135.551 64.6757 135.218 64.501 134.857 64.4449Z" fill="#CF6538"/>
<path d="M116.604 43.9119C116.317 43.8058 116.077 43.7684 115.762 43.7808C115.373 43.8432 114.975 44.2112 114.716 44.7852C114.124 45.983 114.429 47.8733 114.475 47.942L114.493 48.1291L114.641 48.0293C114.715 47.9794 116.641 46.6819 117.279 45.5528C117.539 44.9788 117.622 44.6232 117.483 44.4173C117.252 44.0742 116.965 43.9681 116.604 43.9119Z" fill="#CF6538"/>
<path d="M125.346 56.0845C125.06 55.9784 124.819 55.941 124.504 55.9534C124.116 56.0158 123.792 56.3339 123.458 56.9578C122.866 58.1556 123.171 60.0459 123.217 60.1146L123.235 60.3017L123.384 60.2019C123.458 60.152 125.383 58.8545 126.022 57.7254C126.281 57.1514 126.364 56.7958 126.226 56.5899C125.994 56.2468 125.707 56.1407 125.346 56.0845Z" fill="#CF6538"/>
<path d="M108.256 52.1341C107.33 52.3586 106.599 52.552 106.793 54.1179C106.941 55.6152 108.773 57.3747 108.865 57.512L108.958 57.6492L109.06 57.4808C109.087 57.3622 110.393 54.9854 110.171 53.538C109.931 51.9034 109.181 51.9096 108.256 52.1341Z" fill="#FFCD8B"/>
<path d="M96.2692 58.3164C95.862 58.1916 95.3808 58.1167 94.9921 58.1791C94.5294 58.2913 94.0851 58.5908 93.7981 59.2832C93.1777 60.5996 93.8342 62.8518 93.8526 63.039L93.8989 63.1076L93.9729 63.0577C94.047 63.0078 96.6015 61.6854 97.2219 60.3691C97.9163 59.0028 97.2038 58.5848 96.2692 58.3164Z" fill="#FFCD8B"/>
<path d="M149.728 65.9007C149.321 65.7759 148.84 65.701 148.451 65.7633C147.988 65.8756 147.544 66.175 147.257 66.8675C146.637 68.1838 147.293 70.4361 147.312 70.6232L147.358 70.6918L147.432 70.6419C147.506 70.592 150.06 69.2696 150.681 67.9533C151.375 66.5871 150.663 66.169 149.728 65.9007Z" fill="#FFCD8B"/>
<path d="M71.5191 76.3936C71.2507 76.4747 70.9083 76.6057 70.6399 76.6868C70.0753 76.9675 69.5848 77.1983 69.4273 77.6038C69.2237 77.9406 69.2606 78.315 69.5103 78.8453C70.1023 80.0432 72.5359 81.0977 72.6562 81.1164L72.7765 81.1352L72.8043 81.0166C72.8321 80.8981 73.7026 78.515 73.1106 77.3171C72.6759 76.5122 72.1762 76.2502 71.5191 76.3936Z" fill="#FFCD8B"/>
<path d="M114.59 69.5219L114.617 69.4033C114.645 69.2848 115.516 66.9017 114.924 65.7038C114.535 64.9676 114.11 64.6556 113.378 64.849C113.064 64.8614 112.768 65.061 112.499 65.1421C111.935 65.4228 111.444 65.6536 111.287 66.0591C111.083 66.396 111.12 66.7703 111.37 67.3006C111.962 68.4985 114.395 69.553 114.516 69.5718L114.59 69.5219Z" fill="#FFCD8B"/>
<path d="M86.4082 78.8345C86.2139 78.8656 86.0658 78.9654 85.9455 78.9467C85.1403 79.19 84.5017 79.5206 84.9456 80.8183C85.3432 82.0473 87.2122 83.3826 87.2585 83.4512L87.425 83.5386L87.4528 83.42C87.4806 83.3015 88.2955 81.1554 87.8516 79.8577C87.4909 79.003 87.0653 78.691 86.4082 78.8345Z" fill="#FFCD8B"/>
<path d="M38.0453 76.8966L38.0731 76.778C38.1009 76.6595 38.8417 74.5633 38.4719 73.2157C38.1853 72.3111 37.7596 71.9991 37.1026 72.1426C36.9082 72.1737 36.7601 72.2735 36.6398 72.2548C35.8347 72.4981 35.196 72.8287 35.6399 74.1264C36.0375 75.3554 37.9066 76.6907 37.9528 76.7593L38.0453 76.8966Z" fill="#FFCD8B"/>
<path d="M98.0946 49.2014L98.2611 49.2887L98.2889 49.1702C98.3167 49.0517 99.0576 46.9555 98.6877 45.6079C98.4011 44.7033 97.9754 44.3913 97.3184 44.5347C97.124 44.5659 96.9759 44.6657 96.8556 44.647C96.0504 44.8902 95.4118 45.2208 95.8557 46.5185C96.1793 47.7975 98.0021 49.0641 98.0946 49.2014Z" fill="#FFCD8B"/>
<path d="M139.442 52.873C139.248 52.9042 139.1 53.004 138.98 52.9853C138.174 53.2285 137.536 53.5591 137.98 54.8568C138.424 56.1545 140.246 57.4211 140.293 57.4898L140.459 57.5771L140.487 57.4586C140.515 57.3401 141.256 55.2439 140.886 53.8963C140.571 53.1102 140.099 52.7296 139.442 52.873Z" fill="#FFCD8B"/>
<path d="M82.1838 57.2294C81.8972 56.3248 81.4716 56.0128 80.8145 56.1562C80.6201 56.1874 80.472 56.2872 80.3517 56.2685C79.5466 56.5117 78.908 56.8423 79.3518 58.14C79.7957 59.4377 81.6185 60.7043 81.6647 60.773L81.8313 60.8603L81.8591 60.7418C81.8128 60.6732 82.5815 58.4585 82.1838 57.2294Z" fill="#FFCD8B"/>
<path d="M64.3429 88.9149C63.982 88.8588 63.6673 88.8712 63.3989 88.9523C62.6215 89.077 62.4363 89.601 62.3252 90.0752C62.1584 90.7864 62.1397 91.3978 63.7314 91.5227C64.0923 91.5789 64.5551 91.4666 65.0641 91.423C66.3782 91.1361 67.748 90.6121 67.748 90.6121L67.8961 90.5123L67.7295 90.425C67.8036 90.3751 65.9346 89.0398 64.3429 88.9149Z" fill="#FFCD8B"/>
<path d="M132.364 43.9696C132.003 43.9134 131.689 43.9259 131.42 44.007C130.643 44.1317 130.458 44.6557 130.347 45.1299C130.18 45.8411 130.161 46.4525 131.753 46.5774C132.114 46.6336 132.577 46.5213 133.086 46.4777C134.4 46.1908 135.769 45.6668 135.769 45.6668L135.918 45.567L135.751 45.4797C135.825 45.4298 133.956 44.0945 132.364 43.9696Z" fill="#FFCD8B"/>
<path d="M70.3543 66.9983L70.1877 66.911C70.1415 66.8424 68.2725 65.5071 66.6808 65.3822C66.3199 65.326 66.0052 65.3385 65.7368 65.4196C64.9594 65.5443 64.7742 66.0683 64.663 66.5425C64.4963 67.2537 64.4776 67.8651 66.0693 67.99C66.4302 68.0461 66.893 67.9339 67.402 67.8903C68.7161 67.6034 70.0859 67.0794 70.0859 67.0794L70.3543 66.9983Z" fill="#FFCD8B"/>
<path d="M101.541 72.528C101.18 72.4718 100.866 72.4843 100.597 72.5654C99.8197 72.6901 99.6345 73.2141 99.5234 73.6882C99.44 74.0439 99.3566 74.3995 99.6157 74.6241C99.8007 74.8986 100.208 75.0234 101.004 75.0858C101.365 75.142 101.827 75.0298 102.336 74.9861C103.65 74.6993 105.02 74.1753 105.02 74.1753L105.168 74.0755L105.002 73.9882C104.928 74.0381 103.133 72.6529 101.541 72.528Z" fill="#FFCD8B"/>
<path d="M40.6905 85.2939C40.3296 85.2377 40.0149 85.2501 39.7465 85.3312C38.9692 85.4559 38.7839 85.98 38.6728 86.4541C38.5894 86.8097 38.506 87.1653 38.7651 87.3899C38.9501 87.6645 39.3573 87.7893 40.1531 87.8517C40.514 87.9079 40.9767 87.7956 41.4857 87.752C42.7999 87.4651 44.1696 86.9412 44.1696 86.9412L44.3177 86.8414L44.1512 86.754C44.1512 86.754 42.2822 85.4188 40.6905 85.2939Z" fill="#FFCD8B"/>
<path d="M53.1496 75.5002C52.7887 75.444 52.474 75.4565 52.2057 75.5375C51.4283 75.6623 51.2431 76.1863 51.1319 76.6604C51.0485 77.016 51.0392 77.3217 51.2242 77.5963C51.4092 77.8708 51.8626 78.0642 52.6122 78.058C52.9731 78.1142 53.4359 78.002 53.9448 77.9583C55.259 77.6714 56.6288 77.1475 56.6288 77.1475L56.7769 77.0477L56.6103 76.9603C56.5641 76.8917 54.695 75.5565 53.1496 75.5002Z" fill="#FFCD8B"/>
<path d="M85.8272 69.3456C85.4663 69.2894 85.1516 69.3019 84.8833 69.383C84.1059 69.5077 83.9207 70.0317 83.8095 70.5059C83.7261 70.8615 83.6427 71.2171 83.9018 71.4417C84.0868 71.7162 84.494 71.841 85.2898 71.9035C85.6507 71.9597 86.1135 71.8474 86.6224 71.8038C87.9366 71.5169 89.3064 70.9929 89.3064 70.9929L89.4544 70.8931L89.2879 70.8058C89.2416 70.7371 87.3726 69.4019 85.8272 69.3456Z" fill="#FFCD8B"/>
<path d="M26.1709 81.8056C25.81 81.7494 25.4954 81.7619 25.227 81.8429C24.4496 81.9677 24.2644 82.4917 24.1532 82.9658C24.0699 83.3214 23.9865 83.677 24.2456 83.9017C24.4306 84.1762 24.8377 84.301 25.6336 84.3634C25.9945 84.4196 26.4572 84.3074 26.9662 84.2637C28.2804 83.9768 29.6501 83.4529 29.6501 83.4529L29.7982 83.3531L29.6317 83.2657C29.6317 83.2657 27.7626 81.9305 26.1709 81.8056Z" fill="#FFCD8B"/>
<path d="M151.149 51.8696C150.789 51.8134 150.474 51.8258 150.206 51.9069C149.428 52.0316 149.243 52.5557 149.132 53.0298C149.048 53.3854 148.965 53.741 149.224 53.9656C149.409 54.2401 149.816 54.3649 150.612 54.4274C150.973 54.4836 151.436 54.3713 151.945 54.3277C153.259 54.0408 154.629 53.5169 154.629 53.5169L154.777 53.4171L154.61 53.3297C154.49 53.311 152.667 52.0444 151.149 51.8696Z" fill="#FFCD8B"/>
<path d="M64.4083 54.339C64.7692 54.3952 65.232 54.283 65.741 54.2393C67.0551 53.9525 68.4249 53.4285 68.4249 53.4285L68.573 53.3287L68.4064 53.2413C68.3602 53.1727 66.4911 51.8375 64.8995 51.7126C64.5386 51.6564 64.2239 51.6688 63.9555 51.7499C63.1781 51.8746 62.9929 52.3987 62.8818 52.8728C62.7984 53.2284 62.715 53.584 62.9741 53.8086C63.2794 54.1019 63.7328 54.2953 64.4083 54.339Z" fill="#FFCD8B"/>
<path d="M116.955 79.1056C116.594 79.0494 116.28 79.0619 116.011 79.143C115.234 79.2677 115.049 79.7917 114.937 80.2659C114.771 80.9771 114.752 81.5885 116.344 81.7134C116.705 81.7695 117.167 81.6573 117.676 81.6137C118.991 81.3268 120.36 80.8028 120.36 80.8028L120.508 80.703L120.342 80.6157C120.37 80.4971 118.501 79.1619 116.955 79.1056Z" fill="#FFCD8B"/>
<path d="M172.254 64.4923C172.208 64.4237 170.339 63.0884 168.747 62.9635C168.386 62.9073 168.072 62.9198 167.803 63.0009C167.026 63.1256 166.841 63.6496 166.729 64.1238C166.563 64.835 166.544 65.4464 168.136 65.5713C168.497 65.6274 168.959 65.5152 169.468 65.4716C170.783 65.1847 172.152 64.6607 172.152 64.6607L172.3 64.5609L172.254 64.4923Z" fill="#FFCD8B"/>
<path d="M81.1135 51.1649C81.4744 51.2211 81.9371 51.1088 82.4461 51.0652C83.7603 50.7783 85.13 50.2544 85.13 50.2544L85.2781 50.1546L85.1116 50.0672C85.0653 49.9986 83.1963 48.6633 81.6046 48.5384C81.2437 48.4823 80.9291 48.4947 80.6607 48.5758C79.8833 48.7005 79.6981 49.2245 79.5869 49.6987C79.5405 50.4286 79.5218 51.04 81.1135 51.1649Z" fill="#FFCD8B"/>
<path d="M50.699 66.2727L50.8471 66.1729C50.9211 66.1229 52.8463 64.8254 53.4851 63.6963C53.7444 63.1223 53.8278 62.7667 53.689 62.5608C53.578 62.2364 53.2171 62.1802 52.9303 62.0741C52.6434 61.9681 52.4028 61.9306 52.0882 61.9431C51.6995 62.0054 51.3755 62.3236 51.0422 62.9474C50.4496 64.1452 50.7545 66.0356 50.7268 66.1541L50.699 66.2727Z" fill="#FFCD8B"/>
<path d="M134.847 63.9531C134.561 63.8471 134.32 63.8096 134.005 63.8221C133.617 63.8844 133.219 64.2525 132.959 64.8264C132.367 66.0242 132.672 67.9146 132.718 67.9832L132.736 68.1704L132.885 68.0706C132.959 68.0207 134.884 66.7232 135.523 65.594C135.782 65.02 135.865 64.6644 135.726 64.4586C135.467 64.2339 135.181 64.1279 134.847 63.9531Z" fill="#FFCD8B"/>
<path d="M116.596 43.4197C116.309 43.3136 116.068 43.2762 115.753 43.2886C115.365 43.351 115.041 43.6691 114.707 44.293C114.115 45.4908 114.42 47.3811 114.466 47.4498L114.484 47.6369L114.633 47.5371C114.707 47.4872 116.632 46.1897 117.271 45.0605C117.53 44.4866 117.613 44.131 117.475 43.9251C117.29 43.6506 116.882 43.5258 116.596 43.4197Z" fill="#FFCD8B"/>
<path d="M125.338 55.5922C125.051 55.4861 124.81 55.4487 124.495 55.4611C124.107 55.5235 123.783 55.8416 123.449 56.4655C122.857 57.6633 123.162 59.5537 123.134 59.6722L123.152 59.8594L123.301 59.7595C123.375 59.7096 125.3 58.4121 125.939 57.283C126.198 56.709 126.281 56.3534 126.142 56.1475C125.957 55.873 125.624 55.6983 125.338 55.5922Z" fill="#FFCD8B"/>
<defs>
<linearGradient id="paint0_linear_337_3056" x1="90.7169" y1="41.7139" x2="104.076" y2="112.779" gradientUnits="userSpaceOnUse">
<stop stop-color="#EF9F51"/>
<stop offset="1" stop-color="#E0621C"/>
</linearGradient>
<linearGradient id="paint1_linear_337_3056" x1="101.231" y1="123.585" x2="88.5927" y2="56.3547" gradientUnits="userSpaceOnUse">
<stop offset="0.2057" stop-color="#E78427"/>
<stop offset="0.4359" stop-color="#E7862A"/>
<stop offset="0.6209" stop-color="#E88D34"/>
<stop offset="0.7903" stop-color="#EA9945"/>
<stop offset="0.9493" stop-color="#EDA95D"/>
<stop offset="1" stop-color="#EEAF66"/>
</linearGradient>
</defs>
</svg>
