<svg width="52" height="48" viewBox="0 0 52 48" fill="none" xmlns="http://www.w3.org/2000/svg">
<path d="M50.3026 43.1616C48.2488 45.0651 44.4986 44.072 42.1769 43.4099C39.3196 42.5822 36.73 41.0925 34.3191 39.6028C29.408 36.5406 24.8541 32.9819 20.568 29.0921C8.06698 17.671 1.10212 5.42223 5.03102 1.69795C8.95991 -1.94357 22.2646 4.34633 34.7656 15.7674C47.2666 27.1886 54.2315 39.4373 50.3026 43.1616Z" fill="#C5F37C"/>
<path d="M34.4085 16.098C46.7309 27.3536 53.6958 39.4368 50.1241 43.3266C50.2134 43.2439 50.2134 43.2439 50.3026 43.1611C54.2315 39.5196 47.2667 27.2708 34.7657 15.767C22.2647 4.34584 8.96003 -1.94405 5.03114 1.69746C4.94184 1.78022 4.94183 1.78022 4.85254 1.86298C8.96001 -1.44749 22.0861 4.84241 34.4085 16.098Z" fill="#4A9E00"/>
<path d="M51.1076 41.8372C49.0539 43.4924 45.4822 42.4993 43.2498 41.8372C40.3924 41.0096 37.803 39.5199 35.392 38.0302C30.4809 34.968 25.927 31.4092 21.6409 27.5194C10.39 17.1742 3.60373 6.24965 5.21101 1.53223C5.12172 1.61499 5.03242 1.69775 4.94313 1.69775C1.01423 5.33926 7.97908 17.588 20.4801 29.0919C24.6769 32.9817 29.2308 36.5404 34.2312 39.6026C36.7314 41.0923 39.3209 42.582 42.089 43.4097C44.4106 44.0718 48.161 45.0649 50.2147 43.1614C50.6612 42.7476 50.929 42.3338 51.1076 41.8372Z" fill="#98D54F"/>
<path d="M41.1929 34.8025C39.9428 35.9612 37.7105 35.3819 36.3711 34.9681C34.6746 34.4715 33.1566 33.6439 31.6386 32.7335C28.6919 30.9127 26.0131 28.7609 23.4236 26.4436C15.923 19.5744 11.8155 12.2913 14.1372 10.1395C16.4588 7.90495 24.4058 11.712 31.9065 18.4985C39.3178 25.2849 43.5146 32.568 41.1929 34.8025Z" fill="#BAE34C"/>
<path d="M42.1768 43.4094C39.3194 42.5818 36.7299 41.0921 34.319 39.6024C29.4079 36.5402 24.8539 32.9815 20.5679 29.0917C8.06682 17.6705 1.10196 5.42179 5.03086 1.69751L1.99488 4.51141C-1.93401 8.15293 5.03086 20.4017 17.5319 31.9056C21.7287 35.7954 26.2826 39.3541 31.283 42.4163C33.7832 43.906 36.3727 45.3957 39.1408 46.2233C41.4624 46.8854 45.2127 47.8786 47.2665 45.975L50.3024 43.1612C48.2487 45.0647 44.4984 44.0715 42.1768 43.4094Z" fill="#4A9E00"/>
<path d="M4.22754 16.3466C6.63845 20.3192 10.2102 24.7883 14.7641 29.2575L17.8001 26.4435C13.2461 21.9744 9.67442 17.5053 7.26351 13.5327L4.22754 16.3466Z" fill="#4DB034"/>
<path d="M31.8193 42.7477C33.7838 43.9064 35.8375 45.0651 37.9805 45.8099L41.0165 42.996C38.8735 42.2512 36.8197 41.0925 34.8553 39.9338L31.8193 42.7477Z" fill="#6DBF31"/>
<path d="M36.1065 25.2018C36.0172 25.119 31.4633 24.4569 32.3562 22.0568C33.2491 19.574 36.1065 25.2018 36.1065 25.2018Z" fill="#ADDA2B"/>
<path d="M27.8907 27.85C27.8014 27.7673 23.2474 27.1052 24.1404 24.7051C25.0333 22.305 27.8907 27.85 27.8907 27.85Z" fill="#ADDA2B"/>
<path d="M37.2657 26.4431C37.1764 26.4431 32.6225 26.1948 33.5154 28.7604C34.4083 31.4088 37.2657 26.4431 37.2657 26.4431Z" fill="#ADDA2B"/>
<path d="M32.5342 27.2704C32.4449 27.2704 27.891 27.0222 28.7839 29.5878C29.6769 32.1534 32.5342 27.2704 32.5342 27.2704Z" fill="#ADDA2B"/>
<path d="M24.2296 13.6978C24.1403 13.7805 21.2829 16.76 19.5864 14.4426C17.8898 12.1253 24.2296 13.6978 24.2296 13.6978Z" fill="#ADDA2B"/>
<path d="M20.6573 15.9324C20.568 16.0152 17.7107 18.9946 16.0141 16.6773C14.3175 14.3599 20.6573 15.9324 20.6573 15.9324Z" fill="#ADDA2B"/>
<path d="M28.0686 16.5945C28.0686 16.6772 25.6577 19.9877 28.3365 21.0636C31.1046 22.0568 28.0686 16.5945 28.0686 16.5945Z" fill="#ADDA2B"/>
<path d="M39.2317 30.4985C39.2317 30.5813 36.8208 33.8918 39.4996 34.9677C42.2677 35.9608 39.2317 30.4985 39.2317 30.4985Z" fill="#ADDA2B"/>
<path d="M32.3545 31.4093C32.4438 31.4093 35.9262 29.0092 37.1763 31.4921C38.4264 33.8921 32.3545 31.4093 32.3545 31.4093Z" fill="#ADDA2B"/>
<path d="M25.8369 23.1332C25.9262 23.1332 29.4086 20.7331 30.6587 23.2159C31.9088 25.6988 25.8369 23.1332 25.8369 23.1332Z" fill="#ADDA2B"/>
<path d="M22.2651 22.884C22.1758 22.8013 21.9972 18.5804 19.3184 19.077C16.5504 19.6563 22.2651 22.884 22.2651 22.884Z" fill="#ADDA2B"/>
<path d="M24.1395 21.7255C24.1395 21.6428 25.6574 17.8357 22.8001 17.3392C19.9427 16.8426 24.1395 21.7255 24.1395 21.7255Z" fill="#ADDA2B"/>
<path d="M36.1055 24.5397C36.0162 24.457 31.4623 23.7949 32.3552 21.3948C33.2482 18.9947 36.1055 24.5397 36.1055 24.5397Z" fill="#D6F781"/>
<path d="M27.8887 27.1882C27.7994 27.1054 23.2455 26.4433 24.1384 24.0432C25.0314 21.6431 27.8887 27.1882 27.8887 27.1882Z" fill="#D6F781"/>
<path d="M37.2647 25.7812C37.1754 25.7812 32.6215 25.5329 33.5144 28.0985C34.4073 30.7469 37.2647 25.7812 37.2647 25.7812Z" fill="#D6F781"/>
<path d="M32.4444 26.6086C32.3551 26.6086 27.8012 26.3603 28.6941 28.9259C29.587 31.4915 32.4444 26.6086 32.4444 26.6086Z" fill="#D6F781"/>
<path d="M24.1389 13.0359C24.0496 13.1187 21.1922 16.0981 19.4957 13.7808C17.8884 11.4634 24.1389 13.0359 24.1389 13.0359Z" fill="#D6F781"/>
<path d="M20.5675 15.2705C20.4782 15.3533 17.6208 18.3327 15.9243 16.0154C14.2277 13.6981 20.5675 15.2705 20.5675 15.2705Z" fill="#D6F781"/>
<path d="M28.0686 15.9321C28.0686 16.0149 25.6577 19.3254 28.3365 20.4013C31.1046 21.3944 28.0686 15.9321 28.0686 15.9321Z" fill="#D6F781"/>
<path d="M39.1418 29.8364C39.1418 29.9192 36.731 33.2297 39.4097 34.3056C42.1778 35.2987 39.1418 29.8364 39.1418 29.8364Z" fill="#D6F781"/>
<path d="M32.3535 30.7474C32.4428 30.7474 35.9253 28.3473 37.1754 30.8302C38.3362 33.313 32.3535 30.7474 32.3535 30.7474Z" fill="#D6F781"/>
<path d="M25.8369 22.4708C25.9262 22.4708 29.4086 20.0707 30.6587 22.5536C31.9088 25.0364 25.8369 22.4708 25.8369 22.4708Z" fill="#D6F781"/>
<path d="M22.1747 22.2222C22.0854 22.1394 21.9069 17.9185 19.2281 18.4151C16.5493 18.9944 22.1747 22.2222 22.1747 22.2222Z" fill="#D6F781"/>
<path d="M24.1394 21.0637C24.1394 20.9809 25.6574 17.1739 22.8001 16.6773C19.9427 16.1807 24.1394 21.0637 24.1394 21.0637Z" fill="#D6F781"/>
</svg>
