<svg width="61" height="27" viewBox="0 0 61 27" fill="none" xmlns="http://www.w3.org/2000/svg">
<path d="M60.0512 18.4239C59.4262 20.9068 55.7652 21.8171 53.5328 22.2309C50.7648 22.8103 47.9074 22.8103 45.1393 22.6447C39.5138 22.3965 33.9777 21.4861 28.4415 20.2447C12.2795 16.5204 0.135608 9.65116 1.475 4.85097C2.72511 0.133556 16.9227 -0.776821 33.0847 3.03022C49.2468 6.7545 61.3013 13.7065 60.0512 18.4239Z" fill="#C5F37C"/>
<path d="M32.9048 3.4444C48.8882 7.08591 60.8535 13.8724 59.9606 18.5898C59.9606 18.507 60.0498 18.4243 60.0498 18.3415C61.2999 13.6241 49.2454 6.6721 33.0834 2.94782C16.9213 -0.776455 2.72373 0.051166 1.47363 4.76858C1.47363 4.85135 1.47363 4.9341 1.47363 5.01687C2.99161 0.547732 16.9213 -0.197118 32.9048 3.4444Z" fill="#4A9E00"/>
<path d="M59.9602 16.935C59.0673 19.1696 55.6741 19.9972 53.5311 20.4938C50.763 21.0731 47.9056 21.0731 45.1376 20.9076C39.5121 20.6593 33.9759 19.7489 28.4398 18.5075C13.885 15.1143 2.63409 9.23818 1.47329 4.60352C1.47329 4.68628 1.38399 4.76904 1.38399 4.8518C0.133892 9.56923 12.1884 16.5212 28.3505 20.2455C33.7973 21.4869 39.4228 22.3973 45.0483 22.6456C47.8163 22.8111 50.763 22.8111 53.4418 22.2318C55.6741 21.7352 59.2459 20.9076 59.9602 18.4247C60.1388 17.9282 60.1388 17.4316 59.9602 16.935Z" fill="#98D54F"/>
<path d="M48.1747 15.6932C47.8176 17.1829 45.6745 17.6795 44.3352 18.0105C42.7279 18.3416 40.942 18.3416 39.3347 18.2588C35.9416 18.0933 32.6378 17.5967 29.3339 16.8519C19.6903 14.6173 12.4576 10.4792 13.2612 7.66533C14.0648 4.85143 22.4584 4.35486 32.102 6.58942C41.7456 8.74123 48.9784 12.8793 48.1747 15.6932Z" fill="#BAE34C"/>
<path d="M53.5315 22.2315C50.7634 22.8109 47.906 22.8109 45.1379 22.6453C39.5125 22.3971 33.9763 21.4867 28.4401 20.2453C12.2781 16.521 0.134242 9.65175 1.47364 4.85156L0.491416 8.49308C-0.758686 13.2105 11.2959 20.1625 27.4579 23.8868C32.9048 25.1282 38.5302 26.0386 44.1557 26.2869C46.9238 26.4524 49.8705 26.4524 52.5493 25.8731C54.7816 25.3765 58.3533 24.5489 59.0676 22.066L60.0499 18.4245C59.3355 20.9073 55.7638 21.8177 53.5315 22.2315Z" fill="#4A9E00"/>
<path d="M8.34863 17.183C12.3668 19.3348 17.6351 21.4039 23.707 22.9763L24.6893 19.3348C18.7066 17.6796 13.349 15.6933 9.33085 13.5415L8.34863 17.183Z" fill="#4DB034"/>
<path d="M44.7803 26.3693C47.0126 26.452 49.2449 26.452 51.3879 26.121L52.3702 22.4795C50.2271 22.8105 47.9055 22.8105 45.7625 22.7278L44.7803 26.3693Z" fill="#6DBF31"/>
<path d="M39.0657 10.0646C38.9764 10.0646 34.8689 11.5543 34.3332 9.15423C33.7974 6.83691 39.0657 10.0646 39.0657 10.0646Z" fill="#ADDA2B"/>
<path d="M33.7081 15.9408C33.5295 15.9408 29.5113 17.4305 28.9755 15.0305C28.5291 12.7131 33.7081 15.9408 33.7081 15.9408Z" fill="#ADDA2B"/>
<path d="M40.673 10.644C40.5837 10.7268 36.7441 12.5476 38.7978 14.2856C40.9408 15.9408 40.673 10.644 40.673 10.644Z" fill="#ADDA2B"/>
<path d="M37.1896 13.375C37.1003 13.4578 33.2607 15.2785 35.3144 17.0165C37.4575 18.7545 37.1896 13.375 37.1896 13.375Z" fill="#ADDA2B"/>
<path d="M23.3508 6.00928C23.2615 6.09204 22.5472 9.81632 19.9577 8.65766C17.3682 7.66451 23.3508 6.00928 23.3508 6.00928Z" fill="#ADDA2B"/>
<path d="M21.5647 9.48511C21.4754 9.56787 20.7611 13.2921 18.1716 12.1335C15.5821 11.0576 21.5647 9.48511 21.5647 9.48511Z" fill="#ADDA2B"/>
<path d="M27.9935 6.6709C27.9935 6.75366 27.815 10.5607 30.583 10.1469C33.3511 9.81585 27.9935 6.6709 27.9935 6.6709Z" fill="#ADDA2B"/>
<path d="M44.3353 13.0442C44.3353 13.127 44.1567 16.934 46.9249 16.5202C49.693 16.1891 44.3353 13.0442 44.3353 13.0442Z" fill="#ADDA2B"/>
<path d="M39.2461 16.8509C39.3354 16.7681 40.8534 13.2921 43.175 14.7818C45.4966 16.1888 39.2461 16.8509 39.2461 16.8509Z" fill="#ADDA2B"/>
<path d="M29.6006 13.044C29.6899 12.9612 31.2078 9.48522 33.5294 10.9749C35.9403 12.4646 29.6006 13.044 29.6006 13.044Z" fill="#ADDA2B"/>
<path d="M26.5653 14.4508C26.476 14.368 24.0651 11.0576 22.19 12.7128C20.1362 14.368 26.5653 14.4508 26.5653 14.4508Z" fill="#ADDA2B"/>
<path d="M27.4573 12.63C27.368 12.5472 26.6536 8.74018 24.0641 9.65055C21.4746 10.5609 27.4573 12.63 27.4573 12.63Z" fill="#ADDA2B"/>
<path d="M38.7073 9.56877C38.618 9.56877 34.5105 11.0585 33.9748 8.65839C33.439 6.34106 38.7073 9.56877 38.7073 9.56877Z" fill="#D6F781"/>
<path d="M33.3509 15.4447C33.2616 15.4447 29.1541 16.9344 28.6183 14.5344C28.0826 12.217 33.3509 15.4447 33.3509 15.4447Z" fill="#D6F781"/>
<path d="M40.3156 10.1477C40.2263 10.2305 36.3867 12.0512 38.4404 13.7892C40.4941 15.4444 40.3156 10.1477 40.3156 10.1477Z" fill="#D6F781"/>
<path d="M36.8321 12.8789C36.7428 12.9617 32.9033 14.7824 34.957 16.5204C37.0107 18.1757 36.8321 12.8789 36.8321 12.8789Z" fill="#D6F781"/>
<path d="M22.9934 5.51343C22.9041 5.59619 22.1898 9.32047 19.6003 8.1618C17.0108 7.0859 22.9934 5.51343 22.9934 5.51343Z" fill="#D6F781"/>
<path d="M21.2073 8.98926C21.118 9.07202 20.4036 12.7963 17.8141 11.6376C15.2246 10.5617 21.2073 8.98926 21.2073 8.98926Z" fill="#D6F781"/>
<path d="M27.6361 6.17505C27.6361 6.25781 27.4575 10.0649 30.2256 9.65104C32.9937 9.32 27.6361 6.17505 27.6361 6.17505Z" fill="#D6F781"/>
<path d="M43.9769 12.5483C43.9769 12.6311 43.7984 16.4381 46.5664 16.0243C49.3345 15.6933 43.9769 12.5483 43.9769 12.5483Z" fill="#D6F781"/>
<path d="M38.8867 16.355C38.976 16.2723 40.494 12.7963 42.8156 14.286C45.1373 15.6929 38.8867 16.355 38.8867 16.355Z" fill="#D6F781"/>
<path d="M29.2432 12.5481C29.3325 12.4654 30.8504 8.98937 33.1721 10.4791C35.4937 11.886 29.2432 12.5481 29.2432 12.5481Z" fill="#D6F781"/>
<path d="M26.2079 13.9547C26.1186 13.8719 23.7077 10.5615 21.8325 12.2167C19.7788 13.7892 26.2079 13.9547 26.2079 13.9547Z" fill="#D6F781"/>
<path d="M27.0998 12.1336C27.0105 12.0509 26.2962 8.24384 23.7067 9.15422C21.1172 10.0646 27.0998 12.1336 27.0998 12.1336Z" fill="#D6F781"/>
</svg>
