<svg width="79" height="36" viewBox="0 0 79 36" fill="none" xmlns="http://www.w3.org/2000/svg">
<path d="M2.31578 5.72118C1.33356 8.86612 4.72669 12.0111 6.95902 13.8318C9.63781 16.1492 12.9417 17.8872 16.1562 19.4596C22.7639 22.5218 29.6394 25.0047 36.6936 26.9082C57.5882 32.6188 76.0718 32.3705 78.0363 26.4116C79.9114 20.4528 66.2496 10.4386 45.2657 4.72804C42.4084 3.98318 38.033 2.90728 35.2649 3.0728C34.4613 3.0728 34.1934 3.32108 34.1041 3.65213C34.0148 4.39699 35.2649 5.63841 34.372 5.47289C33.9255 5.39013 33.5683 5.30737 33.1219 5.14185C31.5146 4.56251 29.6395 3.32108 25.6213 2.32794C13.7453 -0.734251 3.65518 1.66585 2.31578 5.72118Z" fill="#F05C5C"/>
<path d="M34.6393 4.72777C34.55 4.72777 34.4607 4.72776 34.4607 4.645C34.1928 4.14842 33.9249 3.56909 34.4607 3.23804C34.6393 3.9829 35.4429 4.81053 34.6393 4.72777Z" fill="#F68484"/>
<path d="M7.2269 13.0862C9.90569 15.4036 13.2095 17.1416 16.4241 18.714C23.0318 21.859 29.9073 24.2591 36.9615 26.1626C57.4096 31.7904 75.5361 31.6249 78.1256 25.9971C78.1256 26.1626 78.0363 26.2454 78.0363 26.4109C76.1611 32.3697 57.5882 32.618 36.6936 26.9075C29.6394 25.004 22.7639 22.5211 16.1562 19.4589C12.8524 17.8864 9.63781 16.1484 6.95902 13.8311C4.72669 11.9276 1.33356 8.78264 2.31578 5.72045C2.31578 5.55493 2.40507 5.47216 2.49436 5.30664C1.86931 8.36883 5.08387 11.2655 7.2269 13.0862Z" fill="#F68484"/>
<path d="M6.95899 13.9146C9.63778 16.2319 12.9416 17.9699 16.1562 19.5424C22.7639 22.6046 29.6394 25.0874 36.6936 26.991C57.5881 32.7015 76.0718 32.4532 78.0362 26.4944L76.6076 31.129C74.7324 37.0879 56.1594 37.3362 35.2649 31.6256C28.2107 29.7221 21.3352 27.2392 14.7275 24.1771C11.4236 22.6046 8.2091 20.8666 5.53031 18.5493C3.29798 16.6457 -0.0951527 13.5008 0.887071 10.4386L2.31576 5.80396C1.33353 8.86614 4.72667 12.0111 6.95899 13.9146Z" fill="#DC1C13"/>
<path d="M64.2853 27.4879C67.9463 27.6534 70.3572 27.8189 71.7859 26.3292C73.2146 24.8395 74.3754 24.0946 72.7681 21.86C71.1608 19.6255 68.1249 17.722 66.1604 16.3978C63.8388 14.8253 59.9099 12.6735 58.1241 11.6803C54.3738 9.69406 49.9984 8.36988 47.4982 7.62502C44.9087 6.7974 39.819 5.47321 38.301 5.88702C35.9794 6.46635 37.1402 8.36987 38.8368 9.85959C40.5333 11.3493 44.8194 12.6735 46.3374 12.9218C47.9447 13.1701 50.2663 13.8322 53.0344 15.4874C54.1952 16.1495 55.8917 17.8047 56.2489 18.8806C56.6061 19.791 56.7847 20.6186 56.1596 21.2807C55.5346 21.9428 55.5346 22.3566 56.3382 23.1015C57.1418 23.8463 58.2134 24.7567 59.7313 25.8326C61.6958 27.2396 64.2853 27.4879 64.2853 27.4879Z" fill="#C31A1D"/>
<path d="M69.3751 25.9978C70.8038 24.5081 71.9646 23.7633 70.3573 21.5287C68.75 19.2941 65.7141 17.3906 63.8389 16.0664C61.5173 14.4939 57.5884 12.3421 55.8025 11.349C52.0522 9.36271 47.6769 8.03851 45.0874 7.29366C43.6587 6.87985 41.4264 6.21776 39.4619 5.80396C41.6049 5.96948 45.3553 6.96262 47.4983 7.62471C49.9985 8.36957 54.3738 9.69375 58.1241 11.68C59.91 12.6732 63.8389 14.825 66.1605 16.3974C68.0357 17.7216 71.0716 19.6252 72.7682 21.8597C74.3755 24.0943 73.2147 24.8391 71.786 26.3289C70.3573 27.8186 67.9464 27.6531 64.2854 27.4875C64.2854 27.4875 63.6603 27.4048 62.7674 27.1565C65.8926 27.322 68.0357 27.4048 69.3751 25.9978Z" fill="#B21E10"/>
<path d="M34.2832 8.9485C33.0331 7.70708 31.4258 6.96223 29.8185 6.21737C26.7826 4.81042 22.8537 4.06556 19.907 3.90004C17.2282 3.73452 13.8351 3.48623 11.8706 4.06556C9.90618 4.64489 6.06658 6.71394 9.6383 10.6865C13.6565 15.1556 17.764 17.0592 22.4072 18.9627C26.6933 20.7007 31.6937 22.7697 37.4084 24.2594C42.8553 25.6664 46.427 26.494 49.1058 26.8251C51.7846 27.1561 53.124 27.7354 54.642 27.4044C56.0707 27.0733 55.4456 26.4112 54.0169 25.1698C52.5882 23.9284 52.6775 23.9284 51.2489 23.018C49.8202 22.1076 47.6771 22.4387 43.659 21.0317C40.1765 19.8731 38.6585 19.1282 36.6048 17.9695C34.4618 16.7281 33.1224 15.8177 32.0509 14.6591C31.2472 13.8315 30.7115 12.9211 31.3365 11.8452C31.9616 10.6865 36.4262 10.9348 34.2832 8.9485Z" fill="#C31A1D"/>
<path d="M11.8709 4.06564C13.8353 3.48631 17.3178 3.81736 19.9073 3.90012C20.8002 3.98288 21.6931 4.06564 22.6753 4.1484C22.4968 4.1484 22.3182 4.1484 22.1396 4.1484C19.4608 3.98288 16.0677 3.73459 14.1032 4.31393C12.1388 4.89326 8.29916 6.9623 11.8709 10.9349C15.8891 15.404 19.9966 17.3075 24.6398 19.211C28.9259 20.949 33.9263 23.0181 39.641 24.5078C45.0879 25.9147 48.6596 26.7424 51.3384 27.0734C52.3206 27.1562 53.035 27.3217 53.7493 27.4872C52.4992 27.57 51.2491 27.1562 49.0168 26.8251C46.338 26.4941 42.7663 25.6664 37.3194 24.2595C31.6047 22.7698 26.6042 20.7007 22.3182 18.9627C17.6749 17.0592 13.6567 15.1557 9.54927 10.6866C6.06684 6.79677 9.90644 4.64497 11.8709 4.06564Z" fill="#B21E10"/>
<path d="M29.6392 10.3554C28.5677 9.11396 25.9782 6.63109 23.8352 7.29318C21.6028 7.87252 25.621 9.69329 26.4246 9.94158C27.5855 10.2726 28.4784 10.1899 29.6392 10.3554Z" fill="#B21E10"/>
<path d="M28.926 12.6724C27.2295 11.9275 22.4076 9.27912 20.8896 11.0171C19.1931 13.0862 24.1042 13.5827 25.3543 13.3345C26.5151 13.1689 27.6759 12.8379 28.926 12.6724Z" fill="#B21E10"/>
<path d="M30.1755 15.4038C28.6575 15.4866 25.8001 15.4866 25.5323 16.9763C25.0858 18.8798 27.7646 18.0522 28.5682 17.3073C29.2826 16.8108 29.729 16.1487 30.1755 15.4038Z" fill="#B21E10"/>
<path d="M32.2302 17.8042C31.8731 18.6318 30.623 20.8664 32.0517 21.4457C33.8375 22.1906 34.0161 20.5353 33.6589 19.7905C33.3911 19.2111 32.4981 18.4663 32.2302 17.8042Z" fill="#B21E10"/>
<path d="M57.9453 20.7007C59.8205 20.3697 63.4815 20.3697 64.3744 22.4387C65.3566 24.6733 60.9813 23.3491 59.9991 22.687C59.1061 22.1077 58.3918 21.4456 57.9453 20.7007Z" fill="#B21E10"/>
<path d="M56.6953 17.4728C57.8561 17.8039 60.8921 19.0453 61.4278 17.6383C61.8743 16.3142 59.4634 15.9004 58.3919 16.2314C57.6775 16.4797 57.1418 16.9763 56.6953 17.4728Z" fill="#B21E10"/>
<path d="M54.7304 15.6524C55.7127 15.2386 58.3022 12.8385 55.7127 12.5903C53.8375 12.4247 54.4626 14.6593 54.7304 15.6524Z" fill="#B21E10"/>
<path d="M50.5342 13.5003C51.3379 13.252 52.4094 12.4244 52.4094 11.5967C52.4987 10.9346 51.695 10.2725 50.8914 10.1898C48.7484 10.107 49.8199 12.5899 50.3557 13.4175L50.5342 13.5003Z" fill="#B21E10"/>
<path d="M46.4279 11.7623C47.3209 10.7692 46.7851 8.36911 44.6421 8.86568C42.5883 9.27949 45.6243 11.183 46.4279 11.7623Z" fill="#B21E10"/>
<path d="M37.6756 20.1213C38.3899 20.5351 41.7831 22.687 39.9972 23.349C38.0328 24.0111 37.1398 21.1145 37.6756 20.1213Z" fill="#B21E10"/>
<path d="M30.1753 9.9423C29.1038 8.70087 26.5143 6.218 24.3713 6.8801C22.139 7.45943 26.1572 9.28021 26.9608 9.52849C28.1216 9.85954 28.9252 9.77678 30.1753 9.9423Z" fill="#F68484"/>
<path d="M29.3713 12.259C27.6748 11.5142 22.8529 8.86579 21.335 10.6038C19.6384 12.6728 24.5495 13.1694 25.7996 12.9211C27.0497 12.6728 28.2105 12.4245 29.3713 12.259Z" fill="#F68484"/>
<path d="M30.7116 14.9907C29.1936 15.0735 26.3363 15.0735 26.0684 16.646C25.6219 18.5495 28.3007 17.7219 29.1043 16.977C29.8187 16.3977 30.2652 15.6528 30.7116 14.9907Z" fill="#F68484"/>
<path d="M32.7635 17.3909C32.4063 18.2185 31.1562 20.453 32.5849 21.0324C34.3707 21.7772 34.5493 20.122 34.1921 19.3771C33.835 18.7151 33.0313 18.053 32.7635 17.3909Z" fill="#F68484"/>
<path d="M58.4805 20.2044C60.3556 19.8733 64.0166 19.8733 64.9989 21.9424C65.9811 24.177 61.6057 22.8528 60.6235 22.1907C59.6413 21.6941 58.9269 21.032 58.4805 20.2044Z" fill="#F68484"/>
<path d="M57.2305 17.0597C58.3913 17.3908 61.4272 18.6322 61.963 17.2253C62.4095 15.9011 59.9985 15.4873 58.927 15.8183C58.2127 16.0666 57.6769 16.5632 57.2305 17.0597Z" fill="#F68484"/>
<path d="M55.2676 15.2385C56.2498 14.8247 58.8393 12.4246 56.2498 12.1763C54.3746 11.928 54.9997 14.1626 55.2676 15.2385Z" fill="#F68484"/>
<path d="M51.0684 13.0041C51.8721 12.7559 52.9436 11.9282 52.9436 11.1006C53.0329 10.4385 52.2292 9.77643 51.4256 9.69367C49.2826 9.61091 50.3541 12.0938 50.8898 13.0041H51.0684Z" fill="#F68484"/>
<path d="M46.9621 11.266C47.855 10.2729 47.3193 7.87277 45.1762 8.36934C43.1225 8.86591 46.1585 10.7694 46.9621 11.266Z" fill="#F68484"/>
<path d="M38.2117 19.7078C38.926 20.1216 42.3191 22.2734 40.5333 22.9355C38.5689 23.5976 37.676 20.7009 38.2117 19.7078Z" fill="#F68484"/>
<path d="M50.8909 20.1215C51.248 18.9629 50.9802 18.8801 50.2658 18.1353C49.5515 17.3904 48.9264 17.3076 47.8549 16.6455C46.8727 15.9007 46.069 15.4041 44.8189 14.9903C43.5688 14.5765 43.3009 14.6593 42.2294 14.3282C41.2472 13.9144 40.7115 13.7489 39.9078 13.4178C39.1042 13.0868 38.747 13.3351 38.8363 14.2455C38.9256 15.1558 38.2113 15.1558 38.747 15.8179C39.2828 16.3973 39.0149 16.149 39.9971 16.8938C41.0686 17.6387 41.2472 17.7215 42.1401 18.218C43.1224 18.7146 43.4795 18.7974 44.9975 19.3767C46.5155 20.0388 47.0513 19.956 47.9442 20.0388C48.8371 20.1215 49.7301 20.1215 50.0872 20.2871C50.7123 20.2871 50.8909 20.1215 50.8909 20.1215Z" fill="#F68484"/>
<path d="M33.1211 5.14157C33.5676 5.30709 33.9247 5.38985 34.3712 5.47261C35.2641 5.63813 34.014 4.47947 34.1033 3.65186L33.1211 5.14157Z" fill="#B21E10"/>
<path d="M6.87052 13.8315C6.87052 13.8315 6.95981 13.9143 6.87052 13.8315C7.58487 14.4109 8.20992 14.9074 8.83498 15.404L7.40628 20.0387C6.78123 19.5421 6.06688 19.0455 5.53112 18.549C5.44183 18.4662 5.44183 18.4662 5.35254 18.3834C5.8883 16.8937 6.42405 15.3213 6.87052 13.8315Z" fill="#B21E10"/>
<path d="M4.0127 11.0179C3.47694 12.5076 2.94118 13.9974 2.40543 15.4871C1.15532 13.9146 0.351691 12.1766 0.887449 10.4386L2.31613 5.80396C1.69108 7.62471 2.67331 9.44546 4.0127 11.0179Z" fill="#B21E10"/>
<path d="M49.641 29.8047C52.3198 30.2185 54.9093 30.5495 57.3202 30.7978L55.8915 35.4325C53.4806 35.1842 50.8018 34.8531 48.123 34.4393C48.6588 32.8669 49.1946 31.3772 49.641 29.8047Z" fill="#F61A1A"/>
<path d="M46.0688 29.1428C45.533 30.7153 45.0866 32.205 44.5508 33.7775C43.8365 33.6119 43.2114 33.5292 42.4971 33.3637L43.9258 28.729C44.7294 28.8945 45.3544 28.9773 46.0688 29.1428Z" fill="#F61A1A"/>
</svg>
