<svg width="185" height="57" viewBox="0 0 185 57" fill="none" xmlns="http://www.w3.org/2000/svg">
<path d="M154.556 45.7163C156.253 45.3025 157.949 44.7232 159.735 44.9714C161.164 45.2197 161.878 45.7991 162.235 46.5439C162.414 46.4611 162.503 46.3784 162.682 46.2956C163.218 45.9646 163.843 45.8818 164.378 46.0474C165.093 45.8818 165.896 45.7991 166.789 45.9646C167.414 45.2197 168.039 44.5576 168.665 43.8955C167.504 43.6473 166.432 43.1507 165.539 42.4886C163.396 40.9161 165.896 37.2746 168.04 38.8471C168.843 39.4264 169.647 39.7574 170.54 39.923C170.54 39.923 170.54 39.923 170.54 39.8402C170.986 39.1781 171.79 38.7643 172.504 38.7643C173.844 38.7643 175.004 39.0126 175.987 39.5092C177.147 37.4401 179.38 36.2815 182.148 35.04C183.755 34.2952 184.559 33.3848 184.827 32.2261C184.737 32.3089 184.737 32.3917 184.648 32.3917C184.023 33.4676 182.505 33.6331 181.523 33.1365C180.183 32.5572 178.933 32.2261 177.326 32.5572C174.469 33.1365 173.665 29.0812 176.433 28.5019C178.487 28.0881 180.362 28.2536 182.148 28.8329C182.862 28.2536 183.755 27.9225 184.648 27.8398C184.291 26.019 183.398 23.95 181.612 24.7776C180.094 25.4397 178.487 24.9431 178.13 23.3706C176.612 17.9911 174.558 22.8741 172.058 21.0533C171.611 20.7223 171.254 20.3912 170.808 20.0602C170.54 20.1429 170.093 20.2257 169.557 20.3085C168.129 20.6395 167.057 19.8946 166.7 18.736C166.7 18.6532 166.611 18.6532 166.611 18.5704C166.164 18.736 165.718 18.8187 165.271 18.9015C163.307 19.3981 161.968 17.7428 162.503 16.0876C163.932 11.0391 160.092 13.7703 158.753 14.3496C158.128 14.5979 157.414 14.8462 156.699 14.9289C156.342 15.591 155.896 16.1704 155.271 16.6669C154.735 18.3222 153.485 19.4808 151.788 19.9774L151.699 20.0602C150.181 21.3843 147.949 20.3912 148.038 18.5704C148.038 18.2394 148.216 17.9083 148.306 17.5773C148.574 16.8324 149.199 16.3359 150.002 16.0876C150.27 16.0048 150.538 15.9221 150.806 15.9221C151.252 15.6738 151.074 15.0117 151.431 14.5151C151.52 14.4324 151.52 14.3496 151.61 14.3496C151.252 14.1013 150.985 13.6875 150.895 13.0254C149.913 11.2046 148.663 11.0391 147.145 12.6944C145.359 14.0185 143.037 13.1082 143.037 11.0391C142.859 9.54942 142.323 8.72181 141.43 8.72181C140.269 12.0323 137.501 13.6047 133.483 13.853C131.787 13.9358 130.626 12.0323 131.519 10.5426C130.447 10.8736 129.197 10.2115 128.751 9.21838C128.483 9.30115 128.215 9.38389 127.947 9.30112C127.858 9.30112 127.858 9.30112 127.768 9.30112C127.143 9.96322 126.25 10.2943 125.268 9.96323C124.286 9.63219 123.304 9.3839 122.411 9.05285C121.429 8.7218 120.625 7.89418 120.803 6.81827C120.803 6.73551 120.803 6.65276 120.803 6.57C119.643 7.06657 118.303 6.65275 117.768 5.65961C117.232 4.66647 115.803 5.4941 114.91 6.32172C114.91 6.73553 114.821 7.14934 114.464 7.56315C114.285 7.81143 114.107 7.97695 113.839 8.22523C113.481 9.3839 113.214 10.6253 112.767 11.8667C111.785 14.8462 109.553 16.998 106.249 17.4946C104.82 17.7428 102.945 16.9152 103.302 15.26C104.016 11.4529 106.517 9.38391 109.017 6.73553C107.052 5.32858 104.463 5.08028 102.588 7.64589C101.248 9.54941 98.2124 8.88732 98.1231 6.81827C97.9445 6.90103 97.7659 6.90104 97.6766 6.90104C97.4087 7.48037 97.1408 8.0597 96.6944 8.55627C95.2657 10.2943 92.8548 9.88048 92.2297 7.97696C91.694 6.40448 91.8726 4.99753 92.4976 3.83887C92.319 3.67335 92.1404 3.50781 92.0511 3.25953C92.0511 3.25953 92.0512 3.17676 91.9619 3.09399C91.5154 3.34228 90.9796 3.5078 90.5332 3.5078C90.4439 4.00437 90.4439 4.50096 90.2653 5.0803C89.9081 6.57001 87.7651 7.23209 86.515 6.48723C86.4257 6.48723 86.3364 6.40446 86.3364 6.40446C85.6221 7.81141 84.2827 9.05286 82.4075 9.63219C80.0859 10.377 77.0499 10.2115 75.3534 8.55627C74.5497 7.72866 74.3711 6.57 74.3711 5.41134C71.8709 7.56314 67.942 7.81142 64.0131 5.2458C63.7453 5.08028 63.4774 4.83201 63.3881 4.58372C63.2095 4.58372 63.0309 4.58373 62.8523 4.66649C61.9594 9.30114 59.1913 13.4392 53.298 11.5357C51.9586 11.1219 50.9764 9.46666 52.0479 8.22523C51.8693 8.14247 51.6907 8.05972 51.5121 7.97696C50.0834 10.2115 47.3154 11.6185 43.565 11.2047C43.1186 11.1219 42.7614 11.0391 42.4042 10.8736C41.6899 12.6944 40.1719 13.9358 37.4038 13.522C35.5287 13.2737 34.1 12.6944 33.4749 11.2047C32.8499 13.0254 31.1533 14.3496 28.1174 14.5151C28.0281 14.8462 27.9388 15.26 27.7602 15.591C28.3852 15.3427 29.0996 15.3427 29.7246 15.6738C31.2426 16.5842 32.9392 16.8325 34.725 17.0807C37.4931 17.5773 35.9751 21.6326 33.2071 21.1361C31.5105 20.805 29.9032 20.474 28.3852 19.8119C26.9566 20.474 25.5279 20.3912 24.3671 19.8946C23.6527 20.3085 22.8491 20.474 22.0454 20.474C20.081 20.474 18.2058 19.9774 17.045 18.6532C16.1521 20.0602 13.6519 20.6395 12.8483 19.067C12.8483 19.5636 12.8483 20.0602 12.759 20.474C12.4018 22.2947 10.348 23.2879 8.91936 22.4603C7.75855 22.9568 6.24057 22.7085 5.61552 21.6326C5.52623 21.5499 5.52623 21.4671 5.43693 21.3843C4.90118 21.7982 4.45471 22.1292 4.00824 22.543C4.00824 23.4534 3.82966 24.4465 3.3832 25.2742C3.02602 26.1018 2.31168 26.6811 1.41875 26.9294C1.32946 27.1777 1.24016 27.426 1.15087 27.6742C0.972284 28.0053 0.793695 28.3363 0.436523 28.6674C1.59733 28.8329 2.93673 28.7501 4.18683 28.7501C6.24057 28.7501 7.84784 29.4122 9.36582 30.5709C11.5089 32.2261 8.11572 35.2056 5.97269 33.5503C4.90117 32.7227 3.20461 32.8882 1.68663 32.971C2.66885 34.7917 3.56178 36.5297 5.34764 38.0195C5.97269 37.5229 6.86562 37.3574 7.75855 37.8539C8.74077 38.4333 9.81229 38.8471 11.0624 38.5988C12.4018 38.3505 13.8305 37.5229 15.0806 36.9436C17.7594 35.7849 19.7238 39.4264 17.045 40.5851C15.6163 41.1644 14.2769 41.9093 12.759 42.4058C13.384 42.6541 14.0984 42.9024 14.7234 43.0679C15.4377 41.992 17.1343 41.3299 18.1165 42.0748C19.2774 41.7437 20.706 42.3231 20.8846 43.4817C20.9739 43.4817 20.9739 43.4817 21.0632 43.5645C21.2418 43.3162 21.4204 43.0679 21.5097 42.8196C22.3133 41.4954 24.0992 41.5782 24.9921 42.4058C25.7957 42.0748 26.6887 42.1576 27.2244 42.6541C27.3137 42.6541 27.4923 42.6541 27.5816 42.6541C27.9388 42.4886 28.3852 42.3231 28.7424 42.3231C31.6891 42.3231 34.3679 43.3162 34.725 45.7991C35.3501 46.1301 35.9751 46.4612 36.6002 46.7094C37.3145 46.9577 37.5824 47.8681 37.5824 48.5302V48.7785V48.8613C38.5646 49.1095 39.4576 49.275 40.5291 49.4406C42.3149 49.6061 44.3687 49.1095 46.2438 48.613C46.2438 48.5302 46.2438 48.5302 46.2438 48.4474C46.3331 47.7854 46.6903 47.2888 47.1368 46.875C46.5117 46.1301 46.5117 44.9714 47.4939 44.1438C48.2083 43.5645 49.0119 43.0679 49.8156 42.6541C50.9764 42.1576 52.2265 42.4058 52.7622 43.399C53.1194 44.0611 53.0301 44.8887 52.5836 45.5508C52.9408 45.9646 53.1194 46.4611 53.0301 46.9577C53.4766 47.2888 53.7445 47.8681 53.7445 48.4474C54.6374 48.6957 55.5303 49.1095 56.3339 49.6061C59.0127 51.2613 59.5485 53.2476 63.0309 53.3304C66.4241 52.0062 69.9065 51.5096 73.4782 51.1786C72.5853 50.9303 71.8709 50.5165 71.1566 49.9371C70.353 50.351 69.6386 50.4337 68.5671 50.351C66.6026 50.1027 66.7812 47.3715 68.3885 46.5439C69.0135 46.2129 69.6386 45.9646 70.2637 45.7991C70.4422 45.7163 70.7101 45.6335 70.8887 45.6335C71.3352 45.468 71.7816 45.3853 72.3174 45.2197C73.9247 44.8059 74.9962 46.0474 74.9069 47.2888C76.2463 48.1164 78.5679 47.8681 79.9966 48.2819C81.1574 48.613 81.6039 49.6061 81.336 50.5993C81.4253 50.5993 81.4253 50.5993 81.5146 50.5993C82.6754 50.4337 83.479 51.4269 83.7469 52.2545C85.2649 56.7236 93.3013 54.6546 96.7837 53.1648C97.4087 52.9166 98.1231 52.8338 98.6588 52.9993C98.7481 52.9166 98.8374 52.8338 99.016 52.751C98.5695 52.3372 98.1231 51.9234 97.6766 51.5096C96.6944 50.5992 97.1409 48.944 98.391 48.1991C98.5695 48.1164 98.6588 48.0336 98.8374 47.9509C98.8374 47.3715 99.016 46.7094 99.6411 46.2956C99.6411 46.2956 99.7304 46.2956 99.7304 46.2129C100.088 45.9646 100.355 45.7991 100.713 45.7163C100.713 45.6335 100.802 45.6335 100.802 45.5508C102.677 43.399 106.338 45.468 104.463 47.6198C104.374 47.7854 104.195 48.0336 104.106 48.1991C104.016 48.944 103.57 49.6061 102.856 50.0199C102.856 50.0199 102.766 50.0199 102.766 50.1027C102.945 50.351 103.213 50.5992 103.391 50.8475C106.517 50.2682 109.999 50.5992 113.035 50.9303C114.999 51.1786 115.714 52.8338 114.91 54.158C115.446 54.0752 115.982 53.8269 116.517 53.5787C117.232 53.3304 117.946 53.2476 118.571 53.4131C119.107 53.1649 119.821 53.0821 120.357 53.2476C120.803 52.9993 121.25 52.9166 121.786 52.9166C122.411 52.1717 123.393 51.6752 124.286 51.8407C124.465 51.7579 124.554 51.6751 124.732 51.5924C126.429 46.875 130.536 43.8955 135.894 43.4817C137.323 43.399 138.126 44.6404 138.216 45.7991C138.216 46.4612 138.216 47.0405 138.037 47.6198C138.394 47.8681 138.573 48.1164 138.751 48.5302C138.841 48.613 138.93 48.7785 139.019 48.8613C139.287 49.3578 139.376 49.8544 139.376 50.4337C139.376 50.5165 139.376 50.5165 139.376 50.5993C140.716 50.5165 141.966 50.5992 143.037 50.8475C143.395 50.4337 143.841 50.0199 144.288 49.6061C144.555 48.0336 145.448 46.6267 146.966 45.8818C147.502 45.6335 148.038 45.5508 148.574 45.6335C149.288 44.9715 149.824 44.3093 150.181 43.73C151.699 41.3299 155.092 43.3162 154.556 45.7163Z" fill="#1F6529"/>
<path d="M177.415 32.9714C178.844 33.3852 180.183 33.1369 181.701 32.6403C182.772 32.2265 184.201 32.4748 184.558 33.6335C184.558 33.7162 184.648 33.799 184.648 33.8817C184.648 32.7231 184.112 31.7299 182.683 30.9023C180.272 29.4954 178.397 28.1712 177.683 26.0194C176.522 26.4332 175.361 26.516 174.022 26.516C173.218 26.516 172.593 26.0194 172.325 25.3573C172.325 25.3573 172.325 25.3573 172.325 25.2745C171.432 25.3573 170.539 25.6883 169.646 26.1849C167.057 27.5919 165.45 23.7848 168.039 22.4606C169.111 21.8813 170.361 21.4675 171.522 21.2192C170.807 20.2261 170.093 19.0674 169.557 17.9087C168.664 18.7364 167.235 19.1502 166.253 18.3225C165.807 17.9087 165.271 17.5777 164.825 17.3294C164.735 17.4949 164.646 17.5777 164.557 17.7432C163.932 19.2329 161.967 19.6467 160.717 18.9019C159.913 18.4053 158.931 17.9087 158.038 17.4949C158.038 17.826 157.949 18.0742 157.949 18.4053C157.949 20.8054 154.109 22.5434 153.216 19.895C152.502 17.826 149.645 15.0121 147.859 12.2809C146.698 12.5292 145.448 12.4464 144.198 12.2809C144.198 12.3637 144.198 12.3637 144.198 12.4465C144.019 12.943 143.841 13.5223 143.484 13.9362C143.394 14.0189 143.305 14.1017 143.126 14.2672C142.948 14.5982 142.591 14.9293 142.233 15.0948C142.233 15.6741 142.144 16.2535 141.966 16.9156C141.608 18.0742 140.537 19.2329 139.108 19.0674C133.572 18.2398 130.09 14.5983 129.911 9.21875C129.911 8.97046 129.911 8.72215 130 8.47387C129.732 8.22558 129.465 7.9773 129.197 7.72902C128.214 6.81864 127.054 4.66684 126.161 6.65312C125.446 8.2256 123.66 8.47388 122.321 7.81178C121.875 7.48074 121.428 7.23246 120.892 7.1497C121.339 8.55665 120.267 10.1291 118.214 10.2119C115.178 10.2946 111.606 10.4602 108.659 9.63255C108.391 9.88084 108.123 10.0464 107.856 10.2946C107.856 10.2946 107.856 10.2946 107.945 10.3774C108.57 10.7912 108.838 11.5361 108.749 12.2809C108.838 12.5292 108.838 12.7775 108.927 12.943C110.267 15.1776 106.159 16.9983 104.82 14.7638C104.82 14.7638 104.73 14.681 104.73 14.5983C104.373 14.5155 104.105 14.2672 103.837 14.0189C103.837 14.0189 103.837 14.0189 103.748 13.9362C103.302 13.4396 103.212 12.8602 103.391 12.2809C103.302 12.1982 103.123 12.1154 103.034 11.9499C101.962 11.205 101.962 9.54978 103.123 8.6394C103.659 8.22559 104.195 7.89455 104.73 7.48074C104.641 7.39798 104.552 7.3152 104.462 7.23244C103.837 7.3152 103.212 7.23245 102.677 6.9014C99.5514 5.1634 92.14 2.59779 89.4612 6.9014C88.9255 7.72902 87.9433 8.63941 86.7824 8.39113C86.6932 8.39113 86.6932 8.39113 86.6039 8.39113C86.6039 9.38427 85.8895 10.3774 84.6394 10.6257C83.1214 10.9567 80.8891 10.5429 79.2818 11.2878C79.0139 12.5292 77.5853 13.6879 76.1566 13.1085C75.7101 12.943 75.2636 12.7775 74.8172 12.612C74.6386 12.612 74.46 12.5292 74.2814 12.3637C73.6564 12.1154 73.1206 11.8671 72.5849 11.4533C71.1562 10.5429 71.7812 7.81177 73.7457 7.64625C74.9065 7.56349 75.5315 7.72902 76.2459 8.22559C77.0495 7.64626 77.9424 7.31522 78.8354 7.1497C75.4422 6.57037 72.0491 5.82549 69.0131 4.33578C65.4414 4.17026 64.5485 6.0738 61.4232 7.56351C60.5303 7.97732 59.5481 8.30835 58.5658 8.55664C58.3873 9.13597 58.0301 9.71532 57.4943 10.0464C57.405 10.5429 57.1372 11.0395 56.6907 11.3705C56.9586 12.0326 56.8693 12.8602 56.3335 13.5223C55.5299 14.5155 54.1905 14.5983 53.2083 14.0189C52.4939 13.6051 51.7796 13.0258 51.2438 12.4465C50.4402 11.5361 50.7974 10.4602 51.5117 9.7153C51.0652 9.30149 50.8866 8.80492 50.9759 8.06006C50.9759 7.9773 50.9759 7.97731 50.9759 7.89455C49.1901 7.31522 47.3149 6.65313 45.5291 6.73589C44.5468 6.73589 43.4753 6.90141 42.4931 7.06693V7.1497L42.4038 7.39798C42.3145 8.06007 41.7788 8.88769 40.9751 9.13598C40.2608 9.38426 39.5464 9.63255 38.8321 9.9636C37.8499 12.3637 34.9925 13.1913 32.0458 13.0258C31.1529 12.943 30.1707 12.2809 30.1707 11.3705C30.1707 11.1222 30.1707 10.874 30.0814 10.6257C29.0992 10.6257 28.3848 10.0463 28.1169 9.30149C26.1525 9.21872 24.4559 9.21873 22.6701 10.6257C21.7771 11.2878 21.0628 11.0395 20.0806 11.1223C18.8305 11.205 17.4911 11.4533 16.1517 11.8671C17.4911 12.4464 18.6519 13.2741 19.902 13.9362C22.3129 15.2603 19.4555 18.7363 17.0446 17.4122C15.8838 16.7501 14.723 15.9224 13.4729 15.5086C12.3121 15.1776 11.1513 15.5914 9.99045 16.088C9.00823 16.5018 8.20459 16.2535 7.66883 15.7569C5.61509 17.0811 4.2757 18.7363 2.84701 20.4743C4.2757 20.6399 5.97226 20.8881 7.22237 20.1433C9.72257 18.6536 12.3121 21.7985 9.81186 23.2882C8.026 24.3642 6.32944 24.8607 4.2757 24.6952C3.0256 24.6124 1.77549 24.3642 0.525391 24.5297C0.79327 24.8607 0.882563 25.1918 0.971856 25.5228C0.971856 25.7711 1.06115 26.0194 1.06115 26.2677C1.77549 26.5159 2.40054 27.178 2.57913 28.0057C2.75772 28.916 2.75772 29.8264 2.57913 30.8195C2.9363 31.2334 3.29347 31.6472 3.65065 32.061C3.73994 31.9782 3.82923 31.8955 3.82923 31.8127C4.72216 30.8196 6.32944 30.654 7.31166 31.2334C8.91893 30.5713 10.7941 31.6472 10.6155 33.4679C10.6155 33.9645 10.5262 34.3783 10.3476 34.8749C11.5977 33.3852 13.8301 34.0473 14.4551 35.537C15.8838 34.3783 17.9375 33.9645 19.8127 34.13C20.6163 34.2128 21.3307 34.4611 21.9557 34.8749C23.2058 34.3783 24.6345 34.4611 25.9739 35.2059C27.6705 34.6266 29.367 34.4611 31.0636 34.2956C33.921 33.9645 34.4567 38.1026 31.5994 38.4336C29.8135 38.5992 28.0276 38.7647 26.3311 39.5095C25.6167 39.8406 24.9024 39.7578 24.3666 39.4268C24.3666 39.7578 24.4559 40.1716 24.4559 40.5027C27.4026 40.8337 28.742 42.2407 28.9206 44.1442C29.9921 42.82 31.4208 42.2407 33.3852 42.1579C36.2426 41.9924 37.4034 43.3166 37.6713 45.1374C38.0285 44.9718 38.4749 44.8891 38.9214 44.8891C42.6717 44.7235 45.0826 46.296 45.9755 48.6133C46.1541 48.5306 46.3327 48.4478 46.5113 48.4478C45.7969 47.1236 47.1363 45.5512 48.565 45.2201C54.9048 43.8132 56.6014 48.034 56.3335 52.6687C56.5121 52.6687 56.6907 52.7514 56.8693 52.7514C57.0479 52.5031 57.3157 52.3376 57.6729 52.1721C62.1376 49.8548 65.9772 50.3514 67.9416 52.6687C68.2095 51.51 68.656 50.3513 69.7275 49.6065C71.7812 48.034 74.9065 48.1168 76.9602 48.9444C78.7461 49.6893 79.7283 50.9307 80.0855 52.4204C80.1748 52.4204 80.2641 52.3376 80.3534 52.3376C81.6927 51.6755 83.6572 52.5031 83.7465 53.9929C83.7465 54.5722 83.7465 55.0688 83.6572 55.5653C84.1037 55.5653 84.5501 55.8136 84.9073 56.0619L84.9966 55.9792C85.1752 55.8136 85.3538 55.5653 85.6216 55.4826C85.2645 54.3239 85.4431 52.917 86.336 51.4273C87.4075 49.6065 89.9077 49.3582 90.8899 51.179C91.1578 51.7583 91.3364 52.3376 91.515 52.917C91.6936 52.917 91.8722 52.9997 91.9614 53.0825C92.5865 51.0134 95.7118 50.5996 96.6047 52.5859C97.8548 55.2343 100.444 55.1515 102.766 53.9101C100.891 51.0962 99.0156 48.8616 99.1942 45.0546C99.2835 43.3994 101.248 42.7373 102.677 43.0683C105.802 43.8132 107.498 46.1305 107.766 49.1099C107.856 50.2686 107.766 51.51 107.945 52.7514C108.123 52.9997 108.213 53.248 108.391 53.4135C108.659 53.8273 108.659 54.2411 108.57 54.655C109.195 55.4826 110.445 56.393 111.249 55.4826C112.052 54.4894 113.481 54.2412 114.463 54.7377C114.463 54.655 114.463 54.5722 114.463 54.4894C114.553 53.4135 115.624 52.5859 116.606 52.4204C117.678 52.1721 118.66 51.9238 119.732 51.6755C120.714 51.4272 121.517 51.8411 122.053 52.5031C122.142 52.5031 122.142 52.5031 122.232 52.5031C122.5 52.5031 122.768 52.5859 123.035 52.6687C123.75 51.7583 125.089 51.179 126.071 51.5928C125.536 50.1031 127.143 48.2823 128.839 48.4478C132.858 48.9444 135.179 50.7651 135.536 54.0756C136.429 54.0756 137.144 53.4135 137.679 51.8411C138.215 49.772 140.715 49.0272 142.144 50.5169C143.216 52.1721 144.466 52.1721 145.894 50.4341C146.162 49.8548 146.519 49.441 146.966 49.1927C146.966 49.1099 146.877 49.0272 146.877 48.9444C146.698 48.4478 146.966 47.7857 146.609 47.5374C146.341 47.5374 146.073 47.4547 145.805 47.2892C145.091 47.0409 144.555 46.4615 144.466 45.7167C144.376 45.3856 144.376 45.0546 144.466 44.7235C144.823 42.9028 147.323 42.1579 148.484 43.4821L148.573 43.5649C149.913 44.0615 150.716 45.0546 151.073 46.3788C151.252 46.3788 151.341 46.296 151.52 46.296C154.109 46.1305 156.61 44.558 159.288 44.9718C159.913 45.0546 160.36 45.2201 160.717 45.4684C160.985 45.4684 161.253 45.4684 161.521 45.6339C161.967 45.7995 162.324 45.965 162.771 46.1305C162.771 46.0477 162.86 46.0477 162.86 45.965C163.574 44.8063 164.825 44.1442 166.164 44.558C166.7 44.7235 167.057 44.8063 167.325 44.8891C167.771 44.558 168.307 44.3097 168.753 44.0614C170.093 43.3166 170.986 43.9787 171.879 44.3925C171.968 44.3097 172.147 44.227 172.236 44.1442C172.861 43.7304 173.665 43.5649 174.379 43.6476C174.647 43.3166 175.004 42.82 175.272 42.1579C176.075 40.6682 177.683 40.2544 179.111 40.9993C180.719 41.9096 182.058 39.9234 182.951 38.1026C182.058 37.9371 181.344 37.606 180.719 36.9439C178.844 37.3577 176.968 37.4405 175.004 36.8612C172.861 36.1163 174.736 32.2265 177.415 32.9714Z" fill="#69AE25"/>
<path d="M169.825 27.2605C167.682 26.019 165.985 24.8604 165.36 22.9568C164.378 23.2879 163.307 23.4534 162.146 23.3706C161.431 23.3706 160.806 22.8741 160.628 22.3775C160.628 22.3775 160.628 22.3775 160.628 22.2948C159.824 22.3775 159.021 22.6258 158.217 23.1224C155.985 24.3638 154.467 21.0533 156.788 19.8119C157.77 19.2326 158.842 18.9015 159.913 18.736C159.199 17.8256 158.663 16.8325 158.128 15.8393C157.324 16.5842 156.074 16.998 155.181 16.2532C154.734 15.9221 154.288 15.5911 153.842 15.3428C153.752 15.5083 153.663 15.5911 153.663 15.7566C153.127 17.0808 151.341 17.4946 150.27 16.7497C149.555 16.2531 148.752 15.9221 147.948 15.5083C147.948 15.7566 147.859 16.0048 147.859 16.3359C147.859 18.4877 144.466 19.9774 143.662 17.6601C143.037 15.8393 140.448 13.3565 138.93 10.9564C137.947 11.1219 136.787 11.1219 135.626 11.0391C135.626 11.1219 135.626 11.1219 135.626 11.2047C135.536 11.7013 135.358 12.1978 135.001 12.5289C134.911 12.6116 134.822 12.6944 134.733 12.7771C134.554 13.1082 134.286 13.3565 133.929 13.522C133.929 14.0186 133.84 14.5979 133.661 15.1772C133.393 16.1704 132.411 17.2463 131.161 17.0808C126.161 16.4187 123.125 13.191 122.946 8.39079C122.946 8.1425 122.946 7.97696 123.035 7.72868C122.768 7.48039 122.589 7.31488 122.321 7.06659C121.428 6.23898 120.446 4.41821 119.642 6.15621C119.017 7.4804 117.41 7.81145 116.249 7.14936C115.892 6.90108 115.446 6.65278 114.999 6.57002C115.356 7.81144 114.463 9.21838 112.677 9.30115C109.999 9.38391 106.784 9.54943 104.195 8.88734C103.927 9.05286 103.748 9.30116 103.48 9.46668C103.48 9.46668 103.48 9.46668 103.57 9.54945C104.105 9.96325 104.373 10.6253 104.284 11.2047C104.373 11.453 104.373 11.6185 104.463 11.784C105.713 13.7703 101.962 15.4255 100.802 13.4392L100.712 13.3565C100.444 13.2737 100.176 13.1082 99.9086 12.8599C99.9086 12.8599 99.9086 12.8599 99.8193 12.7771C99.4621 12.3633 99.3728 11.784 99.4621 11.2874C99.3728 11.2047 99.2835 11.1219 99.1049 11.0391C98.1227 10.3771 98.1227 8.88734 99.1942 8.14249C99.6407 7.81144 100.176 7.4804 100.623 7.06659C100.534 6.98383 100.444 6.90106 100.355 6.81829C99.8193 6.90106 99.2835 6.8183 98.7478 6.57002C95.9797 5.08031 89.372 2.76298 87.0504 6.65279C86.6039 7.39764 85.711 8.22524 84.7288 8.05972C84.6395 8.05972 84.6395 8.05972 84.5502 8.05972C84.5502 8.9701 83.9251 9.79774 82.8536 10.046C81.5142 10.2943 79.4605 10.046 78.1211 10.6253C77.8532 11.7012 76.6924 12.7771 75.353 12.2806C74.9958 12.1151 74.5494 12.0323 74.1922 11.8668C74.0136 11.8668 73.835 11.784 73.7457 11.7013C73.21 11.453 72.6742 11.2047 72.2277 10.9564C70.9776 10.1288 71.4241 7.72869 73.21 7.56317C74.1922 7.48041 74.7279 7.64591 75.353 8.05972C76.0673 7.56315 76.871 7.23212 77.6746 7.06659C74.6387 6.57002 71.692 5.99069 68.9239 4.58374C65.7986 4.50098 64.9057 6.15621 62.2269 7.4804C61.4233 7.89421 60.5304 8.1425 59.7267 8.30802C59.6374 8.80459 59.2803 9.30117 58.7445 9.63221C58.6552 10.046 58.3873 10.5426 58.0302 10.8736C58.298 11.453 58.2087 12.1978 57.7623 12.7771C57.0479 13.6875 55.8871 13.7703 54.9942 13.2737C54.3691 12.8599 53.7441 12.4461 53.2083 11.8668C52.494 11.1219 52.7619 10.1288 53.4762 9.46668C53.119 9.13563 52.8512 8.63905 52.9405 8.05972V7.97698C51.3332 7.48041 49.7259 6.90107 48.0293 6.98383C47.1364 6.98383 46.2435 7.14935 45.3505 7.31487V7.39764V7.64591C45.2613 8.22524 44.8148 8.97012 44.1004 9.2184C43.4754 9.46669 42.8503 9.71497 42.2253 9.96325C41.4217 12.1151 38.8322 12.8599 36.2427 12.6944C35.439 12.6116 34.6354 12.0323 34.5461 11.2047C34.5461 10.9564 34.5461 10.7081 34.4568 10.5426C33.5639 10.5426 32.9388 10.046 32.6709 9.38391C30.8851 9.30115 29.4564 9.30115 27.8491 10.5426C27.0455 11.1219 26.4204 10.9564 25.5275 10.9564C24.3667 11.0391 23.2059 11.2874 22.0451 11.6185C23.2059 12.1151 24.2774 12.8599 25.4382 13.4392C27.5812 14.5979 25.081 17.6601 22.938 16.5014C21.9558 15.9221 20.8843 15.1772 19.7234 14.8462C18.6519 14.5151 17.6697 14.929 16.6875 15.3428C15.7946 15.6738 15.0802 15.5083 14.6337 15.0945C12.8479 16.3359 11.5978 17.7428 10.3477 19.3153C11.5978 19.4808 13.1158 19.7291 14.1873 18.9843C16.4196 17.6601 18.7412 20.3912 16.5089 21.7982C14.9909 22.7086 13.3836 23.2051 11.5978 23.1224C10.5263 23.0396 9.36546 22.8741 8.29395 22.9568C8.47253 23.2051 8.65112 23.5362 8.65112 23.8672C8.65112 24.1155 8.74041 24.281 8.74041 24.5293C9.36546 24.7776 9.90122 25.3569 10.0798 26.019C10.2584 26.8466 10.2584 27.6743 10.0798 28.5019C10.3477 28.8329 10.7049 29.2467 11.062 29.5778C11.1513 29.495 11.1513 29.4123 11.2406 29.3295C12.0442 28.4191 13.3836 28.3363 14.3659 28.7502C15.7946 28.0881 17.4018 29.0812 17.3125 30.7365C17.3125 31.1503 17.2232 31.5641 17.0447 31.9779C18.1162 30.6537 20.1699 31.233 20.7057 32.5572C21.9558 31.4813 23.7416 31.1502 25.4382 31.233C26.1525 31.233 26.7776 31.4813 27.3134 31.8951C28.4742 31.4813 29.7243 31.5641 30.8851 32.1434C32.4031 31.6468 33.8317 31.4813 35.439 31.3158C37.9392 31.0675 38.475 34.709 35.8855 34.9573C34.2782 35.1228 32.6709 35.2883 31.153 35.9504C30.5279 36.1987 29.9029 36.1987 29.3671 35.9504C29.3671 36.2815 29.4564 36.6125 29.4564 36.8608C32.0459 37.1919 33.296 38.4333 33.4746 40.0885C34.3675 38.8471 35.7069 38.4333 37.4035 38.2678C39.9037 38.1022 40.9752 39.2609 41.2431 40.9161C41.6002 40.7506 41.9574 40.6679 42.3146 40.6679C45.6184 40.5023 47.7615 41.9093 48.5651 43.9783C48.7437 43.8956 48.9223 43.8128 49.1008 43.8128C48.4758 42.6541 49.6366 41.2472 50.8867 40.9161C56.5122 39.592 58.0302 43.399 57.8516 47.5371C58.0302 47.5371 58.1194 47.6199 58.298 47.6199C58.4766 47.4543 58.7445 47.206 59.0124 47.1233C62.9413 45.0542 66.4237 45.468 68.1203 47.5371C68.3881 46.4612 68.7453 45.468 69.6383 44.806C71.5134 43.399 74.1922 43.399 76.0673 44.2266C77.6746 44.8887 78.5675 45.9646 78.9247 47.2888C79.014 47.2888 79.1033 47.206 79.1033 47.206C80.3534 46.6267 82.05 47.2888 82.1393 48.613C82.1393 49.1095 82.1393 49.5234 82.05 50.0199C82.4071 50.0199 82.8536 50.1855 83.2108 50.5165L83.3001 50.4337C83.4787 50.2682 83.6572 50.1027 83.8358 49.9372C83.568 48.944 83.6572 47.7026 84.4609 46.2957C85.4431 44.6404 87.6754 44.4749 88.4791 46.0474C88.7469 46.544 88.9255 47.0405 89.0148 47.6199C89.1934 47.6199 89.2827 47.7026 89.4613 47.7026C89.9971 45.8819 92.7651 45.468 93.5688 47.206C94.7296 49.6061 96.9619 49.4406 99.0156 48.3647C97.3191 45.8818 95.6225 43.8956 95.8011 40.5023C95.8904 39.0126 97.6763 38.4333 98.8371 38.6816C101.605 39.2609 103.123 41.3299 103.391 44.0611C103.48 45.137 103.48 46.2129 103.57 47.2888C103.748 47.4543 103.837 47.7026 103.927 47.8681C104.105 48.1992 104.105 48.613 104.016 48.944C104.641 49.6889 105.713 50.5165 106.427 49.6889C107.141 48.8613 108.391 48.5302 109.284 49.0268C109.284 48.944 109.284 48.944 109.284 48.8613C109.374 47.9509 110.267 47.206 111.16 46.9577C112.052 46.7095 112.945 46.5439 113.928 46.2957C114.821 46.0474 115.535 46.4612 115.981 47.0405C116.071 47.0405 116.071 47.0405 116.071 47.0405C116.339 47.0405 116.517 47.1233 116.785 47.206C117.41 46.3784 118.571 45.8818 119.464 46.2129C119.017 44.8887 120.446 43.2335 121.875 43.399C125.446 43.8128 127.5 45.3853 127.857 48.3647C128.661 48.3647 129.286 47.7026 129.732 46.3784C130.179 44.5577 132.411 43.8956 133.661 45.137C134.644 46.6267 135.715 46.6267 137.054 45.0542C137.233 44.4749 137.59 44.1439 137.947 43.9783C137.947 43.8956 137.858 43.8956 137.858 43.8128C137.68 43.399 137.947 42.7369 137.59 42.5714C137.322 42.5714 137.144 42.4886 136.876 42.4058C136.251 42.1576 135.804 41.7438 135.715 40.9989C135.715 40.6679 135.626 40.4196 135.715 40.0885C135.983 38.5161 138.215 37.7712 139.287 39.0126L139.376 39.0954C140.715 39.6747 141.608 40.7506 141.698 42.2403C142.055 42.7369 142.412 43.3162 142.591 43.8956C143.126 44.0611 143.751 44.2266 144.198 44.5577C145.269 45.137 148.038 47.7854 147.859 43.2335C147.77 41.7438 149.288 40.3368 150.895 40.9161C151.252 40.9989 151.609 41.1644 151.966 41.33L152.056 41.2472C152.681 40.254 153.752 39.5919 154.913 40.0058C155.36 40.1713 155.717 40.254 155.985 40.3368C156.431 40.0885 156.788 39.8402 157.235 39.5919C159.824 38.1022 160.628 42.5714 163.039 37.8539C163.753 36.5298 165.182 36.1987 166.432 36.8608C167.861 37.6884 169.111 35.8677 169.825 34.2952C169.111 34.2124 168.396 33.8814 167.861 33.3021C166.164 33.7159 164.557 33.7159 162.771 33.3021C160.36 32.64 161.967 29.164 164.378 29.8261C165.718 30.1571 166.878 29.9916 168.218 29.495C169.2 29.164 170.45 29.3295 170.807 30.3226C170.807 30.4054 170.897 30.4882 170.897 30.4882C171.522 28.8329 171.075 28.0053 169.825 27.2605Z" fill="#8FC333"/>
<path d="M75.6203 18.9012C75.3525 18.8184 75.1739 18.6529 74.906 18.5701C74.1024 18.9839 73.388 19.3977 73.0308 20.1426C71.6021 22.5427 67.4947 21.2185 68.9234 18.8184C69.6377 17.577 70.5306 16.5839 71.7807 15.7562C71.0664 15.4252 70.6199 14.7631 70.352 13.9355C69.1019 14.432 67.9411 14.432 67.0482 13.6044C66.3339 13.77 65.6195 13.77 65.0838 13.3562C64.8159 13.1906 64.7266 13.1078 64.6373 13.0251C64.1908 13.2734 63.8337 13.4389 63.4765 13.77C62.3157 14.7631 60.5298 14.2665 59.5476 13.5217C58.8333 12.9423 58.744 11.5354 58.2082 11.2043C57.4939 12.7768 55.9759 13.9355 54.2793 14.7631C53.4757 15.0941 52.672 15.2597 51.9577 15.1769C51.0648 16.17 49.7254 16.7494 48.2074 16.8321C47.0466 18.0736 45.6179 19.0667 44.0999 20.0598C41.689 21.7151 39.0102 18.5701 41.4211 16.9149C42.9391 15.9218 44.3678 15.0114 45.5286 13.6044C44.6357 12.9423 42.8498 12.032 41.689 12.1147C41.3318 12.4458 40.9747 12.6941 40.4389 12.8596C40.2603 12.8596 40.0817 12.9423 39.9031 13.0251C39.3674 13.6872 38.7423 14.1838 37.8494 14.7631C35.7064 16.0873 34.0991 15.839 32.9383 14.9286C32.5811 15.0114 32.2239 14.9286 31.9561 14.8459C31.7775 15.0114 31.5989 15.0941 31.4203 15.1769C28.1165 17.0804 25.0805 16.9976 23.0268 15.5079C22.9375 15.6735 22.7589 15.839 22.5803 15.9217C23.9197 16.6666 23.5625 18.6529 22.491 19.5633C19.5443 22.0461 16.9548 22.1289 14.9011 20.8874C15.0797 22.2944 14.8118 23.7841 14.1867 25.3566C13.5617 26.8463 12.7581 28.2532 12.2223 29.6602C11.5973 31.2327 12.4902 30.7361 14.276 30.7361C14.4546 30.5706 14.6332 30.4878 14.8118 30.3223C15.794 29.743 16.8655 29.743 17.4906 30.2395C19.455 28.336 21.9552 27.1773 24.634 26.4325C26.8664 25.8532 27.9379 28.7498 26.2413 30.074C25.3484 30.7361 24.4554 31.1499 23.4732 31.6465C23.0268 31.8948 21.9552 32.3086 21.4195 32.4741C21.4195 32.4741 21.4195 32.4741 21.3302 32.5569C21.5981 32.4741 21.9552 32.3086 22.491 32.143C24.1876 31.5637 25.6162 32.4741 25.527 34.1293C25.6162 34.1293 25.6163 34.1293 25.7055 34.1293C27.2235 33.7155 28.2057 35.1225 28.1165 36.3639C27.9379 38.5157 26.6878 40.0054 24.9019 40.9986C24.9912 41.2468 25.0805 41.4124 25.1698 41.6606C25.3484 41.9089 25.3484 42.24 25.3484 42.571C26.0627 42.4055 26.7771 42.571 27.3128 43.0676C27.4021 42.9848 27.4914 42.8193 27.4914 42.7366C28.3843 41.2468 30.3488 41.6606 31.1524 42.8193C32.3132 42.4055 33.6526 42.8193 34.0991 43.8952C34.1884 43.8952 34.2777 43.8952 34.367 43.8952C35.2599 43.4814 36.2421 43.3987 37.2243 43.5642C37.5815 42.6538 38.1173 41.8262 38.7423 41.0813C39.1888 40.5848 39.8138 40.2537 40.4389 40.1709C40.4389 40.0882 40.5282 40.0882 40.5282 40.0054C41.2425 38.3502 44.0106 38.1019 44.6357 39.7571C44.8142 40.2537 44.9928 40.833 45.0821 41.4124V41.4951C45.6179 41.6607 45.9751 41.9917 46.2429 42.571C46.3322 42.9848 46.5108 43.3159 46.6894 43.6469C47.0466 43.6469 47.4037 43.6469 47.6716 43.7297C48.1181 43.1504 48.8324 42.8193 49.5468 42.8193C49.7254 42.24 50.1718 41.8262 50.7076 41.5779C51.4219 40.0882 52.9399 38.9295 54.9044 38.0191C55.7973 37.6053 56.9581 37.7709 57.4939 38.5157C57.5831 38.764 57.7617 38.9295 57.9403 39.095C58.8332 38.5985 59.7262 38.764 60.4405 39.1778C61.4227 38.764 62.3157 38.2674 63.03 37.6881C62.9407 37.5226 62.8514 37.2743 62.8514 37.1087C62.8514 36.8605 62.7621 36.6949 62.7621 36.4467C62.7621 36.4467 62.7621 36.4467 62.7621 36.3639C62.405 35.9501 62.1371 35.3708 62.2264 34.7914L62.405 33.7983C62.5836 32.7224 63.5658 31.8948 64.7266 31.8948C64.8159 31.7292 64.9052 31.6465 64.9945 31.481C62.6729 31.1499 63.3872 27.4256 66.066 27.3429C67.4054 27.3429 68.9234 27.5084 70.352 27.1773C71.6021 26.9291 72.4058 26.0187 73.2094 25.1083C73.8345 24.3634 74.7274 24.1152 75.531 24.2807C75.9775 23.3703 76.3347 22.4599 76.6026 21.6323C75.7989 20.5564 75.7989 19.7288 75.6203 18.9012Z" fill="#BED54F"/>
<path d="M55.6214 34.7917C55.8893 34.8744 56.2465 35.0399 56.5144 35.1227C57.4966 34.5434 58.3002 33.8813 58.7467 32.9709C60.2647 29.826 65.6223 31.0674 64.1043 34.2123C63.3006 35.8676 62.3184 37.1917 60.8897 38.2676C61.872 38.5987 62.497 39.4263 62.9435 40.3367C64.4615 39.5918 65.8901 39.4263 67.1402 40.4194C68.0332 40.0884 68.8368 40.0884 69.7297 40.585C70.0869 40.7505 70.2655 40.916 70.3548 40.9988C70.8905 40.6677 71.337 40.4194 71.7835 40.0056C73.2122 38.6815 75.4445 39.0953 76.7839 39.9229C77.7661 40.585 78.1233 42.323 78.7483 42.654C79.4627 40.6677 81.2485 39.0125 83.3023 37.8538C84.1952 37.3573 85.2667 37.109 86.249 37.109C87.2312 35.7848 88.9277 34.8744 90.8029 34.7089C92.1423 33.0537 93.8389 31.6467 95.6247 30.2398C98.4821 28.0052 102.232 31.564 99.375 33.8813C97.5892 35.2882 95.8033 36.6124 94.6425 38.4332C95.8033 39.178 98.2142 40.0884 99.6429 39.9229C100 39.5091 100.536 39.0953 101.161 38.9297C101.429 38.847 101.607 38.7642 101.786 38.6814C102.322 37.8538 103.125 37.109 104.197 36.3641C106.697 34.5434 108.751 34.6261 110.358 35.6193C110.805 35.5365 111.251 35.5365 111.608 35.6193C111.787 35.4538 111.965 35.2882 112.233 35.1227C116.162 32.3916 120.002 32.226 122.77 33.8813C122.948 33.633 123.038 33.4675 123.216 33.3019C121.43 32.5571 121.698 29.9915 122.948 28.75C126.342 25.3568 129.556 25.0258 132.324 26.2672C131.967 24.5292 132.056 22.6257 132.681 20.6394C133.306 18.7359 134.11 16.9151 134.646 15.0944C135.271 13.0253 134.199 13.7702 131.878 14.0185C131.699 14.184 131.431 14.4323 131.253 14.5978C130.092 15.5082 128.752 15.5082 127.86 15.0116C125.627 17.5772 122.681 19.3152 119.287 20.4739C116.609 21.3843 114.823 17.9083 116.876 16.1703C117.859 15.2599 119.019 14.5978 120.18 13.9357C120.716 13.6047 121.966 13.0253 122.681 12.6943L122.77 12.6115C122.502 12.777 122.055 12.9426 121.341 13.2736C119.287 14.184 117.323 13.1081 117.323 11.1218C117.234 11.1218 117.234 11.1218 117.144 11.2046C115.269 11.8667 113.841 10.2114 113.841 8.72173C113.841 5.9906 115.269 4.08708 117.412 2.59737C117.234 2.34909 117.144 2.10079 116.966 1.85251C116.698 1.52146 116.609 1.10765 116.609 0.776605C115.716 1.10765 114.823 0.942133 114.108 0.445563C114.019 0.611086 113.93 0.776602 113.841 0.942125C112.858 2.84564 110.358 2.51461 109.287 1.27318C107.947 1.93527 106.072 1.52145 105.447 0.280029C105.358 0.280029 105.179 0.280029 105.09 0.280029C104.018 0.942123 102.768 1.10765 101.518 1.02489C101.161 2.18356 100.625 3.25947 99.9108 4.25261C99.4643 4.9147 98.6607 5.32851 97.9463 5.49403C97.9463 5.57679 97.9463 5.65954 97.857 5.74231C97.1427 7.89411 93.6603 8.47344 92.678 6.48716C92.4102 5.82506 92.1423 5.16297 91.8744 4.50088C91.8744 4.41812 91.8744 4.41811 91.7851 4.33535C91.1601 4.25259 90.535 3.83878 90.2671 3.17669C90.0886 2.76288 89.8207 2.26632 89.6421 1.85251C89.1956 1.93527 88.7492 1.93527 88.392 1.76974C87.8562 2.59736 87.0526 3.01116 86.1597 3.09392C85.9811 3.92154 85.4453 4.41811 84.8203 4.74916C84.1059 6.65267 82.2308 8.30792 79.9984 9.54935C78.9269 10.1287 77.4089 10.0459 76.6946 9.21831C76.516 8.97002 76.2481 8.72172 75.9803 8.5562C74.9087 9.21829 73.7479 9.13554 72.855 8.63897C71.6942 9.30106 70.6227 9.96316 69.819 10.7908C69.9976 11.0391 70.0869 11.2873 70.1762 11.5356C70.2655 11.7839 70.2655 12.0322 70.3548 12.2805C70.3548 12.2805 70.3548 12.2805 70.3548 12.3632C70.8905 12.8598 71.2477 13.5219 71.1584 14.2668L71.0691 15.5082C70.9798 16.8324 69.819 17.991 68.3903 18.1566C68.3011 18.3221 68.2118 18.4876 68.1225 18.6531C71.1584 18.8187 70.6227 23.6188 67.2295 23.9499C65.533 24.1154 63.5685 24.0326 61.872 24.612C60.354 25.1085 59.461 26.2672 58.5681 27.5086C57.8538 28.5845 56.7823 28.9156 55.8 28.75C55.2643 29.9087 54.9964 31.0674 54.7285 32.226C55.175 32.8054 55.3536 33.7985 55.6214 34.7917Z" fill="#BED54F"/>
<path d="M150.627 48.6955C149.466 47.9506 150.449 46.3782 151.967 46.2954C153.127 46.2126 154.199 45.8816 155.36 45.5505C154.556 45.3023 153.842 44.8057 153.217 44.2263C152.86 44.0608 152.502 43.8125 152.413 43.5643C152.413 43.3987 152.324 43.2332 152.235 43.1505C152.235 43.1505 152.145 43.0677 152.145 42.9849C151.342 43.0677 150.449 42.9022 150.002 42.4883C149.734 42.2401 149.466 41.9918 149.199 41.6607C148.127 40.5848 149.109 39.1779 151.163 39.1779H151.252C152.324 38.5158 154.199 38.433 154.735 39.5089C155.003 40.0055 155.181 40.5021 155.449 40.9159L155.538 40.9986C156.342 41.0814 156.967 41.3297 157.592 41.8263C157.592 41.8263 157.681 41.8263 157.771 41.8263C158.039 41.4952 158.396 41.1642 158.753 40.8331C159.646 40.0055 161.342 40.0882 162.235 40.7503C162.95 41.2469 163.485 41.8263 163.932 42.3228C164.914 42.0746 166.164 42.4884 166.7 43.1505C168.039 44.3091 168.932 44.1436 169.2 42.6539C169.29 42.5711 169.379 42.4056 169.468 42.3228C168.486 41.578 167.95 40.4193 168.397 38.7641C168.843 37.1088 169.915 35.3708 171.343 34.2122C172.236 33.4673 173.129 32.8052 174.111 32.1431C175.451 31.2327 175.629 31.3983 173.933 30.6534C172.504 30.0741 172.415 27.8395 173.933 27.0947C173.576 26.4326 173.308 25.8532 172.951 25.1911C171.968 25.1911 171.165 24.7773 170.897 23.9497C170.629 24.198 170.272 24.3635 170.004 24.4463C168.039 25.1084 166.343 25.2739 164.378 25.1911C163.307 25.1084 162.771 24.198 162.771 23.2876C162.503 23.4532 162.235 23.6187 161.967 23.7842C160.449 24.6118 158.574 23.867 158.574 22.2117C158.574 20.722 158.485 19.3151 158.396 17.9081C157.681 17.3288 157.414 16.3356 157.949 15.3425C158.039 15.177 158.217 14.9287 158.396 14.7632C158.306 14.5149 158.217 14.2666 158.128 14.0183C157.235 14.1011 156.61 14.9287 156.342 16.5012C156.163 18.5702 153.842 19.6461 152.145 18.4874C150.806 16.9977 149.556 17.246 148.395 19.1495C148.216 19.8116 147.948 20.2254 147.502 20.5565C147.591 20.6392 147.591 20.6393 147.681 20.722C147.948 21.2186 147.77 21.8807 148.127 22.0462C148.395 22.0462 148.663 22.0462 148.931 22.129C149.645 22.2945 150.27 22.7083 150.538 23.4531C150.627 23.7842 150.717 24.1152 150.717 24.4463C150.717 26.2671 148.306 27.4257 146.877 26.1843L146.788 26.1015C145.18 25.6877 144.02 24.6118 143.573 23.0393C143.037 22.5428 142.591 21.9634 142.323 21.3841C141.698 21.3013 140.984 21.1358 140.359 20.9703C139.019 20.4737 135.447 18.0736 136.43 22.9566C136.787 24.6118 135.358 26.4326 133.394 26.0188C132.947 25.936 132.501 25.8532 132.054 25.7705C132.054 25.8532 131.965 25.8532 131.965 25.936C131.429 27.1774 130.358 28.005 128.929 27.7568C128.393 27.674 127.947 27.5912 127.679 27.5912C127.232 27.9223 126.875 28.3361 126.34 28.6671C123.75 30.7362 121.964 25.936 120.089 31.481C119.553 33.0535 117.946 33.7156 116.428 33.1363C114.642 32.4742 113.66 34.626 113.124 36.4467C114.017 36.4467 114.821 36.695 115.535 37.1916C117.41 36.4467 119.196 36.1985 121.25 36.4467C124.107 36.7778 122.857 40.9159 120.089 40.5848C118.571 40.4193 117.232 40.8331 115.892 41.4952C114.821 41.9918 113.392 41.9918 112.856 40.9986C112.856 40.9159 112.767 40.8331 112.678 40.8331C112.946 41.9918 113.571 42.9022 115.178 43.4815C117.857 44.4746 120 45.4678 120.982 47.454C122.054 46.9575 123.214 46.6264 124.554 46.4609C125.357 46.3782 126.072 46.7092 126.518 47.3713C126.518 47.3713 126.518 47.3713 126.518 47.454C127.411 47.2058 128.215 46.792 129.108 46.2126C131.429 44.4746 133.662 47.8679 131.34 49.6059C130.358 50.3507 129.197 50.9301 128.036 51.3439C128.929 52.1715 129.822 53.2474 130.626 54.2405C131.429 53.3301 132.769 52.668 133.84 53.3301C134.376 53.6612 134.912 53.9095 135.447 54.075C135.537 53.9095 135.537 53.8267 135.626 53.5784C135.983 52.0059 137.948 51.3438 139.287 51.9232C140.18 52.337 141.162 52.5853 142.144 52.9163C142.144 52.5853 142.144 52.337 142.055 52.0059C141.698 49.6886 145.27 47.454 146.609 49.8541C147.056 50.6818 147.948 51.5921 148.931 52.5025C149.377 52.4198 149.734 52.2542 150.181 52.1715C150.27 52.0887 150.27 52.006 150.359 51.8404C150.627 51.0956 151.788 50.8473 152.86 50.9301C152.949 50.8473 153.038 50.7645 153.127 50.6818C152.413 50.1024 151.609 49.3576 150.627 48.6955Z" fill="#B7D848"/>
<path d="M34.5467 38.7645C33.8324 37.5231 33.2966 36.861 31.7786 36.6127C31.1536 36.53 30.5285 36.4472 29.8142 36.2817C28.2069 35.8679 28.832 34.3782 29.3677 33.5506C29.6356 33.1367 29.8142 32.3919 29.6356 31.8953C29.0998 30.6539 29.457 29.8263 28.5641 28.7504C27.939 28.0055 27.0461 27.2607 26.0639 27.3434C26.421 26.5986 27.314 26.3503 27.8497 25.771C28.4748 25.1916 28.6534 24.695 28.7427 23.9502C28.9212 22.7915 27.939 22.2122 26.8675 22.1294C26.0639 22.0467 25.2602 22.4605 24.5459 22.7088C23.7422 23.0398 22.2243 24.1157 21.4206 23.7847C20.2598 23.2881 18.8311 24.7778 18.474 25.6882C18.2954 26.1848 19.099 26.5158 19.2776 25.9365C19.9026 24.1985 20.9742 24.7778 22.135 24.8606C22.9386 24.9433 24.1887 23.7019 24.9031 23.4536C25.0816 23.3708 25.2602 23.2881 25.4388 23.2053C26.7782 22.5432 27.4926 23.1226 27.4926 25.0261C27.1354 25.5226 26.3317 25.8537 25.8853 26.2675C25.2602 26.6813 25.0816 27.2606 25.0816 27.9227C25.0816 28.2538 25.3495 28.5021 25.7067 28.3365C26.7782 27.84 27.7604 29.1642 28.2069 29.7435C28.8319 30.4884 28.1176 30.7366 28.2069 31.3987C28.2962 32.3091 29.457 32.0608 28.5641 33.4678C28.2069 33.9644 28.1176 34.4609 28.0283 35.0403C27.8497 35.8679 28.3855 36.7783 29.1891 37.1093C31.0643 37.7714 32.7608 37.3576 33.8324 39.3439C33.9217 39.5922 34.7253 39.2611 34.5467 38.7645Z" fill="#E0F178"/>
<path d="M54.2803 36.3645C53.1195 36.3645 52.2265 36.8611 51.5122 37.606C51.2443 37.4404 50.9764 37.3577 50.6193 37.3577C49.637 37.2749 48.2084 37.8542 48.2084 36.199C48.2084 35.7024 47.3154 35.868 47.3154 36.3645C47.3154 37.1922 47.7619 37.6887 48.4762 38.1025C49.2799 38.6819 50.4407 37.7715 51.155 38.4336C51.3336 38.5991 51.6908 38.5991 51.8694 38.3508C52.4944 37.606 53.1195 37.1094 54.1017 37.1094C54.7267 37.2749 54.9053 36.3645 54.2803 36.3645Z" fill="#E0F178"/>
<path d="M111.785 36.5299C110.535 36.7782 110.089 35.785 108.839 36.3644C108.124 36.6954 106.696 35.7023 105.803 35.8678C104.285 36.1161 102.767 37.6886 101.517 38.4334C99.3735 39.7576 96.8733 39.4266 94.5517 39.0128C95.2661 36.9437 98.302 35.454 99.82 33.7987C100.624 32.8884 101.07 31.5642 100.088 30.7366C98.2127 29.0813 93.6588 29.5779 92.498 32.1435C92.2301 32.6401 93.123 32.9711 93.3016 32.3918C94.5517 29.5779 101.874 30.1572 98.7485 33.716C97.0519 35.6195 94.1053 36.6127 93.5695 39.261C93.4802 39.5093 93.7481 39.6748 93.9267 39.6748C95.5339 40.0059 97.4984 40.4197 99.1949 40.1714C100.892 39.9231 102.409 38.8472 103.838 37.8541C104.91 37.1092 105.713 36.5299 107.053 36.7782C107.588 36.8609 108.124 37.1092 108.66 37.1092C109.285 37.1092 109.91 36.7782 110.535 37.192C110.982 37.4403 111.428 37.2747 111.875 37.192C112.41 37.2747 112.321 36.4471 111.785 36.5299Z" fill="#E0F178"/>
<path d="M150.36 47.0403C149.556 47.2886 148.753 47.9507 147.77 47.9507C147.502 47.9507 147.324 48.1162 147.235 48.3645L146.967 50.1025C145.538 49.2749 143.841 48.8611 142.234 49.6887C141.966 49.8542 141.698 50.1025 141.43 50.268C140.448 51.0129 139.466 50.5163 138.573 50.0197C137.68 49.5231 134.644 51.0129 135.448 48.7783C135.626 48.2817 134.823 47.9507 134.644 48.53C134.287 49.4404 134.108 50.3508 135.001 50.9301C136.162 51.675 137.412 50.1852 138.573 51.2612C139.287 51.8405 140.091 51.8405 140.984 51.5094C141.698 51.2611 142.234 50.599 142.859 50.268C144.109 49.5231 145.984 50.5163 146.877 51.1784C147.145 51.3439 147.592 51.1784 147.592 50.8473L147.949 48.7783C148.574 48.6128 149.288 48.2817 149.913 48.0334C150.092 47.7024 150.181 47.3713 150.36 47.0403Z" fill="#E0F178"/>
<path d="M54.2809 11.2048C53.4772 11.122 52.6736 11.2048 51.87 11.2048C52.3164 10.4599 53.0308 9.63227 52.8522 8.88741C52.4057 7.3977 50.4413 7.31494 49.1019 7.31494C48.5661 7.31494 48.3875 8.14256 49.0126 8.14256C49.8162 8.14256 52.4057 8.22533 52.0485 9.46675C51.7807 10.2116 51.1556 10.7909 50.8877 11.5358C50.7984 11.7841 50.977 12.0324 51.2449 12.1151C52.2271 12.1979 53.2986 12.0324 54.2809 12.1151C54.7273 12.1151 54.8166 11.2875 54.2809 11.2048Z" fill="#E0F178"/>
<path d="M72.1402 10.2943C71.9616 10.2116 71.783 10.1288 71.6044 10.1288C71.9616 9.63223 72.1402 9.21844 72.2295 8.63911C72.2295 8.30806 72.0509 8.14254 71.6937 8.2253C71.6044 8.2253 71.5151 8.2253 71.3365 8.2253C71.6044 7.56321 71.783 6.81836 71.5151 6.23903C71.158 5.32865 70.1757 5.32864 69.2828 5.57692C68.747 5.74245 68.8363 6.57006 69.3721 6.40454C69.9971 6.23901 70.6222 6.07349 70.7115 6.81834C70.8008 7.31491 70.5329 7.977 70.265 8.47357C70.1757 8.72186 70.3543 9.05291 70.6222 9.05291C70.8008 9.05291 70.9794 9.05291 71.158 9.05291C71.0687 9.46672 70.8008 9.79776 70.5329 10.2116C70.3543 10.3771 70.4436 10.7909 70.7115 10.8737C71.0687 10.9564 71.4258 11.2047 71.783 11.2875C72.3188 11.2047 72.6759 10.3771 72.1402 10.2943Z" fill="#E0F178"/>
<path d="M105.178 10.1289C104.642 9.88061 104.196 9.88061 103.571 9.79785C103.303 9.79785 103.124 9.96337 103.124 10.2117C102.41 10.4599 101.874 10.3772 101.16 11.122C100.177 12.2807 98.3915 12.86 97.5879 14.1015C97.32 14.5153 97.2307 14.9291 97.0521 15.4257C96.8735 16.0878 96.3378 16.336 95.4448 16.2533C95.3555 15.9222 95.2662 15.6739 95.2662 15.3429C95.0877 14.4325 94.7305 14.0187 93.7483 13.7704C93.3018 13.6877 90.4444 11.3703 90.3551 11.0393C90.1765 10.3772 89.4622 10.1289 88.8372 10.1289C87.587 10.1289 84.4618 13.7704 84.1046 14.5153H84.0153C83.926 14.5153 83.8367 14.5153 83.7474 14.598C83.3903 14.6808 83.2117 15.0946 83.4796 15.3429C83.6582 15.4257 83.8367 15.4257 84.0153 15.3429C84.0153 15.3429 84.0153 15.3429 84.1046 15.3429C84.2832 15.3429 84.3725 15.1774 84.4618 15.0119C85.2654 14.4325 85.8905 13.6049 86.5155 12.86C86.962 12.2807 87.4977 11.7841 88.0335 11.2876C89.5515 10.0462 89.4622 11.7014 89.7301 12.1152C90.3551 12.9428 91.5159 12.9428 92.2303 13.7704C92.5874 14.1842 92.8553 14.267 93.3911 14.5153C94.4626 15.0118 94.3733 15.6739 94.6412 16.5843C94.9984 17.9085 96.7842 17.5775 97.4986 16.5016C98.3915 14.9291 98.838 13.9359 100.445 12.9428C100.981 12.6118 101.338 12.2807 101.695 11.8669C102.231 11.2876 103.124 11.122 103.928 10.791C104.017 10.791 104.017 10.7082 104.106 10.7082C104.374 10.791 104.642 10.791 104.91 10.9565C105.356 11.122 105.714 10.2944 105.178 10.1289Z" fill="#E0F178"/>
<path d="M154.466 19.9772C154.645 19.7289 154.555 19.3151 154.198 19.3151H153.752C153.395 19.3151 153.127 19.6461 153.305 19.8944C153.93 20.9703 155.27 21.3841 155.984 22.46C156.966 24.1153 153.573 23.9497 153.037 23.867C151.52 23.7014 150.537 22.8738 150.002 21.5496C149.466 20.0599 148.216 19.1495 146.787 18.4047C145.894 17.9909 144.108 17.1633 143.126 17.9081C141.965 18.8185 142.144 19.8944 142.233 21.1358C142.412 23.2049 140.715 23.7014 138.929 23.3704C138.483 23.2876 138.036 23.3704 137.679 23.7014C137.322 23.9497 136.072 25.1911 135.983 25.4394C136.072 24.8601 136.518 24.198 136.697 23.7014C136.965 23.0394 136.965 22.3773 136.34 21.9634C135.893 21.7152 135.268 22.3772 135.804 22.6255C136.518 23.0393 134.911 24.9429 135.179 25.6877C135.447 26.5153 136.697 25.936 137.143 25.6049C138.036 24.8601 138.215 24.0325 139.554 24.3635C140.269 24.529 141.072 24.3635 141.787 24.1153C143.483 23.4532 143.126 21.2186 143.037 19.9772C142.858 17.6599 145.269 18.653 145.983 18.984C146.608 19.2323 147.144 19.5634 147.68 19.9772C149.019 20.8876 148.841 22.2117 149.823 23.2876C150.894 24.4463 152.591 24.7773 154.288 24.7773C155.627 24.7773 156.609 24.198 156.966 22.9566C157.234 21.5496 155.359 20.8048 154.466 19.9772Z" fill="#E0F178"/>
<path d="M175.539 39.4264C175.092 38.9298 174.289 38.516 173.574 38.185C173.664 38.0194 173.753 37.9367 173.931 38.0194C174.467 38.1849 174.824 37.4401 174.289 37.1918C173.485 36.8608 172.86 37.5229 172.592 38.185C172.503 38.4332 172.592 38.5987 172.86 38.6815C173.396 38.847 173.842 39.0953 174.289 39.4264C174.467 39.5919 174.646 39.6747 174.824 39.8402C174.735 39.8402 174.646 39.8402 174.557 39.8402C174.021 39.8402 173.842 40.6678 174.467 40.6678C174.914 40.6678 175.36 40.585 175.717 40.254C175.896 40.0885 175.717 39.6747 175.539 39.4264Z" fill="#E0F178"/>
<path d="M170.985 35.2052C170.36 34.8741 168.217 34.0465 167.949 35.3707C167.681 36.5293 168.128 37.7708 167.592 38.9295C166.699 40.9157 163.753 39.5915 162.502 39.095C161.967 38.8467 161.699 38.1846 161.074 38.1018C159.734 37.9363 158.306 38.5156 157.145 37.7708C156.698 37.5225 156.431 37.4397 155.895 37.5225C155.538 37.6052 154.913 37.8535 154.645 37.9363C154.287 38.0191 153.93 38.1846 153.573 38.1846C152.591 38.4329 152.323 37.9363 152.859 36.6949C153.037 36.6949 153.216 36.5293 153.216 36.3638C153.573 36.3638 153.93 35.95 153.662 35.7017C153.305 35.3707 152.859 35.1224 152.323 35.2879C151.787 35.4535 151.609 35.95 151.519 36.3638C151.519 36.5293 151.519 36.6121 151.609 36.6949C151.162 37.6052 151.43 38.7639 152.412 39.0122C153.573 39.2605 154.734 38.6812 155.895 38.3501C156.877 38.1018 157.859 39.5088 159.109 39.095C160.627 38.5984 161.252 39.6743 162.502 40.1709C163.753 40.6675 165.36 41.0813 166.789 40.6675C167.592 40.4192 168.396 39.426 168.574 38.5984C168.664 37.9363 168.664 37.2742 168.664 36.6121C168.574 35.2051 169.646 35.619 170.539 36.0328C171.075 36.1983 171.432 35.3707 170.985 35.2052Z" fill="#E0F178"/>
<path d="M92.1395 30.5713C91.8716 30.323 91.693 30.0747 91.4251 29.9092C91.5144 29.6609 91.2465 29.4954 91.0679 29.4954C89.4607 29.2471 87.3176 28.916 85.7104 29.4954C85.0853 29.7437 84.5495 29.9919 84.2817 30.4885C84.0138 30.9023 83.2994 32.5576 82.853 31.9782C82.6744 31.73 82.4958 31.5644 82.2279 31.4817C80.8885 31.0678 79.9063 31.4817 79.7277 29.6609C79.6384 29.1643 79.5491 28.585 79.1027 28.2539C77.7633 27.3436 76.156 28.916 75.2631 29.8264C74.9059 30.2402 75.5309 30.7368 75.9774 30.323C76.4239 29.8264 76.9596 29.3298 77.5847 28.9988C78.9241 28.2539 78.9241 30.323 79.0134 30.8195C79.1027 31.1506 79.2813 31.5644 79.5491 31.8127C79.9956 32.1438 80.6207 32.1438 81.1564 32.2265C81.8708 32.3093 82.0493 32.8059 82.5851 33.0541C83.2994 33.3024 84.371 32.3093 84.6388 31.8127C85.8889 29.5781 88.4784 29.9919 90.6215 30.323C90.6215 30.9851 91.1572 31.2334 91.8716 31.4817C92.2288 31.4817 92.5859 30.7368 92.1395 30.5713Z" fill="#E0F178"/>
<path d="M53.5651 21.4668C53.0294 21.053 52.8508 20.4737 52.4043 20.0599C52.315 19.9771 52.1365 19.9771 51.9579 20.0599C51.8686 20.0599 51.8686 20.1426 51.7793 20.1426C51.2435 20.3082 51.6007 21.053 52.1364 20.8875C51.9579 20.9703 52.2257 21.3013 52.4936 21.6324C51.8686 21.7151 51.1542 21.7979 50.5292 21.9634C50.2613 21.9634 50.172 22.2117 50.172 22.46C50.172 23.3704 50.172 24.3635 50.0827 25.2739C49.9934 25.936 48.2968 25.8532 47.4039 25.7704C47.6718 24.2807 44.4572 25.5222 42.9393 26.1843C43.0286 25.3566 43.1179 24.529 42.1356 24.198C41.5999 24.0324 40.8855 24.1152 40.3498 24.198C38.8318 24.4462 38.3853 23.7014 38.3853 22.3772C38.296 19.8944 35.1708 20.3082 34.9922 22.7083C34.9922 23.2048 35.8851 23.2876 35.8851 22.791C36.4209 22.6255 36.9566 22.3772 37.4924 22.2117C37.4924 22.46 37.4924 22.7082 37.4924 22.9565C37.4924 23.2876 37.4924 23.6186 37.5817 23.9497C37.671 24.3635 38.0281 24.8601 38.3853 25.1083C38.9211 25.3566 39.3675 25.2739 39.9926 25.1083C41.6892 24.6945 41.957 25.5222 42.0463 26.8463C42.0463 27.0946 42.4035 27.2601 42.6714 27.1774C43.2071 26.8463 43.7429 26.5981 44.2787 26.4325C44.6358 26.267 46.6003 25.6049 46.4217 25.936C46.3324 26.1842 46.511 26.4325 46.7789 26.5153C47.9397 26.6808 49.547 26.8463 50.6185 26.1015C51.4221 25.5222 51.2435 23.7014 51.1542 22.7083C51.9579 22.6255 52.6722 22.5427 53.4758 22.2944C53.7437 22.1289 53.833 21.7151 53.5651 21.4668Z" fill="#E0F178"/>
<path d="M31.6888 18.9013C31.153 18.2392 30.6173 17.9909 29.8136 17.7427C32.4031 14.2667 27.0455 11.6183 25.7061 15.177C23.6524 15.0115 19.8128 15.1771 20.3486 17.9082C20.4379 18.4048 21.3308 18.2392 21.2415 17.7427C20.795 15.6736 24.7239 15.9219 25.974 16.0874C26.2419 16.0874 26.4205 15.9219 26.5098 15.6736C27.2241 12.777 31.5102 14.9288 28.8314 17.7427C28.6528 17.9082 28.7421 18.322 29.01 18.4047C29.8136 18.653 30.528 18.7358 31.0637 19.4807C31.2423 19.8945 31.9567 19.3979 31.6888 18.9013Z" fill="#E0F178"/>
<path d="M116.607 26.9293C115.357 25.7706 113.124 26.2671 112.588 24.1981C112.231 22.8739 113.839 20.4738 112.321 19.4807C111.696 19.0669 110.981 19.3151 110.267 19.6462C108.838 20.2255 108.927 21.3014 106.963 21.3842C105.981 21.3842 105.088 21.2187 104.106 21.3842C103.838 21.3842 103.57 21.798 103.748 21.9635C103.838 22.1291 103.927 22.2118 104.016 22.3774C102.945 22.3774 101.338 22.2946 100.891 23.205C100.177 24.7774 104.106 25.9361 104.82 26.4327C105.266 26.7637 105.802 26.0189 105.356 25.7706C104.999 25.5223 104.731 25.3568 104.374 25.1912C104.016 25.0257 101.159 23.6188 102.32 23.4532C103.213 23.2877 104.106 23.3705 104.909 23.2877C105.266 23.2877 105.356 22.7912 105.177 22.6256C105.088 22.5429 104.999 22.3773 104.999 22.2946C106.159 22.2946 107.231 22.4601 108.392 22.2118C109.553 21.8808 110.178 20.7221 111.338 20.3911C112.588 20.06 111.696 24.0326 111.696 24.6947C111.785 26.2671 113.66 27.012 114.999 27.4258C117.41 28.0052 113.928 29.2466 113.303 29.4121C112.499 29.6604 111.428 30.0742 110.624 29.9087C110.088 29.8259 109.91 30.6535 110.535 30.7363C112.142 31.0673 115.357 29.9087 116.517 28.8328C116.875 28.0879 116.964 27.2603 116.607 26.9293Z" fill="#E0F178"/>
<path d="M143.84 35.6198C142.68 34.9577 141.787 35.6198 140.447 35.3715C140.269 35.3715 140.09 35.3715 139.911 35.537C139.197 36.3647 138.304 36.8612 137.411 37.275C137.501 36.6957 137.59 36.0336 137.679 35.4543C137.679 35.206 137.59 35.0405 137.322 35.0405C136.518 35.0405 135.536 35.0405 135.179 35.2888C135.358 35.206 135.447 35.0405 135.536 34.875C135.715 34.5439 135.447 34.2129 135.268 34.0473C134.732 33.7163 133.393 33.2197 133.661 32.3921C134.107 31.0679 136.161 31.4817 137.59 31.73C137.679 31.8128 137.768 31.8955 137.858 31.8955L138.661 31.9783C139.197 31.9783 139.376 31.2335 138.751 31.1507C137.411 30.9852 132.857 29.9092 132.679 32.5576C132.679 33.2197 132.947 33.6335 133.482 34.0473C133.84 34.2956 134.197 34.4611 134.554 34.7094C134.375 34.6267 134.197 35.1232 134.197 35.206C134.197 35.3715 134.286 35.6198 134.465 35.6198C135.268 35.7853 135.983 35.8681 136.786 35.8681C136.697 36.6129 136.518 37.3578 136.518 38.1027C136.518 38.3509 136.875 38.5165 137.143 38.4337C138.304 37.9371 139.376 37.3578 140.269 36.5302C140.626 36.1992 143.126 36.2819 143.394 36.3647C143.751 36.6129 144.287 35.9509 143.84 35.6198Z" fill="#E0F178"/>
<path d="M170.63 27.5912C170.987 25.1083 165.451 23.5359 165.272 25.6049C165.272 26.1015 166.076 26.1842 166.165 25.6877C166.165 25.3566 170.451 25.8532 169.737 27.674C169.648 27.9222 169.737 28.0878 170.005 28.1705C170.273 29.3292 170.005 29.8258 169.201 29.6602C169.023 29.6602 168.844 29.6602 168.666 29.6602C168.13 29.6602 167.594 29.9085 167.148 30.074C165.898 30.4879 164.826 30.6534 163.933 29.6602C163.665 29.4119 163.487 28.9982 163.308 28.6671C163.576 28.5843 163.755 28.4188 164.022 28.2533C164.469 27.9222 163.933 27.2601 163.487 27.5912C163.308 27.8395 162.951 27.9222 162.683 27.8395C162.326 27.7567 162.058 28.1705 162.237 28.4188C162.683 29.3292 163.219 30.6534 164.29 31.0672C165.808 31.5638 167.148 30.7361 168.755 30.4051C169.826 30.2396 170.898 30.6534 171.434 29.412C171.791 28.6671 171.344 28.005 170.63 27.5912Z" fill="#E0F178"/>
<path d="M78.9247 46.2955C78.6568 43.1506 72.4956 41.9091 69.9954 43.8127C69.4596 44.2265 68.4774 46.7093 68.1202 46.6266C67.2273 46.461 66.3343 46.13 65.5307 45.9645C64.6378 45.7162 63.5663 45.799 62.584 45.8817C62.4055 45.8817 59.3695 46.3783 59.3695 46.5438C59.3695 46.0472 58.4766 46.2128 58.4766 46.7093C58.5659 47.9508 59.5481 47.537 60.441 47.1231C62.8519 46.0472 65.4414 46.8749 67.763 47.4542C69.1024 47.7852 69.8168 45.799 70.1739 44.9713C70.799 43.5644 73.2099 43.8954 74.3707 43.9782C75.978 44.1437 78.0317 44.6403 78.121 46.4611C78.121 47.0404 79.0139 46.7921 78.9247 46.2955Z" fill="#E0F178"/>
<path d="M102.944 53.3303C100.355 54.9028 97.4082 52.3372 95.7116 51.0957C95.2651 50.7647 94.8187 50.6819 94.2829 50.7647C93.8365 50.8475 92.8542 52.0061 92.4078 51.6751C91.247 50.5992 90.354 50.1026 88.6575 50.6819C86.7823 51.2613 85.8001 53.4131 85.6215 55.0683C85.5322 55.5649 86.4251 55.6476 86.5144 55.1511C86.693 53.5786 87.4074 52.2544 89.0146 51.5096C90.6219 50.6819 91.3362 52.0889 92.2292 52.6682C93.3007 53.4131 94.2829 51.1785 95.6223 52.1717C97.6761 53.7441 100.712 55.8132 103.569 54.0752C103.927 53.6614 103.391 52.9993 102.944 53.3303Z" fill="#E0F178"/>
<path d="M118.214 46.6268C115.446 46.544 112.5 46.3785 109.821 47.7027C109.464 47.8682 109.285 48.1992 109.017 48.5303C108.124 49.8545 107.053 50.1855 105.803 49.3579C104.285 48.3648 103.749 46.0474 104.017 44.3922C104.106 43.8956 103.213 43.8129 103.124 44.3094C102.677 46.9578 104.017 50.4338 107.053 50.6821C109.196 50.8476 109.196 48.613 110.982 48.1992C111.875 47.9509 112.768 47.7854 113.66 47.5371C115.089 47.1233 116.607 47.5371 118.036 47.5371C118.661 47.4544 118.839 46.6268 118.214 46.6268Z" fill="#E0F178"/>
<path d="M11.8664 30.0745C11.1521 29.9918 9.63409 29.4952 10.6163 28.7503C11.0628 28.3365 11.2414 27.84 11.2414 27.2606C11.4199 25.6054 9.99127 24.364 9.18763 23.1225C8.91975 22.7087 8.11611 23.0398 8.38399 23.4536C8.91975 24.2812 9.5448 25.1088 10.0806 25.9364C10.4377 26.5985 10.6163 27.5917 9.90197 28.171C9.72339 28.3365 9.45551 28.5021 9.36621 28.7503C8.74116 30.0745 10.7949 30.8194 11.7771 30.9022C12.3129 30.9849 12.4022 30.1573 11.8664 30.0745Z" fill="#E0F178"/>
</svg>
