<svg width="90" height="41" viewBox="0 0 90 41" fill="none" xmlns="http://www.w3.org/2000/svg">
<path d="M89.7151 29.2531C88.6436 32.8118 83.286 33.9705 79.8929 34.5498C75.7854 35.2947 71.4994 35.1292 67.3026 34.7981C58.909 34.136 50.6048 32.5635 42.4791 30.4945C18.4593 24.2874 0.600701 13.6939 2.74373 6.82466C4.79747 -0.0445618 24.6205 -2.03085 48.6403 4.17628C51.8549 5.0039 56.766 6.49361 59.4448 8.14885C60.2484 8.64542 60.3377 9.05923 60.1591 9.39027C59.7127 10.1351 57.7482 10.6317 58.7304 10.9627C59.1769 11.1283 59.7127 11.211 60.1591 11.2938C62.2129 11.6248 64.6238 11.4593 69.267 12.7835C82.8396 16.5078 91.1438 24.5357 89.7151 29.2531Z" fill="#F05C5C"/>
<path d="M58.9994 10.0522C59.0886 10.0522 59.1779 10.135 59.2672 10.135C59.803 9.80395 60.428 9.39013 60.1602 8.81079C59.4458 9.39013 58.1957 9.72118 58.9994 10.0522Z" fill="#F68484"/>
<path d="M80.1616 33.6398C76.0541 34.3846 71.768 34.2191 67.5712 33.888C59.1777 33.2259 50.8735 31.6535 42.7478 29.5844C19.2637 23.5428 1.67301 13.2804 2.92311 6.32837C2.83382 6.49389 2.83382 6.65942 2.74453 6.82494C0.690789 13.6942 18.4601 24.2877 42.4799 30.4948C50.6056 32.5638 58.9098 34.1363 67.3034 34.7984C71.5001 35.1295 75.7862 35.295 79.8937 34.5501C83.2868 33.9708 88.6444 32.8121 89.7159 29.2534C89.7159 29.0879 89.8052 28.9223 89.8052 28.7568C88.4658 31.9845 83.3761 33.0604 80.1616 33.6398Z" fill="#F68484"/>
<path d="M79.8926 34.5496C75.7851 35.2945 71.499 35.129 67.3023 34.7979C58.9087 34.1358 50.6045 32.5634 42.4788 30.4943C18.459 24.2872 0.689667 13.6937 2.74341 6.82446L1.13613 12.1212C-0.91761 18.9904 16.8517 29.5839 40.8715 35.7911C48.9972 37.8601 57.3014 39.4326 65.695 40.0947C69.8917 40.4257 74.1778 40.5912 78.2853 39.8464C81.6784 39.2671 87.036 38.1084 88.1075 34.5496L89.7148 29.2529C88.6433 32.8116 83.1964 33.9703 79.8926 34.5496Z" fill="#DC1C13"/>
<path d="M15.3332 15.5974C11.6722 13.6939 9.172 12.5352 8.81483 10.3006C8.45766 8.06606 7.74331 6.65911 10.7793 5.41769C13.8152 4.17626 18.012 4.01073 20.6908 3.84521C23.9054 3.59693 29.1736 3.67969 31.5845 3.76245C36.585 3.92797 41.5854 5.1694 44.6213 5.8315C47.6573 6.49359 53.4613 8.06607 54.7114 9.30749C56.5866 11.1283 54.265 12.3697 51.5862 12.8663C48.9967 13.3628 43.9963 12.2869 42.2997 11.5421C40.6031 10.88 37.8351 10.2179 34.0848 10.2179C32.4775 10.2179 29.7987 10.88 28.7272 11.7076C27.8342 12.4524 27.1199 13.1145 27.2092 14.1077C27.3878 15.1008 27.1199 15.5146 25.8698 15.7629C24.6197 16.0112 22.9231 16.2595 20.7801 16.5078C18.012 16.7561 15.3332 15.5974 15.3332 15.5974Z" fill="#C31A1D"/>
<path d="M11.4043 11.211C11.0471 8.97644 10.3328 7.56948 13.3688 6.32806C16.4047 5.08663 20.6015 4.92111 23.2803 4.75559C26.4948 4.50731 31.7631 4.59006 34.174 4.67282C39.1744 4.83835 44.1749 6.07977 47.2108 6.74187C48.9074 7.15567 51.4969 7.73501 53.6399 8.47987C51.4969 7.40396 47.1215 6.2453 44.6213 5.74873C41.6747 5.08663 36.585 3.84521 31.5845 3.67969C29.2629 3.59692 23.9946 3.51416 20.6908 3.76245C18.012 3.92797 13.7259 4.09349 10.7793 5.33492C7.74331 6.57634 8.45766 7.98329 8.81483 10.2179C9.172 12.4524 11.6722 13.6939 15.3332 15.5146C15.3332 15.5146 16.0476 15.8457 17.0298 16.0939C13.9045 14.5215 11.7615 13.28 11.4043 11.211Z" fill="#B21E10"/>
<path d="M56.5875 14.3556C58.6412 13.9418 60.695 14.0245 62.6594 14.1901C66.5883 14.5211 70.7851 16.0108 73.7317 17.5005C76.4105 18.8247 79.893 20.48 81.5002 22.1352C83.1075 23.7904 85.3398 28.0113 79.2679 29.832C72.3923 31.9011 67.2134 31.4873 61.4986 30.7424C56.2303 29.9976 49.9798 29.2527 43.4614 27.5147C37.2109 25.8595 33.1927 24.618 30.4246 23.4594C27.6566 22.3007 25.96 22.1352 24.7099 20.8938C23.5491 19.7351 24.6206 19.4868 26.7636 19.073C28.996 18.6592 28.8174 18.6592 30.8711 18.4937C32.8356 18.4109 34.8 19.9006 39.5325 20.8938C43.7293 21.7214 45.6044 21.8869 48.4618 21.8869C51.3192 21.8869 53.1944 21.7214 55.0695 21.2248C56.3196 20.8938 57.5697 20.3144 57.5697 18.9075C57.659 17.335 53.1944 15.1004 56.5875 14.3556Z" fill="#C31A1D"/>
<path d="M81.5004 22.2184C79.8931 20.5631 76.4107 18.9079 73.7319 17.5837C72.839 17.1699 71.8567 16.6733 70.8745 16.3423C71.0531 16.425 71.2317 16.5078 71.4103 16.5906C74.0891 17.9148 77.5715 19.57 79.1788 21.2252C80.786 22.8805 83.0184 27.1013 76.9464 28.9221C70.0709 30.9911 64.8919 30.5773 59.1771 29.8325C53.9088 29.0876 47.6583 28.3427 41.1399 26.6047C34.8894 24.9495 30.8713 23.7081 28.1032 22.5494C27.121 22.1356 26.228 21.8046 25.5137 21.5563C26.6745 22.3011 28.1925 22.6322 30.5141 23.5426C33.2822 24.7012 37.3003 25.9426 43.5509 27.5979C50.0692 29.3359 56.2305 30.1635 61.5881 30.8256C67.3921 31.5705 72.5711 31.9843 79.3574 29.9152C85.4293 28.0945 83.1077 23.8736 81.5004 22.2184Z" fill="#B21E10"/>
<path d="M60.2471 18.329C62.1222 17.7496 66.1404 16.7565 67.837 18.5772C69.6228 20.398 64.5331 19.9014 63.5509 19.6531C62.2115 19.4876 61.4972 18.9083 60.2471 18.329Z" fill="#B21E10"/>
<path d="M59.4443 20.9771C61.5874 21.2253 68.0165 21.3081 68.2843 23.8737C68.6415 26.8531 63.5518 24.5358 62.391 23.6254C61.4088 22.7978 60.4266 21.8874 59.4443 20.9771Z" fill="#B21E10"/>
<path d="M56.3193 22.9634C57.6587 23.8738 60.4268 25.529 59.8018 27.1842C58.9088 29.2532 56.9444 26.9359 56.5872 25.7773C56.3193 24.8669 56.3193 23.8738 56.3193 22.9634Z" fill="#B21E10"/>
<path d="M52.8352 24.1228C52.6566 25.1159 52.3888 27.9298 50.6029 27.7643C48.4599 27.516 49.2635 25.778 50.1564 25.1987C50.7815 24.8677 52.0316 24.6194 52.8352 24.1228Z" fill="#B21E10"/>
<path d="M25.9592 12.4532C24.3519 11.0463 20.7802 9.05998 18.5478 10.4669C16.0476 12.1222 21.2266 13.2808 22.6553 13.1981C23.9054 13.1981 24.9769 12.9498 25.9592 12.4532Z" fill="#B21E10"/>
<path d="M29.1741 10.1356C27.8347 9.80452 24.0844 9.30795 24.5308 7.65271C24.9773 6.08023 27.5668 7.07337 28.3704 7.98375C28.9955 8.56308 29.1741 9.30795 29.1741 10.1356Z" fill="#B21E10"/>
<path d="M32.3879 9.39066C31.6736 8.48027 30.7807 4.67323 33.4595 5.83189C35.3346 6.74227 33.3702 8.56304 32.3879 9.39066Z" fill="#B21E10"/>
<path d="M37.9239 9.63874C37.2989 8.97664 36.8524 7.5697 37.2989 6.65932C37.656 5.99723 38.9061 5.74895 39.6205 6.16276C41.7635 7.23865 39.174 9.05941 38.0132 9.63874H37.9239Z" fill="#B21E10"/>
<path d="M43.0138 10.2185C42.8352 8.72884 44.889 6.74256 46.6748 8.39779C48.3714 10.053 44.1746 10.2185 43.0138 10.2185Z" fill="#B21E10"/>
<path d="M45.9609 23.3777C44.9787 23.3777 40.2462 23.5432 41.5856 25.1984C43.1036 26.9364 45.8716 24.6191 45.9609 23.3777Z" fill="#B21E10"/>
<path d="M59.9805 17.6659C61.8556 17.0865 65.8738 16.0934 67.5704 17.9142C69.3562 19.7349 64.2665 19.2384 63.2843 18.9901C62.0342 18.7418 61.2306 18.1624 59.9805 17.6659Z" fill="#F68484"/>
<path d="M59.1777 20.3142C61.3208 20.5625 67.7499 20.6453 68.0177 23.2109C68.3749 26.1903 63.2852 23.873 62.1244 22.9626C61.1422 22.0522 60.2492 21.1418 59.1777 20.3142Z" fill="#F68484"/>
<path d="M56.1414 22.218C57.5701 23.1284 60.3382 24.7836 59.6238 26.4389C58.8202 28.5079 56.7665 26.1906 56.4093 25.1147C56.0521 24.1215 56.0521 23.2112 56.1414 22.218Z" fill="#F68484"/>
<path d="M52.5696 23.4595C52.391 24.4526 52.1231 27.2665 50.3373 27.101C48.1942 26.8527 48.9979 25.1147 49.8908 24.5354C50.6052 24.1216 51.8553 23.956 52.5696 23.4595Z" fill="#F68484"/>
<path d="M25.7824 11.7899C24.1751 10.3829 20.6034 8.39665 18.3711 9.80361C15.8709 11.4588 21.0499 12.6175 22.4786 12.5348C23.6394 12.5348 24.8002 12.2865 25.7824 11.7899Z" fill="#F68484"/>
<path d="M28.9973 9.3897C27.6579 9.05865 23.9076 8.56208 24.3541 6.90685C24.8005 5.33438 27.39 6.32752 28.1937 7.2379C28.7294 7.81723 28.908 8.64484 28.9973 9.3897Z" fill="#F68484"/>
<path d="M32.1223 8.64501C31.408 7.73463 30.5151 3.92758 33.1938 5.16901C35.069 5.99663 33.1045 7.90015 32.1223 8.64501Z" fill="#F68484"/>
<path d="M37.6573 8.97565C37.0323 8.31356 36.5858 6.90662 37.0323 5.99624C37.3894 5.33415 38.6395 5.08586 39.3539 5.49967C41.4969 6.57557 38.9074 8.39632 37.7466 8.97565H37.6573Z" fill="#F68484"/>
<path d="M42.7472 9.5552C42.5686 8.0655 44.6224 6.07923 46.4082 7.73446C48.1048 9.30692 43.908 9.47244 42.7472 9.5552Z" fill="#F68484"/>
<path d="M45.7842 22.6316C44.8019 22.6316 40.0694 22.7971 41.4088 24.4524C42.8375 26.1904 45.6056 23.873 45.7842 22.6316Z" fill="#F68484"/>
<path d="M33.1914 15.8451C33.6379 14.5209 33.9057 14.5209 35.0665 14.2726C36.2274 13.9415 36.9417 14.2726 38.3704 14.1071C39.7991 13.9415 40.9599 13.9415 42.3886 14.1898C43.9066 14.4381 44.0851 14.7692 45.3352 14.9347C46.5853 15.1002 47.1211 15.2657 48.1033 15.3485C49.0855 15.4313 49.3534 15.9278 48.6391 16.7554C47.9247 17.5831 48.6391 17.9969 47.7461 18.3279C46.8532 18.659 47.2997 18.4934 45.7817 18.659C44.2637 18.8245 44.0851 18.7417 42.835 18.7417C41.5849 18.659 41.2278 18.5762 39.2633 18.3279C37.2989 18.0796 36.8524 17.7486 35.9595 17.3348C35.0665 16.921 34.2629 16.4244 33.7272 16.3416C33.1914 16.1761 33.1914 15.8451 33.1914 15.8451Z" fill="#F68484"/>
<path d="M60.1583 11.2937C59.6225 11.2109 59.176 11.1281 58.7296 10.9626C57.7473 10.6316 59.7118 10.135 60.1583 9.39014V11.2937Z" fill="#B21E10"/>
<path d="M79.9817 34.467H79.8924C78.9994 34.6326 78.0172 34.7153 77.035 34.7981L75.4277 40.0949C76.41 40.0121 77.3029 39.9293 78.2851 39.7638C78.3744 39.7638 78.4637 39.7638 78.553 39.681C78.9994 38.0258 79.4459 36.2878 79.9817 34.467Z" fill="#B21E10"/>
<path d="M84.6255 33.3915C84.1791 35.1295 83.7326 36.8675 83.2861 38.6055C85.5185 37.7779 87.4829 36.5365 88.1079 34.5502L89.7152 29.2534C89.0902 31.3225 86.9471 32.5639 84.6255 33.3915Z" fill="#B21E10"/>
<path d="M28.0141 25.9423C25.1568 24.8664 22.3887 23.7077 19.8885 22.5491L18.2812 27.8458C20.7814 29.0045 23.5495 30.1631 26.4962 31.239C26.9426 29.5011 27.4784 27.7631 28.0141 25.9423Z" fill="#F61A1A"/>
<path d="M31.9428 27.3499C31.407 29.0879 30.8713 30.9086 30.4248 32.6466C31.1392 32.8949 31.9428 33.1432 32.6571 33.3915L34.2644 28.0947C33.4608 27.8464 32.7464 27.5981 31.9428 27.3499Z" fill="#F61A1A"/>
</svg>
