<svg width="83" height="37" viewBox="0 0 83 37" fill="none" xmlns="http://www.w3.org/2000/svg">
<path d="M0.732009 26.5409C1.71423 29.8514 6.71464 30.8445 9.7506 31.4239C13.5902 32.086 17.5191 32.0032 21.3587 31.6721C29.0379 31.0928 36.7171 29.6859 44.1284 27.7824C66.1838 22.0718 82.6137 12.3887 80.6493 6.016C78.7741 -0.273893 60.5583 -2.09465 38.503 3.53315C35.467 4.278 31.0023 5.68495 28.5914 7.17466C27.8771 7.58847 27.7878 8.00228 27.9664 8.33333C28.3236 9.07818 30.1987 9.49199 29.2165 9.82304C28.77 9.98857 28.3236 10.0713 27.8771 10.1541C26.0019 10.4851 23.7696 10.3196 19.5728 11.4783C7.07181 14.8715 -0.607386 22.2373 0.732009 26.5409Z" fill="#F05C5C"/>
<path d="M28.9461 8.91232C28.8568 8.91232 28.7675 8.99508 28.7675 8.99508C28.2317 8.66404 27.696 8.25023 27.9638 7.75366C28.4996 8.33299 29.7497 8.66404 28.9461 8.91232Z" fill="#F68484"/>
<path d="M9.48161 30.5956C13.3212 31.2577 17.2501 31.1749 21.0897 30.8439C28.7689 30.2646 36.4481 28.8576 43.8594 26.9541C65.4683 21.4091 81.6303 11.9742 80.4695 5.60156C80.5588 5.76709 80.5588 5.84985 80.6481 6.01537C82.5233 12.3053 66.1827 22.0712 44.1273 27.7817C36.6267 29.6852 29.0368 31.0922 21.3576 31.6715C17.518 32.0026 13.5891 32.0853 9.74949 31.4232C6.62423 30.8439 1.71312 29.8508 0.730897 26.5403C0.730897 26.3748 0.641602 26.2092 0.641602 26.1265C1.8917 29.1059 6.53494 30.0163 9.48161 30.5956Z" fill="#F68484"/>
<path d="M9.75199 31.4237C13.5916 32.0858 17.5205 32.0031 21.3601 31.672C29.0393 31.0927 36.7185 29.6857 44.1298 27.7822C66.1852 22.0716 82.6151 12.3885 80.6507 6.01587L82.0793 10.8988C83.9545 17.1887 67.6139 26.9546 45.5585 32.6651C38.0579 34.5687 30.468 35.9756 22.7888 36.5549C18.9492 36.886 15.0203 36.9688 11.1807 36.3067C8.05542 35.7273 3.14431 34.7342 2.16209 31.4237L0.733398 26.5408C1.71562 29.8513 6.62674 30.8444 9.75199 31.4237Z" fill="#DC1C13"/>
<path d="M69.0415 14.0437C72.3454 12.3057 74.667 11.2298 75.0242 9.16075C75.3813 7.0917 76.0064 5.85027 73.2383 4.69161C70.4702 3.53294 66.6306 3.36742 64.1304 3.2019C61.0944 2.95361 56.2726 3.03638 54.1296 3.11914C49.5756 3.28466 44.9324 4.36056 42.1643 5.02266C39.3069 5.68475 34.0387 7.0917 32.8778 8.16761C31.1813 9.82284 33.3243 10.9815 35.7352 11.4781C38.1461 11.9747 42.7001 10.8987 44.3073 10.3194C45.8253 9.74008 48.4148 9.07799 51.808 9.16075C53.2367 9.16075 55.7369 9.74008 56.7191 10.5677C57.612 11.2298 58.2371 11.8919 58.0585 12.8023C57.9692 13.7126 58.1478 14.0437 59.3086 14.292C60.4694 14.5403 61.9874 14.7885 64.0411 14.9541C66.6306 15.1196 69.0415 14.0437 69.0415 14.0437Z" fill="#C31A1D"/>
<path d="M72.6145 10.0711C72.9717 8.00208 73.5967 6.76066 70.8286 5.60199C68.0606 4.44333 64.221 4.2778 61.7208 4.11228C58.6848 3.86399 53.863 3.94676 51.7199 4.02952C47.166 4.19504 42.5228 5.27094 39.7547 5.93303C38.1474 6.26408 35.8258 6.84341 33.8613 7.50551C35.8258 6.51237 39.844 5.51923 42.1656 4.9399C44.9337 4.36056 49.4876 3.2019 54.1308 3.03637C56.2739 2.95361 61.0957 2.87085 64.1317 3.11914C66.6319 3.28466 70.4715 3.45018 73.2396 4.60885C76.0076 5.76751 75.3826 7.00894 75.0254 9.07798C74.6682 11.147 72.3466 12.2229 69.0428 13.9609C69.0428 13.9609 68.4177 14.2092 67.4355 14.4575C70.3822 13.0505 72.3466 11.9746 72.6145 10.0711Z" fill="#B21E10"/>
<path d="M31.1818 12.8851C29.3067 12.4713 27.4315 12.5541 25.5564 12.7196C21.9847 13.0506 18.0558 14.3748 15.377 15.7818C12.9661 17.0232 9.75152 18.5129 8.23354 20.0854C6.80485 21.5751 4.66182 25.4649 10.198 27.1201C16.4485 29.0237 21.2703 28.6926 26.5386 27.9478C31.3604 27.2857 37.0752 26.5408 43.0578 24.9683C48.7726 23.4786 52.5229 22.32 55.1124 21.2441C57.7019 20.1682 59.2198 20.0026 60.3807 18.844C61.4522 17.8508 60.47 17.6025 58.5055 17.1887C56.4518 16.7749 56.6304 16.7749 54.7552 16.6922C52.9693 16.6094 51.1835 18.0164 46.8081 18.844C42.9685 19.5888 41.1827 19.7543 38.5932 19.7543C36.0037 19.7543 34.2178 19.5888 32.5212 19.0923C31.3604 18.7612 30.2889 18.2646 30.1996 16.9404C30.1103 15.6163 34.2178 13.63 31.1818 12.8851Z" fill="#C31A1D"/>
<path d="M8.2328 20.0856C9.66149 18.5959 12.876 17.0234 15.3762 15.782C16.1799 15.3681 17.0728 14.9543 18.055 14.6233C17.8764 14.7061 17.6979 14.7888 17.6086 14.8716C15.1977 16.113 11.9831 17.6027 10.4651 19.1752C9.03644 20.6649 6.89341 24.5547 12.4296 26.2099C18.6801 28.1135 23.5019 27.7824 28.7702 27.0376C33.592 26.3755 39.3068 25.6306 45.2894 24.0581C51.0042 22.5684 54.7545 21.4098 57.344 20.3339C58.2369 19.92 59.0405 19.6718 59.7549 19.4235C58.6833 20.0856 57.2547 20.4166 55.2009 21.2442C52.6114 22.3201 48.9504 23.396 43.1464 24.9685C37.1637 26.541 31.449 27.2858 26.6272 27.9479C21.2696 28.6928 16.537 29.0238 10.2865 27.1203C4.66108 25.4651 6.80411 21.658 8.2328 20.0856Z" fill="#B21E10"/>
<path d="M27.7899 16.6093C26.0934 16.03 22.3431 15.2024 20.7358 16.8576C19.1285 18.5129 23.7718 18.0163 24.6647 17.8508C25.9148 17.6025 26.7184 17.0231 27.7899 16.6093Z" fill="#B21E10"/>
<path d="M28.5929 19.0093C26.6284 19.2576 20.7351 19.3403 20.4672 21.6577C20.1993 24.3888 24.8425 22.3197 25.9141 21.4094C26.7177 20.6645 27.6106 19.7541 28.5929 19.0093Z" fill="#B21E10"/>
<path d="M31.3622 20.8303C30.112 21.6579 27.5225 23.1476 28.1476 24.7201C28.9512 26.6236 30.7371 24.5546 31.0943 23.4787C31.3622 22.5683 31.3622 21.6579 31.3622 20.8303Z" fill="#B21E10"/>
<path d="M34.5762 21.9062C34.7548 22.8166 34.9333 25.465 36.6299 25.2167C38.5944 24.9684 37.88 23.396 36.9871 22.8994C36.4513 22.5683 35.2905 22.3201 34.5762 21.9062Z" fill="#B21E10"/>
<path d="M59.2217 11.2297C60.7397 9.98824 64.0435 8.08473 66.0079 9.40891C68.2403 10.8986 63.5077 11.9745 62.2576 11.9745C61.1861 11.8918 60.2039 11.6435 59.2217 11.2297Z" fill="#B21E10"/>
<path d="M56.2744 8.99529C57.5245 8.66425 61.0069 8.16767 60.5605 6.76072C60.2033 5.35377 57.7924 6.26415 56.9888 7.00901C56.5423 7.58834 56.3637 8.3332 56.2744 8.99529Z" fill="#B21E10"/>
<path d="M53.4188 8.33328C54.0438 7.50566 54.9368 4.02966 52.4366 5.10556C50.6507 5.93318 52.5259 7.58842 53.4188 8.33328Z" fill="#B21E10"/>
<path d="M48.3268 8.58179C48.8626 8.00246 49.309 6.67827 48.8626 5.85065C48.5054 5.27132 47.4339 5.02304 46.7195 5.35409C44.7551 6.34723 47.166 8.08522 48.2375 8.58179H48.3268Z" fill="#B21E10"/>
<path d="M43.6829 9.16049C43.8615 7.8363 41.9863 6.01553 40.379 7.50525C38.7718 8.99496 42.6114 9.07772 43.6829 9.16049Z" fill="#B21E10"/>
<path d="M40.916 21.1614C41.8089 21.1614 46.1843 21.3269 44.9342 22.8166C43.5055 24.4718 41.0053 22.32 40.916 21.1614Z" fill="#B21E10"/>
<path d="M28.0565 15.948C26.36 15.4515 22.6097 14.5411 21.0024 16.1963C19.3951 17.8515 24.0384 17.355 24.9313 17.1895C26.1814 16.9412 26.8957 16.3618 28.0565 15.948Z" fill="#F68484"/>
<path d="M28.7716 18.3474C26.8071 18.5957 20.9138 18.6785 20.6459 20.9958C20.378 23.7269 25.0213 21.6579 26.0928 20.7475C26.9857 20.0026 27.7893 19.0923 28.7716 18.3474Z" fill="#F68484"/>
<path d="M31.6287 20.1682C30.3786 20.9958 27.7892 22.4855 28.4142 23.9753C29.2178 25.8788 31.0037 23.8097 31.3609 22.7338C31.6287 21.9062 31.6287 20.9958 31.6287 20.1682Z" fill="#F68484"/>
<path d="M34.8428 21.2444C35.0214 22.1548 35.1999 24.8031 36.8965 24.5549C38.9502 24.3066 38.1466 22.7341 37.2537 22.2375C36.6286 21.9065 35.5571 21.6582 34.8428 21.2444Z" fill="#F68484"/>
<path d="M59.4873 10.5678C61.0053 9.32638 64.3091 7.42286 66.2736 8.74705C68.5059 10.2368 63.7734 11.3126 62.5233 11.3126C61.4518 11.2299 60.3802 10.9816 59.4873 10.5678Z" fill="#F68484"/>
<path d="M56.542 8.33341C57.7921 8.00236 61.2745 7.5058 60.8281 6.09885C60.4709 4.69191 58.06 5.60228 57.2563 6.34713C56.7206 6.92646 56.542 7.67132 56.542 8.33341Z" fill="#F68484"/>
<path d="M53.6841 7.67139C54.3092 6.84378 55.2021 3.36779 52.7019 4.44369C50.9161 5.27131 52.7019 6.92654 53.6841 7.67139Z" fill="#F68484"/>
<path d="M48.5055 7.91992C49.0413 7.34059 49.4878 6.01641 49.0413 5.18879C48.6841 4.60946 47.6126 4.36117 46.8983 4.69222C44.9338 5.68536 47.3447 7.42335 48.4162 7.91992H48.5055Z" fill="#F68484"/>
<path d="M43.8616 8.49861C44.0402 7.17443 42.165 5.35367 40.5578 6.84338C38.9505 8.33309 42.7901 8.41585 43.8616 8.49861Z" fill="#F68484"/>
<path d="M41.0938 20.4995C41.9867 20.4995 46.362 20.665 45.1119 22.1547C43.7725 23.81 41.183 21.6582 41.0938 20.4995Z" fill="#F68484"/>
<path d="M52.7021 14.2921C52.2556 13.0507 52.077 13.1334 51.0055 12.8024C49.934 12.5541 49.309 12.8024 47.9696 12.6368C46.6302 12.4713 45.6479 12.4713 44.2192 12.7196C42.8799 12.9679 42.7013 13.2162 41.5405 13.3817C40.3796 13.5472 39.8439 13.63 38.951 13.7955C38.058 13.8783 37.7901 14.3748 38.5045 15.0369C39.1295 15.7818 38.5045 16.1956 39.3974 16.4439C40.2011 16.6922 39.7546 16.6094 41.1833 16.6922C42.5227 16.8577 42.7013 16.7749 43.8621 16.7749C45.0229 16.6922 45.3801 16.6094 47.1659 16.3611C48.9518 16.1128 49.3983 15.8645 50.2019 15.4507C51.0055 15.0369 51.8092 14.6231 52.2556 14.5404C52.7021 14.6231 52.7021 14.2921 52.7021 14.2921Z" fill="#F68484"/>
<path d="M27.877 10.154C28.3234 10.0712 28.7699 9.98848 29.2163 9.82296C30.1093 9.49191 28.3234 9.0781 27.9662 8.33325L27.877 10.154Z" fill="#B21E10"/>
<path d="M9.66113 31.4241H9.75042C10.6434 31.5896 11.447 31.6724 12.3399 31.7551L13.7686 36.6381C12.8757 36.5553 12.072 36.4725 11.1791 36.307C11.0898 36.307 11.0005 36.307 10.9112 36.2243C10.5541 34.6518 10.1076 32.9965 9.66113 31.4241Z" fill="#B21E10"/>
<path d="M5.37664 30.348C5.8231 31.9205 6.18028 33.493 6.53745 35.1482C4.48371 34.4034 2.69784 33.2447 2.16209 31.4239L0.733398 26.541C1.26916 28.4445 3.2336 29.6032 5.37664 30.348Z" fill="#B21E10"/>
<path d="M57.4346 23.5614C60.1134 22.5683 62.6136 21.5752 64.9352 20.4993L66.3639 25.3822C64.0423 26.4581 61.542 27.4512 58.8633 28.5271C58.3275 26.8719 57.881 25.2167 57.4346 23.5614Z" fill="#F61A1A"/>
<path d="M53.7725 24.8857C54.219 26.541 54.7547 28.1134 55.2012 29.7687C54.4868 30.017 53.8618 30.2652 53.1474 30.4308L51.7188 25.5478C52.3438 25.2995 53.0581 25.134 53.7725 24.8857Z" fill="#F61A1A"/>
</svg>
