<svg width="61" height="23" viewBox="0 0 61 23" fill="none" xmlns="http://www.w3.org/2000/svg">
<path d="M60.6204 7.20335C60.8883 9.76896 57.763 11.6725 55.7986 12.8311C53.3877 14.2381 50.7089 15.0657 47.9408 15.8106C42.4939 17.2175 36.9578 18.1279 31.3323 18.5417C14.7238 19.9487 0.883379 17.052 0.436914 12.1691C-0.00955078 7.28611 13.0272 2.23763 29.6357 0.830682C46.2442 -0.576269 60.0846 2.3204 60.6204 7.20335Z" fill="#C5F37C"/>
<path d="M29.7264 1.24479C46.067 -0.0793983 59.8181 2.65174 60.6217 7.36916C60.6217 7.28639 60.6217 7.20363 60.6217 7.12087C60.1753 2.23793 46.3349 -0.575967 29.7264 0.74822C13.1179 2.15517 -0.00820422 7.20363 0.527554 12.0866C0.527554 12.1693 0.527554 12.2521 0.527554 12.3349C0.438261 7.53468 13.2965 2.56898 29.7264 1.24479Z" fill="#4A9E00"/>
<path d="M60.0853 5.79663C60.0853 8.19672 57.1386 10.0175 55.2634 11.0934C52.8525 12.5003 50.1737 13.328 47.4057 14.0728C41.9588 15.4798 36.4226 16.3901 30.7971 16.804C15.7959 18.0454 3.11629 15.8108 0.4375 11.8382C0.4375 11.921 0.4375 12.0038 0.4375 12.0865C0.883965 16.9695 14.7244 19.7834 31.3329 18.4592C36.9584 17.9626 42.4945 17.135 47.9414 15.728C50.6202 14.9832 53.3883 14.1556 55.7992 12.7486C57.7636 11.59 60.7996 9.68643 60.621 7.12082C60.5317 6.70701 60.3531 6.21044 60.0853 5.79663Z" fill="#98D54F"/>
<path d="M48.4777 8.19657C48.6563 9.68628 46.7812 10.8449 45.6203 11.507C44.1917 12.3347 42.5844 12.8312 40.9771 13.245C37.7626 14.0726 34.3694 14.652 31.0656 14.9003C21.154 15.7279 12.8498 13.9899 12.5819 11.0932C12.314 8.19657 20.0825 5.13438 29.9941 4.30677C39.9056 3.56191 48.2098 5.21714 48.4777 8.19657Z" fill="#BAE34C"/>
<path d="M55.7992 12.7486C53.3883 14.1556 50.7095 14.9832 47.9414 15.7281C42.4945 17.135 36.9584 18.0454 31.3329 18.4592C14.7244 19.8662 0.883965 16.9695 0.4375 12.0866L0.794667 15.8108C1.24113 20.6938 15.0816 23.5077 31.6901 22.1835C37.3155 21.6869 42.8517 20.8593 48.2986 19.4524C50.9774 18.7075 53.7454 17.8799 56.1563 16.4729C58.1208 15.3143 61.1568 13.4107 60.9782 10.8451L60.621 7.12085C60.7996 9.68646 57.7636 11.59 55.7992 12.7486Z" fill="#4A9E00"/>
<path d="M11.3318 21.6042C15.8857 22.4318 21.6005 22.7628 27.851 22.4318L27.4938 18.7075C21.2433 18.9558 15.5286 18.6247 10.9746 17.8799L11.3318 21.6042Z" fill="#4DB034"/>
<path d="M48.9246 19.2867C51.0676 18.7074 53.1213 18.0453 55.0858 17.0522L54.7286 13.3279C52.7642 14.321 50.7104 14.9831 48.5674 15.5625L48.9246 19.2867Z" fill="#6DBF31"/>
<path d="M37.8507 5.63141C37.7614 5.71417 34.3683 8.2798 33.0289 6.21074C31.7788 4.14169 37.8507 5.63141 37.8507 5.63141Z" fill="#ADDA2B"/>
<path d="M34.9045 12.7493C34.8152 12.8321 31.4221 15.3977 30.0827 13.3287C28.8326 11.2596 34.9045 12.7493 34.9045 12.7493Z" fill="#ADDA2B"/>
<path d="M39.5477 5.63159C39.5477 5.71435 36.5117 8.61102 39.1012 9.60417C41.6908 10.5973 39.5477 5.63159 39.5477 5.63159Z" fill="#ADDA2B"/>
<path d="M37.2254 9.35596C37.2254 9.43872 34.1894 12.3354 36.779 13.3285C39.3685 14.3217 37.2254 9.35596 37.2254 9.35596Z" fill="#ADDA2B"/>
<path d="M21.6002 6.54175C21.6002 6.62451 22.2252 10.3488 19.3678 10.1005C16.5105 9.85221 21.6002 6.54175 21.6002 6.54175Z" fill="#ADDA2B"/>
<path d="M21.1529 10.3489C21.1529 10.4316 21.778 14.1559 18.9206 13.9076C16.0632 13.6594 21.1529 10.3489 21.1529 10.3489Z" fill="#ADDA2B"/>
<path d="M26.2432 5.79712C26.3325 5.87988 27.404 9.52141 29.9042 8.36274C32.4044 7.12131 26.2432 5.79712 26.2432 5.79712Z" fill="#ADDA2B"/>
<path d="M43.9229 6.79004C44.0121 6.8728 45.0837 10.5143 47.5839 9.35565C50.084 8.19699 43.9229 6.79004 43.9229 6.79004Z" fill="#ADDA2B"/>
<path d="M40.3506 11.9214C40.4399 11.8387 40.6185 8.03162 43.3865 8.77648C46.0653 9.43857 40.3506 11.9214 40.3506 11.9214Z" fill="#ADDA2B"/>
<path d="M29.9932 11.2598C30.0825 11.177 30.261 7.37 33.0291 8.11485C35.7079 8.77695 29.9932 11.2598 29.9932 11.2598Z" fill="#ADDA2B"/>
<path d="M27.5832 13.5767C27.4939 13.5767 24.0115 11.0938 22.7614 13.2456C21.5113 15.3147 27.5832 13.5767 27.5832 13.5767Z" fill="#ADDA2B"/>
<path d="M27.7619 11.5074C27.6726 11.4247 25.6189 8.11421 23.4759 9.76945C21.4221 11.3419 27.7619 11.5074 27.7619 11.5074Z" fill="#ADDA2B"/>
<path d="M37.3176 5.3006C37.2283 5.3006 33.8351 7.94898 32.4957 5.87993C31.2456 3.81088 37.3176 5.3006 37.3176 5.3006Z" fill="#D6F781"/>
<path d="M34.3713 12.4183C34.282 12.4183 30.8888 15.0667 29.5495 12.9976C28.2994 10.9286 34.3713 12.4183 34.3713 12.4183Z" fill="#D6F781"/>
<path d="M39.0145 5.30078C39.0145 5.38354 35.9785 8.2802 38.568 9.27334C41.1575 10.1837 39.0145 5.30078 39.0145 5.30078Z" fill="#D6F781"/>
<path d="M36.6912 8.94165C36.6912 9.02441 33.6553 11.9211 36.2448 12.9142C38.8343 13.9073 36.6912 8.94165 36.6912 8.94165Z" fill="#D6F781"/>
<path d="M21.067 6.21143C21.067 6.29419 21.692 10.0185 18.8346 9.7702C15.9773 9.52191 21.067 6.21143 21.067 6.21143Z" fill="#D6F781"/>
<path d="M20.6197 10.0181C20.6197 10.1008 21.2447 13.8251 18.3874 13.5768C15.53 13.3285 20.6197 10.0181 20.6197 10.0181Z" fill="#D6F781"/>
<path d="M25.6191 5.38354C25.7084 5.46631 26.78 9.10782 29.2802 7.94916C31.7804 6.70773 25.6191 5.38354 25.6191 5.38354Z" fill="#D6F781"/>
<path d="M43.2998 6.45923C43.3891 6.54199 44.4606 10.1835 46.9608 9.02485C49.4611 7.78342 43.2998 6.45923 43.2998 6.45923Z" fill="#D6F781"/>
<path d="M39.8174 11.5906C39.9067 11.5078 40.0853 7.70081 42.764 8.44567C45.5321 9.10776 39.8174 11.5906 39.8174 11.5906Z" fill="#D6F781"/>
<path d="M29.459 10.9285C29.5483 10.8457 29.7269 7.0387 32.4949 7.78356C35.1737 8.44565 29.459 10.9285 29.459 10.9285Z" fill="#D6F781"/>
<path d="M27.049 13.1631C26.9597 13.1631 23.4773 10.6803 22.2272 12.8321C20.9771 14.9839 27.049 13.1631 27.049 13.1631Z" fill="#D6F781"/>
<path d="M27.2268 11.1766C27.1375 11.0939 25.0838 7.7834 22.9407 9.43864C20.887 11.0111 27.2268 11.1766 27.2268 11.1766Z" fill="#D6F781"/>
</svg>
