<svg width="179" height="71" viewBox="0 0 179 71" fill="none" xmlns="http://www.w3.org/2000/svg">
<path d="M3.667 33.7228C-6.69099 31.7366 6.34579 14.5221 41.9737 18.4119C74.5657 20.2327 93.0493 10.6323 103.229 5.50109C113.497 -0.12671 115.373 -1.2026 116.801 5.41833C118.409 14.8532 144.125 8.48052 174.306 9.97023C185.378 9.30814 174.217 17.5016 154.751 26.1915C135.553 35.6264 108.051 45.5578 93.4958 64.7585C85.1022 76.4279 77.8695 66.9103 64.4756 56.8134C51.4388 46.2199 32.1515 35.2125 3.667 33.7228Z" fill="#F1B416"/>
<path d="M6.07892 31.7369C1.61427 31.0748 1.52498 27.7643 4.91812 24.2883C-0.796634 28.1781 -1.42169 33.3094 3.66801 33.7232C32.0632 35.2129 51.4398 46.2202 64.6551 56.731C78.0491 66.8279 85.2818 76.3455 93.6754 64.6761C94.0325 64.1795 94.3897 63.7657 94.6576 63.2691C85.7283 73.9454 78.6741 64.9244 65.7266 55.324C53.047 45.3098 34.3848 34.7163 6.07892 31.7369Z" fill="#FAE452"/>
<path d="M96.3549 61.2L96.2656 61.2828C110.731 44.8132 135.108 35.7094 152.967 27.0194C171.093 18.826 182.791 11.1291 177.612 10.3015C173.593 14.6879 158.503 23.2124 141.269 31.1575C124.214 39.5164 105.016 47.2133 96.3549 61.2Z" fill="#FAE452"/>
<path d="M8.93571 23.7084C13.5789 21.6393 27.3301 18.2461 29.4731 20.4807C30.5446 21.8876 17.3292 22.8807 17.4185 23.6256C17.4185 24.536 18.3115 25.3636 19.9187 25.6946C21.526 26.0257 26.5264 25.6119 25.5442 26.5223C24.7406 27.1844 13.8468 29.4189 32.2412 33.9708C34.3842 35.9571 19.5616 31.6535 13.7575 31.1569C7.68561 30.8259 14.4719 30.3293 16.347 29.2534C17.9543 28.4258 10.0965 29.5017 8.22136 28.9224C6.34621 28.343 9.47147 27.5982 11.6145 27.1016C13.6682 26.605 11.4359 25.3636 9.025 25.4464C6.70338 25.4464 6.70338 24.7843 8.93571 23.7084Z" fill="#F9D136"/>
<path d="M76.4415 57.641C71.8876 59.9583 84.0314 67.0759 87.1567 66.2482C90.1926 64.7585 101.89 45.6406 137.339 31.9849C162.966 19.9844 150.823 22.3845 146.715 24.2053C115.73 35.2126 85.5494 53.0064 76.4415 57.641Z" fill="#FAC222"/>
<path d="M69.5664 19.405C85.907 17.4187 107.873 4.8389 111.981 2.60432C115.017 1.11461 111.445 4.34233 108.052 6.24586C90.5503 15.4324 108.052 8.39767 110.998 7.90109C112.784 7.40452 96.0864 17.998 69.5664 19.405Z" fill="#F9D136"/>
<path d="M173.682 11.9562C164.128 11.0458 145.019 12.039 144.93 11.7079C145.019 11.9562 162.52 12.9493 165.735 15.846C166.896 16.9219 173.682 12.039 173.682 11.9562Z" fill="#E5A518"/>
</svg>
