<svg width="108" height="44" viewBox="0 0 108 44" fill="none" xmlns="http://www.w3.org/2000/svg">
<g opacity="0.3">
<path opacity="0.3" d="M15.1872 9.69074C15.0086 9.60798 14.7407 9.44245 14.5621 9.27693C14.3836 9.02864 14.1157 8.78037 13.8478 8.61484C13.4906 8.78037 13.2228 8.94589 12.8656 9.02865C12.5977 8.6976 12.5084 8.36657 12.3298 7.95275C12.5084 7.95275 12.7763 7.95275 12.9549 7.95275C13.0442 8.03552 13.1335 8.0355 13.1335 8.11826L13.2227 8.0355C13.5799 8.11826 13.9371 8.28379 14.2943 8.53207C15.0979 7.95274 15.9908 7.6217 16.8838 7.45618C16.348 7.37341 15.8123 7.29064 15.3658 7.20787H15.4551C15.0979 7.12511 14.6514 7.04237 14.2943 7.04237C13.5799 6.87684 12.8656 6.71131 12.1512 6.54579C12.1512 6.46303 12.1512 6.38027 12.1512 6.29751C12.0619 6.38027 11.9726 6.38026 11.8834 6.46302C10.1868 6.04921 8.57952 5.46989 7.06154 4.64227C4.73992 4.55951 3.57911 5.30437 2.15042 6.29751C2.06113 6.21475 1.88254 6.13197 1.79325 6.04921C1.52537 5.88369 1.25749 5.63541 1.1682 5.38712C0.989614 5.38712 0.811029 5.38713 0.632443 5.46989C0.54315 6.13199 0.364559 6.79408 0.0966797 7.45618C2.95406 7.70446 5.81144 8.0355 8.49023 8.53207C10.0975 8.78036 11.7048 9.11141 13.2227 9.44246C14.0264 9.44246 14.5622 9.60798 15.1872 9.69074Z" fill="#414042"/>
<path opacity="0.3" d="M107.873 19.1258C107.695 18.7947 107.516 18.5465 107.427 18.2154C106.713 18.8775 105.641 19.2913 104.659 18.9603C104.48 18.8775 104.302 18.7947 104.034 18.6292C103.587 18.2154 103.052 17.8843 102.605 17.6361C102.516 17.8016 102.427 17.8843 102.337 18.0499C102.159 18.5464 101.801 18.8775 101.444 19.1258C100.641 18.6292 100.194 17.5533 100.462 16.4774C101.891 11.4289 98.0512 14.1601 96.7118 14.7394C96.5332 14.8222 96.3546 14.8222 96.176 14.9049C96.0867 14.7394 96.0867 14.6567 95.9974 14.4911C95.4617 14.5739 95.1045 14.8222 94.8366 15.3187C94.7473 15.3187 94.7473 15.3188 94.658 15.4015C94.3902 15.9808 93.9437 16.4774 93.4972 16.8912C93.3186 16.8085 93.0508 16.7257 92.8722 16.5602C92.4257 16.2291 91.9793 15.8981 91.5328 15.6498C91.4435 15.8153 91.3542 15.8981 91.3542 16.0636C90.997 16.8912 90.1934 17.305 89.3897 17.3878C89.1219 17.0567 88.9433 16.8085 88.6754 16.4774C88.7647 16.4774 88.7647 16.4774 88.854 16.4774C89.3005 16.2291 89.1219 15.567 89.479 15.0704C89.5683 14.9877 89.5683 14.9049 89.6576 14.9049C89.3005 14.6567 89.0326 14.2428 88.9433 13.5807C88.0504 12.0083 87.0681 11.6772 85.818 12.5876C85.818 12.5876 85.818 12.5049 85.7287 12.5049C84.5679 12.7531 83.3178 12.6704 82.0677 12.5049C82.0677 12.5876 82.0677 12.5876 82.0677 12.6704C81.9784 12.9186 81.9784 13.0842 81.8891 13.3325C81.4427 12.9187 81.0855 12.3393 81.0855 11.5945C80.9069 10.1048 80.3712 9.27712 79.4782 9.27712C79.0318 10.6013 78.3174 11.5945 77.4245 12.3393C77.1566 12.0083 76.8887 11.5945 76.6208 11.2634C75.6386 11.4289 74.4778 11.4289 73.317 11.3462C73.317 11.4289 73.317 11.4289 73.317 11.5117C73.2277 12.0083 73.0491 12.5048 72.692 12.8359C72.6027 12.9187 72.5134 13.0014 72.4241 13.0842C72.2455 13.4152 71.9776 13.6635 71.6204 13.829C71.6204 13.9118 71.6204 13.9946 71.6204 13.9946C71.2633 14.0773 70.9061 14.0773 70.4596 14.1601C69.3881 13.6635 68.7631 12.1738 69.4774 11.0979C68.9417 11.2634 68.4059 11.1806 67.9594 10.9324C67.8701 10.4358 67.8701 9.93923 67.7808 9.44266C67.7808 9.19437 67.7808 8.94609 67.8701 8.69781C67.6023 8.44952 67.3344 8.20124 67.0665 7.95295C66.0843 7.04258 64.9235 4.89076 64.0305 6.87704C63.4055 8.28399 61.8875 8.61504 60.6374 8.20123C60.6374 8.11847 60.6374 8.11846 60.6374 8.0357C60.3695 7.78741 60.1909 7.6219 59.9231 7.37361C59.0301 6.546 58.0479 4.72523 57.2443 6.46323C57.0657 6.79428 56.7978 7.12532 56.5299 7.29085C56.0835 7.12532 55.7263 6.79427 55.5477 6.38046C55.012 5.47008 53.6726 6.13219 52.8689 6.9598C52.7796 6.9598 52.6903 6.87704 52.601 6.87704C52.6903 7.04256 52.6903 7.20808 52.6903 7.29085C52.6903 7.62189 52.5117 7.95295 52.2439 8.284C52.0653 8.53228 51.8867 8.6978 51.6188 8.94608V8.86331C51.6188 6.13218 53.0475 4.22866 55.1905 2.73895C55.0119 2.49066 54.9226 2.24238 54.7441 1.9941C54.4762 1.66305 54.3869 1.24924 54.3869 0.918194C53.494 1.24924 52.601 1.08372 51.8867 0.587152C51.7974 0.752675 51.7081 0.918191 51.6188 1.08371C50.6366 2.98723 48.1364 2.6562 47.0649 1.41477C45.7255 2.07686 43.8503 1.66306 43.2253 0.421631C43.136 0.421631 42.9574 0.421631 42.8681 0.421631C41.7966 1.08372 40.5465 1.24924 39.2964 1.16648C38.9392 2.32515 38.4035 3.40104 37.6891 4.39418C37.2426 4.97352 36.7069 5.30456 36.0818 5.55284C34.3853 5.05627 32.5994 4.80801 30.9921 5.05629C30.7243 4.97353 30.4564 4.97353 30.1885 4.97353C30.1885 4.89077 30.1885 4.89076 30.2778 4.80799C30.0992 4.64247 29.9206 4.47696 29.8313 4.22868C29.8313 4.22868 29.8313 4.1459 29.742 4.06314C29.5634 4.1459 29.3849 4.22866 29.2063 4.31142C28.7598 4.14589 28.3133 3.81486 28.1348 3.23553C27.9562 2.82172 27.6883 2.32514 27.5097 1.91133C27.0632 1.99409 26.6168 1.9941 26.2596 1.82858C25.7238 2.6562 24.9202 3.07 24.0273 3.15276C23.8487 3.98038 23.3129 4.47695 22.6879 4.80799C21.9735 6.71151 20.0984 8.36676 17.8661 9.60819C17.4196 9.85647 16.7945 10.022 16.2588 9.93923C33.9388 14.2428 47.0649 22.2707 56.7978 30.0503C66.4414 37.2506 72.8705 44.2853 78.8532 43.2922C79.1211 43.2922 79.3889 43.2095 79.6568 43.1267C80.1926 42.9612 80.7283 42.7956 81.1748 42.4646C82.6928 41.637 84.2108 40.1473 85.818 37.9955C91.7114 30.4641 99.3906 24.3398 107.873 19.1258Z" fill="#414042"/>
</g>
</svg>
