<svg width="240" height="240" viewBox="0 0 240 240" fill="none" xmlns="http://www.w3.org/2000/svg">
<path d="M120 50C125.304 50 130.391 52.1071 134.142 55.8579C137.893 59.6086 140 64.6957 140 70C140 72.4 139.6 74.7 138.8 76.9C179.5 85 210 119.1 210 160H30C30 119.1 60.5 85 101.2 76.9C100.4 74.7 100 72.4 100 70C100 64.6957 102.107 59.6086 105.858 55.8579C109.609 52.1071 114.696 50 120 50ZM220 190H20V170H220V190ZM120 95C88.9 95 62.5 113.9 53.4 140H186.6C177.5 113.9 151.1 95 120 95Z" fill="#FF9500"/>
</svg>
