<svg width="292" height="284" viewBox="0 0 292 284" fill="none" xmlns="http://www.w3.org/2000/svg">
<g filter="url(#filter0_d_649_4180)">
<path d="M236 123.5H228.153C226.269 103.015 216.799 83.9723 201.6 70.1079C186.402 56.2435 166.572 48.5576 146 48.5576C125.428 48.5576 105.598 56.2435 90.3998 70.1079C75.2015 83.9723 65.7314 103.015 63.8469 123.5H56C54.0109 123.5 52.1032 124.29 50.6967 125.697C49.2902 127.103 48.5 129.011 48.5 131C48.533 148.836 53.4415 166.324 62.6948 181.572C71.9481 196.82 85.194 209.248 101 217.513V221C101 224.978 102.58 228.794 105.393 231.607C108.206 234.42 112.022 236 116 236H176C179.978 236 183.794 234.42 186.607 231.607C189.42 228.794 191 224.978 191 221V217.513C206.806 209.248 220.052 196.82 229.305 181.572C238.559 166.324 243.467 148.836 243.5 131C243.5 129.011 242.71 127.103 241.303 125.697C239.897 124.29 237.989 123.5 236 123.5ZM213.069 123.5H164.862C173.955 109.859 187.712 100.002 203.553 95.7784C208.733 104.203 211.982 113.67 213.069 123.5ZM188.637 78.7159C190.356 80.1221 192.003 81.6065 193.578 83.169C173.613 90.1923 157.114 104.627 147.5 123.481H119.844C124.531 110.342 133.161 98.9697 144.555 90.9188C155.948 82.8679 169.549 78.5309 183.5 78.5002C185.216 78.5002 186.931 78.5846 188.637 78.7159ZM146 63.5002C152.018 63.5057 158.009 64.316 163.812 65.9096C149.679 69.4156 136.72 76.5853 126.24 86.6961C115.761 96.8068 108.132 109.501 104.122 123.5H78.9312C80.7917 107.008 88.6562 91.7778 101.025 80.7122C113.395 69.6466 129.403 63.52 146 63.5002ZM180.369 206C179.06 206.601 177.953 207.566 177.178 208.78C176.404 209.993 175.994 211.404 176 212.844V221H116V212.844C116.006 211.404 115.596 209.993 114.822 208.78C114.047 207.566 112.94 206.601 111.631 206C98.4417 199.931 87.0807 190.499 78.6885 178.651C70.2963 166.803 65.1681 152.956 63.8188 138.5H228.153C226.806 152.953 221.682 166.798 213.295 178.646C204.908 190.493 193.553 199.927 180.369 206Z" fill="#FF9500"/>
</g>
<defs>
<filter id="filter0_d_649_4180" x="0.5" y="0.557617" width="291" height="283.442" filterUnits="userSpaceOnUse" color-interpolation-filters="sRGB">
<feFlood flood-opacity="0" result="BackgroundImageFix"/>
<feColorMatrix in="SourceAlpha" type="matrix" values="0 0 0 0 0 0 0 0 0 0 0 0 0 0 0 0 0 0 127 0" result="hardAlpha"/>
<feOffset/>
<feGaussianBlur stdDeviation="24"/>
<feComposite in2="hardAlpha" operator="out"/>
<feColorMatrix type="matrix" values="0 0 0 0 1 0 0 0 0 0.584314 0 0 0 0 0 0 0 0 0.75 0"/>
<feBlend mode="normal" in2="BackgroundImageFix" result="effect1_dropShadow_649_4180"/>
<feBlend mode="normal" in="SourceGraphic" in2="effect1_dropShadow_649_4180" result="shape"/>
</filter>
</defs>
</svg>
