<svg width="312" height="312" viewBox="0 0 312 312" fill="none" xmlns="http://www.w3.org/2000/svg">
<g filter="url(#filter0_d_649_4163)">
<path fill-rule="evenodd" clip-rule="evenodd" d="M108.53 78.5498C112.78 69.5539 119.498 61.9507 127.902 56.6259C136.307 51.3012 146.051 48.4741 156 48.4741C165.949 48.4741 175.694 51.3012 184.098 56.6259C192.502 61.9507 199.221 69.5539 203.47 78.5498C216.458 77.9741 229.257 81.8165 239.78 89.4502C250.303 97.0839 257.929 108.058 261.413 120.583C264.897 133.108 264.034 146.443 258.965 158.415C253.896 170.386 244.919 180.286 233.5 186.5V216.52C233.5 225.51 233.5 233 232.7 238.94C231.86 245.22 230 250.89 225.44 255.44C220.89 260 215.22 261.86 208.94 262.7C203 263.5 195.5 263.5 186.52 263.5H125.48C116.5 263.5 109 263.5 103.06 262.7C96.7802 261.86 91.1102 260 86.5602 255.44C82.0002 250.89 80.1402 245.22 79.3002 238.94C78.5002 233 78.5002 225.51 78.5002 216.52V186.51C67.0811 180.296 58.1047 170.396 53.0355 158.425C47.9662 146.453 47.1033 133.118 50.5874 120.593C54.0716 108.068 61.6973 97.0939 72.2203 89.4602C82.7433 81.8265 95.5427 77.9741 108.53 78.5498ZM104.03 93.5598C94.4441 94.0029 85.2901 97.6771 78.0579 103.985C70.8256 110.292 65.9409 118.862 64.1987 128.299C62.4564 137.735 63.9592 147.484 68.4624 155.958C72.9657 164.432 80.2043 171.133 89.0002 174.97C90.3371 175.553 91.4749 176.514 92.2741 177.734C93.0734 178.954 93.4995 180.381 93.5002 181.84V208.5H218.5V181.84C218.501 180.381 218.927 178.954 219.726 177.734C220.526 176.514 221.663 175.553 223 174.97C231.793 171.129 239.028 164.427 243.529 155.953C248.029 147.479 249.531 137.732 247.789 128.297C246.047 118.861 241.165 110.292 233.935 103.984C226.706 97.6751 217.555 93.9978 207.97 93.5498C208.324 95.9832 208.5 98.4665 208.5 101V106C208.5 107.989 207.71 109.897 206.304 111.303C204.897 112.71 202.989 113.5 201 113.5C199.011 113.5 197.103 112.71 195.697 111.303C194.29 109.897 193.5 107.989 193.5 106V101C193.505 96.0738 192.539 91.1951 190.656 86.643C188.774 82.0909 186.012 77.9548 182.528 74.4716C179.045 70.9883 174.909 68.2263 170.357 66.3436C165.805 64.4609 160.926 63.4946 156 63.4998C146.055 63.4998 136.516 67.4507 129.484 74.4833C122.451 81.5159 118.5 91.0542 118.5 101V106C118.5 107.989 117.71 109.897 116.304 111.303C114.897 112.71 112.989 113.5 111 113.5C109.011 113.5 107.103 112.71 105.697 111.303C104.29 109.897 103.5 107.989 103.5 106V101C103.5 98.4665 103.677 95.9932 104.03 93.5598ZM218.48 223.5H93.5202C93.5602 229.2 93.7002 233.5 94.1702 236.95C94.7902 241.56 95.8602 243.54 97.1702 244.84C98.4802 246.14 100.44 247.21 105.05 247.84C109.88 248.48 116.36 248.5 126 248.5H186C195.64 248.5 202.12 248.48 206.95 247.83C211.56 247.21 213.54 246.14 214.84 244.83C216.14 243.52 217.21 241.56 217.84 236.95C218.3 233.49 218.44 229.19 218.48 223.5Z" fill="#FF9500"/>
</g>
<defs>
<filter id="filter0_d_649_4163" x="0.483887" y="0.474121" width="311.033" height="311.026" filterUnits="userSpaceOnUse" color-interpolation-filters="sRGB">
<feFlood flood-opacity="0" result="BackgroundImageFix"/>
<feColorMatrix in="SourceAlpha" type="matrix" values="0 0 0 0 0 0 0 0 0 0 0 0 0 0 0 0 0 0 127 0" result="hardAlpha"/>
<feOffset/>
<feGaussianBlur stdDeviation="24"/>
<feComposite in2="hardAlpha" operator="out"/>
<feColorMatrix type="matrix" values="0 0 0 0 1 0 0 0 0 0.584314 0 0 0 0 0 0 0 0 0.75 0"/>
<feBlend mode="normal" in2="BackgroundImageFix" result="effect1_dropShadow_649_4163"/>
<feBlend mode="normal" in="SourceGraphic" in2="effect1_dropShadow_649_4163" result="shape"/>
</filter>
</defs>
</svg>
