<svg width="18" height="18" viewBox="0 0 18 18" fill="none" xmlns="http://www.w3.org/2000/svg">
<path d="M4.71453 1.03756C5.66703 1.73172 6.4087 2.67922 7.04203 3.58589L7.41036 4.12256L7.75786 4.63506C7.93168 4.889 8.006 5.19801 7.96666 5.50322C7.92732 5.80843 7.77707 6.0885 7.54453 6.29006L5.9187 7.49756C5.84015 7.55428 5.78486 7.63758 5.76309 7.73199C5.74133 7.8264 5.75457 7.92551 5.80036 8.01089C6.1687 8.68006 6.8237 9.67672 7.5737 10.4267C8.3237 11.1767 9.36786 11.8751 10.0837 12.2851C10.1734 12.3354 10.2791 12.3495 10.3789 12.3244C10.4787 12.2993 10.5651 12.2369 10.6204 12.1501L11.6787 10.5392C11.8733 10.2808 12.1603 10.1076 12.4797 10.056C12.7991 10.0045 13.126 10.0785 13.392 10.2626L13.9445 10.6451C14.977 11.3617 16.0862 12.1759 16.9345 13.2617C17.0691 13.4349 17.1547 13.641 17.1824 13.8585C17.2101 14.0761 17.1789 14.297 17.092 14.4984C16.3945 16.1259 14.6295 17.5117 12.7937 17.4442L12.5437 17.4301L12.3495 17.4134L12.1345 17.3884L11.9004 17.3567L11.6462 17.3151L11.5129 17.2901L11.2329 17.2301L11.0862 17.1967L10.7812 17.1184L10.4604 17.0267L10.1254 16.9184C8.58703 16.3967 6.63453 15.3717 4.6312 13.3684C2.62786 11.3651 1.6037 9.41339 1.08203 7.87506L0.973697 7.54006L0.88203 7.21922L0.803697 6.91422L0.738697 6.62589C0.719945 6.53558 0.702443 6.44502 0.686197 6.35422L0.64453 6.10006L0.611197 5.86589L0.58703 5.65089L0.570363 5.45672L0.55703 5.20672C0.48953 3.37672 1.89036 1.59922 3.51036 0.905058C3.70534 0.820863 3.91886 0.788808 4.12997 0.812037C4.34108 0.835266 4.54252 0.912982 4.71453 1.03756ZM11.4937 4.03339L11.5904 4.04422C12.197 4.15122 12.7541 4.44751 13.1819 4.89062C13.6098 5.33374 13.8864 5.90092 13.972 6.51089C14.0026 6.72187 13.9511 6.93654 13.8282 7.11073C13.7053 7.28491 13.5203 7.40537 13.3113 7.44733C13.1023 7.48928 12.8851 7.44953 12.7045 7.33626C12.5239 7.223 12.3936 7.04482 12.3404 6.83839L12.3212 6.74256C12.2877 6.50347 12.1856 6.27922 12.0274 6.09688C11.8692 5.91454 11.6615 5.78193 11.4295 5.71506L11.3004 5.68589C11.0911 5.6488 10.9039 5.53317 10.7771 5.36265C10.6503 5.19212 10.5934 4.97959 10.6181 4.76851C10.6428 4.55744 10.7472 4.36377 10.91 4.22713C11.0727 4.09048 11.2815 4.02118 11.4937 4.03339ZM11.5004 1.50006C12.8264 1.50006 14.0982 2.02684 15.0359 2.96452C15.9736 3.90221 16.5004 5.17397 16.5004 6.50006C16.5001 6.71246 16.4188 6.91675 16.273 7.0712C16.1272 7.22564 15.9279 7.31859 15.7159 7.33103C15.5038 7.34348 15.295 7.2745 15.1322 7.13817C14.9693 7.00185 14.8646 6.80847 14.8395 6.59756L14.8337 6.50006C14.8336 5.65386 14.5117 4.83936 13.9332 4.22175C13.3548 3.60414 12.5631 3.22965 11.7187 3.17422L11.5004 3.16672C11.2793 3.16672 11.0674 3.07893 10.9111 2.92265C10.7548 2.76637 10.667 2.5544 10.667 2.33339C10.667 2.11238 10.7548 1.90042 10.9111 1.74414C11.0674 1.58785 11.2793 1.50006 11.5004 1.50006Z" fill="#FFAA33"/>
</svg>
