<svg width="23" height="23" viewBox="0 0 23 23" fill="none" xmlns="http://www.w3.org/2000/svg">
<path d="M18.0322 5.64453C18.0322 5.37937 17.9268 5.12508 17.7393 4.93758C17.5518 4.75008 17.2975 4.64473 17.0324 4.64469L9.03217 4.64469C8.89941 4.64238 8.76752 4.66653 8.64419 4.71575C8.52086 4.76496 8.40857 4.83824 8.31386 4.93131C8.21916 5.02438 8.14394 5.13539 8.09259 5.25784C8.04124 5.3803 8.0148 5.51175 8.0148 5.64453C8.0148 5.77732 8.04124 5.90877 8.09259 6.03123C8.14394 6.15368 8.21916 6.26469 8.31386 6.35776C8.40857 6.45083 8.52086 6.52411 8.64419 6.57332C8.76752 6.62253 8.89941 6.64669 9.03217 6.64438L14.6183 6.64438L5.2541 16.0086C5.06657 16.1961 4.96121 16.4505 4.96121 16.7157C4.96121 16.9809 5.06657 17.2353 5.2541 17.4228C5.44164 17.6103 5.69599 17.7157 5.96121 17.7157C6.22643 17.7157 6.48078 17.6103 6.66832 17.4228L16.0325 8.0586L16.0325 13.6447C16.0371 13.9069 16.1444 14.1568 16.3314 14.3406C16.5185 14.5244 16.7702 14.6274 17.0324 14.6274C17.2946 14.6274 17.5463 14.5244 17.7333 14.3406C17.9203 14.1568 18.0277 13.9069 18.0322 13.6447L18.0322 5.64453Z" fill="#FFF4E6"/>
</svg>
