<svg width="28" height="24" viewBox="0 0 28 24" fill="none" xmlns="http://www.w3.org/2000/svg">
<path d="M17.4306 20.4288L17.4317 20.4279C17.8176 20.124 18.2104 19.8214 18.6056 19.5169C20.2801 18.2268 21.9975 16.9036 23.4156 15.3068C25.1344 13.3716 26.3332 11.1134 26.3332 8.18418C26.3332 5.31698 24.7127 2.91151 22.5006 1.89994C20.3517 0.917263 17.4644 1.17695 14.7204 4.02827L13.9998 4.77698L13.2793 4.02827C10.5352 1.17683 7.64775 0.916608 5.4989 1.89884C3.28697 2.9099 1.6665 5.31495 1.6665 8.18285C1.6665 11.1127 2.86561 13.3709 4.58452 15.3063C6.00037 16.9004 7.71396 18.2218 9.38532 19.5106C9.7836 19.8177 10.1795 20.123 10.5684 20.4296M17.4306 20.4288L10.5684 20.4296M17.4306 20.4288C16.7299 20.9824 16.1043 21.4679 15.5016 21.8202C14.8985 22.1726 14.4128 22.3335 13.9998 22.3335C13.5871 22.3335 13.1015 22.1725 12.4981 21.8198M17.4306 20.4288L12.4981 21.8198M10.5684 20.4296C11.2696 20.9822 11.8951 21.4674 12.4981 21.8198M10.5684 20.4296L12.4981 21.8198" stroke="#FF9500" stroke-width="2"/>
</svg>
