<svg width="22" height="28" viewBox="0 0 22 28" fill="none" xmlns="http://www.w3.org/2000/svg">
<path d="M10.9998 26.8334V23.3334M10.9998 23.3334C8.52448 23.3334 6.15051 22.3501 4.40017 20.5997C2.64983 18.8494 1.6665 16.4754 1.6665 14.0001M10.9998 23.3334C13.4752 23.3334 15.8492 22.3501 17.5995 20.5997C19.3498 18.8494 20.3332 16.4754 20.3332 14.0001M10.9998 19.8334C7.7915 19.8334 5.1665 17.2994 5.1665 14.2007V6.79941C5.1665 3.70075 7.7915 1.16675 10.9998 1.16675C14.2082 1.16675 16.8332 3.70075 16.8332 6.79941V14.2007C16.8332 17.2994 14.2082 19.8334 10.9998 19.8334Z" stroke="#FFF4E6" stroke-width="2" stroke-linecap="round" stroke-linejoin="round"/>
</svg>
