<svg width="551" height="551" viewBox="0 0 551 551" fill="none" xmlns="http://www.w3.org/2000/svg">
<path d="M425.936 248.097C430.215 231.325 431.657 213.955 430.2 196.708L429.357 186.717C421.529 173.672 417.616 156.714 406.31 145.408C395.004 134.102 378.046 130.188 364.131 122.361C350.651 114.099 338.91 101.489 323.691 97.5755C308.471 93.6619 291.513 98.4452 275.858 98.4452C260.204 98.4452 243.245 93.6619 228.026 97.5755C212.807 101.489 201.066 114.099 187.151 121.926C173.671 130.188 156.712 134.102 145.407 145.408C134.101 156.714 130.187 173.672 122.36 187.587C114.098 201.067 101.488 212.808 97.5744 228.027C93.6608 243.247 98.4441 260.205 98.4441 275.859C98.4441 291.514 93.226 308.038 97.5744 323.692C101.488 338.911 114.098 350.652 121.925 364.567C130.187 378.047 134.101 395.005 145.407 406.311C156.712 417.617 173.671 421.531 187.586 429.358C201.501 437.185 213.242 449.795 228.461 453.709C243.68 457.622 260.639 452.839 276.293 452.839C291.947 452.839 308.471 458.057 324.126 453.709C339.345 449.795 351.086 437.185 365 429.358C378.046 421.531 395.004 417.617 406.31 406.311C417.616 395.005 432.4 361.958 432.4 361.958L425.843 323.91V292.817L419.546 273.139L425.936 248.097Z" fill="#DDA85F"/>
<path d="M419.443 245.977C421.312 236.294 422.253 226.455 422.253 216.594L422.253 192.459C414.992 180.358 411.362 164.628 400.875 154.141C390.388 143.654 374.658 140.024 361.751 132.763C349.247 125.1 338.356 113.403 324.239 109.773C310.122 106.143 294.392 110.579 279.871 110.579C265.351 110.579 249.62 106.143 235.503 109.773C221.386 113.403 210.495 125.1 197.588 132.36C185.085 140.024 169.354 143.654 158.867 154.141C148.38 164.628 144.75 180.358 137.49 193.265C129.826 205.769 118.129 216.66 114.499 230.777C110.869 244.894 115.306 260.624 115.306 275.145C115.306 289.665 110.465 304.993 114.499 319.513C118.129 333.63 129.826 344.521 137.086 357.428C144.75 369.931 148.38 385.662 158.867 396.149C169.354 406.636 185.085 410.266 197.992 417.526C210.899 424.787 221.789 436.484 235.906 440.114C250.023 443.744 265.754 439.307 280.274 439.307C294.795 439.307 310.122 444.147 324.643 440.114C338.76 436.484 349.65 424.787 362.557 417.526C374.658 410.266 390.388 406.636 400.875 396.149C411.362 385.662 425.076 355.008 425.076 355.008L418.759 322.335L418.759 290.849L414.429 271.958L419.443 245.977Z" fill="#F2CB7D"/>
<path d="M244.377 147.686C233.486 150.51 227.033 169.064 231.47 180.761C238.326 197.298 244.377 204.961 264.141 199.718C270.998 197.701 285.921 189.231 287.535 185.197C289.955 179.551 291.165 164.627 286.728 160.19C273.821 148.09 252.04 145.669 244.377 147.686Z" fill="#6D4934"/>
<path d="M246.394 149.704C238.731 151.721 231.471 173.501 242.361 181.972C257.285 193.669 283.502 165.031 277.855 159.384C268.175 149.704 252.041 148.091 246.394 149.704Z" fill="#A37F6A"/>
<path d="M304.475 357.024C311.735 361.057 325.852 355.007 329.483 346.537C335.129 333.63 335.533 325.966 322.222 318.303C317.382 315.883 304.475 311.849 301.652 313.059C297.215 315.076 288.341 322.336 288.341 327.176C288.341 340.89 299.232 354.201 304.475 357.024Z" fill="#6D4934"/>
<path d="M308.507 341.696C314.153 344.923 334.724 338.066 328.271 329.999C317.784 315.479 302.053 311.849 296.406 319.916C290.759 327.983 304.473 339.276 308.507 341.696Z" fill="#A37F6A"/>
<path d="M200.814 296.925C204.445 290.874 199.201 278.371 191.134 275.144C179.84 270.304 173.387 269.497 166.933 281.597C164.513 285.631 161.286 296.925 162.9 299.345C164.513 303.378 170.967 310.638 175 310.638C186.697 311.042 197.991 301.361 200.814 296.925Z" fill="#6D4934"/>
<path d="M197.587 286.438C200.411 282.001 178.227 270.304 173.386 278.371C165.723 292.488 164.109 294.102 167.74 296.925C175.403 301.362 195.167 289.665 197.587 286.438Z" fill="#A37F6A"/>
<path d="M383.128 325.968C377.078 322.338 364.575 327.581 361.348 335.648C356.508 346.942 362.961 355.815 375.868 359.849C386.759 363.479 400.069 350.975 400.472 346.538C400.472 334.438 387.565 328.791 383.128 325.968Z" fill="#6D4934"/>
<path d="M376.675 328.385C371.432 328.789 358.121 338.066 365.785 342.502C379.902 350.166 398.456 346.939 395.229 340.486C391.196 332.419 382.725 327.982 376.675 328.385Z" fill="#A37F6A"/>
<path d="M391 223.639C384.949 220.009 372.446 225.252 369.219 233.319C364.379 244.613 370.832 253.487 383.739 257.52C394.63 261.15 407.94 248.647 408.343 244.21C408.343 232.109 395.436 226.462 391 223.639Z" fill="#6D4934"/>
<path d="M384.546 226.056C379.303 226.459 365.992 235.736 373.656 240.173C387.773 247.837 406.327 244.61 403.1 238.157C399.067 230.09 390.596 225.653 384.546 226.056Z" fill="#A37F6A"/>
<path d="M306.607 173.711L322.579 173.711L322.579 189.684L306.607 189.684L306.607 173.711Z" fill="#6D4934"/>
<path d="M204.134 211.372L220.102 211.368L220.106 227.336L204.138 227.341L204.134 211.372Z" fill="#DDA85F"/>
<path d="M239.08 337.701H255.053V353.673H239.08V337.701Z" fill="#DDA85F"/>
<path d="M250.623 304.699H272.299V326.375H250.623V304.699Z" fill="#DDA85F"/>
<path d="M339.844 156.252L361.52 156.252L361.52 177.927L339.844 177.927L339.844 156.252Z" fill="#DDA85F"/>
<path d="M258.796 369.808L274.768 369.808L274.768 385.78L258.796 385.78L258.796 369.808Z" fill="#6D4934"/>
<path d="M335.776 356.985L351.749 356.985L351.749 372.957L335.776 372.957L335.776 356.985Z" fill="#6D4934"/>
<path d="M304.289 246.784L320.262 246.784L320.262 262.757L304.289 262.757L304.289 246.784Z" fill="#6D4934"/>
<path d="M349.144 285.021L357.13 285.021L357.13 293.007L349.144 293.007L349.144 285.021Z" fill="#6D4934"/>
<path d="M180.888 226.709L188.874 226.709L188.874 234.695L180.888 234.695L180.888 226.709Z" fill="#6D4934"/>
</svg>
