<svg width="32" height="32" viewBox="0 0 32 32" fill="none" xmlns="http://www.w3.org/2000/svg">
<path d="M19.4311 24.4288L19.4322 24.4279C19.8181 24.124 20.2109 23.8214 20.6061 23.5169C22.2805 22.2268 23.9979 20.9036 25.4161 19.3068C27.1348 17.3716 28.3337 15.1134 28.3337 12.1842C28.3337 9.31698 26.7132 6.91151 24.5011 5.89994C22.3522 4.91726 19.4649 5.17695 16.7209 8.02827L16.0003 8.77698L15.2798 8.02827C12.5357 5.17683 9.64823 4.91661 7.49938 5.89884C5.28746 6.9099 3.66699 9.31495 3.66699 12.1829C3.66699 15.1127 4.8661 17.3709 6.58501 19.3063C8.00086 20.9004 9.71445 22.2218 11.3858 23.5106C11.7841 23.8177 12.18 24.123 12.5689 24.4296M19.4311 24.4288L12.5689 24.4296M19.4311 24.4288C18.7304 24.9824 18.1048 25.4679 17.5021 25.8202C16.899 26.1726 16.4133 26.3335 16.0003 26.3335C15.5876 26.3335 15.102 26.1725 14.4986 25.8198M19.4311 24.4288L14.4986 25.8198M12.5689 24.4296C13.2701 24.9822 13.8956 25.4674 14.4986 25.8198M12.5689 24.4296L14.4986 25.8198" stroke="#FF9500" stroke-width="2"/>
</svg>
