<svg width="25" height="25" viewBox="0 0 25 25" fill="none" xmlns="http://www.w3.org/2000/svg">
<path d="M18.9601 20C18.1301 21.24 17.2501 22.45 15.9101 22.47C14.5701 22.5 14.1401 21.68 12.6201 21.68C11.0901 21.68 10.6201 22.45 9.35009 22.5C8.04009 22.55 7.05009 21.18 6.21009 19.97C4.50009 17.5 3.19009 12.95 4.95009 9.89C5.82009 8.37 7.38009 7.41 9.07009 7.38C10.3501 7.36 11.5701 8.25 12.3601 8.25C13.1401 8.25 14.6201 7.18 16.1701 7.34C16.8201 7.37 18.6401 7.6 19.8101 9.32C19.7201 9.38 17.6401 10.6 17.6601 13.13C17.6901 16.15 20.3101 17.16 20.3401 17.17C20.3101 17.24 19.9201 18.61 18.9601 20ZM13.2501 4C13.9801 3.17 15.1901 2.54 16.1901 2.5C16.3201 3.67 15.8501 4.85 15.1501 5.69C14.4601 6.54 13.3201 7.2 12.2001 7.11C12.0501 5.96 12.6101 4.76 13.2501 4Z" fill="black"/>
</svg>
