<svg width="526" height="25" viewBox="0 0 526 25" fill="none" xmlns="http://www.w3.org/2000/svg">
<path d="M0.333333 12.5C0.333333 13.9728 1.52724 15.1667 3 15.1667C4.47276 15.1667 5.66667 13.9728 5.66667 12.5C5.66667 11.0272 4.47276 9.83333 3 9.83333C1.52724 9.83333 0.333333 11.0272 0.333333 12.5ZM3 13H200.5V12H3V13Z" fill="#FF9500"/>
<path d="M221.273 18.6818C220.485 18.6818 219.794 18.4943 219.199 18.1193C218.608 17.7443 218.146 17.2197 217.812 16.5455C217.483 15.8712 217.318 15.0833 217.318 14.1818C217.318 13.2727 217.483 12.4792 217.812 11.8011C218.146 11.1231 218.608 10.5966 219.199 10.2216C219.794 9.84659 220.485 9.65909 221.273 9.65909C222.061 9.65909 222.75 9.84659 223.341 10.2216C223.936 10.5966 224.398 11.1231 224.727 11.8011C225.061 12.4792 225.227 13.2727 225.227 14.1818C225.227 15.0833 225.061 15.8712 224.727 16.5455C224.398 17.2197 223.936 17.7443 223.341 18.1193C222.75 18.4943 222.061 18.6818 221.273 18.6818ZM221.273 17.4773C221.871 17.4773 222.364 17.3239 222.75 17.017C223.136 16.7102 223.422 16.3068 223.608 15.8068C223.794 15.3068 223.886 14.7652 223.886 14.1818C223.886 13.5985 223.794 13.0549 223.608 12.5511C223.422 12.0473 223.136 11.6402 222.75 11.3295C222.364 11.0189 221.871 10.8636 221.273 10.8636C220.674 10.8636 220.182 11.0189 219.795 11.3295C219.409 11.6402 219.123 12.0473 218.938 12.5511C218.752 13.0549 218.659 13.5985 218.659 14.1818C218.659 14.7652 218.752 15.3068 218.938 15.8068C219.123 16.3068 219.409 16.7102 219.795 17.017C220.182 17.3239 220.674 17.4773 221.273 17.4773ZM227.274 18.5V9.77273H228.57V11.0909H228.661C228.82 10.6591 229.107 10.3087 229.524 10.0398C229.941 9.77083 230.411 9.63636 230.933 9.63636C231.032 9.63636 231.155 9.63826 231.303 9.64205C231.45 9.64583 231.562 9.65152 231.638 9.65909V11.0227C231.592 11.0114 231.488 10.9943 231.325 10.9716C231.166 10.9451 230.998 10.9318 230.82 10.9318C230.395 10.9318 230.017 11.0208 229.683 11.1989C229.354 11.3731 229.092 11.6155 228.899 11.9261C228.71 12.233 228.615 12.5833 228.615 12.9773V18.5H227.274ZM239.068 6.86364V18.5H237.727V6.86364H239.068ZM245.07 18.6818C244.282 18.6818 243.59 18.4943 242.996 18.1193C242.405 17.7443 241.943 17.2197 241.609 16.5455C241.28 15.8712 241.115 15.0833 241.115 14.1818C241.115 13.2727 241.28 12.4792 241.609 11.8011C241.943 11.1231 242.405 10.5966 242.996 10.2216C243.59 9.84659 244.282 9.65909 245.07 9.65909C245.857 9.65909 246.547 9.84659 247.138 10.2216C247.732 10.5966 248.195 11.1231 248.524 11.8011C248.857 12.4792 249.024 13.2727 249.024 14.1818C249.024 15.0833 248.857 15.8712 248.524 16.5455C248.195 17.2197 247.732 17.7443 247.138 18.1193C246.547 18.4943 245.857 18.6818 245.07 18.6818ZM245.07 17.4773C245.668 17.4773 246.161 17.3239 246.547 17.017C246.933 16.7102 247.219 16.3068 247.405 15.8068C247.59 15.3068 247.683 14.7652 247.683 14.1818C247.683 13.5985 247.59 13.0549 247.405 12.5511C247.219 12.0473 246.933 11.6402 246.547 11.3295C246.161 11.0189 245.668 10.8636 245.07 10.8636C244.471 10.8636 243.979 11.0189 243.592 11.3295C243.206 11.6402 242.92 12.0473 242.734 12.5511C242.549 13.0549 242.456 13.5985 242.456 14.1818C242.456 14.7652 242.549 15.3068 242.734 15.8068C242.92 16.3068 243.206 16.7102 243.592 17.017C243.979 17.3239 244.471 17.4773 245.07 17.4773ZM254.594 21.9545C253.946 21.9545 253.389 21.8712 252.923 21.7045C252.457 21.5417 252.069 21.3258 251.759 21.0568C251.452 20.7917 251.207 20.5076 251.026 20.2045L252.094 19.4545C252.215 19.6136 252.368 19.7955 252.554 20C252.74 20.2083 252.993 20.3883 253.315 20.5398C253.641 20.6951 254.067 20.7727 254.594 20.7727C255.298 20.7727 255.88 20.6023 256.338 20.2614C256.796 19.9205 257.026 19.3864 257.026 18.6591V16.8864H256.912C256.813 17.0455 256.673 17.2424 256.491 17.4773C256.313 17.7083 256.056 17.9148 255.719 18.0966C255.385 18.2746 254.935 18.3636 254.366 18.3636C253.662 18.3636 253.029 18.197 252.469 17.8636C251.912 17.5303 251.471 17.0455 251.145 16.4091C250.823 15.7727 250.662 15 250.662 14.0909C250.662 13.197 250.819 12.4186 251.134 11.7557C251.448 11.089 251.885 10.5739 252.446 10.2102C253.007 9.8428 253.654 9.65909 254.389 9.65909C254.957 9.65909 255.408 9.75379 255.741 9.94318C256.079 10.1288 256.336 10.3409 256.514 10.5795C256.696 10.8144 256.836 11.0076 256.935 11.1591H257.071V9.77273H258.366V18.75C258.366 19.5 258.196 20.1098 257.855 20.5795C257.518 21.053 257.063 21.3996 256.491 21.6193C255.923 21.8428 255.291 21.9545 254.594 21.9545ZM254.548 17.1591C255.086 17.1591 255.541 17.036 255.912 16.7898C256.283 16.5436 256.565 16.1894 256.759 15.7273C256.952 15.2652 257.048 14.7121 257.048 14.0682C257.048 13.4394 256.954 12.8845 256.764 12.4034C256.575 11.9223 256.295 11.5455 255.923 11.2727C255.552 11 255.094 10.8636 254.548 10.8636C253.98 10.8636 253.507 11.0076 253.128 11.2955C252.753 11.5833 252.471 11.9697 252.281 12.4545C252.096 12.9394 252.003 13.4773 252.003 14.0682C252.003 14.6742 252.098 15.2102 252.287 15.6761C252.48 16.1383 252.764 16.5019 253.139 16.767C253.518 17.0284 253.988 17.1591 254.548 17.1591ZM260.821 18.5V9.77273H262.162V18.5H260.821ZM261.503 8.31818C261.241 8.31818 261.016 8.22917 260.827 8.05114C260.641 7.87311 260.548 7.65909 260.548 7.40909C260.548 7.15909 260.641 6.94508 260.827 6.76705C261.016 6.58902 261.241 6.5 261.503 6.5C261.764 6.5 261.988 6.58902 262.173 6.76705C262.363 6.94508 262.457 7.15909 262.457 7.40909C262.457 7.65909 262.363 7.87311 262.173 8.05114C261.988 8.22917 261.764 8.31818 261.503 8.31818ZM265.959 13.25V18.5H264.618V9.77273H265.913V11.1364H266.027C266.232 10.6932 266.542 10.3371 266.959 10.0682C267.375 9.79545 267.913 9.65909 268.572 9.65909C269.163 9.65909 269.68 9.7803 270.124 10.0227C270.567 10.2614 270.911 10.625 271.158 11.1136C271.404 11.5985 271.527 12.2121 271.527 12.9545V18.5H270.186V13.0455C270.186 12.3598 270.008 11.8258 269.652 11.4432C269.296 11.0568 268.807 10.8636 268.186 10.8636C267.758 10.8636 267.375 10.9564 267.038 11.142C266.705 11.3277 266.442 11.5985 266.249 11.9545C266.055 12.3106 265.959 12.7424 265.959 13.25ZM280.455 18.5L277.795 9.77273H279.205L281.091 16.4545H281.182L283.045 9.77273H284.477L286.318 16.4318H286.409L288.295 9.77273H289.705L287.045 18.5H285.727L283.818 11.7955H283.682L281.773 18.5H280.455ZM291.477 18.5V9.77273H292.818V18.5H291.477ZM292.159 8.31818C291.898 8.31818 291.672 8.22917 291.483 8.05114C291.297 7.87311 291.205 7.65909 291.205 7.40909C291.205 7.15909 291.297 6.94508 291.483 6.76705C291.672 6.58902 291.898 6.5 292.159 6.5C292.42 6.5 292.644 6.58902 292.83 6.76705C293.019 6.94508 293.114 7.15909 293.114 7.40909C293.114 7.65909 293.019 7.87311 292.83 8.05114C292.644 8.22917 292.42 8.31818 292.159 8.31818ZM299.07 9.77273V10.9091H294.547V9.77273H299.07ZM295.865 7.68182H297.206V16C297.206 16.3788 297.261 16.6629 297.371 16.8523C297.484 17.0379 297.628 17.1629 297.803 17.2273C297.981 17.2879 298.168 17.3182 298.365 17.3182C298.513 17.3182 298.634 17.3106 298.729 17.2955C298.823 17.2765 298.899 17.2614 298.956 17.25L299.229 18.4545C299.138 18.4886 299.011 18.5227 298.848 18.5568C298.685 18.5947 298.479 18.6136 298.229 18.6136C297.85 18.6136 297.479 18.5322 297.115 18.3693C296.755 18.2064 296.456 17.9583 296.217 17.625C295.982 17.2917 295.865 16.8712 295.865 16.3636V7.68182ZM302.615 13.25V18.5H301.274V6.86364H302.615V11.1364H302.729C302.933 10.6856 303.24 10.3277 303.649 10.0625C304.062 9.79356 304.611 9.65909 305.297 9.65909C305.892 9.65909 306.412 9.77841 306.859 10.017C307.306 10.2519 307.653 10.6136 307.899 11.1023C308.149 11.5871 308.274 12.2045 308.274 12.9545V18.5H306.933V13.0455C306.933 12.3523 306.753 11.8163 306.393 11.4375C306.037 11.0549 305.543 10.8636 304.911 10.8636C304.471 10.8636 304.077 10.9564 303.729 11.142C303.384 11.3277 303.111 11.5985 302.911 11.9545C302.714 12.3106 302.615 12.7424 302.615 13.25Z" fill="#151716"/>
<path d="M520.333 12.5C520.333 13.9728 521.527 15.1667 523 15.1667C524.473 15.1667 525.667 13.9728 525.667 12.5C525.667 11.0272 524.473 9.83333 523 9.83333C521.527 9.83333 520.333 11.0272 520.333 12.5ZM325.5 13H523V12H325.5V13Z" fill="#FF9500"/>
</svg>
