<svg width="86" height="45" viewBox="0 0 86 45" fill="none" xmlns="http://www.w3.org/2000/svg">
<path d="M8.96305 41.8683L1.09205 41.0097L1.61025 36.2594L2.45577 36.3516L2.04154 40.1488L4.70108 40.4389L5.08848 36.8877L5.93399 36.98L5.5466 40.5311L8.2215 40.8229L8.64244 36.9643L9.48796 37.0565L8.96305 41.8683Z" fill="#FFF4E6"/>
<path d="M4.54279 32.1702L7.29613 31.5889L5.44326 29.471L5.77604 28.4735L7.98574 31.2321L11.4091 30.3527L11.0763 31.3502L8.44035 31.9706L10.1759 34.0494L9.84308 35.0469L7.62359 32.3176L4.21001 33.1677L4.54279 32.1702Z" fill="#FFF4E6"/>
<path d="M14.2155 29.3398L7.19518 25.1703L7.64529 24.4124L8.45635 24.8941L8.51163 24.801C8.4572 24.6908 8.39157 24.5439 8.31472 24.3603C8.23697 24.1733 8.20105 23.9511 8.20697 23.6938C8.21199 23.433 8.31321 23.1364 8.51063 22.804C8.76596 22.3741 9.09849 22.059 9.50823 21.8587C9.91797 21.6584 10.3747 21.5834 10.8784 21.6337C11.3821 21.6841 11.902 21.8685 12.4383 22.187C12.979 22.5081 13.3931 22.8785 13.6805 23.298C13.9657 23.7162 14.1202 24.1526 14.1439 24.6074C14.1653 25.0608 14.0497 25.5002 13.797 25.9257C13.6023 26.2537 13.392 26.484 13.1663 26.6168C12.9384 26.7482 12.723 26.8256 12.5202 26.8491C12.3152 26.8712 12.1491 26.8834 12.0218 26.8858L11.9823 26.9523L14.6814 28.5553L14.2155 29.3398ZM10.206 25.9153C10.5916 26.1443 10.9653 26.2898 11.3272 26.3518C11.6868 26.4125 12.0142 26.3837 12.3094 26.2652C12.6024 26.1454 12.8423 25.9282 13.0292 25.6135C13.224 25.2856 13.3001 24.9606 13.2575 24.6385C13.2141 24.313 13.0779 24.0072 12.849 23.7214C12.6192 23.432 12.3225 23.1794 11.9591 22.9636C11.6001 22.7504 11.2437 22.6136 10.8898 22.5533C10.535 22.4895 10.2076 22.5184 9.90756 22.6399C9.60663 22.758 9.35746 22.9832 9.16004 23.3156C8.97052 23.6347 8.89215 23.9509 8.92494 24.2641C8.95551 24.576 9.08193 24.873 9.30421 25.1549C9.52427 25.4354 9.82487 25.6889 10.206 25.9153Z" fill="#FFF4E6"/>
<path d="M10.9243 16.1195L16.9361 21.2719L16.3424 21.9647L10.3305 16.8123L10.9243 16.1195Z" fill="#FFF4E6"/>
<path d="M21.0877 17.2741C20.6752 17.6165 20.2318 17.8187 19.7574 17.8808C19.2851 17.9413 18.8151 17.8674 18.3476 17.6592C17.8821 17.4494 17.4534 17.1085 17.0616 16.6365C16.6666 16.1606 16.408 15.6735 16.2858 15.1753C16.1657 14.6754 16.1789 14.1989 16.3253 13.7458C16.4737 13.291 16.7541 12.8924 17.1667 12.55C17.5792 12.2076 18.0216 12.0062 18.4939 11.9458C18.9683 11.8837 19.439 11.9585 19.9062 12.1703C20.3754 12.3804 20.8075 12.7235 21.2026 13.1995C21.5944 13.6715 21.8495 14.1564 21.968 14.6543C22.0884 15.1505 22.0745 15.626 21.9261 16.0808C21.7797 16.5339 21.5002 16.9317 21.0877 17.2741ZM20.5642 16.6434C20.8776 16.3833 21.0687 16.089 21.1377 15.7605C21.2066 15.4319 21.1811 15.0964 21.0609 14.754C20.9408 14.4115 20.754 14.0876 20.5005 13.7822C20.247 13.4768 19.9622 13.2325 19.6461 13.0494C19.33 12.8663 19.0033 12.7774 18.666 12.7826C18.3288 12.7879 18.0035 12.9206 17.6901 13.1807C17.3768 13.4408 17.1864 13.7361 17.1191 14.0666C17.0518 14.3971 17.079 14.7346 17.2008 15.079C17.3226 15.4235 17.5102 15.7484 17.7637 16.0538C18.0172 16.3592 18.3012 16.6025 18.6156 16.7836C18.9301 16.9647 19.2551 17.0517 19.5908 17.0444C19.9264 17.0372 20.2509 16.9035 20.5642 16.6434Z" fill="#FFF4E6"/>
<path d="M24.9569 14.2356L22.0653 9.04895L22.8352 8.61973L23.272 9.40314L23.326 9.37302C23.2775 9.06367 23.3325 8.76006 23.491 8.46217C23.6495 8.16428 23.8841 7.92874 24.1948 7.75555C24.2533 7.72292 24.3271 7.68326 24.4162 7.63656C24.5052 7.58987 24.5735 7.55622 24.621 7.53562L25.0729 8.34605C25.0421 8.35435 24.9745 8.37874 24.8702 8.41919C24.7669 8.45615 24.6623 8.50412 24.5565 8.5631C24.3044 8.70367 24.1087 8.88207 23.9696 9.09832C23.8315 9.31106 23.7565 9.54173 23.7446 9.79033C23.7337 10.0354 23.7935 10.275 23.924 10.5092L25.7538 13.7914L24.9569 14.2356Z" fill="#FFF4E6"/>
<path d="M32.0188 11.0409C31.4768 11.2243 30.9688 11.2628 30.4947 11.1566C30.0223 11.0471 29.6068 10.8122 29.2482 10.4519C28.8912 10.0884 28.6152 9.61853 28.4203 9.04236C28.2253 8.46618 28.1585 7.92285 28.2197 7.41235C28.2826 6.89859 28.4616 6.4544 28.7566 6.07978C29.0532 5.70189 29.4554 5.42703 29.9632 5.25521C30.2561 5.15608 30.562 5.10702 30.8807 5.10802C31.1993 5.10903 31.513 5.17974 31.8218 5.32017C32.1297 5.45815 32.4139 5.68304 32.6745 5.99484C32.9351 6.30664 33.1542 6.72499 33.3318 7.24989L33.4557 7.61611L29.1198 9.08321L28.867 8.33614L32.324 7.16642C32.2166 6.84904 32.0573 6.58731 31.8461 6.38125C31.6373 6.17435 31.3926 6.03812 31.112 5.97256C30.8337 5.90616 30.5384 5.92584 30.2259 6.03157C29.8816 6.14805 29.6127 6.33428 29.419 6.59026C29.227 6.84298 29.1097 7.12755 29.0671 7.44398C29.0245 7.76041 29.0557 8.07366 29.1606 8.38371L29.3291 8.88176C29.4729 9.30657 29.668 9.64189 29.9144 9.88774C30.1625 10.1303 30.4443 10.2839 30.7601 10.3485C31.0749 10.4106 31.407 10.3827 31.7561 10.2645C31.9831 10.1877 32.1775 10.0866 32.3391 9.96114C32.5023 9.83244 32.6292 9.68068 32.7197 9.50585C32.8094 9.32858 32.8578 9.1299 32.8649 8.90981L33.7792 8.86166C33.7871 9.17461 33.7237 9.47361 33.5889 9.75867C33.4532 10.0413 33.253 10.294 32.9883 10.5169C32.7228 10.7374 32.3996 10.912 32.0188 11.0409Z" fill="#FFF4E6"/>
<path d="M48.0504 5.23317C48.019 6.06765 47.8412 6.78314 47.517 7.37963C47.1928 7.97613 46.7618 8.42933 46.224 8.73923C45.6862 9.04914 45.0799 9.1914 44.4051 9.16602C43.7303 9.14064 43.1364 8.95323 42.6234 8.60379C42.1103 8.25436 41.7146 7.77006 41.4361 7.15089C41.1576 6.53173 41.0341 5.80491 41.0655 4.97043C41.0969 4.13595 41.2747 3.42046 41.5989 2.82397C41.9231 2.22747 42.3541 1.77427 42.8919 1.46436C43.4297 1.15446 44.036 1.01219 44.7108 1.03758C45.3856 1.06296 45.9795 1.25037 46.4925 1.5998C47.0055 1.94924 47.4013 2.43354 47.6798 3.0527C47.9582 3.67187 48.0818 4.39869 48.0504 5.23317ZM47.1232 5.19829C47.149 4.5132 47.0561 3.93067 46.8446 3.45072C46.6357 2.97087 46.3413 2.60258 45.9615 2.34585C45.5843 2.08922 45.1562 1.95189 44.6771 1.93387C44.1981 1.91585 43.7595 2.02058 43.3615 2.24805C42.9661 2.47562 42.6449 2.82075 42.3979 3.28346C42.1535 3.74626 42.0185 4.32021 41.9927 5.0053C41.9669 5.6904 42.0585 6.27288 42.2674 6.75273C42.4789 7.23268 42.7733 7.60097 43.1505 7.8576C43.5303 8.11433 43.9597 8.25171 44.4388 8.26973C44.9178 8.28775 45.3551 8.18297 45.7505 7.9554C46.1485 7.72793 46.4697 7.38279 46.7141 6.91999C46.9611 6.45729 47.0974 5.88339 47.1232 5.19829Z" fill="#FFF4E6"/>
<path d="M54.0999 8.2117L55.0358 4.82839L55.9152 5.07165L54.3319 10.795L53.4526 10.5517L53.7206 9.58291L53.661 9.56642C53.4464 9.81995 53.1694 10.0094 52.8298 10.1347C52.491 10.2576 52.1055 10.2593 51.6732 10.1397C51.3155 10.0407 51.0192 9.87453 50.7843 9.64107C50.55 9.40513 50.3974 9.10618 50.3264 8.74424C50.2561 8.37981 50.2882 7.95416 50.4229 7.46728L51.429 3.8306L52.3083 4.07386L51.3188 7.65093C51.2033 8.06825 51.228 8.43342 51.3928 8.74642C51.5601 9.06011 51.8263 9.26746 52.1914 9.36848C52.41 9.42895 52.6478 9.43456 52.9048 9.38531C53.1643 9.33675 53.4029 9.21826 53.6209 9.02985C53.8413 8.84212 54.0009 8.56941 54.0999 8.2117Z" fill="#FFF4E6"/>
<path d="M56.7706 11.728L59.3823 6.39492L60.1739 6.78259L59.7794 7.58812L59.835 7.61532C60.0614 7.39905 60.3422 7.27109 60.6773 7.23144C61.0124 7.19178 61.3397 7.25017 61.6591 7.4066C61.7193 7.43607 61.7939 7.47407 61.8831 7.5206C61.9722 7.56712 62.0388 7.60403 62.0828 7.63133L61.6747 8.46463C61.6504 8.44408 61.5918 8.40249 61.4991 8.33986C61.4098 8.27605 61.3108 8.21751 61.202 8.16423C60.9427 8.03727 60.6846 7.97831 60.4276 7.98735C60.1741 7.99521 59.9419 8.06513 59.7308 8.19713C59.5233 8.32794 59.3606 8.51372 59.2427 8.75445L57.59 12.1293L56.7706 11.728Z" fill="#FFF4E6"/>
<path d="M72.7113 15.8067C72.9541 15.4958 73.0346 15.1474 72.9526 14.7614C72.8707 14.3754 72.6595 14.0136 72.319 13.6762C72.0701 13.4294 71.8123 13.2538 71.5458 13.1493C71.2811 13.0466 71.0267 13.014 70.7826 13.0515C70.5404 13.0909 70.3304 13.2003 70.1526 13.3797C70.0038 13.5298 69.9116 13.6942 69.876 13.873C69.8439 14.0517 69.8493 14.233 69.892 14.4169C69.9366 14.599 69.9984 14.7746 70.0776 14.9437C70.1585 15.111 70.2375 15.2601 70.3147 15.391L70.7334 16.1108C70.8417 16.2944 70.952 16.509 71.0643 16.7545C71.1784 17.0019 71.2598 17.2657 71.3084 17.5462C71.3607 17.8266 71.351 18.111 71.2794 18.3993C71.2078 18.6875 71.0414 18.9635 70.7801 19.2271C70.4789 19.531 70.1271 19.7266 69.7248 19.8141C69.3242 19.9033 68.9003 19.8697 68.4531 19.7131C68.0077 19.5584 67.569 19.2669 67.137 18.8387C66.7343 18.4396 66.45 18.029 66.2841 17.6069C66.12 17.1866 66.0689 16.7768 66.131 16.3774C66.1948 15.9798 66.3681 15.6163 66.651 15.287L67.3539 15.9837C67.1618 16.2142 67.059 16.4607 67.0456 16.7232C67.0358 16.9857 67.0935 17.2461 67.2185 17.5043C67.3473 17.7625 67.5233 18.0023 67.7466 18.2236C68.0066 18.4813 68.2817 18.6705 68.572 18.7913C68.8641 18.9103 69.1459 18.9537 69.4173 18.9215C69.6905 18.8875 69.9288 18.768 70.132 18.5629C70.317 18.3762 70.4154 18.1726 70.4272 17.952C70.439 17.7314 70.396 17.5001 70.2984 17.2582C70.2007 17.0162 70.0802 16.7698 69.937 16.519L69.4409 15.6354C69.1268 15.0737 68.9577 14.5486 68.9336 14.0603C68.9096 13.572 69.0854 13.1384 69.4609 12.7594C69.773 12.4446 70.1303 12.2544 70.5327 12.1888C70.9389 12.1232 71.351 12.1687 71.769 12.3254C72.1907 12.4821 72.5809 12.7382 72.9397 13.0939C73.3022 13.4531 73.56 13.8374 73.7131 14.2468C73.868 14.6543 73.9171 15.0514 73.8605 15.438C73.8058 15.8265 73.6423 16.1671 73.3703 16.4599L72.7113 15.8067Z" fill="#FFF4E6"/>
<path d="M76.977 21.2567L76.3409 21.6962L74.5915 19.1644L75.2277 18.7249L76.977 21.2567ZM76.908 18.654L77.4267 19.4047L72.7702 22.6221C72.5581 22.7686 72.4203 22.9092 72.3568 23.044C72.2969 23.1794 72.2826 23.3083 72.3139 23.4307C72.3488 23.5538 72.4044 23.6705 72.4806 23.7808C72.5377 23.8635 72.5889 23.9284 72.634 23.9756C72.6812 24.0212 72.719 24.0578 72.7473 24.0852L72.1785 24.7038C72.1243 24.6661 72.0561 24.6082 71.974 24.5302C71.8898 24.4537 71.7994 24.3455 71.7027 24.2055C71.5561 23.9935 71.4581 23.7542 71.4087 23.4876C71.3607 23.2232 71.3838 22.9597 71.4781 22.6972C71.5739 22.4368 71.7638 22.2084 72.048 22.0121L76.908 18.654Z" fill="#FFF4E6"/>
<path d="M74.2642 28.8504C74.0442 28.3615 73.9675 27.8802 74.0342 27.4065C74.1019 26.9352 74.2984 26.5019 74.6237 26.1068C74.95 25.7141 75.3929 25.3919 75.9523 25.1402C76.5164 24.8863 77.0548 24.767 77.5675 24.7822C78.0813 24.7997 78.537 24.9395 78.9347 25.2014C79.3334 25.4657 79.6428 25.8423 79.8628 26.3312C80.0828 26.8201 80.1589 27.3002 80.0912 27.7716C80.0246 28.2453 79.8269 28.679 79.4982 29.0728C79.1705 29.469 78.7247 29.794 78.1606 30.0478C77.6012 30.2995 77.0658 30.4161 76.5543 30.3975C76.0439 30.3813 75.5894 30.241 75.1906 29.9767C74.793 29.7147 74.4841 29.3393 74.2642 28.8504ZM75.0116 28.5141C75.1787 28.8855 75.4114 29.1482 75.7096 29.3023C76.0079 29.4563 76.338 29.5211 76.7001 29.4967C77.0622 29.4723 77.4242 29.3786 77.7862 29.2157C78.1481 29.0529 78.4595 28.8435 78.7203 28.5877C78.9811 28.3319 79.1539 28.0407 79.2387 27.7143C79.3236 27.3878 79.2825 27.0389 79.1154 26.6675C78.9483 26.2962 78.7144 26.034 78.4138 25.881C78.1132 25.7279 77.7807 25.6642 77.4162 25.6897C77.0518 25.7152 76.6886 25.8093 76.3267 25.9722C75.9647 26.1351 75.6545 26.3439 75.3961 26.5987C75.1377 26.8535 74.9672 27.1435 74.8847 27.4689C74.8022 27.7944 74.8445 28.1427 75.0116 28.5141Z" fill="#FFF4E6"/>
<path d="M76.1597 33.3867L81.9422 32.0353L82.1428 32.8936L81.2694 33.0977L81.2835 33.158C81.5942 33.1965 81.8709 33.333 82.1136 33.5674C82.3564 33.8019 82.5182 34.0922 82.5991 34.4386C82.6144 34.5038 82.6322 34.5857 82.6525 34.6842C82.6729 34.7826 82.6865 34.8575 82.6932 34.9089L81.7897 35.1201C81.7901 35.0882 81.7853 35.0165 81.7751 34.9051C81.7681 34.7956 81.7508 34.6818 81.7232 34.5639C81.6575 34.2828 81.5399 34.0456 81.3703 33.8523C81.2038 33.6609 81.0027 33.5253 80.767 33.4454C80.5344 33.3674 80.2876 33.3589 80.0266 33.42L76.3674 34.2751L76.1597 33.3867Z" fill="#FFF4E6"/>
<path d="M75.1316 39.5143C75.125 39.3598 75.1321 39.2215 75.1527 39.0994C75.1707 38.9774 75.1904 38.8927 75.2116 38.8454L76.0248 39.0431C75.9775 39.2669 75.9652 39.4635 75.9879 39.6328C76.0105 39.8021 76.0929 39.9495 76.2349 40.0751C76.3745 40.2033 76.5973 40.3164 76.9032 40.4144L77.3739 40.5647L83.2449 38.1182L83.2868 39.107L78.6283 40.945L78.6309 41.0068L83.4281 42.4443L83.47 43.4331L76.5651 41.2026C76.2539 41.1023 75.9943 40.9727 75.7864 40.8138C75.5759 40.6551 75.417 40.467 75.3098 40.2497C75.2026 40.035 75.1432 39.7898 75.1316 39.5143Z" fill="#FFF4E6"/>
</svg>
