<svg width="24" height="24" viewBox="0 0 24 24" fill="none" xmlns="http://www.w3.org/2000/svg">
<path d="M20.5236 12.8909C20.7111 12.7034 20.8164 12.4491 20.8164 12.1839C20.8164 11.9188 20.7111 11.6645 20.5236 11.4769L14.8666 5.81994C14.7744 5.72443 14.664 5.64824 14.542 5.59584C14.42 5.54343 14.2888 5.51584 14.156 5.51469C14.0232 5.51353 13.8916 5.53883 13.7687 5.58912C13.6458 5.6394 13.5341 5.71365 13.4402 5.80754C13.3463 5.90143 13.2721 6.01309 13.2218 6.13598C13.1715 6.25888 13.1462 6.39056 13.1474 6.52334C13.1485 6.65612 13.1761 6.78734 13.2285 6.90934C13.2809 7.03134 13.3571 7.14169 13.4526 7.23394L17.4026 11.1839H4.15962C3.8944 11.1839 3.64005 11.2893 3.45251 11.4768C3.26498 11.6644 3.15962 11.9187 3.15962 12.1839C3.15962 12.4492 3.26498 12.7035 3.45251 12.891C3.64005 13.0786 3.8944 13.1839 4.15962 13.1839H17.4026L13.4526 17.1339C13.2705 17.3225 13.1697 17.5751 13.1719 17.8373C13.1742 18.0995 13.2794 18.3503 13.4648 18.5358C13.6502 18.7212 13.901 18.8263 14.1632 18.8286C14.4254 18.8309 14.678 18.7301 14.8666 18.5479L20.5236 12.8909Z" fill="#FFF4E6"/>
</svg>
