<svg width="24" height="24" viewBox="0 0 24 24" fill="none" xmlns="http://www.w3.org/2000/svg">
<g clip-path="url(#clip0_1363_6656)">
<path d="M3.47638 12.8909C3.28891 12.7034 3.18359 12.4491 3.18359 12.1839C3.18359 11.9188 3.28891 11.6645 3.47638 11.4769L9.13338 5.81994C9.22563 5.72443 9.33597 5.64824 9.45798 5.59584C9.57998 5.54343 9.7112 5.51584 9.84398 5.51469C9.97676 5.51353 10.1084 5.53883 10.2313 5.58912C10.3542 5.6394 10.4659 5.71365 10.5598 5.80754C10.6537 5.90143 10.7279 6.01309 10.7782 6.13598C10.8285 6.25888 10.8538 6.39056 10.8526 6.52334C10.8515 6.65612 10.8239 6.78734 10.7715 6.90934C10.7191 7.03134 10.6429 7.14169 10.5474 7.23394L6.59738 11.1839H19.8404C20.1056 11.1839 20.3599 11.2893 20.5475 11.4768C20.735 11.6644 20.8404 11.9187 20.8404 12.1839C20.8404 12.4492 20.735 12.7035 20.5475 12.891C20.3599 13.0786 20.1056 13.1839 19.8404 13.1839H6.59738L10.5474 17.1339C10.7295 17.3225 10.8303 17.5751 10.8281 17.8373C10.8258 18.0995 10.7206 18.3503 10.5352 18.5358C10.3498 18.7212 10.099 18.8263 9.83678 18.8286C9.57458 18.8309 9.32198 18.7301 9.13338 18.5479L3.47638 12.8909Z" fill="#FFF4E6"/>
</g>
<defs>
<clipPath id="clip0_1363_6656">
<rect width="24" height="24" fill="white" transform="matrix(-1 0 0 1 24 0)"/>
</clipPath>
</defs>
</svg>
