<svg width="26" height="36" viewBox="0 0 26 36" fill="none" xmlns="http://www.w3.org/2000/svg">
<path d="M15.5743 0.462402H10.424C7.77841 0.465356 5.24202 1.50774 3.3713 3.36086C1.50058 5.21398 0.448294 7.7265 0.445312 10.3472V25.6527C0.448294 28.2734 1.50058 30.7859 3.3713 32.6391C5.24202 34.4922 7.77841 35.5346 10.424 35.5375H15.5743C18.2199 35.5346 20.7563 34.4922 22.627 32.6391C24.4977 30.7859 25.55 28.2734 25.553 25.6527V10.3472C25.55 7.7265 24.4977 5.21398 22.627 3.36086C20.7563 1.50774 18.2199 0.465356 15.5743 0.462402ZM23.6216 25.6527C23.6191 27.7661 22.7704 29.7923 21.2618 31.2867C19.7532 32.7811 17.7078 33.6218 15.5743 33.6243H10.424C8.29051 33.6218 6.24512 32.7811 4.73651 31.2867C3.22789 29.7923 2.37923 27.7661 2.37667 25.6527V10.3472C2.37923 8.23378 3.22789 6.20764 4.73651 4.71322C6.24512 3.2188 8.29051 2.37812 10.424 2.37559H15.5743C17.7078 2.37812 19.7532 3.2188 21.2618 4.71322C22.7704 6.20764 23.6191 8.23378 23.6216 10.3472V25.6527ZM13.9648 10.1065V25.8903L16.1795 23.6981C16.3625 23.5291 16.6047 23.4371 16.8548 23.4415C17.105 23.4459 17.3437 23.5462 17.5206 23.7215C17.6976 23.8968 17.7989 24.1332 17.8033 24.3811C17.8077 24.6289 17.7149 24.8687 17.5443 25.0501L13.6816 28.8764C13.5005 29.0556 13.2551 29.1562 12.9992 29.1562C12.7433 29.1562 12.4978 29.0556 12.3167 28.8764L8.45402 25.0501C8.28344 24.8687 8.19058 24.6289 8.19499 24.3811C8.19941 24.1332 8.30076 23.8968 8.47769 23.7215C8.65462 23.5462 8.89331 23.4459 9.14349 23.4415C9.39367 23.4371 9.63579 23.5291 9.81885 23.6981L12.0335 25.8935V10.1097L9.81885 12.2987C9.63579 12.4676 9.39367 12.5596 9.14349 12.5552C8.89331 12.5509 8.65462 12.4505 8.47769 12.2752C8.30076 12.1 8.19941 11.8635 8.19499 11.6157C8.19058 11.3679 8.28344 11.128 8.45402 10.9467L12.3167 7.1203C12.4978 6.94116 12.7433 6.84054 12.9992 6.84054C13.2551 6.84054 13.5005 6.94116 13.6816 7.1203L17.5443 10.9467C17.6392 11.0342 17.7153 11.1399 17.7681 11.2572C17.8208 11.3745 17.8492 11.5012 17.8515 11.6297C17.8538 11.7581 17.8299 11.8857 17.7814 12.0048C17.7328 12.1239 17.6605 12.2321 17.5688 12.3229C17.4771 12.4138 17.3679 12.4854 17.2476 12.5335C17.1274 12.5816 16.9986 12.6052 16.8689 12.603C16.7393 12.6007 16.6114 12.5726 16.4929 12.5203C16.3745 12.468 16.2679 12.3926 16.1795 12.2987L13.9648 10.1065Z" fill="#FFF4E6"/>
</svg>
