<svg width="551" height="551" viewBox="0 0 551 551" fill="none" xmlns="http://www.w3.org/2000/svg">
<path d="M440.88 344.884C464.333 297.663 462.185 241.761 435.179 196.479L429.357 186.717C421.529 173.672 417.616 156.713 406.31 145.407C395.004 134.101 378.046 130.188 364.131 122.361C350.651 114.099 338.91 101.489 323.691 97.575C308.471 93.6614 291.513 98.4447 275.858 98.4447C260.204 98.4447 243.245 93.6614 228.026 97.575C212.807 101.489 201.066 114.099 187.151 121.926C173.671 130.188 156.712 134.101 145.407 145.407C134.101 156.713 130.187 173.672 122.36 187.587C114.098 201.067 101.488 212.807 97.5744 228.027C93.6608 243.246 98.4441 260.205 98.4441 275.859C98.4441 291.513 93.226 308.037 97.5744 323.691C101.488 338.911 114.098 350.651 121.925 364.566C130.187 378.046 134.101 395.005 145.407 406.311C156.712 417.617 173.671 421.53 187.586 429.357C201.501 437.184 213.242 449.795 228.461 453.708C243.68 457.622 260.639 452.839 276.293 452.839C291.947 452.839 308.471 458.057 324.126 453.708C339.345 449.795 351.086 437.184 365 429.357C378.046 421.53 395.004 417.617 406.31 406.311C417.616 395.005 432.4 361.957 432.4 361.957L440.88 344.884Z" fill="#DDA85F"/>
<path d="M430.217 344.657C453.669 297.436 451.521 241.535 424.515 196.252L422.253 192.459C414.992 180.358 411.362 164.628 400.875 154.141C390.388 143.654 374.658 140.024 361.751 132.763C349.247 125.1 338.356 113.403 324.239 109.773C310.122 106.143 294.392 110.579 279.871 110.579C265.351 110.579 249.62 106.143 235.503 109.773C221.386 113.403 210.495 125.1 197.588 132.36C185.085 140.024 169.354 143.654 158.867 154.141C148.38 164.628 144.75 180.358 137.49 193.265C129.826 205.769 118.129 216.66 114.499 230.777C110.869 244.894 115.306 260.624 115.306 275.145C115.306 289.665 110.465 304.993 114.499 319.513C118.129 333.63 129.826 344.521 137.086 357.428C144.75 369.931 148.38 385.662 158.867 396.149C169.354 406.636 185.085 410.266 197.992 417.526C210.899 424.787 221.789 436.484 235.906 440.114C250.023 443.744 265.754 439.307 280.274 439.307C294.795 439.307 310.122 444.147 324.643 440.114C338.76 436.484 349.65 424.787 362.557 417.526C374.658 410.266 390.388 406.636 400.875 396.149C411.362 385.662 425.076 355.008 425.076 355.008L430.217 344.657Z" fill="#F2CB7D"/>
<path d="M244.377 147.686C233.486 150.509 227.033 169.063 231.47 180.76C238.326 197.297 244.377 204.961 264.141 199.717C270.998 197.701 285.921 189.23 287.535 185.197C289.955 179.55 291.165 164.626 286.728 160.189C273.821 148.089 252.04 145.669 244.377 147.686Z" fill="#6D4934"/>
<path d="M246.394 149.704C238.731 151.721 231.471 173.501 242.361 181.972C257.285 193.669 283.502 165.031 277.855 159.384C268.175 149.704 252.041 148.091 246.394 149.704Z" fill="#A37F6A"/>
<path d="M304.475 357.024C311.735 361.057 325.852 355.007 329.483 346.537C335.129 333.63 335.533 325.966 322.222 318.303C317.382 315.883 304.475 311.849 301.652 313.059C297.215 315.076 288.341 322.336 288.341 327.176C288.341 340.89 299.232 354.201 304.475 357.024Z" fill="#6D4934"/>
<path d="M308.507 341.696C314.153 344.923 334.724 338.066 328.271 329.999C317.784 315.479 302.053 311.849 296.406 319.916C290.759 327.983 304.473 339.276 308.507 341.696Z" fill="#A37F6A"/>
<path d="M200.814 296.925C204.445 290.874 199.201 278.371 191.134 275.144C179.84 270.304 173.387 269.497 166.933 281.597C164.513 285.631 161.286 296.925 162.9 299.345C164.513 303.378 170.967 310.638 175 310.638C186.697 311.042 197.991 301.361 200.814 296.925Z" fill="#6D4934"/>
<path d="M197.586 286.438C200.41 282.001 178.226 270.304 173.385 278.371C165.722 292.488 164.109 294.102 167.739 296.925C175.402 301.362 195.166 289.665 197.586 286.438Z" fill="#A37F6A"/>
<path d="M383.128 325.967C377.078 322.337 364.575 327.58 361.348 335.647C356.508 346.941 362.961 355.814 375.868 359.848C386.759 363.478 400.069 350.974 400.472 346.537C400.472 334.437 387.565 328.79 383.128 325.967Z" fill="#6D4934"/>
<path d="M376.674 328.384C371.431 328.788 358.12 338.065 365.784 342.501C379.901 350.165 398.455 346.938 395.228 340.485C391.195 332.418 382.724 327.981 376.674 328.384Z" fill="#A37F6A"/>
<path d="M391 223.639C384.949 220.008 372.446 225.252 369.219 233.319C364.379 244.613 370.832 253.486 383.739 257.52C394.63 261.15 407.94 248.646 408.343 244.209C408.343 232.109 395.436 226.462 391 223.639Z" fill="#6D4934"/>
<path d="M384.545 226.056C379.302 226.459 365.991 235.736 373.655 240.173C387.772 247.836 406.326 244.61 403.099 238.156C399.066 230.089 390.595 225.652 384.545 226.056Z" fill="#A37F6A"/>
<path d="M306.607 173.711L322.579 173.711L322.579 189.684L306.607 189.684L306.607 173.711Z" fill="#6D4934"/>
<path d="M204.135 211.371L220.103 211.367L220.107 227.336L204.139 227.34L204.135 211.371Z" fill="#DDA85F"/>
<path d="M239.081 337.7H255.054V353.673H239.081V337.7Z" fill="#DDA85F"/>
<path d="M250.624 304.698H272.3V326.374H250.624V304.698Z" fill="#DDA85F"/>
<path d="M339.845 156.251L361.521 156.251L361.521 177.927L339.845 177.927L339.845 156.251Z" fill="#DDA85F"/>
<path d="M258.796 369.808L274.768 369.808L274.768 385.78L258.796 385.78L258.796 369.808Z" fill="#6D4934"/>
<path d="M335.775 356.984L351.748 356.984L351.748 372.957L335.775 372.957L335.775 356.984Z" fill="#6D4934"/>
<path d="M304.289 246.785L320.262 246.785L320.262 262.757L304.289 262.757L304.289 246.785Z" fill="#6D4934"/>
<path d="M349.144 285.021L357.13 285.021L357.13 293.007L349.144 293.007L349.144 285.021Z" fill="#6D4934"/>
<path d="M180.888 226.709L188.874 226.709L188.874 234.695L180.888 234.695L180.888 226.709Z" fill="#6D4934"/>
</svg>
