<svg width="661" height="658" viewBox="0 0 661 658" fill="none" xmlns="http://www.w3.org/2000/svg">
<path d="M213.523 454.364C249.875 492.553 303.14 509.654 354.928 499.764L366.093 497.632C381.028 494.739 398.303 496.861 412.793 490.104C427.284 483.347 436.762 468.749 448.876 458.351C461.25 448.51 477.116 441.79 485.999 428.827C494.882 415.864 496.187 398.292 501.541 383.582C506.895 368.872 517.19 354.572 518.718 338.932C520.246 323.292 512.411 307.946 509.815 292.193C506.662 276.7 508.785 259.426 502.028 244.935C495.271 230.444 480.673 220.967 470.274 208.852C460.433 196.478 453.713 180.613 440.75 171.73C427.787 162.847 410.216 161.542 395.505 156.188C380.795 150.833 367.053 140.279 350.855 139.011C335.215 137.483 319.87 145.317 304.117 147.913C288.624 151.066 271.349 148.944 256.859 155.701C242.368 162.458 232.89 177.055 220.776 187.454C208.662 197.853 192.796 204.572 183.913 217.535C175.031 230.498 173.725 248.07 168.371 262.781C163.017 277.491 152.462 291.233 151.194 307.431C149.666 323.071 157.501 338.416 160.097 354.169C162.99 369.105 160.867 386.379 167.624 400.87C174.382 415.361 200.38 440.557 200.38 440.557L213.523 454.364Z" fill="#DDA85F"/>
<path d="M217.384 444.421C253.735 482.61 307 499.711 358.788 489.821L363.127 488.992C376.981 486.309 393.004 488.278 406.446 482.01C419.887 475.742 428.678 462.202 439.915 452.556C451.393 443.428 466.11 437.195 474.349 425.17C482.589 413.146 483.8 396.847 488.766 383.202C493.732 369.557 503.282 356.293 504.699 341.785C506.116 327.278 498.849 313.044 496.441 298.432C493.516 284.061 495.485 268.038 489.217 254.596C482.949 241.155 469.409 232.364 459.764 221.127C450.635 209.649 444.402 194.933 432.378 186.693C420.354 178.453 404.054 177.243 390.41 172.276C376.765 167.31 364.017 157.519 348.993 156.343C334.486 154.926 320.251 162.193 305.64 164.601C291.269 167.526 275.245 165.557 261.804 171.825C248.363 178.093 239.571 191.633 228.334 201.278C217.098 210.924 202.381 217.157 194.142 229.181C185.902 241.205 184.691 257.505 179.725 271.15C174.759 284.794 164.968 297.542 163.792 312.566C162.375 327.073 169.642 341.308 172.05 355.92C174.733 369.773 172.765 385.797 179.032 399.238C185.3 412.679 209.415 436.051 209.415 436.051L217.384 444.421Z" fill="#F2CB7D"/>
<path d="M466.037 337.157C467.109 325.958 451.881 313.547 439.372 313.716C421.487 314.503 412.216 317.568 410.384 337.933C409.934 345.066 412.789 361.987 416.027 364.883C420.506 369.088 434.116 375.329 439.803 372.678C455.588 364.687 465.311 345.048 466.037 337.157Z" fill="#6D4934"/>
<path d="M463.451 338.363C464.177 330.472 446.193 316.2 434.509 323.536C418.413 333.56 436.356 367.991 443.594 364.616C456.001 358.83 463.036 344.221 463.451 338.363Z" fill="#A37F6A"/>
<path d="M248.769 322.033C242.495 327.476 243.352 342.811 250.07 349.119C260.267 358.84 267.331 361.84 279.085 351.954C283.014 348.233 291.219 337.484 291.048 334.417C290.67 329.558 286.883 318.736 282.334 317.081C269.448 312.39 253.215 318.072 248.769 322.033Z" fill="#6D4934"/>
<path d="M261.793 331.064C256.83 335.267 256.238 356.942 266.025 353.637C283.257 348.748 292.048 335.208 286.399 327.143C280.75 319.077 265.447 328.101 261.793 331.064Z" fill="#A37F6A"/>
<path d="M340.698 245.179C345.142 250.66 358.685 250.009 364.477 243.532C372.887 234.575 375.853 228.787 366.689 218.584C363.727 214.93 354.218 208.035 351.392 208.723C347.05 208.86 338.02 212.441 336.641 216.231C332.261 227.085 337.495 241.009 340.698 245.179Z" fill="#6D4934"/>
<path d="M351.657 245.733C354.86 249.904 373.439 233.058 367.514 225.751C356.869 213.721 355.905 211.653 352.01 214.099C345.22 219.783 349.452 242.355 351.657 245.733Z" fill="#A37F6A"/>
<path d="M251.053 406.565C256.533 402.121 255.882 388.578 249.405 382.787C240.448 374.376 229.902 377.405 221.698 388.154C214.562 397.146 221.759 413.931 225.79 415.827C237.161 419.966 246.882 409.768 251.053 406.565Z" fill="#6D4934"/>
<path d="M250.988 399.673C252.402 394.608 248.237 378.927 241.447 384.611C229.417 395.256 226.103 413.795 233.271 412.97C242.231 411.939 249.298 405.497 250.988 399.673Z" fill="#A37F6A"/>
<path d="M344.517 448.96C349.998 444.516 349.347 430.973 342.87 425.182C333.913 416.771 323.367 419.801 315.163 430.55C308.027 439.542 315.224 456.326 319.255 458.223C330.626 462.361 340.347 452.164 344.517 448.96Z" fill="#6D4934"/>
<path d="M344.453 442.069C345.867 437.004 341.702 421.323 334.912 427.007C322.882 437.652 319.568 456.19 326.736 455.365C335.696 454.334 342.762 447.892 344.453 442.069Z" fill="#A37F6A"/>
<path d="M420.297 386.732L414.834 401.741L399.825 396.279L405.288 381.269L420.297 386.732Z" fill="#6D4934"/>
<path d="M419.956 277.56L414.499 292.567L399.492 287.109L404.949 272.103L419.956 277.56Z" fill="#DDA85F"/>
<path d="M289.293 267.192L283.83 282.201L268.821 276.738L274.284 261.729L289.293 267.192Z" fill="#DDA85F"/>
<path d="M316.357 289.326L308.944 309.695L288.575 302.281L295.989 281.913L316.357 289.326Z" fill="#DDA85F"/>
<path d="M425.337 423.938L417.923 444.307L397.555 436.893L404.968 416.524L425.337 423.938Z" fill="#DDA85F"/>
<path d="M252.379 274.737L246.916 289.746L231.907 284.283L237.37 269.274L252.379 274.737Z" fill="#6D4934"/>
<path d="M238.1 351.46L232.637 366.469L217.628 361.007L223.091 345.997L238.1 351.46Z" fill="#6D4934"/>
<path d="M352.423 359.563L346.96 374.572L331.951 369.11L337.414 354.1L352.423 359.563Z" fill="#6D4934"/>
<path d="M301.152 388.634L298.42 396.139L290.915 393.408L293.647 385.903L301.152 388.634Z" fill="#6D4934"/>
<path d="M413.493 250.47L410.762 257.974L403.257 255.243L405.989 247.738L413.493 250.47Z" fill="#6D4934"/>
</svg>
