<svg width="659" height="665" viewBox="0 0 659 665" fill="none" xmlns="http://www.w3.org/2000/svg">
<path d="M213.481 461.696C249.897 499.953 303.258 517.085 355.138 507.177L366.322 505.041C381.284 502.142 398.59 504.269 413.106 497.5C427.623 490.73 437.118 476.107 449.254 465.69C461.65 455.831 477.544 449.099 486.442 436.113C495.341 423.127 496.649 405.524 502.012 390.787C507.376 376.051 517.689 361.725 519.22 346.057C520.75 330.389 512.902 315.016 510.302 299.236C507.143 283.715 509.269 266.41 502.5 251.893C495.731 237.376 481.107 227.882 470.69 215.746C460.831 203.35 454.099 187.456 441.113 178.557C428.127 169.659 410.524 168.351 395.788 162.987C381.051 157.624 367.284 147.05 351.058 145.78C335.39 144.249 320.017 152.097 304.236 154.698C288.715 157.857 271.41 155.73 256.893 162.5C242.377 169.269 232.882 183.892 220.746 194.31C208.61 204.727 192.717 211.458 183.818 224.445C174.919 237.431 179.928 249.849 174.565 264.585C169.201 279.322 173.469 303.952 172.199 320.178C170.668 335.846 165.647 351.71 168.248 367.491C171.146 382.453 165.43 395.556 172.199 410.072C178.968 424.589 200.314 447.864 200.314 447.864L213.481 461.696Z" fill="#DDA85F"/>
<path d="M217.349 451.735C253.765 489.992 307.125 507.124 359.006 497.216L363.352 496.386C377.231 493.697 393.283 495.67 406.748 489.391C420.213 483.112 429.02 469.547 440.277 459.885C451.776 450.74 466.518 444.496 474.773 432.45C483.027 420.404 484.24 404.076 489.215 390.407C494.19 376.738 503.757 363.45 505.176 348.916C506.596 334.383 499.316 320.123 496.904 305.485C493.974 291.089 495.946 275.037 489.667 261.572C483.388 248.106 469.824 239.299 460.161 228.042C451.016 216.544 444.772 201.801 432.727 193.547C420.681 185.293 404.352 184.08 390.683 179.105C377.014 174.129 364.244 164.321 349.193 163.143C334.66 161.724 320.4 169.004 305.762 171.416C291.366 174.346 275.314 172.373 261.848 178.652C248.383 184.931 239.576 198.496 228.319 208.159C217.062 217.821 202.319 224.065 194.065 236.111C185.811 248.157 181.511 271.024 176.536 284.693C171.561 298.362 184.023 304.732 182.844 319.783C181.425 334.317 174.124 344.967 176.536 359.605C179.225 373.483 172.65 393.006 178.929 406.471C185.208 419.937 209.366 443.35 209.366 443.35L217.349 451.735Z" fill="#F2CB7D"/>
<path d="M466.444 344.279C467.518 333.06 452.263 320.628 439.731 320.797C421.814 321.585 412.527 324.655 410.692 345.057C410.241 352.203 413.101 369.154 416.345 372.055C420.832 376.268 434.466 382.52 440.163 379.864C455.976 371.859 465.717 352.185 466.444 344.279Z" fill="#6D4934"/>
<path d="M463.854 345.488C464.581 337.582 446.565 323.285 434.86 330.635C418.735 340.676 436.711 375.168 443.962 371.787C456.391 365.991 463.438 351.356 463.854 345.488Z" fill="#A37F6A"/>
<path d="M248.789 329.129C242.504 334.581 243.363 349.944 250.093 356.263C260.308 366.001 267.384 369.007 279.159 359.102C283.096 355.375 291.315 344.607 291.143 341.534C290.765 336.667 286.971 325.826 282.414 324.167C269.505 319.469 253.243 325.16 248.789 329.129Z" fill="#6D4934"/>
<path d="M261.836 338.176C256.863 342.386 256.27 364.1 266.075 360.789C283.338 355.892 292.145 342.328 286.486 334.248C280.826 326.168 265.496 335.208 261.836 338.176Z" fill="#A37F6A"/>
<path d="M340.882 252.138C345.333 257.628 358.901 256.976 364.702 250.488C373.128 241.514 376.099 235.716 366.919 225.495C363.951 221.834 354.425 214.927 351.594 215.617C347.245 215.754 338.199 219.341 336.817 223.138C332.429 234.011 337.673 247.96 340.882 252.138Z" fill="#6D4934"/>
<path d="M351.86 252.692C355.07 256.871 373.682 239.995 367.746 232.675C357.083 220.623 356.117 218.552 352.215 221.002C345.412 226.696 349.652 249.309 351.86 252.692Z" fill="#A37F6A"/>
<path d="M251.076 413.81C256.566 409.358 255.914 395.791 249.426 389.989C240.453 381.564 229.888 384.598 221.669 395.367C214.52 404.375 221.73 421.189 225.769 423.089C237.16 427.235 246.898 417.019 251.076 413.81Z" fill="#6D4934"/>
<path d="M251.012 406.906C252.429 401.832 248.257 386.124 241.454 391.818C229.403 402.481 226.083 421.053 233.264 420.227C242.24 419.194 249.319 412.74 251.012 406.906Z" fill="#A37F6A"/>
<path d="M344.708 456.281C350.198 451.829 349.546 438.262 343.058 432.461C334.085 424.035 323.52 427.07 315.301 437.838C308.152 446.846 315.362 463.66 319.401 465.56C330.792 469.706 340.53 459.49 344.708 456.281Z" fill="#6D4934"/>
<path d="M344.644 449.378C346.061 444.304 341.888 428.595 335.086 434.289C323.035 444.953 319.715 463.525 326.896 462.698C335.872 461.665 342.951 455.212 344.644 449.378Z" fill="#A37F6A"/>
<path d="M420.624 393.944L415.151 408.98L400.115 403.507L405.588 388.471L420.624 393.944Z" fill="#6D4934"/>
<path d="M420.281 284.577L414.813 299.61L399.78 294.143L405.247 279.109L420.281 284.577Z" fill="#DDA85F"/>
<path d="M289.386 274.189L283.914 289.225L268.878 283.752L274.35 268.716L289.386 274.189Z" fill="#DDA85F"/>
<path d="M316.498 296.364L309.071 316.769L288.666 309.342L296.093 288.937L316.498 296.364Z" fill="#DDA85F"/>
<path d="M425.671 431.215L418.244 451.62L397.839 444.194L405.266 423.789L425.671 431.215Z" fill="#DDA85F"/>
<path d="M252.407 281.748L246.934 296.784L231.898 291.311L237.371 276.275L252.407 281.748Z" fill="#6D4934"/>
<path d="M238.102 358.608L232.629 373.644L217.593 368.171L223.066 353.135L238.102 358.608Z" fill="#6D4934"/>
<path d="M352.628 366.726L347.156 381.762L332.12 376.289L337.592 361.253L352.628 366.726Z" fill="#6D4934"/>
<path d="M301.266 395.849L298.53 403.367L291.012 400.631L293.748 393.113L301.266 395.849Z" fill="#6D4934"/>
<path d="M413.809 257.438L411.073 264.956L403.555 262.219L406.291 254.701L413.809 257.438Z" fill="#6D4934"/>
</svg>
