<svg width="40" height="32" viewBox="0 0 40 32" fill="none" xmlns="http://www.w3.org/2000/svg">
<path d="M8 32L11 24.5C11.3 23.7333 11.7833 23.1247 12.45 22.674C13.1167 22.2233 13.8667 21.9987 14.7 22H18V13.95C12.9 13.7833 8.62467 13.0333 5.174 11.7C1.72333 10.3667 -0.00133256 8.8 7.72499e-07 7C7.72499e-07 5.06667 1.95 3.41667 5.85 2.05C9.75 0.683334 14.4667 0 20 0C25.5667 0 30.292 0.683334 34.176 2.05C38.06 3.41667 40.0013 5.06667 40 7C40 8.8 38.2747 10.3667 34.824 11.7C31.3733 13.0333 27.0987 13.7833 22 13.95V22H25.3C26.1 22 26.842 22.2253 27.526 22.676C28.21 23.1267 28.7013 23.7347 29 24.5L32 32H28L25.6 26H14.4L12 32H8Z" fill="#FF9500"/>
</svg>
