<svg width="20" height="20" viewBox="0 0 20 20" fill="none" xmlns="http://www.w3.org/2000/svg">
<path d="M19.25 9.9994H6.895M2.534 9.9994H0.75M2.534 9.9994C2.534 9.42123 2.76368 8.86674 3.17251 8.45791C3.58134 8.04908 4.13583 7.8194 4.714 7.8194C5.29217 7.8194 5.84666 8.04908 6.25549 8.45791C6.66432 8.86674 6.894 9.42123 6.894 9.9994C6.894 10.5776 6.66432 11.1321 6.25549 11.5409C5.84666 11.9497 5.29217 12.1794 4.714 12.1794C4.13583 12.1794 3.58134 11.9497 3.17251 11.5409C2.76368 11.1321 2.534 10.5776 2.534 9.9994ZM19.25 16.6064H13.502M13.502 16.6064C13.502 17.1847 13.2718 17.7398 12.8628 18.1487C12.4539 18.5577 11.8993 18.7874 11.321 18.7874C10.7428 18.7874 10.1883 18.5567 9.77951 18.1479C9.37068 17.7391 9.141 17.1846 9.141 16.6064M13.502 16.6064C13.502 16.0281 13.2718 15.474 12.8628 15.0651C12.4539 14.6561 11.8993 14.4264 11.321 14.4264C10.7428 14.4264 10.1883 14.6561 9.77951 15.0649C9.37068 15.4737 9.141 16.0282 9.141 16.6064M9.141 16.6064H0.75M19.25 3.3924H16.145M11.784 3.3924H0.75M11.784 3.3924C11.784 2.81423 12.0137 2.25974 12.4225 1.85091C12.8313 1.44208 13.3858 1.2124 13.964 1.2124C14.2503 1.2124 14.5338 1.26879 14.7983 1.37835C15.0627 1.4879 15.3031 1.64848 15.5055 1.85091C15.7079 2.05334 15.8685 2.29366 15.9781 2.55815C16.0876 2.82264 16.144 3.10612 16.144 3.3924C16.144 3.67868 16.0876 3.96216 15.9781 4.22665C15.8685 4.49114 15.7079 4.73146 15.5055 4.93389C15.3031 5.13633 15.0627 5.2969 14.7983 5.40646C14.5338 5.51602 14.2503 5.5724 13.964 5.5724C13.3858 5.5724 12.8313 5.34272 12.4225 4.93389C12.0137 4.52507 11.784 3.97057 11.784 3.3924Z" stroke="white" stroke-width="1.5" stroke-miterlimit="10" stroke-linecap="round"/>
</svg>
