<svg width="45" height="48" viewBox="0 0 45 48" fill="none" xmlns="http://www.w3.org/2000/svg">
<path d="M17.04 0C16.7854 0 16.5412 0.101143 16.3612 0.281177C16.1811 0.461212 16.08 0.705392 16.08 0.96V2.88C16.08 3.13461 16.1811 3.37879 16.3612 3.55882C16.5412 3.73886 16.7854 3.84 17.04 3.84H18.48V6.3816C8.09472 7.5768 0 16.4203 0 27.12C0 38.6318 9.36816 48 20.88 48C32.3918 48 41.76 38.6318 41.76 27.12C41.7639 23.1797 40.645 19.32 38.5344 15.9926L40.5686 14.3458L41.4749 15.4651C41.5542 15.5631 41.652 15.6446 41.7628 15.7048C41.8735 15.765 41.9951 15.8028 42.1205 15.8161C42.2459 15.8293 42.3726 15.8177 42.4935 15.782C42.6144 15.7462 42.7271 15.687 42.8251 15.6077L44.3179 14.399C44.5155 14.2387 44.6414 14.0065 44.6679 13.7534C44.6943 13.5003 44.6192 13.247 44.459 13.0493L39.6264 7.08C39.5471 6.98197 39.4493 6.90053 39.3385 6.84031C39.2277 6.78009 39.1062 6.74229 38.9808 6.72905C38.8554 6.71581 38.7287 6.7274 38.6078 6.76315C38.4869 6.79891 38.3742 6.85813 38.2762 6.93744L36.7834 8.14608C36.5857 8.30641 36.4599 8.53865 36.4334 8.79175C36.4069 9.04485 36.4821 9.2981 36.6422 9.49584L37.549 10.6152L35.5234 12.2539C32.2896 9.06768 28.0238 6.9288 23.28 6.38256V3.84H24.72C24.9746 3.84 25.2188 3.73886 25.3988 3.55882C25.5789 3.37879 25.68 3.13461 25.68 2.88V0.96C25.68 0.705392 25.5789 0.461212 25.3988 0.281177C25.2188 0.101143 24.9746 0 24.72 0L17.04 0ZM20.88 9.6C30.576 9.6 38.4 17.424 38.4 27.12C38.4 36.816 30.576 44.64 20.88 44.64C11.184 44.64 3.36 36.816 3.36 27.12C3.36 17.424 11.184 9.6 20.88 9.6ZM20.881 13.1726L20.88 27.12L20.881 41C34.7693 39.5 34.5355 30.9588 34.7693 28.3787C35.0031 25.7986 34.5138 23.2044 33.3562 20.8867C32.1981 18.5694 30.4177 16.6203 28.2143 15.2579C26.0108 13.8954 23.4716 13.1731 20.881 13.1726Z" fill="#FF9500"/>
</svg>
