<svg width="45" height="48" viewBox="0 0 45 48" fill="none" xmlns="http://www.w3.org/2000/svg">
<path d="M17.1591 0C16.9045 0 16.6604 0.101143 16.4803 0.281177C16.3003 0.461212 16.1991 0.705392 16.1991 0.96V2.88C16.1991 3.13461 16.3003 3.37879 16.4803 3.55882C16.6604 3.73886 16.9045 3.84 17.1591 3.84H18.5991V6.3816C8.21386 7.5768 0.119141 16.4203 0.119141 27.12C0.119141 38.6318 9.4873 48 20.9991 48C32.511 48 41.8791 38.6318 41.8791 27.12C41.883 23.1798 40.7641 19.32 38.6535 15.9926L40.6878 14.3458L41.594 15.4651C41.6733 15.5631 41.7711 15.6446 41.8819 15.7048C41.9927 15.765 42.1142 15.8028 42.2396 15.8161C42.365 15.8293 42.4918 15.8177 42.6127 15.782C42.7336 15.7462 42.8462 15.687 42.9443 15.6077L44.4371 14.399C44.6347 14.2387 44.7606 14.0065 44.787 13.7534C44.8135 13.5003 44.7384 13.247 44.5782 13.0493L39.7455 7.08C39.6663 6.98197 39.5684 6.90053 39.4577 6.84031C39.3469 6.78009 39.2253 6.74229 39.0999 6.72905C38.9746 6.71581 38.8478 6.7274 38.7269 6.76315C38.606 6.79891 38.4933 6.85813 38.3953 6.93744L36.9025 8.14608C36.7049 8.30641 36.579 8.53865 36.5526 8.79175C36.5261 9.04485 36.6012 9.2981 36.7614 9.49584L37.6681 10.6152L35.6425 12.2539C32.4087 9.06768 28.143 6.9288 23.3991 6.38256V3.84H24.8391C25.0938 3.84 25.3379 3.73886 25.518 3.55882C25.698 3.37879 25.7991 3.13461 25.7991 2.88V0.96C25.7991 0.705392 25.698 0.461212 25.518 0.281177C25.3379 0.101143 25.0938 0 24.8391 0L17.1591 0ZM20.9991 9.6C30.6951 9.6 38.5191 17.424 38.5191 27.12C38.5191 36.816 30.6951 44.64 20.9991 44.64C11.3031 44.64 3.47914 36.816 3.47914 27.12C3.47914 17.424 11.3031 9.6 20.9991 9.6ZM21.0001 13.1726L20.9991 27.12L32.1515 35.4946C33.7069 33.4228 34.6546 30.9588 34.8885 28.3787C35.1223 25.7986 34.6329 23.2044 33.4753 20.8867C32.3173 18.5694 30.5368 16.6203 28.3334 15.2579C26.13 13.8954 23.5907 13.1731 21.0001 13.1726Z" fill="#FF9500"/>
</svg>
