<svg width="48" height="48" viewBox="0 0 48 48" fill="none" xmlns="http://www.w3.org/2000/svg">
<rect width="48" height="48" rx="16" fill="#151716"/>
<path d="M30.5322 18.6445C30.5322 18.3794 30.4268 18.1251 30.2393 17.9376C30.0518 17.7501 29.7975 17.6447 29.5324 17.6447L21.5322 17.6447C21.3994 17.6424 21.2675 17.6665 21.1442 17.7157C21.0209 17.765 20.9086 17.8382 20.8139 17.9313C20.7192 18.0244 20.6439 18.1354 20.5926 18.2578C20.5412 18.3803 20.5148 18.5118 20.5148 18.6445C20.5148 18.7773 20.5412 18.9088 20.5926 19.0312C20.6439 19.1537 20.7192 19.2647 20.8139 19.3578C20.9086 19.4508 21.0209 19.5241 21.1442 19.5733C21.2675 19.6225 21.3994 19.6467 21.5322 19.6444L27.1183 19.6444L17.7541 29.0086C17.5666 29.1961 17.4612 29.4505 17.4612 29.7157C17.4612 29.9809 17.5666 30.2353 17.7541 30.4228C17.9416 30.6103 18.196 30.7157 18.4612 30.7157C18.7264 30.7157 18.9808 30.6103 19.1683 30.4228L28.5325 21.0586L28.5325 26.6447C28.5371 26.9069 28.6444 27.1568 28.8314 27.3406C29.0185 27.5244 29.2702 27.6274 29.5324 27.6274C29.7946 27.6274 30.0463 27.5244 30.2333 27.3406C30.4203 27.1568 30.5277 26.9069 30.5322 26.6447L30.5322 18.6445Z" fill="#FFF4E6"/>
</svg>
