<svg width="19" height="15" viewBox="0 0 19 15" fill="none" xmlns="http://www.w3.org/2000/svg">
<path d="M17.9914 8.20466C18.1789 8.01713 18.2842 7.76282 18.2842 7.49766C18.2842 7.23249 18.1789 6.97818 17.9914 6.79066L12.3344 1.13366C12.2421 1.03815 12.1318 0.961965 12.0098 0.909556C11.8878 0.857147 11.7566 0.829561 11.6238 0.828407C11.491 0.827253 11.3593 0.852555 11.2364 0.902836C11.1135 0.953117 11.0019 1.02737 10.908 1.12126C10.8141 1.21516 10.7399 1.32681 10.6896 1.4497C10.6393 1.5726 10.614 1.70428 10.6151 1.83706C10.6163 1.96984 10.6439 2.10106 10.6963 2.22306C10.7487 2.34507 10.8249 2.45541 10.9204 2.54766L14.8704 6.49766H1.62739C1.36218 6.49766 1.10782 6.60301 0.920287 6.79055C0.732751 6.97809 0.627395 7.23244 0.627395 7.49766C0.627395 7.76287 0.732751 8.01723 0.920287 8.20476C1.10782 8.3923 1.36218 8.49766 1.62739 8.49766H14.8704L10.9204 12.4477C10.7382 12.6363 10.6374 12.8889 10.6397 13.1511C10.642 13.4133 10.7472 13.6641 10.9326 13.8495C11.118 14.0349 11.3688 14.1401 11.631 14.1423C11.8932 14.1446 12.1458 14.0438 12.3344 13.8617L17.9914 8.20466Z" fill="#FFF4E6"/>
</svg>
