<svg width="25" height="25" viewBox="0 0 25 25" fill="none" xmlns="http://www.w3.org/2000/svg">
<path d="M22.5555 10.5415H21.75V10.5H12.75V14.5H18.4015C17.577 16.8285 15.3615 18.5 12.75 18.5C9.4365 18.5 6.75 15.8135 6.75 12.5C6.75 9.1865 9.4365 6.5 12.75 6.5C14.2795 6.5 15.671 7.077 16.7305 8.0195L19.559 5.191C17.773 3.5265 15.384 2.5 12.75 2.5C7.2275 2.5 2.75 6.9775 2.75 12.5C2.75 18.0225 7.2275 22.5 12.75 22.5C18.2725 22.5 22.75 18.0225 22.75 12.5C22.75 11.8295 22.681 11.175 22.5555 10.5415Z" fill="#FFC107"/>
<path d="M3.90283 7.8455L7.18833 10.255C8.07733 8.054 10.2303 6.5 12.7498 6.5C14.2793 6.5 15.6708 7.077 16.7303 8.0195L19.5588 5.191C17.7728 3.5265 15.3838 2.5 12.7498 2.5C8.90883 2.5 5.57783 4.6685 3.90283 7.8455Z" fill="#FF3D00"/>
<path d="M12.7502 22.5001C15.3332 22.5001 17.6802 21.5116 19.4547 19.9041L16.3597 17.2851C15.3221 18.0746 14.0539 18.5015 12.7502 18.5001C10.1492 18.5001 7.94066 16.8416 7.10866 14.5271L3.84766 17.0396C5.50266 20.2781 8.86366 22.5001 12.7502 22.5001Z" fill="#4CAF50"/>
<path d="M22.5555 10.5415H21.75V10.5H12.75V14.5H18.4015C18.0071 15.6082 17.2967 16.5766 16.358 17.2855L16.3595 17.2845L19.4545 19.9035C19.2355 20.1025 22.75 17.5 22.75 12.5C22.75 11.8295 22.681 11.175 22.5555 10.5415Z" fill="#1976D2"/>
</svg>
