<svg width="25" height="25" viewBox="0 0 25 25" fill="none" xmlns="http://www.w3.org/2000/svg">
<path d="M18.9598 20C18.1298 21.24 17.2498 22.45 15.9098 22.47C14.5698 22.5 14.1398 21.68 12.6198 21.68C11.0898 21.68 10.6198 22.45 9.34985 22.5C8.03985 22.55 7.04985 21.18 6.20985 19.97C4.49985 17.5 3.18985 12.95 4.94985 9.89C5.81985 8.37 7.37985 7.41 9.06985 7.38C10.3498 7.36 11.5698 8.25 12.3598 8.25C13.1398 8.25 14.6198 7.18 16.1698 7.34C16.8198 7.37 18.6398 7.6 19.8098 9.32C19.7198 9.38 17.6398 10.6 17.6598 13.13C17.6898 16.15 20.3098 17.16 20.3398 17.17C20.3098 17.24 19.9198 18.61 18.9598 20ZM13.2498 4C13.9798 3.17 15.1898 2.54 16.1898 2.5C16.3198 3.67 15.8498 4.85 15.1498 5.69C14.4598 6.54 13.3198 7.2 12.1998 7.11C12.0498 5.96 12.6098 4.76 13.2498 4Z" fill="black"/>
</svg>
